%TF.GenerationSoftware,KiCad,Pcbnew,5.1.6-c6e7f7d~87~ubuntu18.04.1*%
%TF.CreationDate,2020-10-10T13:50:59+08:00*%
%TF.ProjectId,Arduino_codec,41726475-696e-46f5-9f63-6f6465632e6b,A*%
%TF.SameCoordinates,Original*%
%TF.FileFunction,Soldermask,Bot*%
%TF.FilePolarity,Negative*%
%FSLAX46Y46*%
G04 Gerber Fmt 4.6, Leading zero omitted, Abs format (unit mm)*
G04 Created by KiCad (PCBNEW 5.1.6-c6e7f7d~87~ubuntu18.04.1) date 2020-10-10 13:50:59*
%MOMM*%
%LPD*%
G01*
G04 APERTURE LIST*
%ADD10R,2.300000X2.300000*%
%ADD11C,1.200000*%
%ADD12C,2.300000*%
%ADD13O,1.800000X1.800000*%
%ADD14R,1.800000X1.800000*%
G04 APERTURE END LIST*
D10*
%TO.C,J10*%
X119380000Y-142240000D03*
D11*
X119380000Y-144780000D03*
D12*
X121920000Y-142240000D03*
D11*
X121920000Y-144780000D03*
%TD*%
D10*
%TO.C,J9*%
X127000000Y-142240000D03*
D11*
X127000000Y-144780000D03*
D12*
X129540000Y-142240000D03*
D11*
X129540000Y-144780000D03*
%TD*%
D10*
%TO.C,J8*%
X157480000Y-142240000D03*
D11*
X157480000Y-144780000D03*
D12*
X160020000Y-142240000D03*
D11*
X160020000Y-144780000D03*
%TD*%
D10*
%TO.C,J7*%
X165100000Y-142240000D03*
D11*
X165100000Y-144780000D03*
D12*
X167640000Y-142240000D03*
D11*
X167640000Y-144780000D03*
%TD*%
D13*
%TO.C,J6*%
X167640000Y-132080000D03*
X165100000Y-132080000D03*
X167640000Y-129540000D03*
X165100000Y-129540000D03*
X167640000Y-127000000D03*
X165100000Y-127000000D03*
X167640000Y-124460000D03*
X165100000Y-124460000D03*
X167640000Y-121920000D03*
X165100000Y-121920000D03*
X167640000Y-119380000D03*
X165100000Y-119380000D03*
X167640000Y-116840000D03*
X165100000Y-116840000D03*
X167640000Y-114300000D03*
X165100000Y-114300000D03*
X167640000Y-111760000D03*
X165100000Y-111760000D03*
X167640000Y-109220000D03*
X165100000Y-109220000D03*
X167640000Y-106680000D03*
X165100000Y-106680000D03*
X167640000Y-104140000D03*
X165100000Y-104140000D03*
X167640000Y-101600000D03*
X165100000Y-101600000D03*
X167640000Y-99060000D03*
X165100000Y-99060000D03*
X167640000Y-96520000D03*
X165100000Y-96520000D03*
X167640000Y-93980000D03*
X165100000Y-93980000D03*
X167640000Y-91440000D03*
D14*
X165100000Y-91440000D03*
%TD*%
D13*
%TO.C,J5*%
X121920000Y-132080000D03*
X119380000Y-132080000D03*
X121920000Y-129540000D03*
X119380000Y-129540000D03*
X121920000Y-127000000D03*
X119380000Y-127000000D03*
X121920000Y-124460000D03*
X119380000Y-124460000D03*
X121920000Y-121920000D03*
X119380000Y-121920000D03*
X121920000Y-119380000D03*
X119380000Y-119380000D03*
X121920000Y-116840000D03*
X119380000Y-116840000D03*
X121920000Y-114300000D03*
X119380000Y-114300000D03*
X121920000Y-111760000D03*
X119380000Y-111760000D03*
X121920000Y-109220000D03*
X119380000Y-109220000D03*
X121920000Y-106680000D03*
X119380000Y-106680000D03*
X121920000Y-104140000D03*
X119380000Y-104140000D03*
X121920000Y-101600000D03*
X119380000Y-101600000D03*
X121920000Y-99060000D03*
X119380000Y-99060000D03*
X121920000Y-96520000D03*
D14*
X119380000Y-96520000D03*
%TD*%
D13*
%TO.C,J4*%
X167640000Y-87630000D03*
X165100000Y-87630000D03*
X167640000Y-85090000D03*
X165100000Y-85090000D03*
X167640000Y-82550000D03*
X165100000Y-82550000D03*
X167640000Y-80010000D03*
X165100000Y-80010000D03*
X167640000Y-77470000D03*
X165100000Y-77470000D03*
X167640000Y-74930000D03*
X165100000Y-74930000D03*
X167640000Y-72390000D03*
X165100000Y-72390000D03*
X167640000Y-69850000D03*
X165100000Y-69850000D03*
X167640000Y-67310000D03*
X165100000Y-67310000D03*
X167640000Y-64770000D03*
D14*
X165100000Y-64770000D03*
%TD*%
D13*
%TO.C,J3*%
X121920000Y-91440000D03*
X119380000Y-91440000D03*
X121920000Y-88900000D03*
X119380000Y-88900000D03*
X121920000Y-86360000D03*
X119380000Y-86360000D03*
X121920000Y-83820000D03*
X119380000Y-83820000D03*
X121920000Y-81280000D03*
X119380000Y-81280000D03*
X121920000Y-78740000D03*
X119380000Y-78740000D03*
X121920000Y-76200000D03*
X119380000Y-76200000D03*
X121920000Y-73660000D03*
D14*
X119380000Y-73660000D03*
%TD*%
D11*
%TO.C,J2*%
X119380000Y-50800000D03*
D12*
X119380000Y-53340000D03*
D11*
X121920000Y-50800000D03*
D12*
X121920000Y-53340000D03*
D11*
X124460000Y-50800000D03*
D10*
X124460000Y-53340000D03*
%TD*%
%TO.C,J1*%
X167640000Y-53340000D03*
D11*
X167640000Y-50800000D03*
D12*
X165100000Y-53340000D03*
D11*
X165100000Y-50800000D03*
%TD*%
M02*
