%TF.GenerationSoftware,KiCad,Pcbnew,5.1.6-c6e7f7d~87~ubuntu18.04.1*%
%TF.CreationDate,2020-10-10T13:50:59+08:00*%
%TF.ProjectId,Arduino_codec,41726475-696e-46f5-9f63-6f6465632e6b,A*%
%TF.SameCoordinates,Original*%
%TF.FileFunction,Soldermask,Top*%
%TF.FilePolarity,Negative*%
%FSLAX46Y46*%
G04 Gerber Fmt 4.6, Leading zero omitted, Abs format (unit mm)*
G04 Created by KiCad (PCBNEW 5.1.6-c6e7f7d~87~ubuntu18.04.1) date 2020-10-10 13:50:59*
%MOMM*%
%LPD*%
G01*
G04 APERTURE LIST*
%ADD10R,1.850000X0.550000*%
%ADD11R,9.500000X10.900000*%
%ADD12R,4.700000X0.900000*%
%ADD13R,10.900000X9.500000*%
%ADD14R,0.900000X4.700000*%
%ADD15R,0.750000X1.660000*%
%ADD16R,0.900000X1.000000*%
%ADD17R,1.000000X0.900000*%
%ADD18R,2.300000X2.300000*%
%ADD19C,1.200000*%
%ADD20C,2.300000*%
%ADD21O,1.800000X1.800000*%
%ADD22R,1.800000X1.800000*%
%ADD23R,2.600000X1.900000*%
G04 APERTURE END LIST*
D10*
%TO.C,U5*%
X151301000Y-115663000D03*
X151301000Y-116313000D03*
X151301000Y-116963000D03*
X151301000Y-117613000D03*
X151301000Y-118263000D03*
X151301000Y-118913000D03*
X151301000Y-119563000D03*
X151301000Y-120213000D03*
X151301000Y-120863000D03*
X151301000Y-121513000D03*
X151301000Y-122163000D03*
X151301000Y-122813000D03*
X151301000Y-123463000D03*
X151301000Y-124113000D03*
X144101000Y-124113000D03*
X144101000Y-123463000D03*
X144101000Y-122813000D03*
X144101000Y-122163000D03*
X144101000Y-121513000D03*
X144101000Y-120863000D03*
X144101000Y-120213000D03*
X144101000Y-119563000D03*
X144101000Y-118913000D03*
X144101000Y-118263000D03*
X144101000Y-117613000D03*
X144101000Y-116963000D03*
X144101000Y-116313000D03*
X144101000Y-115663000D03*
%TD*%
%TO.C,C47*%
G36*
G01*
X145182000Y-126920191D02*
X145182000Y-126317809D01*
G75*
G02*
X145455809Y-126044000I273809J0D01*
G01*
X146308191Y-126044000D01*
G75*
G02*
X146582000Y-126317809I0J-273809D01*
G01*
X146582000Y-126920191D01*
G75*
G02*
X146308191Y-127194000I-273809J0D01*
G01*
X145455809Y-127194000D01*
G75*
G02*
X145182000Y-126920191I0J273809D01*
G01*
G37*
G36*
G01*
X143232000Y-126920191D02*
X143232000Y-126317809D01*
G75*
G02*
X143505809Y-126044000I273809J0D01*
G01*
X144358191Y-126044000D01*
G75*
G02*
X144632000Y-126317809I0J-273809D01*
G01*
X144632000Y-126920191D01*
G75*
G02*
X144358191Y-127194000I-273809J0D01*
G01*
X143505809Y-127194000D01*
G75*
G02*
X143232000Y-126920191I0J273809D01*
G01*
G37*
%TD*%
%TO.C,C45*%
G36*
G01*
X142033191Y-115930000D02*
X141430809Y-115930000D01*
G75*
G02*
X141157000Y-115656191I0J273809D01*
G01*
X141157000Y-114803809D01*
G75*
G02*
X141430809Y-114530000I273809J0D01*
G01*
X142033191Y-114530000D01*
G75*
G02*
X142307000Y-114803809I0J-273809D01*
G01*
X142307000Y-115656191D01*
G75*
G02*
X142033191Y-115930000I-273809J0D01*
G01*
G37*
G36*
G01*
X142033191Y-117880000D02*
X141430809Y-117880000D01*
G75*
G02*
X141157000Y-117606191I0J273809D01*
G01*
X141157000Y-116753809D01*
G75*
G02*
X141430809Y-116480000I273809J0D01*
G01*
X142033191Y-116480000D01*
G75*
G02*
X142307000Y-116753809I0J-273809D01*
G01*
X142307000Y-117606191D01*
G75*
G02*
X142033191Y-117880000I-273809J0D01*
G01*
G37*
%TD*%
%TO.C,C48*%
G36*
G01*
X133484000Y-98631110D02*
X133484000Y-100758890D01*
G75*
G02*
X133222890Y-101020000I-261110J0D01*
G01*
X131395110Y-101020000D01*
G75*
G02*
X131134000Y-100758890I0J261110D01*
G01*
X131134000Y-98631110D01*
G75*
G02*
X131395110Y-98370000I261110J0D01*
G01*
X133222890Y-98370000D01*
G75*
G02*
X133484000Y-98631110I0J-261110D01*
G01*
G37*
G36*
G01*
X139884000Y-98631110D02*
X139884000Y-100758890D01*
G75*
G02*
X139622890Y-101020000I-261110J0D01*
G01*
X137795110Y-101020000D01*
G75*
G02*
X137534000Y-100758890I0J261110D01*
G01*
X137534000Y-98631110D01*
G75*
G02*
X137795110Y-98370000I261110J0D01*
G01*
X139622890Y-98370000D01*
G75*
G02*
X139884000Y-98631110I0J-261110D01*
G01*
G37*
%TD*%
%TO.C,C15*%
G36*
G01*
X161718890Y-70746000D02*
X159591110Y-70746000D01*
G75*
G02*
X159330000Y-70484890I0J261110D01*
G01*
X159330000Y-68657110D01*
G75*
G02*
X159591110Y-68396000I261110J0D01*
G01*
X161718890Y-68396000D01*
G75*
G02*
X161980000Y-68657110I0J-261110D01*
G01*
X161980000Y-70484890D01*
G75*
G02*
X161718890Y-70746000I-261110J0D01*
G01*
G37*
G36*
G01*
X161718890Y-77146000D02*
X159591110Y-77146000D01*
G75*
G02*
X159330000Y-76884890I0J261110D01*
G01*
X159330000Y-75057110D01*
G75*
G02*
X159591110Y-74796000I261110J0D01*
G01*
X161718890Y-74796000D01*
G75*
G02*
X161980000Y-75057110I0J-261110D01*
G01*
X161980000Y-76884890D01*
G75*
G02*
X161718890Y-77146000I-261110J0D01*
G01*
G37*
%TD*%
D11*
%TO.C,U2*%
X147279000Y-91526000D03*
D12*
X138129000Y-95336000D03*
X138129000Y-94066000D03*
X138129000Y-92796000D03*
X138129000Y-91526000D03*
X138129000Y-90256000D03*
X138129000Y-88986000D03*
X138129000Y-87716000D03*
%TD*%
D13*
%TO.C,U1*%
X152419000Y-64782000D03*
D14*
X156229000Y-73932000D03*
X154959000Y-73932000D03*
X153689000Y-73932000D03*
X152419000Y-73932000D03*
X151149000Y-73932000D03*
X149879000Y-73932000D03*
X148609000Y-73932000D03*
%TD*%
%TO.C,R49*%
G36*
G01*
X129277500Y-88819000D02*
X129802500Y-88819000D01*
G75*
G02*
X130065000Y-89081500I0J-262500D01*
G01*
X130065000Y-89706500D01*
G75*
G02*
X129802500Y-89969000I-262500J0D01*
G01*
X129277500Y-89969000D01*
G75*
G02*
X129015000Y-89706500I0J262500D01*
G01*
X129015000Y-89081500D01*
G75*
G02*
X129277500Y-88819000I262500J0D01*
G01*
G37*
G36*
G01*
X129277500Y-87069000D02*
X129802500Y-87069000D01*
G75*
G02*
X130065000Y-87331500I0J-262500D01*
G01*
X130065000Y-87956500D01*
G75*
G02*
X129802500Y-88219000I-262500J0D01*
G01*
X129277500Y-88219000D01*
G75*
G02*
X129015000Y-87956500I0J262500D01*
G01*
X129015000Y-87331500D01*
G75*
G02*
X129277500Y-87069000I262500J0D01*
G01*
G37*
%TD*%
%TO.C,R48*%
G36*
G01*
X130983000Y-94496500D02*
X130983000Y-93971500D01*
G75*
G02*
X131245500Y-93709000I262500J0D01*
G01*
X131870500Y-93709000D01*
G75*
G02*
X132133000Y-93971500I0J-262500D01*
G01*
X132133000Y-94496500D01*
G75*
G02*
X131870500Y-94759000I-262500J0D01*
G01*
X131245500Y-94759000D01*
G75*
G02*
X130983000Y-94496500I0J262500D01*
G01*
G37*
G36*
G01*
X129233000Y-94496500D02*
X129233000Y-93971500D01*
G75*
G02*
X129495500Y-93709000I262500J0D01*
G01*
X130120500Y-93709000D01*
G75*
G02*
X130383000Y-93971500I0J-262500D01*
G01*
X130383000Y-94496500D01*
G75*
G02*
X130120500Y-94759000I-262500J0D01*
G01*
X129495500Y-94759000D01*
G75*
G02*
X129233000Y-94496500I0J262500D01*
G01*
G37*
%TD*%
%TO.C,R47*%
G36*
G01*
X131453500Y-88219000D02*
X130928500Y-88219000D01*
G75*
G02*
X130666000Y-87956500I0J262500D01*
G01*
X130666000Y-87331500D01*
G75*
G02*
X130928500Y-87069000I262500J0D01*
G01*
X131453500Y-87069000D01*
G75*
G02*
X131716000Y-87331500I0J-262500D01*
G01*
X131716000Y-87956500D01*
G75*
G02*
X131453500Y-88219000I-262500J0D01*
G01*
G37*
G36*
G01*
X131453500Y-89969000D02*
X130928500Y-89969000D01*
G75*
G02*
X130666000Y-89706500I0J262500D01*
G01*
X130666000Y-89081500D01*
G75*
G02*
X130928500Y-88819000I262500J0D01*
G01*
X131453500Y-88819000D01*
G75*
G02*
X131716000Y-89081500I0J-262500D01*
G01*
X131716000Y-89706500D01*
G75*
G02*
X131453500Y-89969000I-262500J0D01*
G01*
G37*
%TD*%
%TO.C,R46*%
G36*
G01*
X134230500Y-95550000D02*
X134755500Y-95550000D01*
G75*
G02*
X135018000Y-95812500I0J-262500D01*
G01*
X135018000Y-96437500D01*
G75*
G02*
X134755500Y-96700000I-262500J0D01*
G01*
X134230500Y-96700000D01*
G75*
G02*
X133968000Y-96437500I0J262500D01*
G01*
X133968000Y-95812500D01*
G75*
G02*
X134230500Y-95550000I262500J0D01*
G01*
G37*
G36*
G01*
X134230500Y-93800000D02*
X134755500Y-93800000D01*
G75*
G02*
X135018000Y-94062500I0J-262500D01*
G01*
X135018000Y-94687500D01*
G75*
G02*
X134755500Y-94950000I-262500J0D01*
G01*
X134230500Y-94950000D01*
G75*
G02*
X133968000Y-94687500I0J262500D01*
G01*
X133968000Y-94062500D01*
G75*
G02*
X134230500Y-93800000I262500J0D01*
G01*
G37*
%TD*%
%TO.C,R45*%
G36*
G01*
X133976500Y-88057000D02*
X134501500Y-88057000D01*
G75*
G02*
X134764000Y-88319500I0J-262500D01*
G01*
X134764000Y-88944500D01*
G75*
G02*
X134501500Y-89207000I-262500J0D01*
G01*
X133976500Y-89207000D01*
G75*
G02*
X133714000Y-88944500I0J262500D01*
G01*
X133714000Y-88319500D01*
G75*
G02*
X133976500Y-88057000I262500J0D01*
G01*
G37*
G36*
G01*
X133976500Y-86307000D02*
X134501500Y-86307000D01*
G75*
G02*
X134764000Y-86569500I0J-262500D01*
G01*
X134764000Y-87194500D01*
G75*
G02*
X134501500Y-87457000I-262500J0D01*
G01*
X133976500Y-87457000D01*
G75*
G02*
X133714000Y-87194500I0J262500D01*
G01*
X133714000Y-86569500D01*
G75*
G02*
X133976500Y-86307000I262500J0D01*
G01*
G37*
%TD*%
%TO.C,R44*%
G36*
G01*
X148410000Y-82304500D02*
X148410000Y-81779500D01*
G75*
G02*
X148672500Y-81517000I262500J0D01*
G01*
X149297500Y-81517000D01*
G75*
G02*
X149560000Y-81779500I0J-262500D01*
G01*
X149560000Y-82304500D01*
G75*
G02*
X149297500Y-82567000I-262500J0D01*
G01*
X148672500Y-82567000D01*
G75*
G02*
X148410000Y-82304500I0J262500D01*
G01*
G37*
G36*
G01*
X150160000Y-82304500D02*
X150160000Y-81779500D01*
G75*
G02*
X150422500Y-81517000I262500J0D01*
G01*
X151047500Y-81517000D01*
G75*
G02*
X151310000Y-81779500I0J-262500D01*
G01*
X151310000Y-82304500D01*
G75*
G02*
X151047500Y-82567000I-262500J0D01*
G01*
X150422500Y-82567000D01*
G75*
G02*
X150160000Y-82304500I0J262500D01*
G01*
G37*
%TD*%
%TO.C,R43*%
G36*
G01*
X155583500Y-78299000D02*
X155058500Y-78299000D01*
G75*
G02*
X154796000Y-78036500I0J262500D01*
G01*
X154796000Y-77411500D01*
G75*
G02*
X155058500Y-77149000I262500J0D01*
G01*
X155583500Y-77149000D01*
G75*
G02*
X155846000Y-77411500I0J-262500D01*
G01*
X155846000Y-78036500D01*
G75*
G02*
X155583500Y-78299000I-262500J0D01*
G01*
G37*
G36*
G01*
X155583500Y-80049000D02*
X155058500Y-80049000D01*
G75*
G02*
X154796000Y-79786500I0J262500D01*
G01*
X154796000Y-79161500D01*
G75*
G02*
X155058500Y-78899000I262500J0D01*
G01*
X155583500Y-78899000D01*
G75*
G02*
X155846000Y-79161500I0J-262500D01*
G01*
X155846000Y-79786500D01*
G75*
G02*
X155583500Y-80049000I-262500J0D01*
G01*
G37*
%TD*%
%TO.C,R42*%
G36*
G01*
X151324000Y-80255500D02*
X151324000Y-80780500D01*
G75*
G02*
X151061500Y-81043000I-262500J0D01*
G01*
X150436500Y-81043000D01*
G75*
G02*
X150174000Y-80780500I0J262500D01*
G01*
X150174000Y-80255500D01*
G75*
G02*
X150436500Y-79993000I262500J0D01*
G01*
X151061500Y-79993000D01*
G75*
G02*
X151324000Y-80255500I0J-262500D01*
G01*
G37*
G36*
G01*
X149574000Y-80255500D02*
X149574000Y-80780500D01*
G75*
G02*
X149311500Y-81043000I-262500J0D01*
G01*
X148686500Y-81043000D01*
G75*
G02*
X148424000Y-80780500I0J262500D01*
G01*
X148424000Y-80255500D01*
G75*
G02*
X148686500Y-79993000I262500J0D01*
G01*
X149311500Y-79993000D01*
G75*
G02*
X149574000Y-80255500I0J-262500D01*
G01*
G37*
%TD*%
%TO.C,R41*%
G36*
G01*
X157234500Y-78299000D02*
X156709500Y-78299000D01*
G75*
G02*
X156447000Y-78036500I0J262500D01*
G01*
X156447000Y-77411500D01*
G75*
G02*
X156709500Y-77149000I262500J0D01*
G01*
X157234500Y-77149000D01*
G75*
G02*
X157497000Y-77411500I0J-262500D01*
G01*
X157497000Y-78036500D01*
G75*
G02*
X157234500Y-78299000I-262500J0D01*
G01*
G37*
G36*
G01*
X157234500Y-80049000D02*
X156709500Y-80049000D01*
G75*
G02*
X156447000Y-79786500I0J262500D01*
G01*
X156447000Y-79161500D01*
G75*
G02*
X156709500Y-78899000I262500J0D01*
G01*
X157234500Y-78899000D01*
G75*
G02*
X157497000Y-79161500I0J-262500D01*
G01*
X157497000Y-79786500D01*
G75*
G02*
X157234500Y-80049000I-262500J0D01*
G01*
G37*
%TD*%
%TO.C,R40*%
G36*
G01*
X148424000Y-79129500D02*
X148424000Y-78604500D01*
G75*
G02*
X148686500Y-78342000I262500J0D01*
G01*
X149311500Y-78342000D01*
G75*
G02*
X149574000Y-78604500I0J-262500D01*
G01*
X149574000Y-79129500D01*
G75*
G02*
X149311500Y-79392000I-262500J0D01*
G01*
X148686500Y-79392000D01*
G75*
G02*
X148424000Y-79129500I0J262500D01*
G01*
G37*
G36*
G01*
X150174000Y-79129500D02*
X150174000Y-78604500D01*
G75*
G02*
X150436500Y-78342000I262500J0D01*
G01*
X151061500Y-78342000D01*
G75*
G02*
X151324000Y-78604500I0J-262500D01*
G01*
X151324000Y-79129500D01*
G75*
G02*
X151061500Y-79392000I-262500J0D01*
G01*
X150436500Y-79392000D01*
G75*
G02*
X150174000Y-79129500I0J262500D01*
G01*
G37*
%TD*%
%TO.C,C49*%
G36*
G01*
X133304000Y-92320500D02*
X133304000Y-92845500D01*
G75*
G02*
X133041500Y-93108000I-262500J0D01*
G01*
X132416500Y-93108000D01*
G75*
G02*
X132154000Y-92845500I0J262500D01*
G01*
X132154000Y-92320500D01*
G75*
G02*
X132416500Y-92058000I262500J0D01*
G01*
X133041500Y-92058000D01*
G75*
G02*
X133304000Y-92320500I0J-262500D01*
G01*
G37*
G36*
G01*
X135054000Y-92320500D02*
X135054000Y-92845500D01*
G75*
G02*
X134791500Y-93108000I-262500J0D01*
G01*
X134166500Y-93108000D01*
G75*
G02*
X133904000Y-92845500I0J262500D01*
G01*
X133904000Y-92320500D01*
G75*
G02*
X134166500Y-92058000I262500J0D01*
G01*
X134791500Y-92058000D01*
G75*
G02*
X135054000Y-92320500I0J-262500D01*
G01*
G37*
%TD*%
%TO.C,C17*%
G36*
G01*
X136606000Y-84700500D02*
X136606000Y-85225500D01*
G75*
G02*
X136343500Y-85488000I-262500J0D01*
G01*
X135718500Y-85488000D01*
G75*
G02*
X135456000Y-85225500I0J262500D01*
G01*
X135456000Y-84700500D01*
G75*
G02*
X135718500Y-84438000I262500J0D01*
G01*
X136343500Y-84438000D01*
G75*
G02*
X136606000Y-84700500I0J-262500D01*
G01*
G37*
G36*
G01*
X138356000Y-84700500D02*
X138356000Y-85225500D01*
G75*
G02*
X138093500Y-85488000I-262500J0D01*
G01*
X137468500Y-85488000D01*
G75*
G02*
X137206000Y-85225500I0J262500D01*
G01*
X137206000Y-84700500D01*
G75*
G02*
X137468500Y-84438000I262500J0D01*
G01*
X138093500Y-84438000D01*
G75*
G02*
X138356000Y-84700500I0J-262500D01*
G01*
G37*
%TD*%
%TO.C,C14*%
G36*
G01*
X136420000Y-81332110D02*
X136420000Y-83259890D01*
G75*
G02*
X136158890Y-83521000I-261110J0D01*
G01*
X134331110Y-83521000D01*
G75*
G02*
X134070000Y-83259890I0J261110D01*
G01*
X134070000Y-81332110D01*
G75*
G02*
X134331110Y-81071000I261110J0D01*
G01*
X136158890Y-81071000D01*
G75*
G02*
X136420000Y-81332110I0J-261110D01*
G01*
G37*
G36*
G01*
X141520000Y-81332110D02*
X141520000Y-83259890D01*
G75*
G02*
X141258890Y-83521000I-261110J0D01*
G01*
X139431110Y-83521000D01*
G75*
G02*
X139170000Y-83259890I0J261110D01*
G01*
X139170000Y-81332110D01*
G75*
G02*
X139431110Y-81071000I261110J0D01*
G01*
X141258890Y-81071000D01*
G75*
G02*
X141520000Y-81332110I0J-261110D01*
G01*
G37*
%TD*%
%TO.C,C13*%
G36*
G01*
X153407500Y-78913000D02*
X153932500Y-78913000D01*
G75*
G02*
X154195000Y-79175500I0J-262500D01*
G01*
X154195000Y-79800500D01*
G75*
G02*
X153932500Y-80063000I-262500J0D01*
G01*
X153407500Y-80063000D01*
G75*
G02*
X153145000Y-79800500I0J262500D01*
G01*
X153145000Y-79175500D01*
G75*
G02*
X153407500Y-78913000I262500J0D01*
G01*
G37*
G36*
G01*
X153407500Y-77163000D02*
X153932500Y-77163000D01*
G75*
G02*
X154195000Y-77425500I0J-262500D01*
G01*
X154195000Y-78050500D01*
G75*
G02*
X153932500Y-78313000I-262500J0D01*
G01*
X153407500Y-78313000D01*
G75*
G02*
X153145000Y-78050500I0J262500D01*
G01*
X153145000Y-77425500D01*
G75*
G02*
X153407500Y-77163000I262500J0D01*
G01*
G37*
%TD*%
%TO.C,C12*%
G36*
G01*
X145743890Y-71142000D02*
X143816110Y-71142000D01*
G75*
G02*
X143555000Y-70880890I0J261110D01*
G01*
X143555000Y-69053110D01*
G75*
G02*
X143816110Y-68792000I261110J0D01*
G01*
X145743890Y-68792000D01*
G75*
G02*
X146005000Y-69053110I0J-261110D01*
G01*
X146005000Y-70880890D01*
G75*
G02*
X145743890Y-71142000I-261110J0D01*
G01*
G37*
G36*
G01*
X145743890Y-76242000D02*
X143816110Y-76242000D01*
G75*
G02*
X143555000Y-75980890I0J261110D01*
G01*
X143555000Y-74153110D01*
G75*
G02*
X143816110Y-73892000I261110J0D01*
G01*
X145743890Y-73892000D01*
G75*
G02*
X146005000Y-74153110I0J-261110D01*
G01*
X146005000Y-75980890D01*
G75*
G02*
X145743890Y-76242000I-261110J0D01*
G01*
G37*
%TD*%
%TO.C,C41*%
G36*
G01*
X135784000Y-109902191D02*
X135784000Y-109299809D01*
G75*
G02*
X136057809Y-109026000I273809J0D01*
G01*
X136910191Y-109026000D01*
G75*
G02*
X137184000Y-109299809I0J-273809D01*
G01*
X137184000Y-109902191D01*
G75*
G02*
X136910191Y-110176000I-273809J0D01*
G01*
X136057809Y-110176000D01*
G75*
G02*
X135784000Y-109902191I0J273809D01*
G01*
G37*
G36*
G01*
X133834000Y-109902191D02*
X133834000Y-109299809D01*
G75*
G02*
X134107809Y-109026000I273809J0D01*
G01*
X134960191Y-109026000D01*
G75*
G02*
X135234000Y-109299809I0J-273809D01*
G01*
X135234000Y-109902191D01*
G75*
G02*
X134960191Y-110176000I-273809J0D01*
G01*
X134107809Y-110176000D01*
G75*
G02*
X133834000Y-109902191I0J273809D01*
G01*
G37*
%TD*%
%TO.C,C37*%
G36*
G01*
X137620809Y-124989000D02*
X138223191Y-124989000D01*
G75*
G02*
X138497000Y-125262809I0J-273809D01*
G01*
X138497000Y-126115191D01*
G75*
G02*
X138223191Y-126389000I-273809J0D01*
G01*
X137620809Y-126389000D01*
G75*
G02*
X137347000Y-126115191I0J273809D01*
G01*
X137347000Y-125262809D01*
G75*
G02*
X137620809Y-124989000I273809J0D01*
G01*
G37*
G36*
G01*
X137620809Y-123039000D02*
X138223191Y-123039000D01*
G75*
G02*
X138497000Y-123312809I0J-273809D01*
G01*
X138497000Y-124165191D01*
G75*
G02*
X138223191Y-124439000I-273809J0D01*
G01*
X137620809Y-124439000D01*
G75*
G02*
X137347000Y-124165191I0J273809D01*
G01*
X137347000Y-123312809D01*
G75*
G02*
X137620809Y-123039000I273809J0D01*
G01*
G37*
%TD*%
%TO.C,C35*%
G36*
G01*
X132540809Y-124989000D02*
X133143191Y-124989000D01*
G75*
G02*
X133417000Y-125262809I0J-273809D01*
G01*
X133417000Y-126115191D01*
G75*
G02*
X133143191Y-126389000I-273809J0D01*
G01*
X132540809Y-126389000D01*
G75*
G02*
X132267000Y-126115191I0J273809D01*
G01*
X132267000Y-125262809D01*
G75*
G02*
X132540809Y-124989000I273809J0D01*
G01*
G37*
G36*
G01*
X132540809Y-123039000D02*
X133143191Y-123039000D01*
G75*
G02*
X133417000Y-123312809I0J-273809D01*
G01*
X133417000Y-124165191D01*
G75*
G02*
X133143191Y-124439000I-273809J0D01*
G01*
X132540809Y-124439000D01*
G75*
G02*
X132267000Y-124165191I0J273809D01*
G01*
X132267000Y-123312809D01*
G75*
G02*
X132540809Y-123039000I273809J0D01*
G01*
G37*
%TD*%
%TO.C,C33*%
G36*
G01*
X127460809Y-125116000D02*
X128063191Y-125116000D01*
G75*
G02*
X128337000Y-125389809I0J-273809D01*
G01*
X128337000Y-126242191D01*
G75*
G02*
X128063191Y-126516000I-273809J0D01*
G01*
X127460809Y-126516000D01*
G75*
G02*
X127187000Y-126242191I0J273809D01*
G01*
X127187000Y-125389809D01*
G75*
G02*
X127460809Y-125116000I273809J0D01*
G01*
G37*
G36*
G01*
X127460809Y-123166000D02*
X128063191Y-123166000D01*
G75*
G02*
X128337000Y-123439809I0J-273809D01*
G01*
X128337000Y-124292191D01*
G75*
G02*
X128063191Y-124566000I-273809J0D01*
G01*
X127460809Y-124566000D01*
G75*
G02*
X127187000Y-124292191I0J273809D01*
G01*
X127187000Y-123439809D01*
G75*
G02*
X127460809Y-123166000I273809J0D01*
G01*
G37*
%TD*%
%TO.C,C20*%
G36*
G01*
X153617890Y-140230000D02*
X151690110Y-140230000D01*
G75*
G02*
X151429000Y-139968890I0J261110D01*
G01*
X151429000Y-138141110D01*
G75*
G02*
X151690110Y-137880000I261110J0D01*
G01*
X153617890Y-137880000D01*
G75*
G02*
X153879000Y-138141110I0J-261110D01*
G01*
X153879000Y-139968890D01*
G75*
G02*
X153617890Y-140230000I-261110J0D01*
G01*
G37*
G36*
G01*
X153617890Y-145330000D02*
X151690110Y-145330000D01*
G75*
G02*
X151429000Y-145068890I0J261110D01*
G01*
X151429000Y-143241110D01*
G75*
G02*
X151690110Y-142980000I261110J0D01*
G01*
X153617890Y-142980000D01*
G75*
G02*
X153879000Y-143241110I0J-261110D01*
G01*
X153879000Y-145068890D01*
G75*
G02*
X153617890Y-145330000I-261110J0D01*
G01*
G37*
%TD*%
%TO.C,C18*%
G36*
G01*
X135710890Y-141246000D02*
X133783110Y-141246000D01*
G75*
G02*
X133522000Y-140984890I0J261110D01*
G01*
X133522000Y-139157110D01*
G75*
G02*
X133783110Y-138896000I261110J0D01*
G01*
X135710890Y-138896000D01*
G75*
G02*
X135972000Y-139157110I0J-261110D01*
G01*
X135972000Y-140984890D01*
G75*
G02*
X135710890Y-141246000I-261110J0D01*
G01*
G37*
G36*
G01*
X135710890Y-146346000D02*
X133783110Y-146346000D01*
G75*
G02*
X133522000Y-146084890I0J261110D01*
G01*
X133522000Y-144257110D01*
G75*
G02*
X133783110Y-143996000I261110J0D01*
G01*
X135710890Y-143996000D01*
G75*
G02*
X135972000Y-144257110I0J-261110D01*
G01*
X135972000Y-146084890D01*
G75*
G02*
X135710890Y-146346000I-261110J0D01*
G01*
G37*
%TD*%
%TO.C,U6*%
G36*
G01*
X131337000Y-115102000D02*
X131037000Y-115102000D01*
G75*
G02*
X130887000Y-114952000I0J150000D01*
G01*
X130887000Y-113252000D01*
G75*
G02*
X131037000Y-113102000I150000J0D01*
G01*
X131337000Y-113102000D01*
G75*
G02*
X131487000Y-113252000I0J-150000D01*
G01*
X131487000Y-114952000D01*
G75*
G02*
X131337000Y-115102000I-150000J0D01*
G01*
G37*
G36*
G01*
X131987000Y-115102000D02*
X131687000Y-115102000D01*
G75*
G02*
X131537000Y-114952000I0J150000D01*
G01*
X131537000Y-113252000D01*
G75*
G02*
X131687000Y-113102000I150000J0D01*
G01*
X131987000Y-113102000D01*
G75*
G02*
X132137000Y-113252000I0J-150000D01*
G01*
X132137000Y-114952000D01*
G75*
G02*
X131987000Y-115102000I-150000J0D01*
G01*
G37*
G36*
G01*
X132637000Y-115102000D02*
X132337000Y-115102000D01*
G75*
G02*
X132187000Y-114952000I0J150000D01*
G01*
X132187000Y-113252000D01*
G75*
G02*
X132337000Y-113102000I150000J0D01*
G01*
X132637000Y-113102000D01*
G75*
G02*
X132787000Y-113252000I0J-150000D01*
G01*
X132787000Y-114952000D01*
G75*
G02*
X132637000Y-115102000I-150000J0D01*
G01*
G37*
G36*
G01*
X133287000Y-115102000D02*
X132987000Y-115102000D01*
G75*
G02*
X132837000Y-114952000I0J150000D01*
G01*
X132837000Y-113252000D01*
G75*
G02*
X132987000Y-113102000I150000J0D01*
G01*
X133287000Y-113102000D01*
G75*
G02*
X133437000Y-113252000I0J-150000D01*
G01*
X133437000Y-114952000D01*
G75*
G02*
X133287000Y-115102000I-150000J0D01*
G01*
G37*
G36*
G01*
X133937000Y-115102000D02*
X133637000Y-115102000D01*
G75*
G02*
X133487000Y-114952000I0J150000D01*
G01*
X133487000Y-113252000D01*
G75*
G02*
X133637000Y-113102000I150000J0D01*
G01*
X133937000Y-113102000D01*
G75*
G02*
X134087000Y-113252000I0J-150000D01*
G01*
X134087000Y-114952000D01*
G75*
G02*
X133937000Y-115102000I-150000J0D01*
G01*
G37*
G36*
G01*
X134587000Y-115102000D02*
X134287000Y-115102000D01*
G75*
G02*
X134137000Y-114952000I0J150000D01*
G01*
X134137000Y-113252000D01*
G75*
G02*
X134287000Y-113102000I150000J0D01*
G01*
X134587000Y-113102000D01*
G75*
G02*
X134737000Y-113252000I0J-150000D01*
G01*
X134737000Y-114952000D01*
G75*
G02*
X134587000Y-115102000I-150000J0D01*
G01*
G37*
G36*
G01*
X135237000Y-115102000D02*
X134937000Y-115102000D01*
G75*
G02*
X134787000Y-114952000I0J150000D01*
G01*
X134787000Y-113252000D01*
G75*
G02*
X134937000Y-113102000I150000J0D01*
G01*
X135237000Y-113102000D01*
G75*
G02*
X135387000Y-113252000I0J-150000D01*
G01*
X135387000Y-114952000D01*
G75*
G02*
X135237000Y-115102000I-150000J0D01*
G01*
G37*
G36*
G01*
X135887000Y-115102000D02*
X135587000Y-115102000D01*
G75*
G02*
X135437000Y-114952000I0J150000D01*
G01*
X135437000Y-113252000D01*
G75*
G02*
X135587000Y-113102000I150000J0D01*
G01*
X135887000Y-113102000D01*
G75*
G02*
X136037000Y-113252000I0J-150000D01*
G01*
X136037000Y-114952000D01*
G75*
G02*
X135887000Y-115102000I-150000J0D01*
G01*
G37*
G36*
G01*
X136537000Y-115102000D02*
X136237000Y-115102000D01*
G75*
G02*
X136087000Y-114952000I0J150000D01*
G01*
X136087000Y-113252000D01*
G75*
G02*
X136237000Y-113102000I150000J0D01*
G01*
X136537000Y-113102000D01*
G75*
G02*
X136687000Y-113252000I0J-150000D01*
G01*
X136687000Y-114952000D01*
G75*
G02*
X136537000Y-115102000I-150000J0D01*
G01*
G37*
G36*
G01*
X137187000Y-115102000D02*
X136887000Y-115102000D01*
G75*
G02*
X136737000Y-114952000I0J150000D01*
G01*
X136737000Y-113252000D01*
G75*
G02*
X136887000Y-113102000I150000J0D01*
G01*
X137187000Y-113102000D01*
G75*
G02*
X137337000Y-113252000I0J-150000D01*
G01*
X137337000Y-114952000D01*
G75*
G02*
X137187000Y-115102000I-150000J0D01*
G01*
G37*
G36*
G01*
X137187000Y-122102000D02*
X136887000Y-122102000D01*
G75*
G02*
X136737000Y-121952000I0J150000D01*
G01*
X136737000Y-120252000D01*
G75*
G02*
X136887000Y-120102000I150000J0D01*
G01*
X137187000Y-120102000D01*
G75*
G02*
X137337000Y-120252000I0J-150000D01*
G01*
X137337000Y-121952000D01*
G75*
G02*
X137187000Y-122102000I-150000J0D01*
G01*
G37*
G36*
G01*
X136537000Y-122102000D02*
X136237000Y-122102000D01*
G75*
G02*
X136087000Y-121952000I0J150000D01*
G01*
X136087000Y-120252000D01*
G75*
G02*
X136237000Y-120102000I150000J0D01*
G01*
X136537000Y-120102000D01*
G75*
G02*
X136687000Y-120252000I0J-150000D01*
G01*
X136687000Y-121952000D01*
G75*
G02*
X136537000Y-122102000I-150000J0D01*
G01*
G37*
G36*
G01*
X135887000Y-122102000D02*
X135587000Y-122102000D01*
G75*
G02*
X135437000Y-121952000I0J150000D01*
G01*
X135437000Y-120252000D01*
G75*
G02*
X135587000Y-120102000I150000J0D01*
G01*
X135887000Y-120102000D01*
G75*
G02*
X136037000Y-120252000I0J-150000D01*
G01*
X136037000Y-121952000D01*
G75*
G02*
X135887000Y-122102000I-150000J0D01*
G01*
G37*
G36*
G01*
X135237000Y-122102000D02*
X134937000Y-122102000D01*
G75*
G02*
X134787000Y-121952000I0J150000D01*
G01*
X134787000Y-120252000D01*
G75*
G02*
X134937000Y-120102000I150000J0D01*
G01*
X135237000Y-120102000D01*
G75*
G02*
X135387000Y-120252000I0J-150000D01*
G01*
X135387000Y-121952000D01*
G75*
G02*
X135237000Y-122102000I-150000J0D01*
G01*
G37*
G36*
G01*
X134587000Y-122102000D02*
X134287000Y-122102000D01*
G75*
G02*
X134137000Y-121952000I0J150000D01*
G01*
X134137000Y-120252000D01*
G75*
G02*
X134287000Y-120102000I150000J0D01*
G01*
X134587000Y-120102000D01*
G75*
G02*
X134737000Y-120252000I0J-150000D01*
G01*
X134737000Y-121952000D01*
G75*
G02*
X134587000Y-122102000I-150000J0D01*
G01*
G37*
G36*
G01*
X133937000Y-122102000D02*
X133637000Y-122102000D01*
G75*
G02*
X133487000Y-121952000I0J150000D01*
G01*
X133487000Y-120252000D01*
G75*
G02*
X133637000Y-120102000I150000J0D01*
G01*
X133937000Y-120102000D01*
G75*
G02*
X134087000Y-120252000I0J-150000D01*
G01*
X134087000Y-121952000D01*
G75*
G02*
X133937000Y-122102000I-150000J0D01*
G01*
G37*
G36*
G01*
X133287000Y-122102000D02*
X132987000Y-122102000D01*
G75*
G02*
X132837000Y-121952000I0J150000D01*
G01*
X132837000Y-120252000D01*
G75*
G02*
X132987000Y-120102000I150000J0D01*
G01*
X133287000Y-120102000D01*
G75*
G02*
X133437000Y-120252000I0J-150000D01*
G01*
X133437000Y-121952000D01*
G75*
G02*
X133287000Y-122102000I-150000J0D01*
G01*
G37*
G36*
G01*
X132637000Y-122102000D02*
X132337000Y-122102000D01*
G75*
G02*
X132187000Y-121952000I0J150000D01*
G01*
X132187000Y-120252000D01*
G75*
G02*
X132337000Y-120102000I150000J0D01*
G01*
X132637000Y-120102000D01*
G75*
G02*
X132787000Y-120252000I0J-150000D01*
G01*
X132787000Y-121952000D01*
G75*
G02*
X132637000Y-122102000I-150000J0D01*
G01*
G37*
G36*
G01*
X131987000Y-122102000D02*
X131687000Y-122102000D01*
G75*
G02*
X131537000Y-121952000I0J150000D01*
G01*
X131537000Y-120252000D01*
G75*
G02*
X131687000Y-120102000I150000J0D01*
G01*
X131987000Y-120102000D01*
G75*
G02*
X132137000Y-120252000I0J-150000D01*
G01*
X132137000Y-121952000D01*
G75*
G02*
X131987000Y-122102000I-150000J0D01*
G01*
G37*
G36*
G01*
X131337000Y-122102000D02*
X131037000Y-122102000D01*
G75*
G02*
X130887000Y-121952000I0J150000D01*
G01*
X130887000Y-120252000D01*
G75*
G02*
X131037000Y-120102000I150000J0D01*
G01*
X131337000Y-120102000D01*
G75*
G02*
X131487000Y-120252000I0J-150000D01*
G01*
X131487000Y-121952000D01*
G75*
G02*
X131337000Y-122102000I-150000J0D01*
G01*
G37*
%TD*%
D15*
%TO.C,U4*%
X137988000Y-72564000D03*
X139888000Y-72564000D03*
X139888000Y-75264000D03*
X138938000Y-75264000D03*
X137988000Y-75264000D03*
%TD*%
%TO.C,U3*%
G36*
G01*
X142060000Y-143716000D02*
X142060000Y-144066000D01*
G75*
G02*
X141885000Y-144241000I-175000J0D01*
G01*
X140185000Y-144241000D01*
G75*
G02*
X140010000Y-144066000I0J175000D01*
G01*
X140010000Y-143716000D01*
G75*
G02*
X140185000Y-143541000I175000J0D01*
G01*
X141885000Y-143541000D01*
G75*
G02*
X142060000Y-143716000I0J-175000D01*
G01*
G37*
G36*
G01*
X142060000Y-142446000D02*
X142060000Y-142796000D01*
G75*
G02*
X141885000Y-142971000I-175000J0D01*
G01*
X140185000Y-142971000D01*
G75*
G02*
X140010000Y-142796000I0J175000D01*
G01*
X140010000Y-142446000D01*
G75*
G02*
X140185000Y-142271000I175000J0D01*
G01*
X141885000Y-142271000D01*
G75*
G02*
X142060000Y-142446000I0J-175000D01*
G01*
G37*
G36*
G01*
X142060000Y-141176000D02*
X142060000Y-141526000D01*
G75*
G02*
X141885000Y-141701000I-175000J0D01*
G01*
X140185000Y-141701000D01*
G75*
G02*
X140010000Y-141526000I0J175000D01*
G01*
X140010000Y-141176000D01*
G75*
G02*
X140185000Y-141001000I175000J0D01*
G01*
X141885000Y-141001000D01*
G75*
G02*
X142060000Y-141176000I0J-175000D01*
G01*
G37*
G36*
G01*
X142060000Y-139906000D02*
X142060000Y-140256000D01*
G75*
G02*
X141885000Y-140431000I-175000J0D01*
G01*
X140185000Y-140431000D01*
G75*
G02*
X140010000Y-140256000I0J175000D01*
G01*
X140010000Y-139906000D01*
G75*
G02*
X140185000Y-139731000I175000J0D01*
G01*
X141885000Y-139731000D01*
G75*
G02*
X142060000Y-139906000I0J-175000D01*
G01*
G37*
G36*
G01*
X147010000Y-139906000D02*
X147010000Y-140256000D01*
G75*
G02*
X146835000Y-140431000I-175000J0D01*
G01*
X145135000Y-140431000D01*
G75*
G02*
X144960000Y-140256000I0J175000D01*
G01*
X144960000Y-139906000D01*
G75*
G02*
X145135000Y-139731000I175000J0D01*
G01*
X146835000Y-139731000D01*
G75*
G02*
X147010000Y-139906000I0J-175000D01*
G01*
G37*
G36*
G01*
X147010000Y-141176000D02*
X147010000Y-141526000D01*
G75*
G02*
X146835000Y-141701000I-175000J0D01*
G01*
X145135000Y-141701000D01*
G75*
G02*
X144960000Y-141526000I0J175000D01*
G01*
X144960000Y-141176000D01*
G75*
G02*
X145135000Y-141001000I175000J0D01*
G01*
X146835000Y-141001000D01*
G75*
G02*
X147010000Y-141176000I0J-175000D01*
G01*
G37*
G36*
G01*
X147010000Y-142446000D02*
X147010000Y-142796000D01*
G75*
G02*
X146835000Y-142971000I-175000J0D01*
G01*
X145135000Y-142971000D01*
G75*
G02*
X144960000Y-142796000I0J175000D01*
G01*
X144960000Y-142446000D01*
G75*
G02*
X145135000Y-142271000I175000J0D01*
G01*
X146835000Y-142271000D01*
G75*
G02*
X147010000Y-142446000I0J-175000D01*
G01*
G37*
G36*
G01*
X147010000Y-143716000D02*
X147010000Y-144066000D01*
G75*
G02*
X146835000Y-144241000I-175000J0D01*
G01*
X145135000Y-144241000D01*
G75*
G02*
X144960000Y-144066000I0J175000D01*
G01*
X144960000Y-143716000D01*
G75*
G02*
X145135000Y-143541000I175000J0D01*
G01*
X146835000Y-143541000D01*
G75*
G02*
X147010000Y-143716000I0J-175000D01*
G01*
G37*
%TD*%
%TO.C,R39*%
G36*
G01*
X125790000Y-78240500D02*
X125790000Y-77715500D01*
G75*
G02*
X126052500Y-77453000I262500J0D01*
G01*
X126677500Y-77453000D01*
G75*
G02*
X126940000Y-77715500I0J-262500D01*
G01*
X126940000Y-78240500D01*
G75*
G02*
X126677500Y-78503000I-262500J0D01*
G01*
X126052500Y-78503000D01*
G75*
G02*
X125790000Y-78240500I0J262500D01*
G01*
G37*
G36*
G01*
X124040000Y-78240500D02*
X124040000Y-77715500D01*
G75*
G02*
X124302500Y-77453000I262500J0D01*
G01*
X124927500Y-77453000D01*
G75*
G02*
X125190000Y-77715500I0J-262500D01*
G01*
X125190000Y-78240500D01*
G75*
G02*
X124927500Y-78503000I-262500J0D01*
G01*
X124302500Y-78503000D01*
G75*
G02*
X124040000Y-78240500I0J262500D01*
G01*
G37*
%TD*%
%TO.C,R38*%
G36*
G01*
X159884500Y-65070000D02*
X160409500Y-65070000D01*
G75*
G02*
X160672000Y-65332500I0J-262500D01*
G01*
X160672000Y-65957500D01*
G75*
G02*
X160409500Y-66220000I-262500J0D01*
G01*
X159884500Y-66220000D01*
G75*
G02*
X159622000Y-65957500I0J262500D01*
G01*
X159622000Y-65332500D01*
G75*
G02*
X159884500Y-65070000I262500J0D01*
G01*
G37*
G36*
G01*
X159884500Y-63320000D02*
X160409500Y-63320000D01*
G75*
G02*
X160672000Y-63582500I0J-262500D01*
G01*
X160672000Y-64207500D01*
G75*
G02*
X160409500Y-64470000I-262500J0D01*
G01*
X159884500Y-64470000D01*
G75*
G02*
X159622000Y-64207500I0J262500D01*
G01*
X159622000Y-63582500D01*
G75*
G02*
X159884500Y-63320000I262500J0D01*
G01*
G37*
%TD*%
%TO.C,R37*%
G36*
G01*
X141469500Y-65973000D02*
X141994500Y-65973000D01*
G75*
G02*
X142257000Y-66235500I0J-262500D01*
G01*
X142257000Y-66860500D01*
G75*
G02*
X141994500Y-67123000I-262500J0D01*
G01*
X141469500Y-67123000D01*
G75*
G02*
X141207000Y-66860500I0J262500D01*
G01*
X141207000Y-66235500D01*
G75*
G02*
X141469500Y-65973000I262500J0D01*
G01*
G37*
G36*
G01*
X141469500Y-64223000D02*
X141994500Y-64223000D01*
G75*
G02*
X142257000Y-64485500I0J-262500D01*
G01*
X142257000Y-65110500D01*
G75*
G02*
X141994500Y-65373000I-262500J0D01*
G01*
X141469500Y-65373000D01*
G75*
G02*
X141207000Y-65110500I0J262500D01*
G01*
X141207000Y-64485500D01*
G75*
G02*
X141469500Y-64223000I262500J0D01*
G01*
G37*
%TD*%
%TO.C,R36*%
G36*
G01*
X141940000Y-99432500D02*
X141940000Y-99957500D01*
G75*
G02*
X141677500Y-100220000I-262500J0D01*
G01*
X141052500Y-100220000D01*
G75*
G02*
X140790000Y-99957500I0J262500D01*
G01*
X140790000Y-99432500D01*
G75*
G02*
X141052500Y-99170000I262500J0D01*
G01*
X141677500Y-99170000D01*
G75*
G02*
X141940000Y-99432500I0J-262500D01*
G01*
G37*
G36*
G01*
X143690000Y-99432500D02*
X143690000Y-99957500D01*
G75*
G02*
X143427500Y-100220000I-262500J0D01*
G01*
X142802500Y-100220000D01*
G75*
G02*
X142540000Y-99957500I0J262500D01*
G01*
X142540000Y-99432500D01*
G75*
G02*
X142802500Y-99170000I262500J0D01*
G01*
X143427500Y-99170000D01*
G75*
G02*
X143690000Y-99432500I0J-262500D01*
G01*
G37*
%TD*%
%TO.C,R35*%
G36*
G01*
X131018000Y-77715500D02*
X131018000Y-78240500D01*
G75*
G02*
X130755500Y-78503000I-262500J0D01*
G01*
X130130500Y-78503000D01*
G75*
G02*
X129868000Y-78240500I0J262500D01*
G01*
X129868000Y-77715500D01*
G75*
G02*
X130130500Y-77453000I262500J0D01*
G01*
X130755500Y-77453000D01*
G75*
G02*
X131018000Y-77715500I0J-262500D01*
G01*
G37*
G36*
G01*
X132768000Y-77715500D02*
X132768000Y-78240500D01*
G75*
G02*
X132505500Y-78503000I-262500J0D01*
G01*
X131880500Y-78503000D01*
G75*
G02*
X131618000Y-78240500I0J262500D01*
G01*
X131618000Y-77715500D01*
G75*
G02*
X131880500Y-77453000I262500J0D01*
G01*
X132505500Y-77453000D01*
G75*
G02*
X132768000Y-77715500I0J-262500D01*
G01*
G37*
%TD*%
%TO.C,R34*%
G36*
G01*
X153932500Y-117175000D02*
X153407500Y-117175000D01*
G75*
G02*
X153145000Y-116912500I0J262500D01*
G01*
X153145000Y-116287500D01*
G75*
G02*
X153407500Y-116025000I262500J0D01*
G01*
X153932500Y-116025000D01*
G75*
G02*
X154195000Y-116287500I0J-262500D01*
G01*
X154195000Y-116912500D01*
G75*
G02*
X153932500Y-117175000I-262500J0D01*
G01*
G37*
G36*
G01*
X153932500Y-118925000D02*
X153407500Y-118925000D01*
G75*
G02*
X153145000Y-118662500I0J262500D01*
G01*
X153145000Y-118037500D01*
G75*
G02*
X153407500Y-117775000I262500J0D01*
G01*
X153932500Y-117775000D01*
G75*
G02*
X154195000Y-118037500I0J-262500D01*
G01*
X154195000Y-118662500D01*
G75*
G02*
X153932500Y-118925000I-262500J0D01*
G01*
G37*
%TD*%
%TO.C,R33*%
G36*
G01*
X155583500Y-117175000D02*
X155058500Y-117175000D01*
G75*
G02*
X154796000Y-116912500I0J262500D01*
G01*
X154796000Y-116287500D01*
G75*
G02*
X155058500Y-116025000I262500J0D01*
G01*
X155583500Y-116025000D01*
G75*
G02*
X155846000Y-116287500I0J-262500D01*
G01*
X155846000Y-116912500D01*
G75*
G02*
X155583500Y-117175000I-262500J0D01*
G01*
G37*
G36*
G01*
X155583500Y-118925000D02*
X155058500Y-118925000D01*
G75*
G02*
X154796000Y-118662500I0J262500D01*
G01*
X154796000Y-118037500D01*
G75*
G02*
X155058500Y-117775000I262500J0D01*
G01*
X155583500Y-117775000D01*
G75*
G02*
X155846000Y-118037500I0J-262500D01*
G01*
X155846000Y-118662500D01*
G75*
G02*
X155583500Y-118925000I-262500J0D01*
G01*
G37*
%TD*%
%TO.C,R32*%
G36*
G01*
X161244000Y-106417500D02*
X161244000Y-106942500D01*
G75*
G02*
X160981500Y-107205000I-262500J0D01*
G01*
X160356500Y-107205000D01*
G75*
G02*
X160094000Y-106942500I0J262500D01*
G01*
X160094000Y-106417500D01*
G75*
G02*
X160356500Y-106155000I262500J0D01*
G01*
X160981500Y-106155000D01*
G75*
G02*
X161244000Y-106417500I0J-262500D01*
G01*
G37*
G36*
G01*
X162994000Y-106417500D02*
X162994000Y-106942500D01*
G75*
G02*
X162731500Y-107205000I-262500J0D01*
G01*
X162106500Y-107205000D01*
G75*
G02*
X161844000Y-106942500I0J262500D01*
G01*
X161844000Y-106417500D01*
G75*
G02*
X162106500Y-106155000I262500J0D01*
G01*
X162731500Y-106155000D01*
G75*
G02*
X162994000Y-106417500I0J-262500D01*
G01*
G37*
%TD*%
%TO.C,R31*%
G36*
G01*
X161244000Y-108957500D02*
X161244000Y-109482500D01*
G75*
G02*
X160981500Y-109745000I-262500J0D01*
G01*
X160356500Y-109745000D01*
G75*
G02*
X160094000Y-109482500I0J262500D01*
G01*
X160094000Y-108957500D01*
G75*
G02*
X160356500Y-108695000I262500J0D01*
G01*
X160981500Y-108695000D01*
G75*
G02*
X161244000Y-108957500I0J-262500D01*
G01*
G37*
G36*
G01*
X162994000Y-108957500D02*
X162994000Y-109482500D01*
G75*
G02*
X162731500Y-109745000I-262500J0D01*
G01*
X162106500Y-109745000D01*
G75*
G02*
X161844000Y-109482500I0J262500D01*
G01*
X161844000Y-108957500D01*
G75*
G02*
X162106500Y-108695000I262500J0D01*
G01*
X162731500Y-108695000D01*
G75*
G02*
X162994000Y-108957500I0J-262500D01*
G01*
G37*
%TD*%
%TO.C,R30*%
G36*
G01*
X161258000Y-114037500D02*
X161258000Y-114562500D01*
G75*
G02*
X160995500Y-114825000I-262500J0D01*
G01*
X160370500Y-114825000D01*
G75*
G02*
X160108000Y-114562500I0J262500D01*
G01*
X160108000Y-114037500D01*
G75*
G02*
X160370500Y-113775000I262500J0D01*
G01*
X160995500Y-113775000D01*
G75*
G02*
X161258000Y-114037500I0J-262500D01*
G01*
G37*
G36*
G01*
X163008000Y-114037500D02*
X163008000Y-114562500D01*
G75*
G02*
X162745500Y-114825000I-262500J0D01*
G01*
X162120500Y-114825000D01*
G75*
G02*
X161858000Y-114562500I0J262500D01*
G01*
X161858000Y-114037500D01*
G75*
G02*
X162120500Y-113775000I262500J0D01*
G01*
X162745500Y-113775000D01*
G75*
G02*
X163008000Y-114037500I0J-262500D01*
G01*
G37*
%TD*%
%TO.C,R29*%
G36*
G01*
X161244000Y-101337500D02*
X161244000Y-101862500D01*
G75*
G02*
X160981500Y-102125000I-262500J0D01*
G01*
X160356500Y-102125000D01*
G75*
G02*
X160094000Y-101862500I0J262500D01*
G01*
X160094000Y-101337500D01*
G75*
G02*
X160356500Y-101075000I262500J0D01*
G01*
X160981500Y-101075000D01*
G75*
G02*
X161244000Y-101337500I0J-262500D01*
G01*
G37*
G36*
G01*
X162994000Y-101337500D02*
X162994000Y-101862500D01*
G75*
G02*
X162731500Y-102125000I-262500J0D01*
G01*
X162106500Y-102125000D01*
G75*
G02*
X161844000Y-101862500I0J262500D01*
G01*
X161844000Y-101337500D01*
G75*
G02*
X162106500Y-101075000I262500J0D01*
G01*
X162731500Y-101075000D01*
G75*
G02*
X162994000Y-101337500I0J-262500D01*
G01*
G37*
%TD*%
%TO.C,R28*%
G36*
G01*
X161844000Y-104402500D02*
X161844000Y-103877500D01*
G75*
G02*
X162106500Y-103615000I262500J0D01*
G01*
X162731500Y-103615000D01*
G75*
G02*
X162994000Y-103877500I0J-262500D01*
G01*
X162994000Y-104402500D01*
G75*
G02*
X162731500Y-104665000I-262500J0D01*
G01*
X162106500Y-104665000D01*
G75*
G02*
X161844000Y-104402500I0J262500D01*
G01*
G37*
G36*
G01*
X160094000Y-104402500D02*
X160094000Y-103877500D01*
G75*
G02*
X160356500Y-103615000I262500J0D01*
G01*
X160981500Y-103615000D01*
G75*
G02*
X161244000Y-103877500I0J-262500D01*
G01*
X161244000Y-104402500D01*
G75*
G02*
X160981500Y-104665000I-262500J0D01*
G01*
X160356500Y-104665000D01*
G75*
G02*
X160094000Y-104402500I0J262500D01*
G01*
G37*
%TD*%
%TO.C,R27*%
G36*
G01*
X161858000Y-99322500D02*
X161858000Y-98797500D01*
G75*
G02*
X162120500Y-98535000I262500J0D01*
G01*
X162745500Y-98535000D01*
G75*
G02*
X163008000Y-98797500I0J-262500D01*
G01*
X163008000Y-99322500D01*
G75*
G02*
X162745500Y-99585000I-262500J0D01*
G01*
X162120500Y-99585000D01*
G75*
G02*
X161858000Y-99322500I0J262500D01*
G01*
G37*
G36*
G01*
X160108000Y-99322500D02*
X160108000Y-98797500D01*
G75*
G02*
X160370500Y-98535000I262500J0D01*
G01*
X160995500Y-98535000D01*
G75*
G02*
X161258000Y-98797500I0J-262500D01*
G01*
X161258000Y-99322500D01*
G75*
G02*
X160995500Y-99585000I-262500J0D01*
G01*
X160370500Y-99585000D01*
G75*
G02*
X160108000Y-99322500I0J262500D01*
G01*
G37*
%TD*%
%TO.C,R26*%
G36*
G01*
X161844000Y-117102500D02*
X161844000Y-116577500D01*
G75*
G02*
X162106500Y-116315000I262500J0D01*
G01*
X162731500Y-116315000D01*
G75*
G02*
X162994000Y-116577500I0J-262500D01*
G01*
X162994000Y-117102500D01*
G75*
G02*
X162731500Y-117365000I-262500J0D01*
G01*
X162106500Y-117365000D01*
G75*
G02*
X161844000Y-117102500I0J262500D01*
G01*
G37*
G36*
G01*
X160094000Y-117102500D02*
X160094000Y-116577500D01*
G75*
G02*
X160356500Y-116315000I262500J0D01*
G01*
X160981500Y-116315000D01*
G75*
G02*
X161244000Y-116577500I0J-262500D01*
G01*
X161244000Y-117102500D01*
G75*
G02*
X160981500Y-117365000I-262500J0D01*
G01*
X160356500Y-117365000D01*
G75*
G02*
X160094000Y-117102500I0J262500D01*
G01*
G37*
%TD*%
%TO.C,R25*%
G36*
G01*
X125776000Y-104402500D02*
X125776000Y-103877500D01*
G75*
G02*
X126038500Y-103615000I262500J0D01*
G01*
X126663500Y-103615000D01*
G75*
G02*
X126926000Y-103877500I0J-262500D01*
G01*
X126926000Y-104402500D01*
G75*
G02*
X126663500Y-104665000I-262500J0D01*
G01*
X126038500Y-104665000D01*
G75*
G02*
X125776000Y-104402500I0J262500D01*
G01*
G37*
G36*
G01*
X124026000Y-104402500D02*
X124026000Y-103877500D01*
G75*
G02*
X124288500Y-103615000I262500J0D01*
G01*
X124913500Y-103615000D01*
G75*
G02*
X125176000Y-103877500I0J-262500D01*
G01*
X125176000Y-104402500D01*
G75*
G02*
X124913500Y-104665000I-262500J0D01*
G01*
X124288500Y-104665000D01*
G75*
G02*
X124026000Y-104402500I0J262500D01*
G01*
G37*
%TD*%
%TO.C,R24*%
G36*
G01*
X125776000Y-101862500D02*
X125776000Y-101337500D01*
G75*
G02*
X126038500Y-101075000I262500J0D01*
G01*
X126663500Y-101075000D01*
G75*
G02*
X126926000Y-101337500I0J-262500D01*
G01*
X126926000Y-101862500D01*
G75*
G02*
X126663500Y-102125000I-262500J0D01*
G01*
X126038500Y-102125000D01*
G75*
G02*
X125776000Y-101862500I0J262500D01*
G01*
G37*
G36*
G01*
X124026000Y-101862500D02*
X124026000Y-101337500D01*
G75*
G02*
X124288500Y-101075000I262500J0D01*
G01*
X124913500Y-101075000D01*
G75*
G02*
X125176000Y-101337500I0J-262500D01*
G01*
X125176000Y-101862500D01*
G75*
G02*
X124913500Y-102125000I-262500J0D01*
G01*
X124288500Y-102125000D01*
G75*
G02*
X124026000Y-101862500I0J262500D01*
G01*
G37*
%TD*%
%TO.C,R23*%
G36*
G01*
X125776000Y-106942500D02*
X125776000Y-106417500D01*
G75*
G02*
X126038500Y-106155000I262500J0D01*
G01*
X126663500Y-106155000D01*
G75*
G02*
X126926000Y-106417500I0J-262500D01*
G01*
X126926000Y-106942500D01*
G75*
G02*
X126663500Y-107205000I-262500J0D01*
G01*
X126038500Y-107205000D01*
G75*
G02*
X125776000Y-106942500I0J262500D01*
G01*
G37*
G36*
G01*
X124026000Y-106942500D02*
X124026000Y-106417500D01*
G75*
G02*
X124288500Y-106155000I262500J0D01*
G01*
X124913500Y-106155000D01*
G75*
G02*
X125176000Y-106417500I0J-262500D01*
G01*
X125176000Y-106942500D01*
G75*
G02*
X124913500Y-107205000I-262500J0D01*
G01*
X124288500Y-107205000D01*
G75*
G02*
X124026000Y-106942500I0J262500D01*
G01*
G37*
%TD*%
%TO.C,R22*%
G36*
G01*
X125776000Y-99322500D02*
X125776000Y-98797500D01*
G75*
G02*
X126038500Y-98535000I262500J0D01*
G01*
X126663500Y-98535000D01*
G75*
G02*
X126926000Y-98797500I0J-262500D01*
G01*
X126926000Y-99322500D01*
G75*
G02*
X126663500Y-99585000I-262500J0D01*
G01*
X126038500Y-99585000D01*
G75*
G02*
X125776000Y-99322500I0J262500D01*
G01*
G37*
G36*
G01*
X124026000Y-99322500D02*
X124026000Y-98797500D01*
G75*
G02*
X124288500Y-98535000I262500J0D01*
G01*
X124913500Y-98535000D01*
G75*
G02*
X125176000Y-98797500I0J-262500D01*
G01*
X125176000Y-99322500D01*
G75*
G02*
X124913500Y-99585000I-262500J0D01*
G01*
X124288500Y-99585000D01*
G75*
G02*
X124026000Y-99322500I0J262500D01*
G01*
G37*
%TD*%
%TO.C,R21*%
G36*
G01*
X125903000Y-112022500D02*
X125903000Y-111497500D01*
G75*
G02*
X126165500Y-111235000I262500J0D01*
G01*
X126790500Y-111235000D01*
G75*
G02*
X127053000Y-111497500I0J-262500D01*
G01*
X127053000Y-112022500D01*
G75*
G02*
X126790500Y-112285000I-262500J0D01*
G01*
X126165500Y-112285000D01*
G75*
G02*
X125903000Y-112022500I0J262500D01*
G01*
G37*
G36*
G01*
X124153000Y-112022500D02*
X124153000Y-111497500D01*
G75*
G02*
X124415500Y-111235000I262500J0D01*
G01*
X125040500Y-111235000D01*
G75*
G02*
X125303000Y-111497500I0J-262500D01*
G01*
X125303000Y-112022500D01*
G75*
G02*
X125040500Y-112285000I-262500J0D01*
G01*
X124415500Y-112285000D01*
G75*
G02*
X124153000Y-112022500I0J262500D01*
G01*
G37*
%TD*%
%TO.C,R20*%
G36*
G01*
X125176000Y-116577500D02*
X125176000Y-117102500D01*
G75*
G02*
X124913500Y-117365000I-262500J0D01*
G01*
X124288500Y-117365000D01*
G75*
G02*
X124026000Y-117102500I0J262500D01*
G01*
X124026000Y-116577500D01*
G75*
G02*
X124288500Y-116315000I262500J0D01*
G01*
X124913500Y-116315000D01*
G75*
G02*
X125176000Y-116577500I0J-262500D01*
G01*
G37*
G36*
G01*
X126926000Y-116577500D02*
X126926000Y-117102500D01*
G75*
G02*
X126663500Y-117365000I-262500J0D01*
G01*
X126038500Y-117365000D01*
G75*
G02*
X125776000Y-117102500I0J262500D01*
G01*
X125776000Y-116577500D01*
G75*
G02*
X126038500Y-116315000I262500J0D01*
G01*
X126663500Y-116315000D01*
G75*
G02*
X126926000Y-116577500I0J-262500D01*
G01*
G37*
%TD*%
%TO.C,R19*%
G36*
G01*
X125176000Y-114037500D02*
X125176000Y-114562500D01*
G75*
G02*
X124913500Y-114825000I-262500J0D01*
G01*
X124288500Y-114825000D01*
G75*
G02*
X124026000Y-114562500I0J262500D01*
G01*
X124026000Y-114037500D01*
G75*
G02*
X124288500Y-113775000I262500J0D01*
G01*
X124913500Y-113775000D01*
G75*
G02*
X125176000Y-114037500I0J-262500D01*
G01*
G37*
G36*
G01*
X126926000Y-114037500D02*
X126926000Y-114562500D01*
G75*
G02*
X126663500Y-114825000I-262500J0D01*
G01*
X126038500Y-114825000D01*
G75*
G02*
X125776000Y-114562500I0J262500D01*
G01*
X125776000Y-114037500D01*
G75*
G02*
X126038500Y-113775000I262500J0D01*
G01*
X126663500Y-113775000D01*
G75*
G02*
X126926000Y-114037500I0J-262500D01*
G01*
G37*
%TD*%
%TO.C,R18*%
G36*
G01*
X125176000Y-96257500D02*
X125176000Y-96782500D01*
G75*
G02*
X124913500Y-97045000I-262500J0D01*
G01*
X124288500Y-97045000D01*
G75*
G02*
X124026000Y-96782500I0J262500D01*
G01*
X124026000Y-96257500D01*
G75*
G02*
X124288500Y-95995000I262500J0D01*
G01*
X124913500Y-95995000D01*
G75*
G02*
X125176000Y-96257500I0J-262500D01*
G01*
G37*
G36*
G01*
X126926000Y-96257500D02*
X126926000Y-96782500D01*
G75*
G02*
X126663500Y-97045000I-262500J0D01*
G01*
X126038500Y-97045000D01*
G75*
G02*
X125776000Y-96782500I0J262500D01*
G01*
X125776000Y-96257500D01*
G75*
G02*
X126038500Y-95995000I262500J0D01*
G01*
X126663500Y-95995000D01*
G75*
G02*
X126926000Y-96257500I0J-262500D01*
G01*
G37*
%TD*%
%TO.C,R17*%
G36*
G01*
X134882500Y-124414000D02*
X134357500Y-124414000D01*
G75*
G02*
X134095000Y-124151500I0J262500D01*
G01*
X134095000Y-123526500D01*
G75*
G02*
X134357500Y-123264000I262500J0D01*
G01*
X134882500Y-123264000D01*
G75*
G02*
X135145000Y-123526500I0J-262500D01*
G01*
X135145000Y-124151500D01*
G75*
G02*
X134882500Y-124414000I-262500J0D01*
G01*
G37*
G36*
G01*
X134882500Y-126164000D02*
X134357500Y-126164000D01*
G75*
G02*
X134095000Y-125901500I0J262500D01*
G01*
X134095000Y-125276500D01*
G75*
G02*
X134357500Y-125014000I262500J0D01*
G01*
X134882500Y-125014000D01*
G75*
G02*
X135145000Y-125276500I0J-262500D01*
G01*
X135145000Y-125901500D01*
G75*
G02*
X134882500Y-126164000I-262500J0D01*
G01*
G37*
%TD*%
%TO.C,R16*%
G36*
G01*
X120950000Y-137930500D02*
X120950000Y-137405500D01*
G75*
G02*
X121212500Y-137143000I262500J0D01*
G01*
X121837500Y-137143000D01*
G75*
G02*
X122100000Y-137405500I0J-262500D01*
G01*
X122100000Y-137930500D01*
G75*
G02*
X121837500Y-138193000I-262500J0D01*
G01*
X121212500Y-138193000D01*
G75*
G02*
X120950000Y-137930500I0J262500D01*
G01*
G37*
G36*
G01*
X119200000Y-137930500D02*
X119200000Y-137405500D01*
G75*
G02*
X119462500Y-137143000I262500J0D01*
G01*
X120087500Y-137143000D01*
G75*
G02*
X120350000Y-137405500I0J-262500D01*
G01*
X120350000Y-137930500D01*
G75*
G02*
X120087500Y-138193000I-262500J0D01*
G01*
X119462500Y-138193000D01*
G75*
G02*
X119200000Y-137930500I0J262500D01*
G01*
G37*
%TD*%
%TO.C,R15*%
G36*
G01*
X144353000Y-131563500D02*
X144353000Y-132088500D01*
G75*
G02*
X144090500Y-132351000I-262500J0D01*
G01*
X143465500Y-132351000D01*
G75*
G02*
X143203000Y-132088500I0J262500D01*
G01*
X143203000Y-131563500D01*
G75*
G02*
X143465500Y-131301000I262500J0D01*
G01*
X144090500Y-131301000D01*
G75*
G02*
X144353000Y-131563500I0J-262500D01*
G01*
G37*
G36*
G01*
X146103000Y-131563500D02*
X146103000Y-132088500D01*
G75*
G02*
X145840500Y-132351000I-262500J0D01*
G01*
X145215500Y-132351000D01*
G75*
G02*
X144953000Y-132088500I0J262500D01*
G01*
X144953000Y-131563500D01*
G75*
G02*
X145215500Y-131301000I262500J0D01*
G01*
X145840500Y-131301000D01*
G75*
G02*
X146103000Y-131563500I0J-262500D01*
G01*
G37*
%TD*%
%TO.C,R14*%
G36*
G01*
X158450000Y-130547500D02*
X158450000Y-131072500D01*
G75*
G02*
X158187500Y-131335000I-262500J0D01*
G01*
X157562500Y-131335000D01*
G75*
G02*
X157300000Y-131072500I0J262500D01*
G01*
X157300000Y-130547500D01*
G75*
G02*
X157562500Y-130285000I262500J0D01*
G01*
X158187500Y-130285000D01*
G75*
G02*
X158450000Y-130547500I0J-262500D01*
G01*
G37*
G36*
G01*
X160200000Y-130547500D02*
X160200000Y-131072500D01*
G75*
G02*
X159937500Y-131335000I-262500J0D01*
G01*
X159312500Y-131335000D01*
G75*
G02*
X159050000Y-131072500I0J262500D01*
G01*
X159050000Y-130547500D01*
G75*
G02*
X159312500Y-130285000I262500J0D01*
G01*
X159937500Y-130285000D01*
G75*
G02*
X160200000Y-130547500I0J-262500D01*
G01*
G37*
%TD*%
%TO.C,R13*%
G36*
G01*
X128570000Y-137930500D02*
X128570000Y-137405500D01*
G75*
G02*
X128832500Y-137143000I262500J0D01*
G01*
X129457500Y-137143000D01*
G75*
G02*
X129720000Y-137405500I0J-262500D01*
G01*
X129720000Y-137930500D01*
G75*
G02*
X129457500Y-138193000I-262500J0D01*
G01*
X128832500Y-138193000D01*
G75*
G02*
X128570000Y-137930500I0J262500D01*
G01*
G37*
G36*
G01*
X126820000Y-137930500D02*
X126820000Y-137405500D01*
G75*
G02*
X127082500Y-137143000I262500J0D01*
G01*
X127707500Y-137143000D01*
G75*
G02*
X127970000Y-137405500I0J-262500D01*
G01*
X127970000Y-137930500D01*
G75*
G02*
X127707500Y-138193000I-262500J0D01*
G01*
X127082500Y-138193000D01*
G75*
G02*
X126820000Y-137930500I0J262500D01*
G01*
G37*
%TD*%
%TO.C,R12*%
G36*
G01*
X139873000Y-133612500D02*
X139873000Y-133087500D01*
G75*
G02*
X140135500Y-132825000I262500J0D01*
G01*
X140760500Y-132825000D01*
G75*
G02*
X141023000Y-133087500I0J-262500D01*
G01*
X141023000Y-133612500D01*
G75*
G02*
X140760500Y-133875000I-262500J0D01*
G01*
X140135500Y-133875000D01*
G75*
G02*
X139873000Y-133612500I0J262500D01*
G01*
G37*
G36*
G01*
X138123000Y-133612500D02*
X138123000Y-133087500D01*
G75*
G02*
X138385500Y-132825000I262500J0D01*
G01*
X139010500Y-132825000D01*
G75*
G02*
X139273000Y-133087500I0J-262500D01*
G01*
X139273000Y-133612500D01*
G75*
G02*
X139010500Y-133875000I-262500J0D01*
G01*
X138385500Y-133875000D01*
G75*
G02*
X138123000Y-133612500I0J262500D01*
G01*
G37*
%TD*%
%TO.C,R11*%
G36*
G01*
X144953000Y-133612500D02*
X144953000Y-133087500D01*
G75*
G02*
X145215500Y-132825000I262500J0D01*
G01*
X145840500Y-132825000D01*
G75*
G02*
X146103000Y-133087500I0J-262500D01*
G01*
X146103000Y-133612500D01*
G75*
G02*
X145840500Y-133875000I-262500J0D01*
G01*
X145215500Y-133875000D01*
G75*
G02*
X144953000Y-133612500I0J262500D01*
G01*
G37*
G36*
G01*
X143203000Y-133612500D02*
X143203000Y-133087500D01*
G75*
G02*
X143465500Y-132825000I262500J0D01*
G01*
X144090500Y-132825000D01*
G75*
G02*
X144353000Y-133087500I0J-262500D01*
G01*
X144353000Y-133612500D01*
G75*
G02*
X144090500Y-133875000I-262500J0D01*
G01*
X143465500Y-133875000D01*
G75*
G02*
X143203000Y-133612500I0J262500D01*
G01*
G37*
%TD*%
%TO.C,R10*%
G36*
G01*
X153970000Y-132596500D02*
X153970000Y-132071500D01*
G75*
G02*
X154232500Y-131809000I262500J0D01*
G01*
X154857500Y-131809000D01*
G75*
G02*
X155120000Y-132071500I0J-262500D01*
G01*
X155120000Y-132596500D01*
G75*
G02*
X154857500Y-132859000I-262500J0D01*
G01*
X154232500Y-132859000D01*
G75*
G02*
X153970000Y-132596500I0J262500D01*
G01*
G37*
G36*
G01*
X152220000Y-132596500D02*
X152220000Y-132071500D01*
G75*
G02*
X152482500Y-131809000I262500J0D01*
G01*
X153107500Y-131809000D01*
G75*
G02*
X153370000Y-132071500I0J-262500D01*
G01*
X153370000Y-132596500D01*
G75*
G02*
X153107500Y-132859000I-262500J0D01*
G01*
X152482500Y-132859000D01*
G75*
G02*
X152220000Y-132596500I0J262500D01*
G01*
G37*
%TD*%
%TO.C,R9*%
G36*
G01*
X159050000Y-132596500D02*
X159050000Y-132071500D01*
G75*
G02*
X159312500Y-131809000I262500J0D01*
G01*
X159937500Y-131809000D01*
G75*
G02*
X160200000Y-132071500I0J-262500D01*
G01*
X160200000Y-132596500D01*
G75*
G02*
X159937500Y-132859000I-262500J0D01*
G01*
X159312500Y-132859000D01*
G75*
G02*
X159050000Y-132596500I0J262500D01*
G01*
G37*
G36*
G01*
X157300000Y-132596500D02*
X157300000Y-132071500D01*
G75*
G02*
X157562500Y-131809000I262500J0D01*
G01*
X158187500Y-131809000D01*
G75*
G02*
X158450000Y-132071500I0J-262500D01*
G01*
X158450000Y-132596500D01*
G75*
G02*
X158187500Y-132859000I-262500J0D01*
G01*
X157562500Y-132859000D01*
G75*
G02*
X157300000Y-132596500I0J262500D01*
G01*
G37*
%TD*%
%TO.C,R8*%
G36*
G01*
X144953000Y-135136500D02*
X144953000Y-134611500D01*
G75*
G02*
X145215500Y-134349000I262500J0D01*
G01*
X145840500Y-134349000D01*
G75*
G02*
X146103000Y-134611500I0J-262500D01*
G01*
X146103000Y-135136500D01*
G75*
G02*
X145840500Y-135399000I-262500J0D01*
G01*
X145215500Y-135399000D01*
G75*
G02*
X144953000Y-135136500I0J262500D01*
G01*
G37*
G36*
G01*
X143203000Y-135136500D02*
X143203000Y-134611500D01*
G75*
G02*
X143465500Y-134349000I262500J0D01*
G01*
X144090500Y-134349000D01*
G75*
G02*
X144353000Y-134611500I0J-262500D01*
G01*
X144353000Y-135136500D01*
G75*
G02*
X144090500Y-135399000I-262500J0D01*
G01*
X143465500Y-135399000D01*
G75*
G02*
X143203000Y-135136500I0J262500D01*
G01*
G37*
%TD*%
%TO.C,R7*%
G36*
G01*
X159050000Y-134120500D02*
X159050000Y-133595500D01*
G75*
G02*
X159312500Y-133333000I262500J0D01*
G01*
X159937500Y-133333000D01*
G75*
G02*
X160200000Y-133595500I0J-262500D01*
G01*
X160200000Y-134120500D01*
G75*
G02*
X159937500Y-134383000I-262500J0D01*
G01*
X159312500Y-134383000D01*
G75*
G02*
X159050000Y-134120500I0J262500D01*
G01*
G37*
G36*
G01*
X157300000Y-134120500D02*
X157300000Y-133595500D01*
G75*
G02*
X157562500Y-133333000I262500J0D01*
G01*
X158187500Y-133333000D01*
G75*
G02*
X158450000Y-133595500I0J-262500D01*
G01*
X158450000Y-134120500D01*
G75*
G02*
X158187500Y-134383000I-262500J0D01*
G01*
X157562500Y-134383000D01*
G75*
G02*
X157300000Y-134120500I0J262500D01*
G01*
G37*
%TD*%
%TO.C,R6*%
G36*
G01*
X139873000Y-135136500D02*
X139873000Y-134611500D01*
G75*
G02*
X140135500Y-134349000I262500J0D01*
G01*
X140760500Y-134349000D01*
G75*
G02*
X141023000Y-134611500I0J-262500D01*
G01*
X141023000Y-135136500D01*
G75*
G02*
X140760500Y-135399000I-262500J0D01*
G01*
X140135500Y-135399000D01*
G75*
G02*
X139873000Y-135136500I0J262500D01*
G01*
G37*
G36*
G01*
X138123000Y-135136500D02*
X138123000Y-134611500D01*
G75*
G02*
X138385500Y-134349000I262500J0D01*
G01*
X139010500Y-134349000D01*
G75*
G02*
X139273000Y-134611500I0J-262500D01*
G01*
X139273000Y-135136500D01*
G75*
G02*
X139010500Y-135399000I-262500J0D01*
G01*
X138385500Y-135399000D01*
G75*
G02*
X138123000Y-135136500I0J262500D01*
G01*
G37*
%TD*%
%TO.C,R5*%
G36*
G01*
X153970000Y-134120500D02*
X153970000Y-133595500D01*
G75*
G02*
X154232500Y-133333000I262500J0D01*
G01*
X154857500Y-133333000D01*
G75*
G02*
X155120000Y-133595500I0J-262500D01*
G01*
X155120000Y-134120500D01*
G75*
G02*
X154857500Y-134383000I-262500J0D01*
G01*
X154232500Y-134383000D01*
G75*
G02*
X153970000Y-134120500I0J262500D01*
G01*
G37*
G36*
G01*
X152220000Y-134120500D02*
X152220000Y-133595500D01*
G75*
G02*
X152482500Y-133333000I262500J0D01*
G01*
X153107500Y-133333000D01*
G75*
G02*
X153370000Y-133595500I0J-262500D01*
G01*
X153370000Y-134120500D01*
G75*
G02*
X153107500Y-134383000I-262500J0D01*
G01*
X152482500Y-134383000D01*
G75*
G02*
X152220000Y-134120500I0J262500D01*
G01*
G37*
%TD*%
%TO.C,R4*%
G36*
G01*
X142829000Y-136389500D02*
X142829000Y-136914500D01*
G75*
G02*
X142566500Y-137177000I-262500J0D01*
G01*
X141941500Y-137177000D01*
G75*
G02*
X141679000Y-136914500I0J262500D01*
G01*
X141679000Y-136389500D01*
G75*
G02*
X141941500Y-136127000I262500J0D01*
G01*
X142566500Y-136127000D01*
G75*
G02*
X142829000Y-136389500I0J-262500D01*
G01*
G37*
G36*
G01*
X144579000Y-136389500D02*
X144579000Y-136914500D01*
G75*
G02*
X144316500Y-137177000I-262500J0D01*
G01*
X143691500Y-137177000D01*
G75*
G02*
X143429000Y-136914500I0J262500D01*
G01*
X143429000Y-136389500D01*
G75*
G02*
X143691500Y-136127000I262500J0D01*
G01*
X144316500Y-136127000D01*
G75*
G02*
X144579000Y-136389500I0J-262500D01*
G01*
G37*
%TD*%
%TO.C,R3*%
G36*
G01*
X157526000Y-135898500D02*
X157526000Y-135373500D01*
G75*
G02*
X157788500Y-135111000I262500J0D01*
G01*
X158413500Y-135111000D01*
G75*
G02*
X158676000Y-135373500I0J-262500D01*
G01*
X158676000Y-135898500D01*
G75*
G02*
X158413500Y-136161000I-262500J0D01*
G01*
X157788500Y-136161000D01*
G75*
G02*
X157526000Y-135898500I0J262500D01*
G01*
G37*
G36*
G01*
X155776000Y-135898500D02*
X155776000Y-135373500D01*
G75*
G02*
X156038500Y-135111000I262500J0D01*
G01*
X156663500Y-135111000D01*
G75*
G02*
X156926000Y-135373500I0J-262500D01*
G01*
X156926000Y-135898500D01*
G75*
G02*
X156663500Y-136161000I-262500J0D01*
G01*
X156038500Y-136161000D01*
G75*
G02*
X155776000Y-135898500I0J262500D01*
G01*
G37*
%TD*%
%TO.C,R2*%
G36*
G01*
X117789000Y-60714500D02*
X117789000Y-60189500D01*
G75*
G02*
X118051500Y-59927000I262500J0D01*
G01*
X118676500Y-59927000D01*
G75*
G02*
X118939000Y-60189500I0J-262500D01*
G01*
X118939000Y-60714500D01*
G75*
G02*
X118676500Y-60977000I-262500J0D01*
G01*
X118051500Y-60977000D01*
G75*
G02*
X117789000Y-60714500I0J262500D01*
G01*
G37*
G36*
G01*
X116039000Y-60714500D02*
X116039000Y-60189500D01*
G75*
G02*
X116301500Y-59927000I262500J0D01*
G01*
X116926500Y-59927000D01*
G75*
G02*
X117189000Y-60189500I0J-262500D01*
G01*
X117189000Y-60714500D01*
G75*
G02*
X116926500Y-60977000I-262500J0D01*
G01*
X116301500Y-60977000D01*
G75*
G02*
X116039000Y-60714500I0J262500D01*
G01*
G37*
%TD*%
%TO.C,R1*%
G36*
G01*
X129219000Y-60714500D02*
X129219000Y-60189500D01*
G75*
G02*
X129481500Y-59927000I262500J0D01*
G01*
X130106500Y-59927000D01*
G75*
G02*
X130369000Y-60189500I0J-262500D01*
G01*
X130369000Y-60714500D01*
G75*
G02*
X130106500Y-60977000I-262500J0D01*
G01*
X129481500Y-60977000D01*
G75*
G02*
X129219000Y-60714500I0J262500D01*
G01*
G37*
G36*
G01*
X127469000Y-60714500D02*
X127469000Y-60189500D01*
G75*
G02*
X127731500Y-59927000I262500J0D01*
G01*
X128356500Y-59927000D01*
G75*
G02*
X128619000Y-60189500I0J-262500D01*
G01*
X128619000Y-60714500D01*
G75*
G02*
X128356500Y-60977000I-262500J0D01*
G01*
X127731500Y-60977000D01*
G75*
G02*
X127469000Y-60714500I0J262500D01*
G01*
G37*
%TD*%
D16*
%TO.C,Q4*%
X159512000Y-118507000D03*
X160462000Y-120507000D03*
X158562000Y-120507000D03*
%TD*%
%TO.C,Q3*%
X159512000Y-122063000D03*
X160462000Y-124063000D03*
X158562000Y-124063000D03*
%TD*%
D17*
%TO.C,Q2*%
X126603000Y-75311000D03*
X124603000Y-76261000D03*
X124603000Y-74361000D03*
%TD*%
%TO.C,Q1*%
X132064000Y-75311000D03*
X130064000Y-76261000D03*
X130064000Y-74361000D03*
%TD*%
D18*
%TO.C,J10*%
X119380000Y-142240000D03*
D19*
X119380000Y-144780000D03*
D20*
X121920000Y-142240000D03*
D19*
X121920000Y-144780000D03*
%TD*%
D18*
%TO.C,J9*%
X127000000Y-142240000D03*
D19*
X127000000Y-144780000D03*
D20*
X129540000Y-142240000D03*
D19*
X129540000Y-144780000D03*
%TD*%
D18*
%TO.C,J8*%
X157480000Y-142240000D03*
D19*
X157480000Y-144780000D03*
D20*
X160020000Y-142240000D03*
D19*
X160020000Y-144780000D03*
%TD*%
D18*
%TO.C,J7*%
X165100000Y-142240000D03*
D19*
X165100000Y-144780000D03*
D20*
X167640000Y-142240000D03*
D19*
X167640000Y-144780000D03*
%TD*%
D21*
%TO.C,J6*%
X167640000Y-132080000D03*
X165100000Y-132080000D03*
X167640000Y-129540000D03*
X165100000Y-129540000D03*
X167640000Y-127000000D03*
X165100000Y-127000000D03*
X167640000Y-124460000D03*
X165100000Y-124460000D03*
X167640000Y-121920000D03*
X165100000Y-121920000D03*
X167640000Y-119380000D03*
X165100000Y-119380000D03*
X167640000Y-116840000D03*
X165100000Y-116840000D03*
X167640000Y-114300000D03*
X165100000Y-114300000D03*
X167640000Y-111760000D03*
X165100000Y-111760000D03*
X167640000Y-109220000D03*
X165100000Y-109220000D03*
X167640000Y-106680000D03*
X165100000Y-106680000D03*
X167640000Y-104140000D03*
X165100000Y-104140000D03*
X167640000Y-101600000D03*
X165100000Y-101600000D03*
X167640000Y-99060000D03*
X165100000Y-99060000D03*
X167640000Y-96520000D03*
X165100000Y-96520000D03*
X167640000Y-93980000D03*
X165100000Y-93980000D03*
X167640000Y-91440000D03*
D22*
X165100000Y-91440000D03*
%TD*%
D21*
%TO.C,J5*%
X121920000Y-132080000D03*
X119380000Y-132080000D03*
X121920000Y-129540000D03*
X119380000Y-129540000D03*
X121920000Y-127000000D03*
X119380000Y-127000000D03*
X121920000Y-124460000D03*
X119380000Y-124460000D03*
X121920000Y-121920000D03*
X119380000Y-121920000D03*
X121920000Y-119380000D03*
X119380000Y-119380000D03*
X121920000Y-116840000D03*
X119380000Y-116840000D03*
X121920000Y-114300000D03*
X119380000Y-114300000D03*
X121920000Y-111760000D03*
X119380000Y-111760000D03*
X121920000Y-109220000D03*
X119380000Y-109220000D03*
X121920000Y-106680000D03*
X119380000Y-106680000D03*
X121920000Y-104140000D03*
X119380000Y-104140000D03*
X121920000Y-101600000D03*
X119380000Y-101600000D03*
X121920000Y-99060000D03*
X119380000Y-99060000D03*
X121920000Y-96520000D03*
D22*
X119380000Y-96520000D03*
%TD*%
D21*
%TO.C,J4*%
X167640000Y-87630000D03*
X165100000Y-87630000D03*
X167640000Y-85090000D03*
X165100000Y-85090000D03*
X167640000Y-82550000D03*
X165100000Y-82550000D03*
X167640000Y-80010000D03*
X165100000Y-80010000D03*
X167640000Y-77470000D03*
X165100000Y-77470000D03*
X167640000Y-74930000D03*
X165100000Y-74930000D03*
X167640000Y-72390000D03*
X165100000Y-72390000D03*
X167640000Y-69850000D03*
X165100000Y-69850000D03*
X167640000Y-67310000D03*
X165100000Y-67310000D03*
X167640000Y-64770000D03*
D22*
X165100000Y-64770000D03*
%TD*%
D21*
%TO.C,J3*%
X121920000Y-91440000D03*
X119380000Y-91440000D03*
X121920000Y-88900000D03*
X119380000Y-88900000D03*
X121920000Y-86360000D03*
X119380000Y-86360000D03*
X121920000Y-83820000D03*
X119380000Y-83820000D03*
X121920000Y-81280000D03*
X119380000Y-81280000D03*
X121920000Y-78740000D03*
X119380000Y-78740000D03*
X121920000Y-76200000D03*
X119380000Y-76200000D03*
X121920000Y-73660000D03*
D22*
X119380000Y-73660000D03*
%TD*%
D19*
%TO.C,J2*%
X119380000Y-50800000D03*
D20*
X119380000Y-53340000D03*
D19*
X121920000Y-50800000D03*
D20*
X121920000Y-53340000D03*
D19*
X124460000Y-50800000D03*
D18*
X124460000Y-53340000D03*
%TD*%
%TO.C,J1*%
X167640000Y-53340000D03*
D19*
X167640000Y-50800000D03*
D20*
X165100000Y-53340000D03*
D19*
X165100000Y-50800000D03*
%TD*%
%TO.C,D11*%
G36*
G01*
X125162000Y-79366500D02*
X125162000Y-79891500D01*
G75*
G02*
X124899500Y-80154000I-262500J0D01*
G01*
X124274500Y-80154000D01*
G75*
G02*
X124012000Y-79891500I0J262500D01*
G01*
X124012000Y-79366500D01*
G75*
G02*
X124274500Y-79104000I262500J0D01*
G01*
X124899500Y-79104000D01*
G75*
G02*
X125162000Y-79366500I0J-262500D01*
G01*
G37*
G36*
G01*
X126912000Y-79366500D02*
X126912000Y-79891500D01*
G75*
G02*
X126649500Y-80154000I-262500J0D01*
G01*
X126024500Y-80154000D01*
G75*
G02*
X125762000Y-79891500I0J262500D01*
G01*
X125762000Y-79366500D01*
G75*
G02*
X126024500Y-79104000I262500J0D01*
G01*
X126649500Y-79104000D01*
G75*
G02*
X126912000Y-79366500I0J-262500D01*
G01*
G37*
%TD*%
%TO.C,D10*%
G36*
G01*
X159884500Y-61641000D02*
X160409500Y-61641000D01*
G75*
G02*
X160672000Y-61903500I0J-262500D01*
G01*
X160672000Y-62528500D01*
G75*
G02*
X160409500Y-62791000I-262500J0D01*
G01*
X159884500Y-62791000D01*
G75*
G02*
X159622000Y-62528500I0J262500D01*
G01*
X159622000Y-61903500D01*
G75*
G02*
X159884500Y-61641000I262500J0D01*
G01*
G37*
G36*
G01*
X159884500Y-59891000D02*
X160409500Y-59891000D01*
G75*
G02*
X160672000Y-60153500I0J-262500D01*
G01*
X160672000Y-60778500D01*
G75*
G02*
X160409500Y-61041000I-262500J0D01*
G01*
X159884500Y-61041000D01*
G75*
G02*
X159622000Y-60778500I0J262500D01*
G01*
X159622000Y-60153500D01*
G75*
G02*
X159884500Y-59891000I262500J0D01*
G01*
G37*
%TD*%
%TO.C,D9*%
G36*
G01*
X141469500Y-62544000D02*
X141994500Y-62544000D01*
G75*
G02*
X142257000Y-62806500I0J-262500D01*
G01*
X142257000Y-63431500D01*
G75*
G02*
X141994500Y-63694000I-262500J0D01*
G01*
X141469500Y-63694000D01*
G75*
G02*
X141207000Y-63431500I0J262500D01*
G01*
X141207000Y-62806500D01*
G75*
G02*
X141469500Y-62544000I262500J0D01*
G01*
G37*
G36*
G01*
X141469500Y-60794000D02*
X141994500Y-60794000D01*
G75*
G02*
X142257000Y-61056500I0J-262500D01*
G01*
X142257000Y-61681500D01*
G75*
G02*
X141994500Y-61944000I-262500J0D01*
G01*
X141469500Y-61944000D01*
G75*
G02*
X141207000Y-61681500I0J262500D01*
G01*
X141207000Y-61056500D01*
G75*
G02*
X141469500Y-60794000I262500J0D01*
G01*
G37*
%TD*%
%TO.C,D8*%
G36*
G01*
X145623000Y-99432500D02*
X145623000Y-99957500D01*
G75*
G02*
X145360500Y-100220000I-262500J0D01*
G01*
X144735500Y-100220000D01*
G75*
G02*
X144473000Y-99957500I0J262500D01*
G01*
X144473000Y-99432500D01*
G75*
G02*
X144735500Y-99170000I262500J0D01*
G01*
X145360500Y-99170000D01*
G75*
G02*
X145623000Y-99432500I0J-262500D01*
G01*
G37*
G36*
G01*
X147373000Y-99432500D02*
X147373000Y-99957500D01*
G75*
G02*
X147110500Y-100220000I-262500J0D01*
G01*
X146485500Y-100220000D01*
G75*
G02*
X146223000Y-99957500I0J262500D01*
G01*
X146223000Y-99432500D01*
G75*
G02*
X146485500Y-99170000I262500J0D01*
G01*
X147110500Y-99170000D01*
G75*
G02*
X147373000Y-99432500I0J-262500D01*
G01*
G37*
%TD*%
%TO.C,D7*%
G36*
G01*
X131745000Y-79764500D02*
X131745000Y-79239500D01*
G75*
G02*
X132007500Y-78977000I262500J0D01*
G01*
X132632500Y-78977000D01*
G75*
G02*
X132895000Y-79239500I0J-262500D01*
G01*
X132895000Y-79764500D01*
G75*
G02*
X132632500Y-80027000I-262500J0D01*
G01*
X132007500Y-80027000D01*
G75*
G02*
X131745000Y-79764500I0J262500D01*
G01*
G37*
G36*
G01*
X129995000Y-79764500D02*
X129995000Y-79239500D01*
G75*
G02*
X130257500Y-78977000I262500J0D01*
G01*
X130882500Y-78977000D01*
G75*
G02*
X131145000Y-79239500I0J-262500D01*
G01*
X131145000Y-79764500D01*
G75*
G02*
X130882500Y-80027000I-262500J0D01*
G01*
X130257500Y-80027000D01*
G75*
G02*
X129995000Y-79764500I0J262500D01*
G01*
G37*
%TD*%
%TO.C,D6*%
G36*
G01*
X158360500Y-126919000D02*
X158885500Y-126919000D01*
G75*
G02*
X159148000Y-127181500I0J-262500D01*
G01*
X159148000Y-127806500D01*
G75*
G02*
X158885500Y-128069000I-262500J0D01*
G01*
X158360500Y-128069000D01*
G75*
G02*
X158098000Y-127806500I0J262500D01*
G01*
X158098000Y-127181500D01*
G75*
G02*
X158360500Y-126919000I262500J0D01*
G01*
G37*
G36*
G01*
X158360500Y-125169000D02*
X158885500Y-125169000D01*
G75*
G02*
X159148000Y-125431500I0J-262500D01*
G01*
X159148000Y-126056500D01*
G75*
G02*
X158885500Y-126319000I-262500J0D01*
G01*
X158360500Y-126319000D01*
G75*
G02*
X158098000Y-126056500I0J262500D01*
G01*
X158098000Y-125431500D01*
G75*
G02*
X158360500Y-125169000I262500J0D01*
G01*
G37*
%TD*%
%TO.C,D5*%
G36*
G01*
X160011500Y-126919000D02*
X160536500Y-126919000D01*
G75*
G02*
X160799000Y-127181500I0J-262500D01*
G01*
X160799000Y-127806500D01*
G75*
G02*
X160536500Y-128069000I-262500J0D01*
G01*
X160011500Y-128069000D01*
G75*
G02*
X159749000Y-127806500I0J262500D01*
G01*
X159749000Y-127181500D01*
G75*
G02*
X160011500Y-126919000I262500J0D01*
G01*
G37*
G36*
G01*
X160011500Y-125169000D02*
X160536500Y-125169000D01*
G75*
G02*
X160799000Y-125431500I0J-262500D01*
G01*
X160799000Y-126056500D01*
G75*
G02*
X160536500Y-126319000I-262500J0D01*
G01*
X160011500Y-126319000D01*
G75*
G02*
X159749000Y-126056500I0J262500D01*
G01*
X159749000Y-125431500D01*
G75*
G02*
X160011500Y-125169000I262500J0D01*
G01*
G37*
%TD*%
D23*
%TO.C,D2*%
X156750000Y-55880000D03*
X160750000Y-55880000D03*
%TD*%
%TO.C,D1*%
X160750000Y-52070000D03*
X156750000Y-52070000D03*
%TD*%
%TO.C,C46*%
G36*
G01*
X141215500Y-120188000D02*
X141740500Y-120188000D01*
G75*
G02*
X142003000Y-120450500I0J-262500D01*
G01*
X142003000Y-121075500D01*
G75*
G02*
X141740500Y-121338000I-262500J0D01*
G01*
X141215500Y-121338000D01*
G75*
G02*
X140953000Y-121075500I0J262500D01*
G01*
X140953000Y-120450500D01*
G75*
G02*
X141215500Y-120188000I262500J0D01*
G01*
G37*
G36*
G01*
X141215500Y-118438000D02*
X141740500Y-118438000D01*
G75*
G02*
X142003000Y-118700500I0J-262500D01*
G01*
X142003000Y-119325500D01*
G75*
G02*
X141740500Y-119588000I-262500J0D01*
G01*
X141215500Y-119588000D01*
G75*
G02*
X140953000Y-119325500I0J262500D01*
G01*
X140953000Y-118700500D01*
G75*
G02*
X141215500Y-118438000I262500J0D01*
G01*
G37*
%TD*%
%TO.C,C44*%
G36*
G01*
X153407500Y-121839000D02*
X153932500Y-121839000D01*
G75*
G02*
X154195000Y-122101500I0J-262500D01*
G01*
X154195000Y-122726500D01*
G75*
G02*
X153932500Y-122989000I-262500J0D01*
G01*
X153407500Y-122989000D01*
G75*
G02*
X153145000Y-122726500I0J262500D01*
G01*
X153145000Y-122101500D01*
G75*
G02*
X153407500Y-121839000I262500J0D01*
G01*
G37*
G36*
G01*
X153407500Y-120089000D02*
X153932500Y-120089000D01*
G75*
G02*
X154195000Y-120351500I0J-262500D01*
G01*
X154195000Y-120976500D01*
G75*
G02*
X153932500Y-121239000I-262500J0D01*
G01*
X153407500Y-121239000D01*
G75*
G02*
X153145000Y-120976500I0J262500D01*
G01*
X153145000Y-120351500D01*
G75*
G02*
X153407500Y-120089000I262500J0D01*
G01*
G37*
%TD*%
%TO.C,C42*%
G36*
G01*
X135555000Y-111768500D02*
X135555000Y-111243500D01*
G75*
G02*
X135817500Y-110981000I262500J0D01*
G01*
X136442500Y-110981000D01*
G75*
G02*
X136705000Y-111243500I0J-262500D01*
G01*
X136705000Y-111768500D01*
G75*
G02*
X136442500Y-112031000I-262500J0D01*
G01*
X135817500Y-112031000D01*
G75*
G02*
X135555000Y-111768500I0J262500D01*
G01*
G37*
G36*
G01*
X133805000Y-111768500D02*
X133805000Y-111243500D01*
G75*
G02*
X134067500Y-110981000I262500J0D01*
G01*
X134692500Y-110981000D01*
G75*
G02*
X134955000Y-111243500I0J-262500D01*
G01*
X134955000Y-111768500D01*
G75*
G02*
X134692500Y-112031000I-262500J0D01*
G01*
X134067500Y-112031000D01*
G75*
G02*
X133805000Y-111768500I0J262500D01*
G01*
G37*
%TD*%
%TO.C,C40*%
G36*
G01*
X125892544Y-133059000D02*
X128107456Y-133059000D01*
G75*
G02*
X128375000Y-133326544I0J-267544D01*
G01*
X128375000Y-134316456D01*
G75*
G02*
X128107456Y-134584000I-267544J0D01*
G01*
X125892544Y-134584000D01*
G75*
G02*
X125625000Y-134316456I0J267544D01*
G01*
X125625000Y-133326544D01*
G75*
G02*
X125892544Y-133059000I267544J0D01*
G01*
G37*
G36*
G01*
X125892544Y-130084000D02*
X128107456Y-130084000D01*
G75*
G02*
X128375000Y-130351544I0J-267544D01*
G01*
X128375000Y-131341456D01*
G75*
G02*
X128107456Y-131609000I-267544J0D01*
G01*
X125892544Y-131609000D01*
G75*
G02*
X125625000Y-131341456I0J267544D01*
G01*
X125625000Y-130351544D01*
G75*
G02*
X125892544Y-130084000I267544J0D01*
G01*
G37*
%TD*%
%TO.C,C39*%
G36*
G01*
X129194544Y-133059000D02*
X131409456Y-133059000D01*
G75*
G02*
X131677000Y-133326544I0J-267544D01*
G01*
X131677000Y-134316456D01*
G75*
G02*
X131409456Y-134584000I-267544J0D01*
G01*
X129194544Y-134584000D01*
G75*
G02*
X128927000Y-134316456I0J267544D01*
G01*
X128927000Y-133326544D01*
G75*
G02*
X129194544Y-133059000I267544J0D01*
G01*
G37*
G36*
G01*
X129194544Y-130084000D02*
X131409456Y-130084000D01*
G75*
G02*
X131677000Y-130351544I0J-267544D01*
G01*
X131677000Y-131341456D01*
G75*
G02*
X131409456Y-131609000I-267544J0D01*
G01*
X129194544Y-131609000D01*
G75*
G02*
X128927000Y-131341456I0J267544D01*
G01*
X128927000Y-130351544D01*
G75*
G02*
X129194544Y-130084000I267544J0D01*
G01*
G37*
%TD*%
%TO.C,C38*%
G36*
G01*
X135881500Y-125014000D02*
X136406500Y-125014000D01*
G75*
G02*
X136669000Y-125276500I0J-262500D01*
G01*
X136669000Y-125901500D01*
G75*
G02*
X136406500Y-126164000I-262500J0D01*
G01*
X135881500Y-126164000D01*
G75*
G02*
X135619000Y-125901500I0J262500D01*
G01*
X135619000Y-125276500D01*
G75*
G02*
X135881500Y-125014000I262500J0D01*
G01*
G37*
G36*
G01*
X135881500Y-123264000D02*
X136406500Y-123264000D01*
G75*
G02*
X136669000Y-123526500I0J-262500D01*
G01*
X136669000Y-124151500D01*
G75*
G02*
X136406500Y-124414000I-262500J0D01*
G01*
X135881500Y-124414000D01*
G75*
G02*
X135619000Y-124151500I0J262500D01*
G01*
X135619000Y-123526500D01*
G75*
G02*
X135881500Y-123264000I262500J0D01*
G01*
G37*
%TD*%
%TO.C,C36*%
G36*
G01*
X130801500Y-125014000D02*
X131326500Y-125014000D01*
G75*
G02*
X131589000Y-125276500I0J-262500D01*
G01*
X131589000Y-125901500D01*
G75*
G02*
X131326500Y-126164000I-262500J0D01*
G01*
X130801500Y-126164000D01*
G75*
G02*
X130539000Y-125901500I0J262500D01*
G01*
X130539000Y-125276500D01*
G75*
G02*
X130801500Y-125014000I262500J0D01*
G01*
G37*
G36*
G01*
X130801500Y-123264000D02*
X131326500Y-123264000D01*
G75*
G02*
X131589000Y-123526500I0J-262500D01*
G01*
X131589000Y-124151500D01*
G75*
G02*
X131326500Y-124414000I-262500J0D01*
G01*
X130801500Y-124414000D01*
G75*
G02*
X130539000Y-124151500I0J262500D01*
G01*
X130539000Y-123526500D01*
G75*
G02*
X130801500Y-123264000I262500J0D01*
G01*
G37*
%TD*%
%TO.C,C34*%
G36*
G01*
X129277500Y-125014000D02*
X129802500Y-125014000D01*
G75*
G02*
X130065000Y-125276500I0J-262500D01*
G01*
X130065000Y-125901500D01*
G75*
G02*
X129802500Y-126164000I-262500J0D01*
G01*
X129277500Y-126164000D01*
G75*
G02*
X129015000Y-125901500I0J262500D01*
G01*
X129015000Y-125276500D01*
G75*
G02*
X129277500Y-125014000I262500J0D01*
G01*
G37*
G36*
G01*
X129277500Y-123264000D02*
X129802500Y-123264000D01*
G75*
G02*
X130065000Y-123526500I0J-262500D01*
G01*
X130065000Y-124151500D01*
G75*
G02*
X129802500Y-124414000I-262500J0D01*
G01*
X129277500Y-124414000D01*
G75*
G02*
X129015000Y-124151500I0J262500D01*
G01*
X129015000Y-123526500D01*
G75*
G02*
X129277500Y-123264000I262500J0D01*
G01*
G37*
%TD*%
%TO.C,C32*%
G36*
G01*
X139273000Y-131563500D02*
X139273000Y-132088500D01*
G75*
G02*
X139010500Y-132351000I-262500J0D01*
G01*
X138385500Y-132351000D01*
G75*
G02*
X138123000Y-132088500I0J262500D01*
G01*
X138123000Y-131563500D01*
G75*
G02*
X138385500Y-131301000I262500J0D01*
G01*
X139010500Y-131301000D01*
G75*
G02*
X139273000Y-131563500I0J-262500D01*
G01*
G37*
G36*
G01*
X141023000Y-131563500D02*
X141023000Y-132088500D01*
G75*
G02*
X140760500Y-132351000I-262500J0D01*
G01*
X140135500Y-132351000D01*
G75*
G02*
X139873000Y-132088500I0J262500D01*
G01*
X139873000Y-131563500D01*
G75*
G02*
X140135500Y-131301000I262500J0D01*
G01*
X140760500Y-131301000D01*
G75*
G02*
X141023000Y-131563500I0J-262500D01*
G01*
G37*
%TD*%
%TO.C,C31*%
G36*
G01*
X153370000Y-130547500D02*
X153370000Y-131072500D01*
G75*
G02*
X153107500Y-131335000I-262500J0D01*
G01*
X152482500Y-131335000D01*
G75*
G02*
X152220000Y-131072500I0J262500D01*
G01*
X152220000Y-130547500D01*
G75*
G02*
X152482500Y-130285000I262500J0D01*
G01*
X153107500Y-130285000D01*
G75*
G02*
X153370000Y-130547500I0J-262500D01*
G01*
G37*
G36*
G01*
X155120000Y-130547500D02*
X155120000Y-131072500D01*
G75*
G02*
X154857500Y-131335000I-262500J0D01*
G01*
X154232500Y-131335000D01*
G75*
G02*
X153970000Y-131072500I0J262500D01*
G01*
X153970000Y-130547500D01*
G75*
G02*
X154232500Y-130285000I262500J0D01*
G01*
X154857500Y-130285000D01*
G75*
G02*
X155120000Y-130547500I0J-262500D01*
G01*
G37*
%TD*%
%TO.C,C30*%
G36*
G01*
X141850500Y-134412000D02*
X142375500Y-134412000D01*
G75*
G02*
X142638000Y-134674500I0J-262500D01*
G01*
X142638000Y-135299500D01*
G75*
G02*
X142375500Y-135562000I-262500J0D01*
G01*
X141850500Y-135562000D01*
G75*
G02*
X141588000Y-135299500I0J262500D01*
G01*
X141588000Y-134674500D01*
G75*
G02*
X141850500Y-134412000I262500J0D01*
G01*
G37*
G36*
G01*
X141850500Y-132662000D02*
X142375500Y-132662000D01*
G75*
G02*
X142638000Y-132924500I0J-262500D01*
G01*
X142638000Y-133549500D01*
G75*
G02*
X142375500Y-133812000I-262500J0D01*
G01*
X141850500Y-133812000D01*
G75*
G02*
X141588000Y-133549500I0J262500D01*
G01*
X141588000Y-132924500D01*
G75*
G02*
X141850500Y-132662000I262500J0D01*
G01*
G37*
%TD*%
%TO.C,C29*%
G36*
G01*
X155947500Y-133396000D02*
X156472500Y-133396000D01*
G75*
G02*
X156735000Y-133658500I0J-262500D01*
G01*
X156735000Y-134283500D01*
G75*
G02*
X156472500Y-134546000I-262500J0D01*
G01*
X155947500Y-134546000D01*
G75*
G02*
X155685000Y-134283500I0J262500D01*
G01*
X155685000Y-133658500D01*
G75*
G02*
X155947500Y-133396000I262500J0D01*
G01*
G37*
G36*
G01*
X155947500Y-131646000D02*
X156472500Y-131646000D01*
G75*
G02*
X156735000Y-131908500I0J-262500D01*
G01*
X156735000Y-132533500D01*
G75*
G02*
X156472500Y-132796000I-262500J0D01*
G01*
X155947500Y-132796000D01*
G75*
G02*
X155685000Y-132533500I0J262500D01*
G01*
X155685000Y-131908500D01*
G75*
G02*
X155947500Y-131646000I262500J0D01*
G01*
G37*
%TD*%
%TO.C,C28*%
G36*
G01*
X139273000Y-136135500D02*
X139273000Y-136660500D01*
G75*
G02*
X139010500Y-136923000I-262500J0D01*
G01*
X138385500Y-136923000D01*
G75*
G02*
X138123000Y-136660500I0J262500D01*
G01*
X138123000Y-136135500D01*
G75*
G02*
X138385500Y-135873000I262500J0D01*
G01*
X139010500Y-135873000D01*
G75*
G02*
X139273000Y-136135500I0J-262500D01*
G01*
G37*
G36*
G01*
X141023000Y-136135500D02*
X141023000Y-136660500D01*
G75*
G02*
X140760500Y-136923000I-262500J0D01*
G01*
X140135500Y-136923000D01*
G75*
G02*
X139873000Y-136660500I0J262500D01*
G01*
X139873000Y-136135500D01*
G75*
G02*
X140135500Y-135873000I262500J0D01*
G01*
X140760500Y-135873000D01*
G75*
G02*
X141023000Y-136135500I0J-262500D01*
G01*
G37*
%TD*%
%TO.C,C27*%
G36*
G01*
X153370000Y-135119500D02*
X153370000Y-135644500D01*
G75*
G02*
X153107500Y-135907000I-262500J0D01*
G01*
X152482500Y-135907000D01*
G75*
G02*
X152220000Y-135644500I0J262500D01*
G01*
X152220000Y-135119500D01*
G75*
G02*
X152482500Y-134857000I262500J0D01*
G01*
X153107500Y-134857000D01*
G75*
G02*
X153370000Y-135119500I0J-262500D01*
G01*
G37*
G36*
G01*
X155120000Y-135119500D02*
X155120000Y-135644500D01*
G75*
G02*
X154857500Y-135907000I-262500J0D01*
G01*
X154232500Y-135907000D01*
G75*
G02*
X153970000Y-135644500I0J262500D01*
G01*
X153970000Y-135119500D01*
G75*
G02*
X154232500Y-134857000I262500J0D01*
G01*
X154857500Y-134857000D01*
G75*
G02*
X155120000Y-135119500I0J-262500D01*
G01*
G37*
%TD*%
%TO.C,C26*%
G36*
G01*
X141342500Y-75879000D02*
X141867500Y-75879000D01*
G75*
G02*
X142130000Y-76141500I0J-262500D01*
G01*
X142130000Y-76766500D01*
G75*
G02*
X141867500Y-77029000I-262500J0D01*
G01*
X141342500Y-77029000D01*
G75*
G02*
X141080000Y-76766500I0J262500D01*
G01*
X141080000Y-76141500D01*
G75*
G02*
X141342500Y-75879000I262500J0D01*
G01*
G37*
G36*
G01*
X141342500Y-74129000D02*
X141867500Y-74129000D01*
G75*
G02*
X142130000Y-74391500I0J-262500D01*
G01*
X142130000Y-75016500D01*
G75*
G02*
X141867500Y-75279000I-262500J0D01*
G01*
X141342500Y-75279000D01*
G75*
G02*
X141080000Y-75016500I0J262500D01*
G01*
X141080000Y-74391500D01*
G75*
G02*
X141342500Y-74129000I262500J0D01*
G01*
G37*
%TD*%
%TO.C,C25*%
G36*
G01*
X139252000Y-78875500D02*
X139252000Y-78350500D01*
G75*
G02*
X139514500Y-78088000I262500J0D01*
G01*
X140139500Y-78088000D01*
G75*
G02*
X140402000Y-78350500I0J-262500D01*
G01*
X140402000Y-78875500D01*
G75*
G02*
X140139500Y-79138000I-262500J0D01*
G01*
X139514500Y-79138000D01*
G75*
G02*
X139252000Y-78875500I0J262500D01*
G01*
G37*
G36*
G01*
X137502000Y-78875500D02*
X137502000Y-78350500D01*
G75*
G02*
X137764500Y-78088000I262500J0D01*
G01*
X138389500Y-78088000D01*
G75*
G02*
X138652000Y-78350500I0J-262500D01*
G01*
X138652000Y-78875500D01*
G75*
G02*
X138389500Y-79138000I-262500J0D01*
G01*
X137764500Y-79138000D01*
G75*
G02*
X137502000Y-78875500I0J262500D01*
G01*
G37*
%TD*%
%TO.C,C24*%
G36*
G01*
X135837890Y-73047000D02*
X133910110Y-73047000D01*
G75*
G02*
X133649000Y-72785890I0J261110D01*
G01*
X133649000Y-70958110D01*
G75*
G02*
X133910110Y-70697000I261110J0D01*
G01*
X135837890Y-70697000D01*
G75*
G02*
X136099000Y-70958110I0J-261110D01*
G01*
X136099000Y-72785890D01*
G75*
G02*
X135837890Y-73047000I-261110J0D01*
G01*
G37*
G36*
G01*
X135837890Y-78147000D02*
X133910110Y-78147000D01*
G75*
G02*
X133649000Y-77885890I0J261110D01*
G01*
X133649000Y-76058110D01*
G75*
G02*
X133910110Y-75797000I261110J0D01*
G01*
X135837890Y-75797000D01*
G75*
G02*
X136099000Y-76058110I0J-261110D01*
G01*
X136099000Y-77885890D01*
G75*
G02*
X135837890Y-78147000I-261110J0D01*
G01*
G37*
%TD*%
%TO.C,C23*%
G36*
G01*
X141994500Y-68788000D02*
X141469500Y-68788000D01*
G75*
G02*
X141207000Y-68525500I0J262500D01*
G01*
X141207000Y-67900500D01*
G75*
G02*
X141469500Y-67638000I262500J0D01*
G01*
X141994500Y-67638000D01*
G75*
G02*
X142257000Y-67900500I0J-262500D01*
G01*
X142257000Y-68525500D01*
G75*
G02*
X141994500Y-68788000I-262500J0D01*
G01*
G37*
G36*
G01*
X141994500Y-70538000D02*
X141469500Y-70538000D01*
G75*
G02*
X141207000Y-70275500I0J262500D01*
G01*
X141207000Y-69650500D01*
G75*
G02*
X141469500Y-69388000I262500J0D01*
G01*
X141994500Y-69388000D01*
G75*
G02*
X142257000Y-69650500I0J-262500D01*
G01*
X142257000Y-70275500D01*
G75*
G02*
X141994500Y-70538000I-262500J0D01*
G01*
G37*
%TD*%
%TO.C,C22*%
G36*
G01*
X139901890Y-65427000D02*
X137974110Y-65427000D01*
G75*
G02*
X137713000Y-65165890I0J261110D01*
G01*
X137713000Y-63338110D01*
G75*
G02*
X137974110Y-63077000I261110J0D01*
G01*
X139901890Y-63077000D01*
G75*
G02*
X140163000Y-63338110I0J-261110D01*
G01*
X140163000Y-65165890D01*
G75*
G02*
X139901890Y-65427000I-261110J0D01*
G01*
G37*
G36*
G01*
X139901890Y-70527000D02*
X137974110Y-70527000D01*
G75*
G02*
X137713000Y-70265890I0J261110D01*
G01*
X137713000Y-68438110D01*
G75*
G02*
X137974110Y-68177000I261110J0D01*
G01*
X139901890Y-68177000D01*
G75*
G02*
X140163000Y-68438110I0J-261110D01*
G01*
X140163000Y-70265890D01*
G75*
G02*
X139901890Y-70527000I-261110J0D01*
G01*
G37*
%TD*%
%TO.C,C21*%
G36*
G01*
X145588000Y-138692500D02*
X145588000Y-138167500D01*
G75*
G02*
X145850500Y-137905000I262500J0D01*
G01*
X146475500Y-137905000D01*
G75*
G02*
X146738000Y-138167500I0J-262500D01*
G01*
X146738000Y-138692500D01*
G75*
G02*
X146475500Y-138955000I-262500J0D01*
G01*
X145850500Y-138955000D01*
G75*
G02*
X145588000Y-138692500I0J262500D01*
G01*
G37*
G36*
G01*
X143838000Y-138692500D02*
X143838000Y-138167500D01*
G75*
G02*
X144100500Y-137905000I262500J0D01*
G01*
X144725500Y-137905000D01*
G75*
G02*
X144988000Y-138167500I0J-262500D01*
G01*
X144988000Y-138692500D01*
G75*
G02*
X144725500Y-138955000I-262500J0D01*
G01*
X144100500Y-138955000D01*
G75*
G02*
X143838000Y-138692500I0J262500D01*
G01*
G37*
%TD*%
%TO.C,C19*%
G36*
G01*
X142032000Y-145804500D02*
X142032000Y-145279500D01*
G75*
G02*
X142294500Y-145017000I262500J0D01*
G01*
X142919500Y-145017000D01*
G75*
G02*
X143182000Y-145279500I0J-262500D01*
G01*
X143182000Y-145804500D01*
G75*
G02*
X142919500Y-146067000I-262500J0D01*
G01*
X142294500Y-146067000D01*
G75*
G02*
X142032000Y-145804500I0J262500D01*
G01*
G37*
G36*
G01*
X140282000Y-145804500D02*
X140282000Y-145279500D01*
G75*
G02*
X140544500Y-145017000I262500J0D01*
G01*
X141169500Y-145017000D01*
G75*
G02*
X141432000Y-145279500I0J-262500D01*
G01*
X141432000Y-145804500D01*
G75*
G02*
X141169500Y-146067000I-262500J0D01*
G01*
X140544500Y-146067000D01*
G75*
G02*
X140282000Y-145804500I0J262500D01*
G01*
G37*
%TD*%
%TO.C,C16*%
G36*
G01*
X146230000Y-77207500D02*
X146230000Y-77732500D01*
G75*
G02*
X145967500Y-77995000I-262500J0D01*
G01*
X145342500Y-77995000D01*
G75*
G02*
X145080000Y-77732500I0J262500D01*
G01*
X145080000Y-77207500D01*
G75*
G02*
X145342500Y-76945000I262500J0D01*
G01*
X145967500Y-76945000D01*
G75*
G02*
X146230000Y-77207500I0J-262500D01*
G01*
G37*
G36*
G01*
X144480000Y-77207500D02*
X144480000Y-77732500D01*
G75*
G02*
X144217500Y-77995000I-262500J0D01*
G01*
X143592500Y-77995000D01*
G75*
G02*
X143330000Y-77732500I0J262500D01*
G01*
X143330000Y-77207500D01*
G75*
G02*
X143592500Y-76945000I262500J0D01*
G01*
X144217500Y-76945000D01*
G75*
G02*
X144480000Y-77207500I0J-262500D01*
G01*
G37*
%TD*%
%TO.C,C11*%
G36*
G01*
X125289000Y-72381500D02*
X125289000Y-72906500D01*
G75*
G02*
X125026500Y-73169000I-262500J0D01*
G01*
X124401500Y-73169000D01*
G75*
G02*
X124139000Y-72906500I0J262500D01*
G01*
X124139000Y-72381500D01*
G75*
G02*
X124401500Y-72119000I262500J0D01*
G01*
X125026500Y-72119000D01*
G75*
G02*
X125289000Y-72381500I0J-262500D01*
G01*
G37*
G36*
G01*
X127039000Y-72381500D02*
X127039000Y-72906500D01*
G75*
G02*
X126776500Y-73169000I-262500J0D01*
G01*
X126151500Y-73169000D01*
G75*
G02*
X125889000Y-72906500I0J262500D01*
G01*
X125889000Y-72381500D01*
G75*
G02*
X126151500Y-72119000I262500J0D01*
G01*
X126776500Y-72119000D01*
G75*
G02*
X127039000Y-72381500I0J-262500D01*
G01*
G37*
%TD*%
%TO.C,C10*%
G36*
G01*
X122100000Y-66826000D02*
X122100000Y-64746000D01*
G75*
G02*
X122360000Y-64486000I260000J0D01*
G01*
X125440000Y-64486000D01*
G75*
G02*
X125700000Y-64746000I0J-260000D01*
G01*
X125700000Y-66826000D01*
G75*
G02*
X125440000Y-67086000I-260000J0D01*
G01*
X122360000Y-67086000D01*
G75*
G02*
X122100000Y-66826000I0J260000D01*
G01*
G37*
G36*
G01*
X115600000Y-66826000D02*
X115600000Y-64746000D01*
G75*
G02*
X115860000Y-64486000I260000J0D01*
G01*
X118940000Y-64486000D01*
G75*
G02*
X119200000Y-64746000I0J-260000D01*
G01*
X119200000Y-66826000D01*
G75*
G02*
X118940000Y-67086000I-260000J0D01*
G01*
X115860000Y-67086000D01*
G75*
G02*
X115600000Y-66826000I0J260000D01*
G01*
G37*
%TD*%
%TO.C,C9*%
G36*
G01*
X131350000Y-72906500D02*
X131350000Y-72381500D01*
G75*
G02*
X131612500Y-72119000I262500J0D01*
G01*
X132237500Y-72119000D01*
G75*
G02*
X132500000Y-72381500I0J-262500D01*
G01*
X132500000Y-72906500D01*
G75*
G02*
X132237500Y-73169000I-262500J0D01*
G01*
X131612500Y-73169000D01*
G75*
G02*
X131350000Y-72906500I0J262500D01*
G01*
G37*
G36*
G01*
X129600000Y-72906500D02*
X129600000Y-72381500D01*
G75*
G02*
X129862500Y-72119000I262500J0D01*
G01*
X130487500Y-72119000D01*
G75*
G02*
X130750000Y-72381500I0J-262500D01*
G01*
X130750000Y-72906500D01*
G75*
G02*
X130487500Y-73169000I-262500J0D01*
G01*
X129862500Y-73169000D01*
G75*
G02*
X129600000Y-72906500I0J262500D01*
G01*
G37*
%TD*%
%TO.C,C8*%
G36*
G01*
X133022000Y-66826000D02*
X133022000Y-64746000D01*
G75*
G02*
X133282000Y-64486000I260000J0D01*
G01*
X136362000Y-64486000D01*
G75*
G02*
X136622000Y-64746000I0J-260000D01*
G01*
X136622000Y-66826000D01*
G75*
G02*
X136362000Y-67086000I-260000J0D01*
G01*
X133282000Y-67086000D01*
G75*
G02*
X133022000Y-66826000I0J260000D01*
G01*
G37*
G36*
G01*
X126522000Y-66826000D02*
X126522000Y-64746000D01*
G75*
G02*
X126782000Y-64486000I260000J0D01*
G01*
X129862000Y-64486000D01*
G75*
G02*
X130122000Y-64746000I0J-260000D01*
G01*
X130122000Y-66826000D01*
G75*
G02*
X129862000Y-67086000I-260000J0D01*
G01*
X126782000Y-67086000D01*
G75*
G02*
X126522000Y-66826000I0J260000D01*
G01*
G37*
%TD*%
%TO.C,C7*%
G36*
G01*
X136120000Y-55425000D02*
X138200000Y-55425000D01*
G75*
G02*
X138460000Y-55685000I0J-260000D01*
G01*
X138460000Y-58765000D01*
G75*
G02*
X138200000Y-59025000I-260000J0D01*
G01*
X136120000Y-59025000D01*
G75*
G02*
X135860000Y-58765000I0J260000D01*
G01*
X135860000Y-55685000D01*
G75*
G02*
X136120000Y-55425000I260000J0D01*
G01*
G37*
G36*
G01*
X136120000Y-48925000D02*
X138200000Y-48925000D01*
G75*
G02*
X138460000Y-49185000I0J-260000D01*
G01*
X138460000Y-52265000D01*
G75*
G02*
X138200000Y-52525000I-260000J0D01*
G01*
X136120000Y-52525000D01*
G75*
G02*
X135860000Y-52265000I0J260000D01*
G01*
X135860000Y-49185000D01*
G75*
G02*
X136120000Y-48925000I260000J0D01*
G01*
G37*
%TD*%
%TO.C,C6*%
G36*
G01*
X154042500Y-56180000D02*
X154567500Y-56180000D01*
G75*
G02*
X154830000Y-56442500I0J-262500D01*
G01*
X154830000Y-57067500D01*
G75*
G02*
X154567500Y-57330000I-262500J0D01*
G01*
X154042500Y-57330000D01*
G75*
G02*
X153780000Y-57067500I0J262500D01*
G01*
X153780000Y-56442500D01*
G75*
G02*
X154042500Y-56180000I262500J0D01*
G01*
G37*
G36*
G01*
X154042500Y-54430000D02*
X154567500Y-54430000D01*
G75*
G02*
X154830000Y-54692500I0J-262500D01*
G01*
X154830000Y-55317500D01*
G75*
G02*
X154567500Y-55580000I-262500J0D01*
G01*
X154042500Y-55580000D01*
G75*
G02*
X153780000Y-55317500I0J262500D01*
G01*
X153780000Y-54692500D01*
G75*
G02*
X154042500Y-54430000I262500J0D01*
G01*
G37*
%TD*%
%TO.C,C5*%
G36*
G01*
X160320000Y-58682500D02*
X160320000Y-58157500D01*
G75*
G02*
X160582500Y-57895000I262500J0D01*
G01*
X161207500Y-57895000D01*
G75*
G02*
X161470000Y-58157500I0J-262500D01*
G01*
X161470000Y-58682500D01*
G75*
G02*
X161207500Y-58945000I-262500J0D01*
G01*
X160582500Y-58945000D01*
G75*
G02*
X160320000Y-58682500I0J262500D01*
G01*
G37*
G36*
G01*
X158570000Y-58682500D02*
X158570000Y-58157500D01*
G75*
G02*
X158832500Y-57895000I262500J0D01*
G01*
X159457500Y-57895000D01*
G75*
G02*
X159720000Y-58157500I0J-262500D01*
G01*
X159720000Y-58682500D01*
G75*
G02*
X159457500Y-58945000I-262500J0D01*
G01*
X158832500Y-58945000D01*
G75*
G02*
X158570000Y-58682500I0J262500D01*
G01*
G37*
%TD*%
%TO.C,C4*%
G36*
G01*
X128576110Y-55350000D02*
X130503890Y-55350000D01*
G75*
G02*
X130765000Y-55611110I0J-261110D01*
G01*
X130765000Y-57438890D01*
G75*
G02*
X130503890Y-57700000I-261110J0D01*
G01*
X128576110Y-57700000D01*
G75*
G02*
X128315000Y-57438890I0J261110D01*
G01*
X128315000Y-55611110D01*
G75*
G02*
X128576110Y-55350000I261110J0D01*
G01*
G37*
G36*
G01*
X128576110Y-50250000D02*
X130503890Y-50250000D01*
G75*
G02*
X130765000Y-50511110I0J-261110D01*
G01*
X130765000Y-52338890D01*
G75*
G02*
X130503890Y-52600000I-261110J0D01*
G01*
X128576110Y-52600000D01*
G75*
G02*
X128315000Y-52338890I0J261110D01*
G01*
X128315000Y-50511110D01*
G75*
G02*
X128576110Y-50250000I261110J0D01*
G01*
G37*
%TD*%
%TO.C,C3*%
G36*
G01*
X146280000Y-55425000D02*
X148360000Y-55425000D01*
G75*
G02*
X148620000Y-55685000I0J-260000D01*
G01*
X148620000Y-58765000D01*
G75*
G02*
X148360000Y-59025000I-260000J0D01*
G01*
X146280000Y-59025000D01*
G75*
G02*
X146020000Y-58765000I0J260000D01*
G01*
X146020000Y-55685000D01*
G75*
G02*
X146280000Y-55425000I260000J0D01*
G01*
G37*
G36*
G01*
X146280000Y-48925000D02*
X148360000Y-48925000D01*
G75*
G02*
X148620000Y-49185000I0J-260000D01*
G01*
X148620000Y-52265000D01*
G75*
G02*
X148360000Y-52525000I-260000J0D01*
G01*
X146280000Y-52525000D01*
G75*
G02*
X146020000Y-52265000I0J260000D01*
G01*
X146020000Y-49185000D01*
G75*
G02*
X146280000Y-48925000I260000J0D01*
G01*
G37*
%TD*%
%TO.C,C2*%
G36*
G01*
X154042500Y-52370000D02*
X154567500Y-52370000D01*
G75*
G02*
X154830000Y-52632500I0J-262500D01*
G01*
X154830000Y-53257500D01*
G75*
G02*
X154567500Y-53520000I-262500J0D01*
G01*
X154042500Y-53520000D01*
G75*
G02*
X153780000Y-53257500I0J262500D01*
G01*
X153780000Y-52632500D01*
G75*
G02*
X154042500Y-52370000I262500J0D01*
G01*
G37*
G36*
G01*
X154042500Y-50620000D02*
X154567500Y-50620000D01*
G75*
G02*
X154830000Y-50882500I0J-262500D01*
G01*
X154830000Y-51507500D01*
G75*
G02*
X154567500Y-51770000I-262500J0D01*
G01*
X154042500Y-51770000D01*
G75*
G02*
X153780000Y-51507500I0J262500D01*
G01*
X153780000Y-50882500D01*
G75*
G02*
X154042500Y-50620000I262500J0D01*
G01*
G37*
%TD*%
%TO.C,C1*%
G36*
G01*
X160320000Y-49792500D02*
X160320000Y-49267500D01*
G75*
G02*
X160582500Y-49005000I262500J0D01*
G01*
X161207500Y-49005000D01*
G75*
G02*
X161470000Y-49267500I0J-262500D01*
G01*
X161470000Y-49792500D01*
G75*
G02*
X161207500Y-50055000I-262500J0D01*
G01*
X160582500Y-50055000D01*
G75*
G02*
X160320000Y-49792500I0J262500D01*
G01*
G37*
G36*
G01*
X158570000Y-49792500D02*
X158570000Y-49267500D01*
G75*
G02*
X158832500Y-49005000I262500J0D01*
G01*
X159457500Y-49005000D01*
G75*
G02*
X159720000Y-49267500I0J-262500D01*
G01*
X159720000Y-49792500D01*
G75*
G02*
X159457500Y-50055000I-262500J0D01*
G01*
X158832500Y-50055000D01*
G75*
G02*
X158570000Y-49792500I0J262500D01*
G01*
G37*
%TD*%
%TO.C,C43*%
G36*
G01*
X155527809Y-119991000D02*
X156130191Y-119991000D01*
G75*
G02*
X156404000Y-120264809I0J-273809D01*
G01*
X156404000Y-121117191D01*
G75*
G02*
X156130191Y-121391000I-273809J0D01*
G01*
X155527809Y-121391000D01*
G75*
G02*
X155254000Y-121117191I0J273809D01*
G01*
X155254000Y-120264809D01*
G75*
G02*
X155527809Y-119991000I273809J0D01*
G01*
G37*
G36*
G01*
X155527809Y-121941000D02*
X156130191Y-121941000D01*
G75*
G02*
X156404000Y-122214809I0J-273809D01*
G01*
X156404000Y-123067191D01*
G75*
G02*
X156130191Y-123341000I-273809J0D01*
G01*
X155527809Y-123341000D01*
G75*
G02*
X155254000Y-123067191I0J273809D01*
G01*
X155254000Y-122214809D01*
G75*
G02*
X155527809Y-121941000I273809J0D01*
G01*
G37*
%TD*%
M02*
