M48
; DRILL file {KiCad 5.1.6-c6e7f7d~87~ubuntu18.04.1} date Sat Oct 10 13:51:08 2020
; FORMAT={-:-/ absolute / metric / decimal}
; #@! TF.CreationDate,2020-10-10T13:51:08+08:00
; #@! TF.GenerationSoftware,Kicad,Pcbnew,5.1.6-c6e7f7d~87~ubuntu18.04.1
; #@! TF.FileFunction,Plated,1,4,PTH
FMAT,2
METRIC
T1C0.400
T2C1.000
T3C1.100
%
G90
G05
T1
X116.586Y-61.849
X119.888Y-65.786
X123.444Y-79.629
X125.73Y-76.327
X125.927Y-97.315
X125.927Y-107.95
X125.927Y-125.857
X126.572Y-130.425
X127.467Y-99.101
X127.508Y-82.931
X127.635Y-75.946
X127.762Y-72.644
X128.143Y-87.63
X128.143Y-101.748
X128.143Y-104.14
X128.143Y-117.433
X128.312Y-114.131
X129.159Y-80.518
X129.444Y-95.619
X129.847Y-130.439
X129.9Y-120.29
X130.556Y-98.679
X130.641Y-128.439
X131.191Y-60.452
X131.572Y-82.931
X131.611Y-117.43
X131.953Y-50.546
X131.953Y-51.562
X132.318Y-118.137
X132.461Y-71.374
X132.715Y-91.44
X133.025Y-118.844
X133.096Y-75.311
X133.35Y-83.058
X133.477Y-136.271
X133.732Y-119.551
X134.493Y-75.184
X134.534Y-108.118
X134.672Y-138.32
X134.747Y-69.85
X134.747Y-85.471
X134.874Y-63.754
X135.128Y-50.673
X135.594Y-115.739
X136.144Y-143.256
X136.906Y-62.865
X137.393Y-123.211
X137.922Y-109.601
X138.536Y-112.67
X138.938Y-73.533
X139.277Y-119.422
X139.446Y-56.261
X139.446Y-57.404
X139.564Y-114.173
X139.679Y-125.497
X140.42Y-109.135
X140.525Y-113.898
X140.716Y-79.756
X140.758Y-131.149
X140.801Y-117.644
X141.097Y-122.301
X142.367Y-77.47
X142.621Y-83.058
X142.875Y-68.199
X142.875Y-69.469
X142.875Y-71.247
X143.002Y-78.359
X143.129Y-142.621
X143.256Y-61.341
X144.018Y-145.415
X144.145Y-114.554
X144.145Y-141.351
X144.653Y-73.152
X144.78Y-66.421
X145.034Y-50.419
X145.034Y-51.435
X145.288Y-57.15
X145.288Y-137.414
X145.542Y-130.683
X145.923Y-115.697
X146.05Y-122.428
X146.05Y-123.444
X146.304Y-62.23
X146.304Y-63.246
X146.304Y-64.262
X146.304Y-65.278
X146.304Y-66.294
X146.558Y-134.112
X146.558Y-135.636
X146.812Y-127.889
X146.842Y-116.091
X146.939Y-117.221
X147.066Y-118.237
X147.066Y-119.38
X148.082Y-140.335
X148.209Y-99.695
X148.244Y-105.41
X148.717Y-121.793
X148.717Y-122.809
X148.838Y-117.978
X148.844Y-116.967
X148.971Y-83.312
X148.971Y-102.87
X149.484Y-116.199
X149.606Y-118.618
X149.606Y-133.35
X149.733Y-100.33
X149.733Y-115.189
X150.368Y-144.145
X150.495Y-107.95
X151.257Y-110.49
X151.257Y-136.271
X151.984Y-113.03
X152.4Y-76.835
X152.527Y-79.883
X152.654Y-137.287
X153.035Y-53.975
X153.035Y-55.88
X153.035Y-56.769
X153.67Y-115.316
X154.559Y-129.54
X156.464Y-80.645
X156.464Y-116.586
X157.226Y-121.285
X157.226Y-122.682
X157.226Y-124.079
X157.226Y-125.73
X157.353Y-119.634
X157.515Y-114.589
X158.369Y-118.491
X158.623Y-62.23
X158.623Y-63.246
X158.623Y-64.262
X158.623Y-65.278
X158.623Y-66.294
X159.004Y-60.452
X159.385Y-99.06
X159.385Y-101.473
X159.385Y-104.14
X159.385Y-106.68
X159.385Y-109.22
X159.385Y-114.3
X159.512Y-129.286
X159.639Y-67.564
X160.909Y-132.334
X160.909Y-133.858
X161.417Y-118.11
X161.671Y-121.031
X161.671Y-124.714
X161.671Y-127.508
X162.687Y-81.28
T2
X165.1Y-64.77
X165.1Y-67.31
X165.1Y-69.85
X165.1Y-72.39
X165.1Y-74.93
X165.1Y-77.47
X165.1Y-80.01
X165.1Y-82.55
X165.1Y-85.09
X165.1Y-87.63
X167.64Y-64.77
X167.64Y-67.31
X167.64Y-69.85
X167.64Y-72.39
X167.64Y-74.93
X167.64Y-77.47
X167.64Y-80.01
X167.64Y-82.55
X167.64Y-85.09
X167.64Y-87.63
X119.38Y-73.66
X119.38Y-76.2
X119.38Y-78.74
X119.38Y-81.28
X119.38Y-83.82
X119.38Y-86.36
X119.38Y-88.9
X119.38Y-91.44
X121.92Y-73.66
X121.92Y-76.2
X121.92Y-78.74
X121.92Y-81.28
X121.92Y-83.82
X121.92Y-86.36
X121.92Y-88.9
X121.92Y-91.44
X119.38Y-96.52
X119.38Y-99.06
X119.38Y-101.6
X119.38Y-104.14
X119.38Y-106.68
X119.38Y-109.22
X119.38Y-111.76
X119.38Y-114.3
X119.38Y-116.84
X119.38Y-119.38
X119.38Y-121.92
X119.38Y-124.46
X119.38Y-127.0
X119.38Y-129.54
X119.38Y-132.08
X121.92Y-96.52
X121.92Y-99.06
X121.92Y-101.6
X121.92Y-104.14
X121.92Y-106.68
X121.92Y-109.22
X121.92Y-111.76
X121.92Y-114.3
X121.92Y-116.84
X121.92Y-119.38
X121.92Y-121.92
X121.92Y-124.46
X121.92Y-127.0
X121.92Y-129.54
X121.92Y-132.08
X165.1Y-91.44
X165.1Y-93.98
X165.1Y-96.52
X165.1Y-99.06
X165.1Y-101.6
X165.1Y-104.14
X165.1Y-106.68
X165.1Y-109.22
X165.1Y-111.76
X165.1Y-114.3
X165.1Y-116.84
X165.1Y-119.38
X165.1Y-121.92
X165.1Y-124.46
X165.1Y-127.0
X165.1Y-129.54
X165.1Y-132.08
X167.64Y-91.44
X167.64Y-93.98
X167.64Y-96.52
X167.64Y-99.06
X167.64Y-101.6
X167.64Y-104.14
X167.64Y-106.68
X167.64Y-109.22
X167.64Y-111.76
X167.64Y-114.3
X167.64Y-116.84
X167.64Y-119.38
X167.64Y-121.92
X167.64Y-124.46
X167.64Y-127.0
X167.64Y-129.54
X167.64Y-132.08
T3
X157.48Y-142.24
X160.02Y-142.24
X119.38Y-142.24
X121.92Y-142.24
X119.38Y-53.34
X121.92Y-53.34
X124.46Y-53.34
X165.1Y-142.24
X167.64Y-142.24
X127.0Y-142.24
X129.54Y-142.24
X165.1Y-53.34
X167.64Y-53.34
T0
M30
