%TF.GenerationSoftware,KiCad,Pcbnew,5.1.6-c6e7f7d~87~ubuntu18.04.1*%
%TF.CreationDate,2020-10-10T13:50:58+08:00*%
%TF.ProjectId,Arduino_codec,41726475-696e-46f5-9f63-6f6465632e6b,A*%
%TF.SameCoordinates,Original*%
%TF.FileFunction,Legend,Top*%
%TF.FilePolarity,Positive*%
%FSLAX46Y46*%
G04 Gerber Fmt 4.6, Leading zero omitted, Abs format (unit mm)*
G04 Created by KiCad (PCBNEW 5.1.6-c6e7f7d~87~ubuntu18.04.1) date 2020-10-10 13:50:58*
%MOMM*%
%LPD*%
G01*
G04 APERTURE LIST*
%ADD10C,0.150000*%
%ADD11C,0.120000*%
G04 APERTURE END LIST*
D10*
X154599666Y-104138809D02*
X154599666Y-103662619D01*
X154885380Y-104234047D02*
X153885380Y-103900714D01*
X154885380Y-103567380D01*
X154885380Y-103234047D02*
X154218714Y-103234047D01*
X154409190Y-103234047D02*
X154313952Y-103186428D01*
X154266333Y-103138809D01*
X154218714Y-103043571D01*
X154218714Y-102948333D01*
X154885380Y-102186428D02*
X153885380Y-102186428D01*
X154837761Y-102186428D02*
X154885380Y-102281666D01*
X154885380Y-102472142D01*
X154837761Y-102567380D01*
X154790142Y-102615000D01*
X154694904Y-102662619D01*
X154409190Y-102662619D01*
X154313952Y-102615000D01*
X154266333Y-102567380D01*
X154218714Y-102472142D01*
X154218714Y-102281666D01*
X154266333Y-102186428D01*
X154218714Y-101281666D02*
X154885380Y-101281666D01*
X154218714Y-101710238D02*
X154742523Y-101710238D01*
X154837761Y-101662619D01*
X154885380Y-101567380D01*
X154885380Y-101424523D01*
X154837761Y-101329285D01*
X154790142Y-101281666D01*
X154885380Y-100805476D02*
X154218714Y-100805476D01*
X153885380Y-100805476D02*
X153933000Y-100853095D01*
X153980619Y-100805476D01*
X153933000Y-100757857D01*
X153885380Y-100805476D01*
X153980619Y-100805476D01*
X154218714Y-100329285D02*
X154885380Y-100329285D01*
X154313952Y-100329285D02*
X154266333Y-100281666D01*
X154218714Y-100186428D01*
X154218714Y-100043571D01*
X154266333Y-99948333D01*
X154361571Y-99900714D01*
X154885380Y-99900714D01*
X154885380Y-99281666D02*
X154837761Y-99376904D01*
X154790142Y-99424523D01*
X154694904Y-99472142D01*
X154409190Y-99472142D01*
X154313952Y-99424523D01*
X154266333Y-99376904D01*
X154218714Y-99281666D01*
X154218714Y-99138809D01*
X154266333Y-99043571D01*
X154313952Y-98995952D01*
X154409190Y-98948333D01*
X154694904Y-98948333D01*
X154790142Y-98995952D01*
X154837761Y-99043571D01*
X154885380Y-99138809D01*
X154885380Y-99281666D01*
X154599666Y-97805476D02*
X154599666Y-97329285D01*
X154885380Y-97900714D02*
X153885380Y-97567380D01*
X154885380Y-97234047D01*
X154218714Y-96472142D02*
X154885380Y-96472142D01*
X154218714Y-96900714D02*
X154742523Y-96900714D01*
X154837761Y-96853095D01*
X154885380Y-96757857D01*
X154885380Y-96615000D01*
X154837761Y-96519761D01*
X154790142Y-96472142D01*
X154885380Y-95567380D02*
X153885380Y-95567380D01*
X154837761Y-95567380D02*
X154885380Y-95662619D01*
X154885380Y-95853095D01*
X154837761Y-95948333D01*
X154790142Y-95995952D01*
X154694904Y-96043571D01*
X154409190Y-96043571D01*
X154313952Y-95995952D01*
X154266333Y-95948333D01*
X154218714Y-95853095D01*
X154218714Y-95662619D01*
X154266333Y-95567380D01*
X154885380Y-95091190D02*
X154218714Y-95091190D01*
X153885380Y-95091190D02*
X153933000Y-95138809D01*
X153980619Y-95091190D01*
X153933000Y-95043571D01*
X153885380Y-95091190D01*
X153980619Y-95091190D01*
X154885380Y-94472142D02*
X154837761Y-94567380D01*
X154790142Y-94615000D01*
X154694904Y-94662619D01*
X154409190Y-94662619D01*
X154313952Y-94615000D01*
X154266333Y-94567380D01*
X154218714Y-94472142D01*
X154218714Y-94329285D01*
X154266333Y-94234047D01*
X154313952Y-94186428D01*
X154409190Y-94138809D01*
X154694904Y-94138809D01*
X154790142Y-94186428D01*
X154837761Y-94234047D01*
X154885380Y-94329285D01*
X154885380Y-94472142D01*
X154599666Y-92995952D02*
X154599666Y-92519761D01*
X154885380Y-93091190D02*
X153885380Y-92757857D01*
X154885380Y-92424523D01*
X154885380Y-92091190D02*
X153885380Y-92091190D01*
X153885380Y-91853095D01*
X153933000Y-91710238D01*
X154028238Y-91615000D01*
X154123476Y-91567380D01*
X154313952Y-91519761D01*
X154456809Y-91519761D01*
X154647285Y-91567380D01*
X154742523Y-91615000D01*
X154837761Y-91710238D01*
X154885380Y-91853095D01*
X154885380Y-92091190D01*
X154790142Y-90519761D02*
X154837761Y-90567380D01*
X154885380Y-90710238D01*
X154885380Y-90805476D01*
X154837761Y-90948333D01*
X154742523Y-91043571D01*
X154647285Y-91091190D01*
X154456809Y-91138809D01*
X154313952Y-91138809D01*
X154123476Y-91091190D01*
X154028238Y-91043571D01*
X153933000Y-90948333D01*
X153885380Y-90805476D01*
X153885380Y-90710238D01*
X153933000Y-90567380D01*
X153980619Y-90519761D01*
X153837761Y-88615000D02*
X155123476Y-89472142D01*
X154885380Y-87519761D02*
X153885380Y-87519761D01*
X153885380Y-87281666D01*
X153933000Y-87138809D01*
X154028238Y-87043571D01*
X154123476Y-86995952D01*
X154313952Y-86948333D01*
X154456809Y-86948333D01*
X154647285Y-86995952D01*
X154742523Y-87043571D01*
X154837761Y-87138809D01*
X154885380Y-87281666D01*
X154885380Y-87519761D01*
X154599666Y-86567380D02*
X154599666Y-86091190D01*
X154885380Y-86662619D02*
X153885380Y-86329285D01*
X154885380Y-85995952D01*
X154790142Y-85091190D02*
X154837761Y-85138809D01*
X154885380Y-85281666D01*
X154885380Y-85376904D01*
X154837761Y-85519761D01*
X154742523Y-85615000D01*
X154647285Y-85662619D01*
X154456809Y-85710238D01*
X154313952Y-85710238D01*
X154123476Y-85662619D01*
X154028238Y-85615000D01*
X153933000Y-85519761D01*
X153885380Y-85376904D01*
X153885380Y-85281666D01*
X153933000Y-85138809D01*
X153980619Y-85091190D01*
X156249666Y-101567380D02*
X156249666Y-101091190D01*
X156535380Y-101662619D02*
X155535380Y-101329285D01*
X156535380Y-100995952D01*
X156535380Y-100519761D02*
X156487761Y-100615000D01*
X156392523Y-100662619D01*
X155535380Y-100662619D01*
X156535380Y-100138809D02*
X155535380Y-100138809D01*
X155916333Y-100138809D02*
X155868714Y-100043571D01*
X155868714Y-99853095D01*
X155916333Y-99757857D01*
X155963952Y-99710238D01*
X156059190Y-99662619D01*
X156344904Y-99662619D01*
X156440142Y-99710238D01*
X156487761Y-99757857D01*
X156535380Y-99853095D01*
X156535380Y-100043571D01*
X156487761Y-100138809D01*
X156487761Y-98853095D02*
X156535380Y-98948333D01*
X156535380Y-99138809D01*
X156487761Y-99234047D01*
X156392523Y-99281666D01*
X156011571Y-99281666D01*
X155916333Y-99234047D01*
X155868714Y-99138809D01*
X155868714Y-98948333D01*
X155916333Y-98853095D01*
X156011571Y-98805476D01*
X156106809Y-98805476D01*
X156202047Y-99281666D01*
X156535380Y-98376904D02*
X155868714Y-98376904D01*
X156059190Y-98376904D02*
X155963952Y-98329285D01*
X155916333Y-98281666D01*
X155868714Y-98186428D01*
X155868714Y-98091190D01*
X155868714Y-97900714D02*
X155868714Y-97519761D01*
X155535380Y-97757857D02*
X156392523Y-97757857D01*
X156487761Y-97710238D01*
X156535380Y-97615000D01*
X156535380Y-97519761D01*
X156535380Y-97043571D02*
X156487761Y-97138809D01*
X156440142Y-97186428D01*
X156344904Y-97234047D01*
X156059190Y-97234047D01*
X155963952Y-97186428D01*
X155916333Y-97138809D01*
X155868714Y-97043571D01*
X155868714Y-96900714D01*
X155916333Y-96805476D01*
X155963952Y-96757857D01*
X156059190Y-96710238D01*
X156344904Y-96710238D01*
X156440142Y-96757857D01*
X156487761Y-96805476D01*
X156535380Y-96900714D01*
X156535380Y-97043571D01*
X156011571Y-95186428D02*
X156011571Y-95519761D01*
X156535380Y-95519761D02*
X155535380Y-95519761D01*
X155535380Y-95043571D01*
X156535380Y-94234047D02*
X156011571Y-94234047D01*
X155916333Y-94281666D01*
X155868714Y-94376904D01*
X155868714Y-94567380D01*
X155916333Y-94662619D01*
X156487761Y-94234047D02*
X156535380Y-94329285D01*
X156535380Y-94567380D01*
X156487761Y-94662619D01*
X156392523Y-94710238D01*
X156297285Y-94710238D01*
X156202047Y-94662619D01*
X156154428Y-94567380D01*
X156154428Y-94329285D01*
X156106809Y-94234047D01*
X156535380Y-93757857D02*
X155535380Y-93757857D01*
X156535380Y-93329285D02*
X156011571Y-93329285D01*
X155916333Y-93376904D01*
X155868714Y-93472142D01*
X155868714Y-93615000D01*
X155916333Y-93710238D01*
X155963952Y-93757857D01*
X156535380Y-92853095D02*
X155868714Y-92853095D01*
X156059190Y-92853095D02*
X155963952Y-92805476D01*
X155916333Y-92757857D01*
X155868714Y-92662619D01*
X155868714Y-92567380D01*
X156487761Y-91853095D02*
X156535380Y-91948333D01*
X156535380Y-92138809D01*
X156487761Y-92234047D01*
X156392523Y-92281666D01*
X156011571Y-92281666D01*
X155916333Y-92234047D01*
X155868714Y-92138809D01*
X155868714Y-91948333D01*
X155916333Y-91853095D01*
X156011571Y-91805476D01*
X156106809Y-91805476D01*
X156202047Y-92281666D01*
X155868714Y-91376904D02*
X156535380Y-91376904D01*
X155963952Y-91376904D02*
X155916333Y-91329285D01*
X155868714Y-91234047D01*
X155868714Y-91091190D01*
X155916333Y-90995952D01*
X156011571Y-90948333D01*
X156535380Y-90948333D01*
X156535380Y-90472142D02*
X155535380Y-90472142D01*
X156154428Y-90376904D02*
X156535380Y-90091190D01*
X155868714Y-90091190D02*
X156249666Y-90472142D01*
X156535380Y-89662619D02*
X155868714Y-89662619D01*
X156059190Y-89662619D02*
X155963952Y-89615000D01*
X155916333Y-89567380D01*
X155868714Y-89472142D01*
X155868714Y-89376904D01*
X156535380Y-88900714D02*
X156487761Y-88995952D01*
X156440142Y-89043571D01*
X156344904Y-89091190D01*
X156059190Y-89091190D01*
X155963952Y-89043571D01*
X155916333Y-88995952D01*
X155868714Y-88900714D01*
X155868714Y-88757857D01*
X155916333Y-88662619D01*
X155963952Y-88615000D01*
X156059190Y-88567380D01*
X156344904Y-88567380D01*
X156440142Y-88615000D01*
X156487761Y-88662619D01*
X156535380Y-88757857D01*
X156535380Y-88900714D01*
X155868714Y-87710238D02*
X156678238Y-87710238D01*
X156773476Y-87757857D01*
X156821095Y-87805476D01*
X156868714Y-87900714D01*
X156868714Y-88043571D01*
X156821095Y-88138809D01*
X156487761Y-87710238D02*
X156535380Y-87805476D01*
X156535380Y-87995952D01*
X156487761Y-88091190D01*
X156440142Y-88138809D01*
X156344904Y-88186428D01*
X156059190Y-88186428D01*
X155963952Y-88138809D01*
X155916333Y-88091190D01*
X155868714Y-87995952D01*
X155868714Y-87805476D01*
X155916333Y-87710238D01*
X157280619Y-96329285D02*
X157233000Y-96281666D01*
X157185380Y-96186428D01*
X157185380Y-95948333D01*
X157233000Y-95853095D01*
X157280619Y-95805476D01*
X157375857Y-95757857D01*
X157471095Y-95757857D01*
X157613952Y-95805476D01*
X158185380Y-96376904D01*
X158185380Y-95757857D01*
X157185380Y-95138809D02*
X157185380Y-95043571D01*
X157233000Y-94948333D01*
X157280619Y-94900714D01*
X157375857Y-94853095D01*
X157566333Y-94805476D01*
X157804428Y-94805476D01*
X157994904Y-94853095D01*
X158090142Y-94900714D01*
X158137761Y-94948333D01*
X158185380Y-95043571D01*
X158185380Y-95138809D01*
X158137761Y-95234047D01*
X158090142Y-95281666D01*
X157994904Y-95329285D01*
X157804428Y-95376904D01*
X157566333Y-95376904D01*
X157375857Y-95329285D01*
X157280619Y-95281666D01*
X157233000Y-95234047D01*
X157185380Y-95138809D01*
X157280619Y-94424523D02*
X157233000Y-94376904D01*
X157185380Y-94281666D01*
X157185380Y-94043571D01*
X157233000Y-93948333D01*
X157280619Y-93900714D01*
X157375857Y-93853095D01*
X157471095Y-93853095D01*
X157613952Y-93900714D01*
X158185380Y-94472142D01*
X158185380Y-93853095D01*
X157185380Y-93234047D02*
X157185380Y-93138809D01*
X157233000Y-93043571D01*
X157280619Y-92995952D01*
X157375857Y-92948333D01*
X157566333Y-92900714D01*
X157804428Y-92900714D01*
X157994904Y-92948333D01*
X158090142Y-92995952D01*
X158137761Y-93043571D01*
X158185380Y-93138809D01*
X158185380Y-93234047D01*
X158137761Y-93329285D01*
X158090142Y-93376904D01*
X157994904Y-93424523D01*
X157804428Y-93472142D01*
X157566333Y-93472142D01*
X157375857Y-93424523D01*
X157280619Y-93376904D01*
X157233000Y-93329285D01*
X157185380Y-93234047D01*
X156551380Y-127992095D02*
X156551380Y-127325428D01*
X157551380Y-127992095D01*
X157551380Y-127325428D01*
X157551380Y-126468285D02*
X157551380Y-126944476D01*
X156551380Y-126944476D01*
X161504380Y-126944333D02*
X161504380Y-126277666D01*
X162504380Y-126944333D01*
X162504380Y-126277666D01*
X162504380Y-125325285D02*
X162028190Y-125658619D01*
X162504380Y-125896714D02*
X161504380Y-125896714D01*
X161504380Y-125515761D01*
X161552000Y-125420523D01*
X161599619Y-125372904D01*
X161694857Y-125325285D01*
X161837714Y-125325285D01*
X161932952Y-125372904D01*
X161980571Y-125420523D01*
X162028190Y-125515761D01*
X162028190Y-125896714D01*
X123523476Y-81224428D02*
X124285380Y-81224428D01*
X124618714Y-80605380D02*
X124952047Y-81605380D01*
X125285380Y-80605380D01*
X129238476Y-81224428D02*
X130000380Y-81224428D01*
X129619428Y-81605380D02*
X129619428Y-80843476D01*
X130333714Y-80605380D02*
X130667047Y-81605380D01*
X131000380Y-80605380D01*
X162393380Y-62579095D02*
X162393380Y-61960047D01*
X162774333Y-62293380D01*
X162774333Y-62150523D01*
X162821952Y-62055285D01*
X162869571Y-62007666D01*
X162964809Y-61960047D01*
X163202904Y-61960047D01*
X163298142Y-62007666D01*
X163345761Y-62055285D01*
X163393380Y-62150523D01*
X163393380Y-62436238D01*
X163345761Y-62531476D01*
X163298142Y-62579095D01*
X162393380Y-61674333D02*
X163393380Y-61341000D01*
X162393380Y-61007666D01*
X162393380Y-60769571D02*
X162393380Y-60150523D01*
X162774333Y-60483857D01*
X162774333Y-60341000D01*
X162821952Y-60245761D01*
X162869571Y-60198142D01*
X162964809Y-60150523D01*
X163202904Y-60150523D01*
X163298142Y-60198142D01*
X163345761Y-60245761D01*
X163393380Y-60341000D01*
X163393380Y-60626714D01*
X163345761Y-60721952D01*
X163298142Y-60769571D01*
X145613523Y-100925380D02*
X145137333Y-100925380D01*
X145089714Y-101401571D01*
X145137333Y-101353952D01*
X145232571Y-101306333D01*
X145470666Y-101306333D01*
X145565904Y-101353952D01*
X145613523Y-101401571D01*
X145661142Y-101496809D01*
X145661142Y-101734904D01*
X145613523Y-101830142D01*
X145565904Y-101877761D01*
X145470666Y-101925380D01*
X145232571Y-101925380D01*
X145137333Y-101877761D01*
X145089714Y-101830142D01*
X145946857Y-100925380D02*
X146280190Y-101925380D01*
X146613523Y-100925380D01*
X146946857Y-101925380D02*
X146946857Y-100925380D01*
X147184952Y-100925380D01*
X147327809Y-100973000D01*
X147423047Y-101068238D01*
X147470666Y-101163476D01*
X147518285Y-101353952D01*
X147518285Y-101496809D01*
X147470666Y-101687285D01*
X147423047Y-101782523D01*
X147327809Y-101877761D01*
X147184952Y-101925380D01*
X146946857Y-101925380D01*
X143597380Y-62595047D02*
X143597380Y-63071238D01*
X144073571Y-63118857D01*
X144025952Y-63071238D01*
X143978333Y-62976000D01*
X143978333Y-62737904D01*
X144025952Y-62642666D01*
X144073571Y-62595047D01*
X144168809Y-62547428D01*
X144406904Y-62547428D01*
X144502142Y-62595047D01*
X144549761Y-62642666D01*
X144597380Y-62737904D01*
X144597380Y-62976000D01*
X144549761Y-63071238D01*
X144502142Y-63118857D01*
X143597380Y-62261714D02*
X144597380Y-61928380D01*
X143597380Y-61595047D01*
X144311666Y-61309333D02*
X144311666Y-60833142D01*
X144597380Y-61404571D02*
X143597380Y-61071238D01*
X144597380Y-60737904D01*
X130119380Y-121253285D02*
X130119380Y-121824714D01*
X130119380Y-121539000D02*
X129119380Y-121539000D01*
X129262238Y-121634238D01*
X129357476Y-121729476D01*
X129405095Y-121824714D01*
X144430714Y-113482380D02*
X143859285Y-113482380D01*
X144145000Y-113482380D02*
X144145000Y-112482380D01*
X144049761Y-112625238D01*
X143954523Y-112720476D01*
X143859285Y-112768095D01*
X164727380Y-138231476D02*
X164727380Y-138707666D01*
X163727380Y-138707666D01*
X164679761Y-137517190D02*
X164727380Y-137612428D01*
X164727380Y-137802904D01*
X164679761Y-137898142D01*
X164584523Y-137945761D01*
X164203571Y-137945761D01*
X164108333Y-137898142D01*
X164060714Y-137802904D01*
X164060714Y-137612428D01*
X164108333Y-137517190D01*
X164203571Y-137469571D01*
X164298809Y-137469571D01*
X164394047Y-137945761D01*
X164060714Y-137183857D02*
X164060714Y-136802904D01*
X164727380Y-137041000D02*
X163870238Y-137041000D01*
X163775000Y-136993380D01*
X163727380Y-136898142D01*
X163727380Y-136802904D01*
X164060714Y-136612428D02*
X164060714Y-136231476D01*
X163727380Y-136469571D02*
X164584523Y-136469571D01*
X164679761Y-136421952D01*
X164727380Y-136326714D01*
X164727380Y-136231476D01*
X165377380Y-138374333D02*
X165377380Y-138183857D01*
X165425000Y-138088619D01*
X165520238Y-137993380D01*
X165710714Y-137945761D01*
X166044047Y-137945761D01*
X166234523Y-137993380D01*
X166329761Y-138088619D01*
X166377380Y-138183857D01*
X166377380Y-138374333D01*
X166329761Y-138469571D01*
X166234523Y-138564809D01*
X166044047Y-138612428D01*
X165710714Y-138612428D01*
X165520238Y-138564809D01*
X165425000Y-138469571D01*
X165377380Y-138374333D01*
X165710714Y-137088619D02*
X166377380Y-137088619D01*
X165710714Y-137517190D02*
X166234523Y-137517190D01*
X166329761Y-137469571D01*
X166377380Y-137374333D01*
X166377380Y-137231476D01*
X166329761Y-137136238D01*
X166282142Y-137088619D01*
X165710714Y-136755285D02*
X165710714Y-136374333D01*
X165377380Y-136612428D02*
X166234523Y-136612428D01*
X166329761Y-136564809D01*
X166377380Y-136469571D01*
X166377380Y-136374333D01*
X155583380Y-139543119D02*
X155107190Y-139876452D01*
X155583380Y-140114547D02*
X154583380Y-140114547D01*
X154583380Y-139733595D01*
X154631000Y-139638357D01*
X154678619Y-139590738D01*
X154773857Y-139543119D01*
X154916714Y-139543119D01*
X155011952Y-139590738D01*
X155059571Y-139638357D01*
X155107190Y-139733595D01*
X155107190Y-140114547D01*
X155583380Y-139114547D02*
X154916714Y-139114547D01*
X154583380Y-139114547D02*
X154631000Y-139162166D01*
X154678619Y-139114547D01*
X154631000Y-139066928D01*
X154583380Y-139114547D01*
X154678619Y-139114547D01*
X154916714Y-138209785D02*
X155726238Y-138209785D01*
X155821476Y-138257404D01*
X155869095Y-138305023D01*
X155916714Y-138400261D01*
X155916714Y-138543119D01*
X155869095Y-138638357D01*
X155535761Y-138209785D02*
X155583380Y-138305023D01*
X155583380Y-138495500D01*
X155535761Y-138590738D01*
X155488142Y-138638357D01*
X155392904Y-138685976D01*
X155107190Y-138685976D01*
X155011952Y-138638357D01*
X154964333Y-138590738D01*
X154916714Y-138495500D01*
X154916714Y-138305023D01*
X154964333Y-138209785D01*
X155583380Y-137733595D02*
X154583380Y-137733595D01*
X155583380Y-137305023D02*
X155059571Y-137305023D01*
X154964333Y-137352642D01*
X154916714Y-137447880D01*
X154916714Y-137590738D01*
X154964333Y-137685976D01*
X155011952Y-137733595D01*
X154916714Y-136971690D02*
X154916714Y-136590738D01*
X154583380Y-136828833D02*
X155440523Y-136828833D01*
X155535761Y-136781214D01*
X155583380Y-136685976D01*
X155583380Y-136590738D01*
X156233380Y-138590738D02*
X156233380Y-138400261D01*
X156281000Y-138305023D01*
X156376238Y-138209785D01*
X156566714Y-138162166D01*
X156900047Y-138162166D01*
X157090523Y-138209785D01*
X157185761Y-138305023D01*
X157233380Y-138400261D01*
X157233380Y-138590738D01*
X157185761Y-138685976D01*
X157090523Y-138781214D01*
X156900047Y-138828833D01*
X156566714Y-138828833D01*
X156376238Y-138781214D01*
X156281000Y-138685976D01*
X156233380Y-138590738D01*
X156566714Y-137305023D02*
X157233380Y-137305023D01*
X156566714Y-137733595D02*
X157090523Y-137733595D01*
X157185761Y-137685976D01*
X157233380Y-137590738D01*
X157233380Y-137447880D01*
X157185761Y-137352642D01*
X157138142Y-137305023D01*
X156566714Y-136971690D02*
X156566714Y-136590738D01*
X156233380Y-136828833D02*
X157090523Y-136828833D01*
X157185761Y-136781214D01*
X157233380Y-136685976D01*
X157233380Y-136590738D01*
X168283000Y-138048904D02*
X168235380Y-138144142D01*
X168235380Y-138287000D01*
X168283000Y-138429857D01*
X168378238Y-138525095D01*
X168473476Y-138572714D01*
X168663952Y-138620333D01*
X168806809Y-138620333D01*
X168997285Y-138572714D01*
X169092523Y-138525095D01*
X169187761Y-138429857D01*
X169235380Y-138287000D01*
X169235380Y-138191761D01*
X169187761Y-138048904D01*
X169140142Y-138001285D01*
X168806809Y-138001285D01*
X168806809Y-138191761D01*
X169235380Y-137572714D02*
X168235380Y-137572714D01*
X169235380Y-137001285D01*
X168235380Y-137001285D01*
X169235380Y-136525095D02*
X168235380Y-136525095D01*
X168235380Y-136287000D01*
X168283000Y-136144142D01*
X168378238Y-136048904D01*
X168473476Y-136001285D01*
X168663952Y-135953666D01*
X168806809Y-135953666D01*
X168997285Y-136001285D01*
X169092523Y-136048904D01*
X169187761Y-136144142D01*
X169235380Y-136287000D01*
X169235380Y-136525095D01*
X160536000Y-138175904D02*
X160488380Y-138271142D01*
X160488380Y-138414000D01*
X160536000Y-138556857D01*
X160631238Y-138652095D01*
X160726476Y-138699714D01*
X160916952Y-138747333D01*
X161059809Y-138747333D01*
X161250285Y-138699714D01*
X161345523Y-138652095D01*
X161440761Y-138556857D01*
X161488380Y-138414000D01*
X161488380Y-138318761D01*
X161440761Y-138175904D01*
X161393142Y-138128285D01*
X161059809Y-138128285D01*
X161059809Y-138318761D01*
X161488380Y-137699714D02*
X160488380Y-137699714D01*
X161488380Y-137128285D01*
X160488380Y-137128285D01*
X161488380Y-136652095D02*
X160488380Y-136652095D01*
X160488380Y-136414000D01*
X160536000Y-136271142D01*
X160631238Y-136175904D01*
X160726476Y-136128285D01*
X160916952Y-136080666D01*
X161059809Y-136080666D01*
X161250285Y-136128285D01*
X161345523Y-136175904D01*
X161440761Y-136271142D01*
X161488380Y-136414000D01*
X161488380Y-136652095D01*
X126182380Y-138033000D02*
X126182380Y-138509190D01*
X125182380Y-138509190D01*
X125801428Y-137699666D02*
X125801428Y-136937761D01*
X126182380Y-136461571D02*
X125182380Y-136461571D01*
X125515714Y-135985380D02*
X126182380Y-135985380D01*
X125610952Y-135985380D02*
X125563333Y-135937761D01*
X125515714Y-135842523D01*
X125515714Y-135699666D01*
X125563333Y-135604428D01*
X125658571Y-135556809D01*
X126182380Y-135556809D01*
X118435380Y-138033000D02*
X117959190Y-138366333D01*
X118435380Y-138604428D02*
X117435380Y-138604428D01*
X117435380Y-138223476D01*
X117483000Y-138128238D01*
X117530619Y-138080619D01*
X117625857Y-138033000D01*
X117768714Y-138033000D01*
X117863952Y-138080619D01*
X117911571Y-138128238D01*
X117959190Y-138223476D01*
X117959190Y-138604428D01*
X118054428Y-137604428D02*
X118054428Y-136842523D01*
X118435380Y-136366333D02*
X117435380Y-136366333D01*
X117768714Y-135890142D02*
X118435380Y-135890142D01*
X117863952Y-135890142D02*
X117816333Y-135842523D01*
X117768714Y-135747285D01*
X117768714Y-135604428D01*
X117816333Y-135509190D01*
X117911571Y-135461571D01*
X118435380Y-135461571D01*
X130310000Y-138048904D02*
X130262380Y-138144142D01*
X130262380Y-138287000D01*
X130310000Y-138429857D01*
X130405238Y-138525095D01*
X130500476Y-138572714D01*
X130690952Y-138620333D01*
X130833809Y-138620333D01*
X131024285Y-138572714D01*
X131119523Y-138525095D01*
X131214761Y-138429857D01*
X131262380Y-138287000D01*
X131262380Y-138191761D01*
X131214761Y-138048904D01*
X131167142Y-138001285D01*
X130833809Y-138001285D01*
X130833809Y-138191761D01*
X131262380Y-137572714D02*
X130262380Y-137572714D01*
X131262380Y-137001285D01*
X130262380Y-137001285D01*
X131262380Y-136525095D02*
X130262380Y-136525095D01*
X130262380Y-136287000D01*
X130310000Y-136144142D01*
X130405238Y-136048904D01*
X130500476Y-136001285D01*
X130690952Y-135953666D01*
X130833809Y-135953666D01*
X131024285Y-136001285D01*
X131119523Y-136048904D01*
X131214761Y-136144142D01*
X131262380Y-136287000D01*
X131262380Y-136525095D01*
X122563000Y-138048904D02*
X122515380Y-138144142D01*
X122515380Y-138287000D01*
X122563000Y-138429857D01*
X122658238Y-138525095D01*
X122753476Y-138572714D01*
X122943952Y-138620333D01*
X123086809Y-138620333D01*
X123277285Y-138572714D01*
X123372523Y-138525095D01*
X123467761Y-138429857D01*
X123515380Y-138287000D01*
X123515380Y-138191761D01*
X123467761Y-138048904D01*
X123420142Y-138001285D01*
X123086809Y-138001285D01*
X123086809Y-138191761D01*
X123515380Y-137572714D02*
X122515380Y-137572714D01*
X123515380Y-137001285D01*
X122515380Y-137001285D01*
X123515380Y-136525095D02*
X122515380Y-136525095D01*
X122515380Y-136287000D01*
X122563000Y-136144142D01*
X122658238Y-136048904D01*
X122753476Y-136001285D01*
X122943952Y-135953666D01*
X123086809Y-135953666D01*
X123277285Y-136001285D01*
X123372523Y-136048904D01*
X123467761Y-136144142D01*
X123515380Y-136287000D01*
X123515380Y-136525095D01*
X121420000Y-58927904D02*
X121372380Y-59023142D01*
X121372380Y-59166000D01*
X121420000Y-59308857D01*
X121515238Y-59404095D01*
X121610476Y-59451714D01*
X121800952Y-59499333D01*
X121943809Y-59499333D01*
X122134285Y-59451714D01*
X122229523Y-59404095D01*
X122324761Y-59308857D01*
X122372380Y-59166000D01*
X122372380Y-59070761D01*
X122324761Y-58927904D01*
X122277142Y-58880285D01*
X121943809Y-58880285D01*
X121943809Y-59070761D01*
X122372380Y-58451714D02*
X121372380Y-58451714D01*
X122372380Y-57880285D01*
X121372380Y-57880285D01*
X122372380Y-57404095D02*
X121372380Y-57404095D01*
X121372380Y-57166000D01*
X121420000Y-57023142D01*
X121515238Y-56927904D01*
X121610476Y-56880285D01*
X121800952Y-56832666D01*
X121943809Y-56832666D01*
X122134285Y-56880285D01*
X122229523Y-56927904D01*
X122324761Y-57023142D01*
X122372380Y-57166000D01*
X122372380Y-57404095D01*
X119451428Y-60435904D02*
X119451428Y-59674000D01*
X119832380Y-58674000D02*
X119832380Y-59245428D01*
X119832380Y-58959714D02*
X118832380Y-58959714D01*
X118975238Y-59054952D01*
X119070476Y-59150190D01*
X119118095Y-59245428D01*
X118927619Y-58293047D02*
X118880000Y-58245428D01*
X118832380Y-58150190D01*
X118832380Y-57912095D01*
X118880000Y-57816857D01*
X118927619Y-57769238D01*
X119022857Y-57721619D01*
X119118095Y-57721619D01*
X119260952Y-57769238D01*
X119832380Y-58340666D01*
X119832380Y-57721619D01*
X118832380Y-57435904D02*
X119832380Y-57102571D01*
X118832380Y-56769238D01*
X124531428Y-60435904D02*
X124531428Y-59674000D01*
X124912380Y-60054952D02*
X124150476Y-60054952D01*
X124912380Y-58674000D02*
X124912380Y-59245428D01*
X124912380Y-58959714D02*
X123912380Y-58959714D01*
X124055238Y-59054952D01*
X124150476Y-59150190D01*
X124198095Y-59245428D01*
X124007619Y-58293047D02*
X123960000Y-58245428D01*
X123912380Y-58150190D01*
X123912380Y-57912095D01*
X123960000Y-57816857D01*
X124007619Y-57769238D01*
X124102857Y-57721619D01*
X124198095Y-57721619D01*
X124340952Y-57769238D01*
X124912380Y-58340666D01*
X124912380Y-57721619D01*
X123912380Y-57435904D02*
X124912380Y-57102571D01*
X123912380Y-56769238D01*
X163838000Y-59181904D02*
X163790380Y-59277142D01*
X163790380Y-59420000D01*
X163838000Y-59562857D01*
X163933238Y-59658095D01*
X164028476Y-59705714D01*
X164218952Y-59753333D01*
X164361809Y-59753333D01*
X164552285Y-59705714D01*
X164647523Y-59658095D01*
X164742761Y-59562857D01*
X164790380Y-59420000D01*
X164790380Y-59324761D01*
X164742761Y-59181904D01*
X164695142Y-59134285D01*
X164361809Y-59134285D01*
X164361809Y-59324761D01*
X164790380Y-58705714D02*
X163790380Y-58705714D01*
X164790380Y-58134285D01*
X163790380Y-58134285D01*
X164790380Y-57658095D02*
X163790380Y-57658095D01*
X163790380Y-57420000D01*
X163838000Y-57277142D01*
X163933238Y-57181904D01*
X164028476Y-57134285D01*
X164218952Y-57086666D01*
X164361809Y-57086666D01*
X164552285Y-57134285D01*
X164647523Y-57181904D01*
X164742761Y-57277142D01*
X164790380Y-57420000D01*
X164790380Y-57658095D01*
X166394380Y-62277285D02*
X167394380Y-61943952D01*
X166394380Y-61610619D01*
X167108666Y-60563000D02*
X167108666Y-60086809D01*
X167394380Y-60658238D02*
X166394380Y-60324904D01*
X167394380Y-59991571D01*
X167299142Y-59086809D02*
X167346761Y-59134428D01*
X167394380Y-59277285D01*
X167394380Y-59372523D01*
X167346761Y-59515380D01*
X167251523Y-59610619D01*
X167156285Y-59658238D01*
X166965809Y-59705857D01*
X166822952Y-59705857D01*
X166632476Y-59658238D01*
X166537238Y-59610619D01*
X166442000Y-59515380D01*
X166394380Y-59372523D01*
X166394380Y-59277285D01*
X166442000Y-59134428D01*
X166489619Y-59086809D01*
X167394380Y-57896333D02*
X166394380Y-57896333D01*
X166727714Y-57420142D02*
X167394380Y-57420142D01*
X166822952Y-57420142D02*
X166775333Y-57372523D01*
X166727714Y-57277285D01*
X166727714Y-57134428D01*
X166775333Y-57039190D01*
X166870571Y-56991571D01*
X167394380Y-56991571D01*
X169425333Y-60610619D02*
X169377714Y-60658238D01*
X169234857Y-60753476D01*
X169139619Y-60801095D01*
X168996761Y-60848714D01*
X168758666Y-60896333D01*
X168568190Y-60896333D01*
X168330095Y-60848714D01*
X168187238Y-60801095D01*
X168092000Y-60753476D01*
X167949142Y-60658238D01*
X167901523Y-60610619D01*
X169044380Y-60182047D02*
X169044380Y-59991571D01*
X168996761Y-59896333D01*
X168949142Y-59848714D01*
X168806285Y-59753476D01*
X168615809Y-59705857D01*
X168234857Y-59705857D01*
X168139619Y-59753476D01*
X168092000Y-59801095D01*
X168044380Y-59896333D01*
X168044380Y-60086809D01*
X168092000Y-60182047D01*
X168139619Y-60229666D01*
X168234857Y-60277285D01*
X168472952Y-60277285D01*
X168568190Y-60229666D01*
X168615809Y-60182047D01*
X168663428Y-60086809D01*
X168663428Y-59896333D01*
X168615809Y-59801095D01*
X168568190Y-59753476D01*
X168472952Y-59705857D01*
X168044380Y-59420142D02*
X169044380Y-59086809D01*
X168044380Y-58753476D01*
X169425333Y-58515380D02*
X169377714Y-58467761D01*
X169234857Y-58372523D01*
X169139619Y-58324904D01*
X168996761Y-58277285D01*
X168758666Y-58229666D01*
X168568190Y-58229666D01*
X168330095Y-58277285D01*
X168187238Y-58324904D01*
X168092000Y-58372523D01*
X167949142Y-58467761D01*
X167901523Y-58515380D01*
%TO.C,U5*%
X144826000Y-115138000D02*
X143226000Y-115138000D01*
X144826000Y-125213000D02*
X150576000Y-125213000D01*
X144826000Y-114563000D02*
X150576000Y-114563000D01*
X144826000Y-125213000D02*
X144826000Y-124563000D01*
X150576000Y-125213000D02*
X150576000Y-124563000D01*
X150576000Y-114563000D02*
X150576000Y-115213000D01*
X144826000Y-114563000D02*
X144826000Y-115138000D01*
D11*
%TO.C,C47*%
X143022000Y-127404000D02*
X145907000Y-127404000D01*
X143022000Y-125834000D02*
X143022000Y-127404000D01*
X145907000Y-125834000D02*
X143022000Y-125834000D01*
%TO.C,C45*%
X142517000Y-118090000D02*
X142517000Y-115205000D01*
X140947000Y-118090000D02*
X142517000Y-118090000D01*
X140947000Y-115205000D02*
X140947000Y-118090000D01*
%TO.C,C48*%
X131859000Y-101955000D02*
X140094000Y-101955000D01*
X140094000Y-101955000D02*
X140094000Y-97435000D01*
X140094000Y-97435000D02*
X131859000Y-97435000D01*
%TO.C,C15*%
X158395000Y-69121000D02*
X158395000Y-77356000D01*
X158395000Y-77356000D02*
X162915000Y-77356000D01*
X162915000Y-77356000D02*
X162915000Y-69121000D01*
%TO.C,U2*%
X142454000Y-86326000D02*
X140954000Y-86326000D01*
X140954000Y-86326000D02*
X140954000Y-87016000D01*
X140954000Y-87016000D02*
X135829000Y-87016000D01*
X142454000Y-96726000D02*
X140954000Y-96726000D01*
X140954000Y-96726000D02*
X140954000Y-96036000D01*
X140954000Y-96036000D02*
X139854000Y-96036000D01*
%TO.C,U1*%
X147219000Y-69607000D02*
X147219000Y-71107000D01*
X147219000Y-71107000D02*
X147909000Y-71107000D01*
X147909000Y-71107000D02*
X147909000Y-76232000D01*
X157619000Y-69607000D02*
X157619000Y-71107000D01*
X157619000Y-71107000D02*
X156929000Y-71107000D01*
X156929000Y-71107000D02*
X156929000Y-72207000D01*
%TO.C,R49*%
X130050000Y-88347733D02*
X130050000Y-88690267D01*
X129030000Y-88347733D02*
X129030000Y-88690267D01*
%TO.C,R48*%
X130511733Y-93724000D02*
X130854267Y-93724000D01*
X130511733Y-94744000D02*
X130854267Y-94744000D01*
%TO.C,R47*%
X130681000Y-88690267D02*
X130681000Y-88347733D01*
X131701000Y-88690267D02*
X131701000Y-88347733D01*
%TO.C,R46*%
X135003000Y-95078733D02*
X135003000Y-95421267D01*
X133983000Y-95078733D02*
X133983000Y-95421267D01*
%TO.C,R45*%
X134749000Y-87585733D02*
X134749000Y-87928267D01*
X133729000Y-87585733D02*
X133729000Y-87928267D01*
%TO.C,R44*%
X149688733Y-82552000D02*
X150031267Y-82552000D01*
X149688733Y-81532000D02*
X150031267Y-81532000D01*
%TO.C,R43*%
X154811000Y-78770267D02*
X154811000Y-78427733D01*
X155831000Y-78770267D02*
X155831000Y-78427733D01*
%TO.C,R42*%
X150045267Y-80008000D02*
X149702733Y-80008000D01*
X150045267Y-81028000D02*
X149702733Y-81028000D01*
%TO.C,R41*%
X156462000Y-78770267D02*
X156462000Y-78427733D01*
X157482000Y-78770267D02*
X157482000Y-78427733D01*
%TO.C,R40*%
X149702733Y-79377000D02*
X150045267Y-79377000D01*
X149702733Y-78357000D02*
X150045267Y-78357000D01*
%TO.C,C49*%
X133775267Y-93093000D02*
X133432733Y-93093000D01*
X133775267Y-92073000D02*
X133432733Y-92073000D01*
%TO.C,C17*%
X137077267Y-85473000D02*
X136734733Y-85473000D01*
X137077267Y-84453000D02*
X136734733Y-84453000D01*
%TO.C,C14*%
X134795000Y-84006000D02*
X141730000Y-84006000D01*
X141730000Y-84006000D02*
X141730000Y-80586000D01*
X141730000Y-80586000D02*
X134795000Y-80586000D01*
%TO.C,C13*%
X154180000Y-78441733D02*
X154180000Y-78784267D01*
X153160000Y-78441733D02*
X153160000Y-78784267D01*
%TO.C,C12*%
X143070000Y-69517000D02*
X143070000Y-76452000D01*
X143070000Y-76452000D02*
X146490000Y-76452000D01*
X146490000Y-76452000D02*
X146490000Y-69517000D01*
%TO.C,C41*%
X133624000Y-110386000D02*
X136509000Y-110386000D01*
X133624000Y-108816000D02*
X133624000Y-110386000D01*
X136509000Y-108816000D02*
X133624000Y-108816000D01*
%TO.C,C37*%
X137137000Y-122829000D02*
X137137000Y-125714000D01*
X138707000Y-122829000D02*
X137137000Y-122829000D01*
X138707000Y-125714000D02*
X138707000Y-122829000D01*
%TO.C,C35*%
X132057000Y-122829000D02*
X132057000Y-125714000D01*
X133627000Y-122829000D02*
X132057000Y-122829000D01*
X133627000Y-125714000D02*
X133627000Y-122829000D01*
%TO.C,C33*%
X126977000Y-122956000D02*
X126977000Y-125841000D01*
X128547000Y-122956000D02*
X126977000Y-122956000D01*
X128547000Y-125841000D02*
X128547000Y-122956000D01*
%TO.C,C20*%
X154364000Y-145540000D02*
X154364000Y-138605000D01*
X150944000Y-145540000D02*
X154364000Y-145540000D01*
X150944000Y-138605000D02*
X150944000Y-145540000D01*
%TO.C,C18*%
X136457000Y-146556000D02*
X136457000Y-139621000D01*
X133037000Y-146556000D02*
X136457000Y-146556000D01*
X133037000Y-139621000D02*
X133037000Y-146556000D01*
%TO.C,U6*%
X130677000Y-120362000D02*
X130677000Y-122052000D01*
X130402000Y-120362000D02*
X130677000Y-120362000D01*
X130402000Y-117602000D02*
X130402000Y-120362000D01*
X130402000Y-114842000D02*
X130677000Y-114842000D01*
X130402000Y-117602000D02*
X130402000Y-114842000D01*
X137822000Y-120362000D02*
X137547000Y-120362000D01*
X137822000Y-117602000D02*
X137822000Y-120362000D01*
X137822000Y-114842000D02*
X137547000Y-114842000D01*
X137822000Y-117602000D02*
X137822000Y-114842000D01*
%TO.C,U4*%
X137328000Y-73014000D02*
X137328000Y-75464000D01*
X140548000Y-74814000D02*
X140548000Y-73014000D01*
%TO.C,U3*%
X143510000Y-144546000D02*
X146960000Y-144546000D01*
X143510000Y-144546000D02*
X141560000Y-144546000D01*
X143510000Y-139426000D02*
X145460000Y-139426000D01*
X143510000Y-139426000D02*
X141560000Y-139426000D01*
%TO.C,R39*%
X125318733Y-78488000D02*
X125661267Y-78488000D01*
X125318733Y-77468000D02*
X125661267Y-77468000D01*
%TO.C,R38*%
X159637000Y-64598733D02*
X159637000Y-64941267D01*
X160657000Y-64598733D02*
X160657000Y-64941267D01*
%TO.C,R37*%
X141222000Y-65501733D02*
X141222000Y-65844267D01*
X142242000Y-65501733D02*
X142242000Y-65844267D01*
%TO.C,R36*%
X142411267Y-99185000D02*
X142068733Y-99185000D01*
X142411267Y-100205000D02*
X142068733Y-100205000D01*
%TO.C,R35*%
X131489267Y-77468000D02*
X131146733Y-77468000D01*
X131489267Y-78488000D02*
X131146733Y-78488000D01*
%TO.C,R34*%
X154180000Y-117646267D02*
X154180000Y-117303733D01*
X153160000Y-117646267D02*
X153160000Y-117303733D01*
%TO.C,R33*%
X155831000Y-117646267D02*
X155831000Y-117303733D01*
X154811000Y-117646267D02*
X154811000Y-117303733D01*
%TO.C,R32*%
X161715267Y-106170000D02*
X161372733Y-106170000D01*
X161715267Y-107190000D02*
X161372733Y-107190000D01*
%TO.C,R31*%
X161715267Y-108710000D02*
X161372733Y-108710000D01*
X161715267Y-109730000D02*
X161372733Y-109730000D01*
%TO.C,R30*%
X161729267Y-113790000D02*
X161386733Y-113790000D01*
X161729267Y-114810000D02*
X161386733Y-114810000D01*
%TO.C,R29*%
X161715267Y-101090000D02*
X161372733Y-101090000D01*
X161715267Y-102110000D02*
X161372733Y-102110000D01*
%TO.C,R28*%
X161372733Y-104650000D02*
X161715267Y-104650000D01*
X161372733Y-103630000D02*
X161715267Y-103630000D01*
%TO.C,R27*%
X161386733Y-99570000D02*
X161729267Y-99570000D01*
X161386733Y-98550000D02*
X161729267Y-98550000D01*
%TO.C,R26*%
X161372733Y-117350000D02*
X161715267Y-117350000D01*
X161372733Y-116330000D02*
X161715267Y-116330000D01*
%TO.C,R25*%
X125304733Y-104650000D02*
X125647267Y-104650000D01*
X125304733Y-103630000D02*
X125647267Y-103630000D01*
%TO.C,R24*%
X125304733Y-102110000D02*
X125647267Y-102110000D01*
X125304733Y-101090000D02*
X125647267Y-101090000D01*
%TO.C,R23*%
X125304733Y-107190000D02*
X125647267Y-107190000D01*
X125304733Y-106170000D02*
X125647267Y-106170000D01*
%TO.C,R22*%
X125304733Y-99570000D02*
X125647267Y-99570000D01*
X125304733Y-98550000D02*
X125647267Y-98550000D01*
%TO.C,R21*%
X125431733Y-112270000D02*
X125774267Y-112270000D01*
X125431733Y-111250000D02*
X125774267Y-111250000D01*
%TO.C,R20*%
X125647267Y-116330000D02*
X125304733Y-116330000D01*
X125647267Y-117350000D02*
X125304733Y-117350000D01*
%TO.C,R19*%
X125647267Y-113790000D02*
X125304733Y-113790000D01*
X125647267Y-114810000D02*
X125304733Y-114810000D01*
%TO.C,R18*%
X125647267Y-96010000D02*
X125304733Y-96010000D01*
X125647267Y-97030000D02*
X125304733Y-97030000D01*
%TO.C,R17*%
X135130000Y-124885267D02*
X135130000Y-124542733D01*
X134110000Y-124885267D02*
X134110000Y-124542733D01*
%TO.C,R16*%
X120478733Y-138178000D02*
X120821267Y-138178000D01*
X120478733Y-137158000D02*
X120821267Y-137158000D01*
%TO.C,R15*%
X144824267Y-131316000D02*
X144481733Y-131316000D01*
X144824267Y-132336000D02*
X144481733Y-132336000D01*
%TO.C,R14*%
X158921267Y-130300000D02*
X158578733Y-130300000D01*
X158921267Y-131320000D02*
X158578733Y-131320000D01*
%TO.C,R13*%
X128098733Y-138178000D02*
X128441267Y-138178000D01*
X128098733Y-137158000D02*
X128441267Y-137158000D01*
%TO.C,R12*%
X139401733Y-133860000D02*
X139744267Y-133860000D01*
X139401733Y-132840000D02*
X139744267Y-132840000D01*
%TO.C,R11*%
X144481733Y-133860000D02*
X144824267Y-133860000D01*
X144481733Y-132840000D02*
X144824267Y-132840000D01*
%TO.C,R10*%
X153498733Y-132844000D02*
X153841267Y-132844000D01*
X153498733Y-131824000D02*
X153841267Y-131824000D01*
%TO.C,R9*%
X158578733Y-132844000D02*
X158921267Y-132844000D01*
X158578733Y-131824000D02*
X158921267Y-131824000D01*
%TO.C,R8*%
X144481733Y-135384000D02*
X144824267Y-135384000D01*
X144481733Y-134364000D02*
X144824267Y-134364000D01*
%TO.C,R7*%
X158578733Y-134368000D02*
X158921267Y-134368000D01*
X158578733Y-133348000D02*
X158921267Y-133348000D01*
%TO.C,R6*%
X139401733Y-135384000D02*
X139744267Y-135384000D01*
X139401733Y-134364000D02*
X139744267Y-134364000D01*
%TO.C,R5*%
X153498733Y-134368000D02*
X153841267Y-134368000D01*
X153498733Y-133348000D02*
X153841267Y-133348000D01*
%TO.C,R4*%
X143300267Y-136142000D02*
X142957733Y-136142000D01*
X143300267Y-137162000D02*
X142957733Y-137162000D01*
%TO.C,R3*%
X157054733Y-136146000D02*
X157397267Y-136146000D01*
X157054733Y-135126000D02*
X157397267Y-135126000D01*
%TO.C,R2*%
X117317733Y-60962000D02*
X117660267Y-60962000D01*
X117317733Y-59942000D02*
X117660267Y-59942000D01*
%TO.C,R1*%
X128747733Y-60962000D02*
X129090267Y-60962000D01*
X128747733Y-59942000D02*
X129090267Y-59942000D01*
%TO.C,Q4*%
X161092000Y-118747000D02*
X161092000Y-120207000D01*
X157932000Y-118747000D02*
X157932000Y-120907000D01*
X157932000Y-118747000D02*
X158862000Y-118747000D01*
X161092000Y-118747000D02*
X160162000Y-118747000D01*
%TO.C,Q3*%
X161092000Y-122303000D02*
X161092000Y-123763000D01*
X157932000Y-122303000D02*
X157932000Y-124463000D01*
X157932000Y-122303000D02*
X158862000Y-122303000D01*
X161092000Y-122303000D02*
X160162000Y-122303000D01*
%TO.C,Q2*%
X126363000Y-76891000D02*
X124903000Y-76891000D01*
X126363000Y-73731000D02*
X124203000Y-73731000D01*
X126363000Y-73731000D02*
X126363000Y-74661000D01*
X126363000Y-76891000D02*
X126363000Y-75961000D01*
%TO.C,Q1*%
X131824000Y-76891000D02*
X130364000Y-76891000D01*
X131824000Y-73731000D02*
X129664000Y-73731000D01*
X131824000Y-73731000D02*
X131824000Y-74661000D01*
X131824000Y-76891000D02*
X131824000Y-75961000D01*
%TO.C,J10*%
X117820000Y-144840000D02*
X118590000Y-144840000D01*
X120170000Y-144840000D02*
X121130000Y-144840000D01*
X122710000Y-144840000D02*
X123480000Y-144840000D01*
X117820000Y-139540000D02*
X123480000Y-139540000D01*
X117820000Y-139080000D02*
X123480000Y-139080000D01*
X117820000Y-145400000D02*
X118590000Y-145400000D01*
X120170000Y-145400000D02*
X121130000Y-145400000D01*
X122710000Y-145400000D02*
X123480000Y-145400000D01*
X117820000Y-139080000D02*
X117820000Y-145400000D01*
X123480000Y-139080000D02*
X123480000Y-145400000D01*
X117580000Y-144900000D02*
X117580000Y-145640000D01*
X117580000Y-145640000D02*
X118080000Y-145640000D01*
%TO.C,J9*%
X125440000Y-144840000D02*
X126210000Y-144840000D01*
X127790000Y-144840000D02*
X128750000Y-144840000D01*
X130330000Y-144840000D02*
X131100000Y-144840000D01*
X125440000Y-139540000D02*
X131100000Y-139540000D01*
X125440000Y-139080000D02*
X131100000Y-139080000D01*
X125440000Y-145400000D02*
X126210000Y-145400000D01*
X127790000Y-145400000D02*
X128750000Y-145400000D01*
X130330000Y-145400000D02*
X131100000Y-145400000D01*
X125440000Y-139080000D02*
X125440000Y-145400000D01*
X131100000Y-139080000D02*
X131100000Y-145400000D01*
X125200000Y-144900000D02*
X125200000Y-145640000D01*
X125200000Y-145640000D02*
X125700000Y-145640000D01*
%TO.C,J8*%
X155920000Y-144840000D02*
X156690000Y-144840000D01*
X158270000Y-144840000D02*
X159230000Y-144840000D01*
X160810000Y-144840000D02*
X161580000Y-144840000D01*
X155920000Y-139540000D02*
X161580000Y-139540000D01*
X155920000Y-139080000D02*
X161580000Y-139080000D01*
X155920000Y-145400000D02*
X156690000Y-145400000D01*
X158270000Y-145400000D02*
X159230000Y-145400000D01*
X160810000Y-145400000D02*
X161580000Y-145400000D01*
X155920000Y-139080000D02*
X155920000Y-145400000D01*
X161580000Y-139080000D02*
X161580000Y-145400000D01*
X155680000Y-144900000D02*
X155680000Y-145640000D01*
X155680000Y-145640000D02*
X156180000Y-145640000D01*
%TO.C,J7*%
X163540000Y-144840000D02*
X164310000Y-144840000D01*
X165890000Y-144840000D02*
X166850000Y-144840000D01*
X168430000Y-144840000D02*
X169200000Y-144840000D01*
X163540000Y-139540000D02*
X169200000Y-139540000D01*
X163540000Y-139080000D02*
X169200000Y-139080000D01*
X163540000Y-145400000D02*
X164310000Y-145400000D01*
X165890000Y-145400000D02*
X166850000Y-145400000D01*
X168430000Y-145400000D02*
X169200000Y-145400000D01*
X163540000Y-139080000D02*
X163540000Y-145400000D01*
X169200000Y-139080000D02*
X169200000Y-145400000D01*
X163300000Y-144900000D02*
X163300000Y-145640000D01*
X163300000Y-145640000D02*
X163800000Y-145640000D01*
%TO.C,J6*%
X163770000Y-90110000D02*
X165100000Y-90110000D01*
X163770000Y-91440000D02*
X163770000Y-90110000D01*
X166370000Y-90110000D02*
X168970000Y-90110000D01*
X166370000Y-92710000D02*
X166370000Y-90110000D01*
X163770000Y-92710000D02*
X166370000Y-92710000D01*
X168970000Y-90110000D02*
X168970000Y-133410000D01*
X163770000Y-92710000D02*
X163770000Y-133410000D01*
X163770000Y-133410000D02*
X168970000Y-133410000D01*
%TO.C,J5*%
X118050000Y-95190000D02*
X119380000Y-95190000D01*
X118050000Y-96520000D02*
X118050000Y-95190000D01*
X120650000Y-95190000D02*
X123250000Y-95190000D01*
X120650000Y-97790000D02*
X120650000Y-95190000D01*
X118050000Y-97790000D02*
X120650000Y-97790000D01*
X123250000Y-95190000D02*
X123250000Y-133410000D01*
X118050000Y-97790000D02*
X118050000Y-133410000D01*
X118050000Y-133410000D02*
X123250000Y-133410000D01*
%TO.C,J4*%
X163770000Y-63440000D02*
X165100000Y-63440000D01*
X163770000Y-64770000D02*
X163770000Y-63440000D01*
X166370000Y-63440000D02*
X168970000Y-63440000D01*
X166370000Y-66040000D02*
X166370000Y-63440000D01*
X163770000Y-66040000D02*
X166370000Y-66040000D01*
X168970000Y-63440000D02*
X168970000Y-88960000D01*
X163770000Y-66040000D02*
X163770000Y-88960000D01*
X163770000Y-88960000D02*
X168970000Y-88960000D01*
%TO.C,J3*%
X118050000Y-72330000D02*
X119380000Y-72330000D01*
X118050000Y-73660000D02*
X118050000Y-72330000D01*
X120650000Y-72330000D02*
X123250000Y-72330000D01*
X120650000Y-74930000D02*
X120650000Y-72330000D01*
X118050000Y-74930000D02*
X120650000Y-74930000D01*
X123250000Y-72330000D02*
X123250000Y-92770000D01*
X118050000Y-74930000D02*
X118050000Y-92770000D01*
X118050000Y-92770000D02*
X123250000Y-92770000D01*
%TO.C,J2*%
X126260000Y-49940000D02*
X125760000Y-49940000D01*
X126260000Y-50680000D02*
X126260000Y-49940000D01*
X117820000Y-56500000D02*
X117820000Y-50180000D01*
X126020000Y-56500000D02*
X126020000Y-50180000D01*
X118590000Y-50180000D02*
X117820000Y-50180000D01*
X121130000Y-50180000D02*
X120170000Y-50180000D01*
X123670000Y-50180000D02*
X122710000Y-50180000D01*
X126020000Y-50180000D02*
X125250000Y-50180000D01*
X126020000Y-56500000D02*
X117820000Y-56500000D01*
X126020000Y-56040000D02*
X117820000Y-56040000D01*
X118590000Y-50740000D02*
X117820000Y-50740000D01*
X121130000Y-50740000D02*
X120170000Y-50740000D01*
X123670000Y-50740000D02*
X122710000Y-50740000D01*
X126020000Y-50740000D02*
X125250000Y-50740000D01*
%TO.C,J1*%
X169200000Y-50740000D02*
X168430000Y-50740000D01*
X166850000Y-50740000D02*
X165890000Y-50740000D01*
X164310000Y-50740000D02*
X163540000Y-50740000D01*
X169200000Y-56040000D02*
X163540000Y-56040000D01*
X169200000Y-56500000D02*
X163540000Y-56500000D01*
X169200000Y-50180000D02*
X168430000Y-50180000D01*
X166850000Y-50180000D02*
X165890000Y-50180000D01*
X164310000Y-50180000D02*
X163540000Y-50180000D01*
X169200000Y-56500000D02*
X169200000Y-50180000D01*
X163540000Y-56500000D02*
X163540000Y-50180000D01*
X169440000Y-50680000D02*
X169440000Y-49940000D01*
X169440000Y-49940000D02*
X168940000Y-49940000D01*
%TO.C,D11*%
X127122000Y-78894000D02*
X124662000Y-78894000D01*
X127122000Y-80364000D02*
X127122000Y-78894000D01*
X124662000Y-80364000D02*
X127122000Y-80364000D01*
%TO.C,D10*%
X159412000Y-59681000D02*
X159412000Y-62141000D01*
X160882000Y-59681000D02*
X159412000Y-59681000D01*
X160882000Y-62141000D02*
X160882000Y-59681000D01*
%TO.C,D9*%
X140997000Y-60584000D02*
X140997000Y-63044000D01*
X142467000Y-60584000D02*
X140997000Y-60584000D01*
X142467000Y-63044000D02*
X142467000Y-60584000D01*
%TO.C,D8*%
X147583000Y-98960000D02*
X145123000Y-98960000D01*
X147583000Y-100430000D02*
X147583000Y-98960000D01*
X145123000Y-100430000D02*
X147583000Y-100430000D01*
%TO.C,D7*%
X129785000Y-80237000D02*
X132245000Y-80237000D01*
X129785000Y-78767000D02*
X129785000Y-80237000D01*
X132245000Y-78767000D02*
X129785000Y-78767000D01*
%TO.C,D6*%
X157888000Y-124959000D02*
X157888000Y-127419000D01*
X159358000Y-124959000D02*
X157888000Y-124959000D01*
X159358000Y-127419000D02*
X159358000Y-124959000D01*
%TO.C,D5*%
X159539000Y-124959000D02*
X159539000Y-127419000D01*
X161009000Y-124959000D02*
X159539000Y-124959000D01*
X161009000Y-127419000D02*
X161009000Y-124959000D01*
%TO.C,D2*%
X162150000Y-57530000D02*
X156750000Y-57530000D01*
X162150000Y-54230000D02*
X156750000Y-54230000D01*
X162150000Y-57530000D02*
X162150000Y-54230000D01*
%TO.C,D1*%
X155350000Y-50420000D02*
X160750000Y-50420000D01*
X155350000Y-53720000D02*
X160750000Y-53720000D01*
X155350000Y-50420000D02*
X155350000Y-53720000D01*
%TO.C,C46*%
X140968000Y-119716733D02*
X140968000Y-120059267D01*
X141988000Y-119716733D02*
X141988000Y-120059267D01*
%TO.C,C44*%
X153160000Y-121367733D02*
X153160000Y-121710267D01*
X154180000Y-121367733D02*
X154180000Y-121710267D01*
%TO.C,C42*%
X135083733Y-112016000D02*
X135426267Y-112016000D01*
X135083733Y-110996000D02*
X135426267Y-110996000D01*
%TO.C,C40*%
X125640000Y-131731936D02*
X125640000Y-132936064D01*
X128360000Y-131731936D02*
X128360000Y-132936064D01*
%TO.C,C39*%
X128942000Y-131731936D02*
X128942000Y-132936064D01*
X131662000Y-131731936D02*
X131662000Y-132936064D01*
%TO.C,C38*%
X135634000Y-124542733D02*
X135634000Y-124885267D01*
X136654000Y-124542733D02*
X136654000Y-124885267D01*
%TO.C,C36*%
X130554000Y-124542733D02*
X130554000Y-124885267D01*
X131574000Y-124542733D02*
X131574000Y-124885267D01*
%TO.C,C34*%
X129030000Y-124542733D02*
X129030000Y-124885267D01*
X130050000Y-124542733D02*
X130050000Y-124885267D01*
%TO.C,C32*%
X139744267Y-131316000D02*
X139401733Y-131316000D01*
X139744267Y-132336000D02*
X139401733Y-132336000D01*
%TO.C,C31*%
X153841267Y-130300000D02*
X153498733Y-130300000D01*
X153841267Y-131320000D02*
X153498733Y-131320000D01*
%TO.C,C30*%
X141603000Y-133940733D02*
X141603000Y-134283267D01*
X142623000Y-133940733D02*
X142623000Y-134283267D01*
%TO.C,C29*%
X155700000Y-132924733D02*
X155700000Y-133267267D01*
X156720000Y-132924733D02*
X156720000Y-133267267D01*
%TO.C,C28*%
X139744267Y-135888000D02*
X139401733Y-135888000D01*
X139744267Y-136908000D02*
X139401733Y-136908000D01*
%TO.C,C27*%
X153841267Y-134872000D02*
X153498733Y-134872000D01*
X153841267Y-135892000D02*
X153498733Y-135892000D01*
%TO.C,C26*%
X141095000Y-75407733D02*
X141095000Y-75750267D01*
X142115000Y-75407733D02*
X142115000Y-75750267D01*
%TO.C,C25*%
X138780733Y-79123000D02*
X139123267Y-79123000D01*
X138780733Y-78103000D02*
X139123267Y-78103000D01*
%TO.C,C24*%
X136584000Y-78357000D02*
X136584000Y-71422000D01*
X133164000Y-78357000D02*
X136584000Y-78357000D01*
X133164000Y-71422000D02*
X133164000Y-78357000D01*
%TO.C,C23*%
X142242000Y-69259267D02*
X142242000Y-68916733D01*
X141222000Y-69259267D02*
X141222000Y-68916733D01*
%TO.C,C22*%
X140648000Y-70737000D02*
X140648000Y-63802000D01*
X137228000Y-70737000D02*
X140648000Y-70737000D01*
X137228000Y-63802000D02*
X137228000Y-70737000D01*
%TO.C,C21*%
X145116733Y-138940000D02*
X145459267Y-138940000D01*
X145116733Y-137920000D02*
X145459267Y-137920000D01*
%TO.C,C19*%
X141560733Y-146052000D02*
X141903267Y-146052000D01*
X141560733Y-145032000D02*
X141903267Y-145032000D01*
%TO.C,C16*%
X144951267Y-77980000D02*
X144608733Y-77980000D01*
X144951267Y-76960000D02*
X144608733Y-76960000D01*
%TO.C,C11*%
X125760267Y-72134000D02*
X125417733Y-72134000D01*
X125760267Y-73154000D02*
X125417733Y-73154000D01*
%TO.C,C10*%
X115650000Y-62776000D02*
X115650000Y-63776000D01*
X115150000Y-63276000D02*
X116150000Y-63276000D01*
X116390000Y-68981563D02*
X117454437Y-70046000D01*
X116390000Y-62590437D02*
X117454437Y-61526000D01*
X116390000Y-62590437D02*
X116390000Y-64276000D01*
X116390000Y-68981563D02*
X116390000Y-67296000D01*
X117454437Y-70046000D02*
X124910000Y-70046000D01*
X117454437Y-61526000D02*
X124910000Y-61526000D01*
X124910000Y-61526000D02*
X124910000Y-64276000D01*
X124910000Y-70046000D02*
X124910000Y-67296000D01*
%TO.C,C9*%
X130878733Y-73154000D02*
X131221267Y-73154000D01*
X130878733Y-72134000D02*
X131221267Y-72134000D01*
%TO.C,C8*%
X126572000Y-62776000D02*
X126572000Y-63776000D01*
X126072000Y-63276000D02*
X127072000Y-63276000D01*
X127312000Y-68981563D02*
X128376437Y-70046000D01*
X127312000Y-62590437D02*
X128376437Y-61526000D01*
X127312000Y-62590437D02*
X127312000Y-64276000D01*
X127312000Y-68981563D02*
X127312000Y-67296000D01*
X128376437Y-70046000D02*
X135832000Y-70046000D01*
X128376437Y-61526000D02*
X135832000Y-61526000D01*
X135832000Y-61526000D02*
X135832000Y-64276000D01*
X135832000Y-70046000D02*
X135832000Y-67296000D01*
%TO.C,C7*%
X140170000Y-48975000D02*
X139170000Y-48975000D01*
X139670000Y-48475000D02*
X139670000Y-49475000D01*
X133964437Y-49715000D02*
X132900000Y-50779437D01*
X140355563Y-49715000D02*
X141420000Y-50779437D01*
X140355563Y-49715000D02*
X138670000Y-49715000D01*
X133964437Y-49715000D02*
X135650000Y-49715000D01*
X132900000Y-50779437D02*
X132900000Y-58235000D01*
X141420000Y-50779437D02*
X141420000Y-58235000D01*
X141420000Y-58235000D02*
X138670000Y-58235000D01*
X132900000Y-58235000D02*
X135650000Y-58235000D01*
%TO.C,C6*%
X153795000Y-55708733D02*
X153795000Y-56051267D01*
X154815000Y-55708733D02*
X154815000Y-56051267D01*
%TO.C,C5*%
X159848733Y-58930000D02*
X160191267Y-58930000D01*
X159848733Y-57910000D02*
X160191267Y-57910000D01*
%TO.C,C4*%
X127830000Y-50040000D02*
X127830000Y-56975000D01*
X131250000Y-50040000D02*
X127830000Y-50040000D01*
X131250000Y-56975000D02*
X131250000Y-50040000D01*
%TO.C,C3*%
X150330000Y-48975000D02*
X149330000Y-48975000D01*
X149830000Y-48475000D02*
X149830000Y-49475000D01*
X144124437Y-49715000D02*
X143060000Y-50779437D01*
X150515563Y-49715000D02*
X151580000Y-50779437D01*
X150515563Y-49715000D02*
X148830000Y-49715000D01*
X144124437Y-49715000D02*
X145810000Y-49715000D01*
X143060000Y-50779437D02*
X143060000Y-58235000D01*
X151580000Y-50779437D02*
X151580000Y-58235000D01*
X151580000Y-58235000D02*
X148830000Y-58235000D01*
X143060000Y-58235000D02*
X145810000Y-58235000D01*
%TO.C,C2*%
X153795000Y-51898733D02*
X153795000Y-52241267D01*
X154815000Y-51898733D02*
X154815000Y-52241267D01*
%TO.C,C1*%
X159848733Y-50040000D02*
X160191267Y-50040000D01*
X159848733Y-49020000D02*
X160191267Y-49020000D01*
%TO.C,C43*%
X156614000Y-122666000D02*
X156614000Y-119781000D01*
X156614000Y-119781000D02*
X155044000Y-119781000D01*
X155044000Y-119781000D02*
X155044000Y-122666000D01*
%TO.C,U5*%
D10*
X146939095Y-113090380D02*
X146939095Y-113899904D01*
X146986714Y-113995142D01*
X147034333Y-114042761D01*
X147129571Y-114090380D01*
X147320047Y-114090380D01*
X147415285Y-114042761D01*
X147462904Y-113995142D01*
X147510523Y-113899904D01*
X147510523Y-113090380D01*
X148462904Y-113090380D02*
X147986714Y-113090380D01*
X147939095Y-113566571D01*
X147986714Y-113518952D01*
X148081952Y-113471333D01*
X148320047Y-113471333D01*
X148415285Y-113518952D01*
X148462904Y-113566571D01*
X148510523Y-113661809D01*
X148510523Y-113899904D01*
X148462904Y-113995142D01*
X148415285Y-114042761D01*
X148320047Y-114090380D01*
X148081952Y-114090380D01*
X147986714Y-114042761D01*
X147939095Y-113995142D01*
%TO.C,C47*%
X147693142Y-127103142D02*
X147645523Y-127150761D01*
X147502666Y-127198380D01*
X147407428Y-127198380D01*
X147264571Y-127150761D01*
X147169333Y-127055523D01*
X147121714Y-126960285D01*
X147074095Y-126769809D01*
X147074095Y-126626952D01*
X147121714Y-126436476D01*
X147169333Y-126341238D01*
X147264571Y-126246000D01*
X147407428Y-126198380D01*
X147502666Y-126198380D01*
X147645523Y-126246000D01*
X147693142Y-126293619D01*
X148550285Y-126531714D02*
X148550285Y-127198380D01*
X148312190Y-126150761D02*
X148074095Y-126865047D01*
X148693142Y-126865047D01*
X148978857Y-126198380D02*
X149645523Y-126198380D01*
X149216952Y-127198380D01*
%TO.C,C45*%
X140509142Y-116847857D02*
X140556761Y-116895476D01*
X140604380Y-117038333D01*
X140604380Y-117133571D01*
X140556761Y-117276428D01*
X140461523Y-117371666D01*
X140366285Y-117419285D01*
X140175809Y-117466904D01*
X140032952Y-117466904D01*
X139842476Y-117419285D01*
X139747238Y-117371666D01*
X139652000Y-117276428D01*
X139604380Y-117133571D01*
X139604380Y-117038333D01*
X139652000Y-116895476D01*
X139699619Y-116847857D01*
X139937714Y-115990714D02*
X140604380Y-115990714D01*
X139556761Y-116228809D02*
X140271047Y-116466904D01*
X140271047Y-115847857D01*
X139604380Y-114990714D02*
X139604380Y-115466904D01*
X140080571Y-115514523D01*
X140032952Y-115466904D01*
X139985333Y-115371666D01*
X139985333Y-115133571D01*
X140032952Y-115038333D01*
X140080571Y-114990714D01*
X140175809Y-114943095D01*
X140413904Y-114943095D01*
X140509142Y-114990714D01*
X140556761Y-115038333D01*
X140604380Y-115133571D01*
X140604380Y-115371666D01*
X140556761Y-115466904D01*
X140509142Y-115514523D01*
%TO.C,C48*%
X134866142Y-103152142D02*
X134818523Y-103199761D01*
X134675666Y-103247380D01*
X134580428Y-103247380D01*
X134437571Y-103199761D01*
X134342333Y-103104523D01*
X134294714Y-103009285D01*
X134247095Y-102818809D01*
X134247095Y-102675952D01*
X134294714Y-102485476D01*
X134342333Y-102390238D01*
X134437571Y-102295000D01*
X134580428Y-102247380D01*
X134675666Y-102247380D01*
X134818523Y-102295000D01*
X134866142Y-102342619D01*
X135723285Y-102580714D02*
X135723285Y-103247380D01*
X135485190Y-102199761D02*
X135247095Y-102914047D01*
X135866142Y-102914047D01*
X136389952Y-102675952D02*
X136294714Y-102628333D01*
X136247095Y-102580714D01*
X136199476Y-102485476D01*
X136199476Y-102437857D01*
X136247095Y-102342619D01*
X136294714Y-102295000D01*
X136389952Y-102247380D01*
X136580428Y-102247380D01*
X136675666Y-102295000D01*
X136723285Y-102342619D01*
X136770904Y-102437857D01*
X136770904Y-102485476D01*
X136723285Y-102580714D01*
X136675666Y-102628333D01*
X136580428Y-102675952D01*
X136389952Y-102675952D01*
X136294714Y-102723571D01*
X136247095Y-102771190D01*
X136199476Y-102866428D01*
X136199476Y-103056904D01*
X136247095Y-103152142D01*
X136294714Y-103199761D01*
X136389952Y-103247380D01*
X136580428Y-103247380D01*
X136675666Y-103199761D01*
X136723285Y-103152142D01*
X136770904Y-103056904D01*
X136770904Y-102866428D01*
X136723285Y-102771190D01*
X136675666Y-102723571D01*
X136580428Y-102675952D01*
%TO.C,C15*%
X161028142Y-67921142D02*
X160980523Y-67968761D01*
X160837666Y-68016380D01*
X160742428Y-68016380D01*
X160599571Y-67968761D01*
X160504333Y-67873523D01*
X160456714Y-67778285D01*
X160409095Y-67587809D01*
X160409095Y-67444952D01*
X160456714Y-67254476D01*
X160504333Y-67159238D01*
X160599571Y-67064000D01*
X160742428Y-67016380D01*
X160837666Y-67016380D01*
X160980523Y-67064000D01*
X161028142Y-67111619D01*
X161980523Y-68016380D02*
X161409095Y-68016380D01*
X161694809Y-68016380D02*
X161694809Y-67016380D01*
X161599571Y-67159238D01*
X161504333Y-67254476D01*
X161409095Y-67302095D01*
X162885285Y-67016380D02*
X162409095Y-67016380D01*
X162361476Y-67492571D01*
X162409095Y-67444952D01*
X162504333Y-67397333D01*
X162742428Y-67397333D01*
X162837666Y-67444952D01*
X162885285Y-67492571D01*
X162932904Y-67587809D01*
X162932904Y-67825904D01*
X162885285Y-67921142D01*
X162837666Y-67968761D01*
X162742428Y-68016380D01*
X162504333Y-68016380D01*
X162409095Y-67968761D01*
X162361476Y-67921142D01*
%TO.C,U2*%
X143142095Y-84328380D02*
X143142095Y-85137904D01*
X143189714Y-85233142D01*
X143237333Y-85280761D01*
X143332571Y-85328380D01*
X143523047Y-85328380D01*
X143618285Y-85280761D01*
X143665904Y-85233142D01*
X143713523Y-85137904D01*
X143713523Y-84328380D01*
X144142095Y-84423619D02*
X144189714Y-84376000D01*
X144284952Y-84328380D01*
X144523047Y-84328380D01*
X144618285Y-84376000D01*
X144665904Y-84423619D01*
X144713523Y-84518857D01*
X144713523Y-84614095D01*
X144665904Y-84756952D01*
X144094476Y-85328380D01*
X144713523Y-85328380D01*
%TO.C,U1*%
X145248380Y-61467904D02*
X146057904Y-61467904D01*
X146153142Y-61420285D01*
X146200761Y-61372666D01*
X146248380Y-61277428D01*
X146248380Y-61086952D01*
X146200761Y-60991714D01*
X146153142Y-60944095D01*
X146057904Y-60896476D01*
X145248380Y-60896476D01*
X146248380Y-59896476D02*
X146248380Y-60467904D01*
X146248380Y-60182190D02*
X145248380Y-60182190D01*
X145391238Y-60277428D01*
X145486476Y-60372666D01*
X145534095Y-60467904D01*
%TO.C,R49*%
X130119380Y-86113857D02*
X129643190Y-86447190D01*
X130119380Y-86685285D02*
X129119380Y-86685285D01*
X129119380Y-86304333D01*
X129167000Y-86209095D01*
X129214619Y-86161476D01*
X129309857Y-86113857D01*
X129452714Y-86113857D01*
X129547952Y-86161476D01*
X129595571Y-86209095D01*
X129643190Y-86304333D01*
X129643190Y-86685285D01*
X129452714Y-85256714D02*
X130119380Y-85256714D01*
X129071761Y-85494809D02*
X129786047Y-85732904D01*
X129786047Y-85113857D01*
X130119380Y-84685285D02*
X130119380Y-84494809D01*
X130071761Y-84399571D01*
X130024142Y-84351952D01*
X129881285Y-84256714D01*
X129690809Y-84209095D01*
X129309857Y-84209095D01*
X129214619Y-84256714D01*
X129167000Y-84304333D01*
X129119380Y-84399571D01*
X129119380Y-84590047D01*
X129167000Y-84685285D01*
X129214619Y-84732904D01*
X129309857Y-84780523D01*
X129547952Y-84780523D01*
X129643190Y-84732904D01*
X129690809Y-84685285D01*
X129738428Y-84590047D01*
X129738428Y-84399571D01*
X129690809Y-84304333D01*
X129643190Y-84256714D01*
X129547952Y-84209095D01*
%TO.C,R48*%
X126865142Y-94686380D02*
X126531809Y-94210190D01*
X126293714Y-94686380D02*
X126293714Y-93686380D01*
X126674666Y-93686380D01*
X126769904Y-93734000D01*
X126817523Y-93781619D01*
X126865142Y-93876857D01*
X126865142Y-94019714D01*
X126817523Y-94114952D01*
X126769904Y-94162571D01*
X126674666Y-94210190D01*
X126293714Y-94210190D01*
X127722285Y-94019714D02*
X127722285Y-94686380D01*
X127484190Y-93638761D02*
X127246095Y-94353047D01*
X127865142Y-94353047D01*
X128388952Y-94114952D02*
X128293714Y-94067333D01*
X128246095Y-94019714D01*
X128198476Y-93924476D01*
X128198476Y-93876857D01*
X128246095Y-93781619D01*
X128293714Y-93734000D01*
X128388952Y-93686380D01*
X128579428Y-93686380D01*
X128674666Y-93734000D01*
X128722285Y-93781619D01*
X128769904Y-93876857D01*
X128769904Y-93924476D01*
X128722285Y-94019714D01*
X128674666Y-94067333D01*
X128579428Y-94114952D01*
X128388952Y-94114952D01*
X128293714Y-94162571D01*
X128246095Y-94210190D01*
X128198476Y-94305428D01*
X128198476Y-94495904D01*
X128246095Y-94591142D01*
X128293714Y-94638761D01*
X128388952Y-94686380D01*
X128579428Y-94686380D01*
X128674666Y-94638761D01*
X128722285Y-94591142D01*
X128769904Y-94495904D01*
X128769904Y-94305428D01*
X128722285Y-94210190D01*
X128674666Y-94162571D01*
X128579428Y-94114952D01*
%TO.C,R47*%
X131643380Y-86113857D02*
X131167190Y-86447190D01*
X131643380Y-86685285D02*
X130643380Y-86685285D01*
X130643380Y-86304333D01*
X130691000Y-86209095D01*
X130738619Y-86161476D01*
X130833857Y-86113857D01*
X130976714Y-86113857D01*
X131071952Y-86161476D01*
X131119571Y-86209095D01*
X131167190Y-86304333D01*
X131167190Y-86685285D01*
X130976714Y-85256714D02*
X131643380Y-85256714D01*
X130595761Y-85494809D02*
X131310047Y-85732904D01*
X131310047Y-85113857D01*
X130643380Y-84828142D02*
X130643380Y-84161476D01*
X131643380Y-84590047D01*
%TO.C,R46*%
X133548380Y-95765857D02*
X133072190Y-96099190D01*
X133548380Y-96337285D02*
X132548380Y-96337285D01*
X132548380Y-95956333D01*
X132596000Y-95861095D01*
X132643619Y-95813476D01*
X132738857Y-95765857D01*
X132881714Y-95765857D01*
X132976952Y-95813476D01*
X133024571Y-95861095D01*
X133072190Y-95956333D01*
X133072190Y-96337285D01*
X132881714Y-94908714D02*
X133548380Y-94908714D01*
X132500761Y-95146809D02*
X133215047Y-95384904D01*
X133215047Y-94765857D01*
X132548380Y-93956333D02*
X132548380Y-94146809D01*
X132596000Y-94242047D01*
X132643619Y-94289666D01*
X132786476Y-94384904D01*
X132976952Y-94432523D01*
X133357904Y-94432523D01*
X133453142Y-94384904D01*
X133500761Y-94337285D01*
X133548380Y-94242047D01*
X133548380Y-94051571D01*
X133500761Y-93956333D01*
X133453142Y-93908714D01*
X133357904Y-93861095D01*
X133119809Y-93861095D01*
X133024571Y-93908714D01*
X132976952Y-93956333D01*
X132929333Y-94051571D01*
X132929333Y-94242047D01*
X132976952Y-94337285D01*
X133024571Y-94384904D01*
X133119809Y-94432523D01*
%TO.C,R45*%
X133167380Y-88399857D02*
X132691190Y-88733190D01*
X133167380Y-88971285D02*
X132167380Y-88971285D01*
X132167380Y-88590333D01*
X132215000Y-88495095D01*
X132262619Y-88447476D01*
X132357857Y-88399857D01*
X132500714Y-88399857D01*
X132595952Y-88447476D01*
X132643571Y-88495095D01*
X132691190Y-88590333D01*
X132691190Y-88971285D01*
X132500714Y-87542714D02*
X133167380Y-87542714D01*
X132119761Y-87780809D02*
X132834047Y-88018904D01*
X132834047Y-87399857D01*
X132167380Y-86542714D02*
X132167380Y-87018904D01*
X132643571Y-87066523D01*
X132595952Y-87018904D01*
X132548333Y-86923666D01*
X132548333Y-86685571D01*
X132595952Y-86590333D01*
X132643571Y-86542714D01*
X132738809Y-86495095D01*
X132976904Y-86495095D01*
X133072142Y-86542714D01*
X133119761Y-86590333D01*
X133167380Y-86685571D01*
X133167380Y-86923666D01*
X133119761Y-87018904D01*
X133072142Y-87066523D01*
%TO.C,R44*%
X146155142Y-82494380D02*
X145821809Y-82018190D01*
X145583714Y-82494380D02*
X145583714Y-81494380D01*
X145964666Y-81494380D01*
X146059904Y-81542000D01*
X146107523Y-81589619D01*
X146155142Y-81684857D01*
X146155142Y-81827714D01*
X146107523Y-81922952D01*
X146059904Y-81970571D01*
X145964666Y-82018190D01*
X145583714Y-82018190D01*
X147012285Y-81827714D02*
X147012285Y-82494380D01*
X146774190Y-81446761D02*
X146536095Y-82161047D01*
X147155142Y-82161047D01*
X147964666Y-81827714D02*
X147964666Y-82494380D01*
X147726571Y-81446761D02*
X147488476Y-82161047D01*
X148107523Y-82161047D01*
%TO.C,R43*%
X155773380Y-82430857D02*
X155297190Y-82764190D01*
X155773380Y-83002285D02*
X154773380Y-83002285D01*
X154773380Y-82621333D01*
X154821000Y-82526095D01*
X154868619Y-82478476D01*
X154963857Y-82430857D01*
X155106714Y-82430857D01*
X155201952Y-82478476D01*
X155249571Y-82526095D01*
X155297190Y-82621333D01*
X155297190Y-83002285D01*
X155106714Y-81573714D02*
X155773380Y-81573714D01*
X154725761Y-81811809D02*
X155440047Y-82049904D01*
X155440047Y-81430857D01*
X154773380Y-81145142D02*
X154773380Y-80526095D01*
X155154333Y-80859428D01*
X155154333Y-80716571D01*
X155201952Y-80621333D01*
X155249571Y-80573714D01*
X155344809Y-80526095D01*
X155582904Y-80526095D01*
X155678142Y-80573714D01*
X155725761Y-80621333D01*
X155773380Y-80716571D01*
X155773380Y-81002285D01*
X155725761Y-81097523D01*
X155678142Y-81145142D01*
%TO.C,R42*%
X146183142Y-80970380D02*
X145849809Y-80494190D01*
X145611714Y-80970380D02*
X145611714Y-79970380D01*
X145992666Y-79970380D01*
X146087904Y-80018000D01*
X146135523Y-80065619D01*
X146183142Y-80160857D01*
X146183142Y-80303714D01*
X146135523Y-80398952D01*
X146087904Y-80446571D01*
X145992666Y-80494190D01*
X145611714Y-80494190D01*
X147040285Y-80303714D02*
X147040285Y-80970380D01*
X146802190Y-79922761D02*
X146564095Y-80637047D01*
X147183142Y-80637047D01*
X147516476Y-80065619D02*
X147564095Y-80018000D01*
X147659333Y-79970380D01*
X147897428Y-79970380D01*
X147992666Y-80018000D01*
X148040285Y-80065619D01*
X148087904Y-80160857D01*
X148087904Y-80256095D01*
X148040285Y-80398952D01*
X147468857Y-80970380D01*
X148087904Y-80970380D01*
%TO.C,R41*%
X158821380Y-79255857D02*
X158345190Y-79589190D01*
X158821380Y-79827285D02*
X157821380Y-79827285D01*
X157821380Y-79446333D01*
X157869000Y-79351095D01*
X157916619Y-79303476D01*
X158011857Y-79255857D01*
X158154714Y-79255857D01*
X158249952Y-79303476D01*
X158297571Y-79351095D01*
X158345190Y-79446333D01*
X158345190Y-79827285D01*
X158154714Y-78398714D02*
X158821380Y-78398714D01*
X157773761Y-78636809D02*
X158488047Y-78874904D01*
X158488047Y-78255857D01*
X158821380Y-77351095D02*
X158821380Y-77922523D01*
X158821380Y-77636809D02*
X157821380Y-77636809D01*
X157964238Y-77732047D01*
X158059476Y-77827285D01*
X158107095Y-77922523D01*
%TO.C,R40*%
X149217142Y-77922380D02*
X148883809Y-77446190D01*
X148645714Y-77922380D02*
X148645714Y-76922380D01*
X149026666Y-76922380D01*
X149121904Y-76970000D01*
X149169523Y-77017619D01*
X149217142Y-77112857D01*
X149217142Y-77255714D01*
X149169523Y-77350952D01*
X149121904Y-77398571D01*
X149026666Y-77446190D01*
X148645714Y-77446190D01*
X150074285Y-77255714D02*
X150074285Y-77922380D01*
X149836190Y-76874761D02*
X149598095Y-77589047D01*
X150217142Y-77589047D01*
X150788571Y-76922380D02*
X150883809Y-76922380D01*
X150979047Y-76970000D01*
X151026666Y-77017619D01*
X151074285Y-77112857D01*
X151121904Y-77303333D01*
X151121904Y-77541428D01*
X151074285Y-77731904D01*
X151026666Y-77827142D01*
X150979047Y-77874761D01*
X150883809Y-77922380D01*
X150788571Y-77922380D01*
X150693333Y-77874761D01*
X150645714Y-77827142D01*
X150598095Y-77731904D01*
X150550476Y-77541428D01*
X150550476Y-77303333D01*
X150598095Y-77112857D01*
X150645714Y-77017619D01*
X150693333Y-76970000D01*
X150788571Y-76922380D01*
%TO.C,C49*%
X129913142Y-92940142D02*
X129865523Y-92987761D01*
X129722666Y-93035380D01*
X129627428Y-93035380D01*
X129484571Y-92987761D01*
X129389333Y-92892523D01*
X129341714Y-92797285D01*
X129294095Y-92606809D01*
X129294095Y-92463952D01*
X129341714Y-92273476D01*
X129389333Y-92178238D01*
X129484571Y-92083000D01*
X129627428Y-92035380D01*
X129722666Y-92035380D01*
X129865523Y-92083000D01*
X129913142Y-92130619D01*
X130770285Y-92368714D02*
X130770285Y-93035380D01*
X130532190Y-91987761D02*
X130294095Y-92702047D01*
X130913142Y-92702047D01*
X131341714Y-93035380D02*
X131532190Y-93035380D01*
X131627428Y-92987761D01*
X131675047Y-92940142D01*
X131770285Y-92797285D01*
X131817904Y-92606809D01*
X131817904Y-92225857D01*
X131770285Y-92130619D01*
X131722666Y-92083000D01*
X131627428Y-92035380D01*
X131436952Y-92035380D01*
X131341714Y-92083000D01*
X131294095Y-92130619D01*
X131246476Y-92225857D01*
X131246476Y-92463952D01*
X131294095Y-92559190D01*
X131341714Y-92606809D01*
X131436952Y-92654428D01*
X131627428Y-92654428D01*
X131722666Y-92606809D01*
X131770285Y-92559190D01*
X131817904Y-92463952D01*
%TO.C,C17*%
X139184142Y-85193142D02*
X139136523Y-85240761D01*
X138993666Y-85288380D01*
X138898428Y-85288380D01*
X138755571Y-85240761D01*
X138660333Y-85145523D01*
X138612714Y-85050285D01*
X138565095Y-84859809D01*
X138565095Y-84716952D01*
X138612714Y-84526476D01*
X138660333Y-84431238D01*
X138755571Y-84336000D01*
X138898428Y-84288380D01*
X138993666Y-84288380D01*
X139136523Y-84336000D01*
X139184142Y-84383619D01*
X140136523Y-85288380D02*
X139565095Y-85288380D01*
X139850809Y-85288380D02*
X139850809Y-84288380D01*
X139755571Y-84431238D01*
X139660333Y-84526476D01*
X139565095Y-84574095D01*
X140469857Y-84288380D02*
X141136523Y-84288380D01*
X140707952Y-85288380D01*
%TO.C,C14*%
X142613142Y-82526142D02*
X142565523Y-82573761D01*
X142422666Y-82621380D01*
X142327428Y-82621380D01*
X142184571Y-82573761D01*
X142089333Y-82478523D01*
X142041714Y-82383285D01*
X141994095Y-82192809D01*
X141994095Y-82049952D01*
X142041714Y-81859476D01*
X142089333Y-81764238D01*
X142184571Y-81669000D01*
X142327428Y-81621380D01*
X142422666Y-81621380D01*
X142565523Y-81669000D01*
X142613142Y-81716619D01*
X143565523Y-82621380D02*
X142994095Y-82621380D01*
X143279809Y-82621380D02*
X143279809Y-81621380D01*
X143184571Y-81764238D01*
X143089333Y-81859476D01*
X142994095Y-81907095D01*
X144422666Y-81954714D02*
X144422666Y-82621380D01*
X144184571Y-81573761D02*
X143946476Y-82288047D01*
X144565523Y-82288047D01*
%TO.C,C13*%
X154027142Y-82430857D02*
X154074761Y-82478476D01*
X154122380Y-82621333D01*
X154122380Y-82716571D01*
X154074761Y-82859428D01*
X153979523Y-82954666D01*
X153884285Y-83002285D01*
X153693809Y-83049904D01*
X153550952Y-83049904D01*
X153360476Y-83002285D01*
X153265238Y-82954666D01*
X153170000Y-82859428D01*
X153122380Y-82716571D01*
X153122380Y-82621333D01*
X153170000Y-82478476D01*
X153217619Y-82430857D01*
X154122380Y-81478476D02*
X154122380Y-82049904D01*
X154122380Y-81764190D02*
X153122380Y-81764190D01*
X153265238Y-81859428D01*
X153360476Y-81954666D01*
X153408095Y-82049904D01*
X153122380Y-81145142D02*
X153122380Y-80526095D01*
X153503333Y-80859428D01*
X153503333Y-80716571D01*
X153550952Y-80621333D01*
X153598571Y-80573714D01*
X153693809Y-80526095D01*
X153931904Y-80526095D01*
X154027142Y-80573714D01*
X154074761Y-80621333D01*
X154122380Y-80716571D01*
X154122380Y-81002285D01*
X154074761Y-81097523D01*
X154027142Y-81145142D01*
%TO.C,C12*%
X144264142Y-68048142D02*
X144216523Y-68095761D01*
X144073666Y-68143380D01*
X143978428Y-68143380D01*
X143835571Y-68095761D01*
X143740333Y-68000523D01*
X143692714Y-67905285D01*
X143645095Y-67714809D01*
X143645095Y-67571952D01*
X143692714Y-67381476D01*
X143740333Y-67286238D01*
X143835571Y-67191000D01*
X143978428Y-67143380D01*
X144073666Y-67143380D01*
X144216523Y-67191000D01*
X144264142Y-67238619D01*
X145216523Y-68143380D02*
X144645095Y-68143380D01*
X144930809Y-68143380D02*
X144930809Y-67143380D01*
X144835571Y-67286238D01*
X144740333Y-67381476D01*
X144645095Y-67429095D01*
X145597476Y-67238619D02*
X145645095Y-67191000D01*
X145740333Y-67143380D01*
X145978428Y-67143380D01*
X146073666Y-67191000D01*
X146121285Y-67238619D01*
X146168904Y-67333857D01*
X146168904Y-67429095D01*
X146121285Y-67571952D01*
X145549857Y-68143380D01*
X146168904Y-68143380D01*
%TO.C,C41*%
X135628142Y-108434142D02*
X135580523Y-108481761D01*
X135437666Y-108529380D01*
X135342428Y-108529380D01*
X135199571Y-108481761D01*
X135104333Y-108386523D01*
X135056714Y-108291285D01*
X135009095Y-108100809D01*
X135009095Y-107957952D01*
X135056714Y-107767476D01*
X135104333Y-107672238D01*
X135199571Y-107577000D01*
X135342428Y-107529380D01*
X135437666Y-107529380D01*
X135580523Y-107577000D01*
X135628142Y-107624619D01*
X136485285Y-107862714D02*
X136485285Y-108529380D01*
X136247190Y-107481761D02*
X136009095Y-108196047D01*
X136628142Y-108196047D01*
X137532904Y-108529380D02*
X136961476Y-108529380D01*
X137247190Y-108529380D02*
X137247190Y-107529380D01*
X137151952Y-107672238D01*
X137056714Y-107767476D01*
X136961476Y-107815095D01*
%TO.C,C37*%
X138533142Y-128912857D02*
X138580761Y-128960476D01*
X138628380Y-129103333D01*
X138628380Y-129198571D01*
X138580761Y-129341428D01*
X138485523Y-129436666D01*
X138390285Y-129484285D01*
X138199809Y-129531904D01*
X138056952Y-129531904D01*
X137866476Y-129484285D01*
X137771238Y-129436666D01*
X137676000Y-129341428D01*
X137628380Y-129198571D01*
X137628380Y-129103333D01*
X137676000Y-128960476D01*
X137723619Y-128912857D01*
X137628380Y-128579523D02*
X137628380Y-127960476D01*
X138009333Y-128293809D01*
X138009333Y-128150952D01*
X138056952Y-128055714D01*
X138104571Y-128008095D01*
X138199809Y-127960476D01*
X138437904Y-127960476D01*
X138533142Y-128008095D01*
X138580761Y-128055714D01*
X138628380Y-128150952D01*
X138628380Y-128436666D01*
X138580761Y-128531904D01*
X138533142Y-128579523D01*
X137628380Y-127627142D02*
X137628380Y-126960476D01*
X138628380Y-127389047D01*
%TO.C,C35*%
X133199142Y-128785857D02*
X133246761Y-128833476D01*
X133294380Y-128976333D01*
X133294380Y-129071571D01*
X133246761Y-129214428D01*
X133151523Y-129309666D01*
X133056285Y-129357285D01*
X132865809Y-129404904D01*
X132722952Y-129404904D01*
X132532476Y-129357285D01*
X132437238Y-129309666D01*
X132342000Y-129214428D01*
X132294380Y-129071571D01*
X132294380Y-128976333D01*
X132342000Y-128833476D01*
X132389619Y-128785857D01*
X132294380Y-128452523D02*
X132294380Y-127833476D01*
X132675333Y-128166809D01*
X132675333Y-128023952D01*
X132722952Y-127928714D01*
X132770571Y-127881095D01*
X132865809Y-127833476D01*
X133103904Y-127833476D01*
X133199142Y-127881095D01*
X133246761Y-127928714D01*
X133294380Y-128023952D01*
X133294380Y-128309666D01*
X133246761Y-128404904D01*
X133199142Y-128452523D01*
X132294380Y-126928714D02*
X132294380Y-127404904D01*
X132770571Y-127452523D01*
X132722952Y-127404904D01*
X132675333Y-127309666D01*
X132675333Y-127071571D01*
X132722952Y-126976333D01*
X132770571Y-126928714D01*
X132865809Y-126881095D01*
X133103904Y-126881095D01*
X133199142Y-126928714D01*
X133246761Y-126976333D01*
X133294380Y-127071571D01*
X133294380Y-127309666D01*
X133246761Y-127404904D01*
X133199142Y-127452523D01*
%TO.C,C33*%
X128119142Y-128785857D02*
X128166761Y-128833476D01*
X128214380Y-128976333D01*
X128214380Y-129071571D01*
X128166761Y-129214428D01*
X128071523Y-129309666D01*
X127976285Y-129357285D01*
X127785809Y-129404904D01*
X127642952Y-129404904D01*
X127452476Y-129357285D01*
X127357238Y-129309666D01*
X127262000Y-129214428D01*
X127214380Y-129071571D01*
X127214380Y-128976333D01*
X127262000Y-128833476D01*
X127309619Y-128785857D01*
X127214380Y-128452523D02*
X127214380Y-127833476D01*
X127595333Y-128166809D01*
X127595333Y-128023952D01*
X127642952Y-127928714D01*
X127690571Y-127881095D01*
X127785809Y-127833476D01*
X128023904Y-127833476D01*
X128119142Y-127881095D01*
X128166761Y-127928714D01*
X128214380Y-128023952D01*
X128214380Y-128309666D01*
X128166761Y-128404904D01*
X128119142Y-128452523D01*
X127214380Y-127500142D02*
X127214380Y-126881095D01*
X127595333Y-127214428D01*
X127595333Y-127071571D01*
X127642952Y-126976333D01*
X127690571Y-126928714D01*
X127785809Y-126881095D01*
X128023904Y-126881095D01*
X128119142Y-126928714D01*
X128166761Y-126976333D01*
X128214380Y-127071571D01*
X128214380Y-127357285D01*
X128166761Y-127452523D01*
X128119142Y-127500142D01*
%TO.C,C20*%
X150471142Y-142501857D02*
X150518761Y-142549476D01*
X150566380Y-142692333D01*
X150566380Y-142787571D01*
X150518761Y-142930428D01*
X150423523Y-143025666D01*
X150328285Y-143073285D01*
X150137809Y-143120904D01*
X149994952Y-143120904D01*
X149804476Y-143073285D01*
X149709238Y-143025666D01*
X149614000Y-142930428D01*
X149566380Y-142787571D01*
X149566380Y-142692333D01*
X149614000Y-142549476D01*
X149661619Y-142501857D01*
X149661619Y-142120904D02*
X149614000Y-142073285D01*
X149566380Y-141978047D01*
X149566380Y-141739952D01*
X149614000Y-141644714D01*
X149661619Y-141597095D01*
X149756857Y-141549476D01*
X149852095Y-141549476D01*
X149994952Y-141597095D01*
X150566380Y-142168523D01*
X150566380Y-141549476D01*
X149566380Y-140930428D02*
X149566380Y-140835190D01*
X149614000Y-140739952D01*
X149661619Y-140692333D01*
X149756857Y-140644714D01*
X149947333Y-140597095D01*
X150185428Y-140597095D01*
X150375904Y-140644714D01*
X150471142Y-140692333D01*
X150518761Y-140739952D01*
X150566380Y-140835190D01*
X150566380Y-140930428D01*
X150518761Y-141025666D01*
X150471142Y-141073285D01*
X150375904Y-141120904D01*
X150185428Y-141168523D01*
X149947333Y-141168523D01*
X149756857Y-141120904D01*
X149661619Y-141073285D01*
X149614000Y-141025666D01*
X149566380Y-140930428D01*
%TO.C,C18*%
X137771142Y-141485857D02*
X137818761Y-141533476D01*
X137866380Y-141676333D01*
X137866380Y-141771571D01*
X137818761Y-141914428D01*
X137723523Y-142009666D01*
X137628285Y-142057285D01*
X137437809Y-142104904D01*
X137294952Y-142104904D01*
X137104476Y-142057285D01*
X137009238Y-142009666D01*
X136914000Y-141914428D01*
X136866380Y-141771571D01*
X136866380Y-141676333D01*
X136914000Y-141533476D01*
X136961619Y-141485857D01*
X137866380Y-140533476D02*
X137866380Y-141104904D01*
X137866380Y-140819190D02*
X136866380Y-140819190D01*
X137009238Y-140914428D01*
X137104476Y-141009666D01*
X137152095Y-141104904D01*
X137294952Y-139962047D02*
X137247333Y-140057285D01*
X137199714Y-140104904D01*
X137104476Y-140152523D01*
X137056857Y-140152523D01*
X136961619Y-140104904D01*
X136914000Y-140057285D01*
X136866380Y-139962047D01*
X136866380Y-139771571D01*
X136914000Y-139676333D01*
X136961619Y-139628714D01*
X137056857Y-139581095D01*
X137104476Y-139581095D01*
X137199714Y-139628714D01*
X137247333Y-139676333D01*
X137294952Y-139771571D01*
X137294952Y-139962047D01*
X137342571Y-140057285D01*
X137390190Y-140104904D01*
X137485428Y-140152523D01*
X137675904Y-140152523D01*
X137771142Y-140104904D01*
X137818761Y-140057285D01*
X137866380Y-139962047D01*
X137866380Y-139771571D01*
X137818761Y-139676333D01*
X137771142Y-139628714D01*
X137675904Y-139581095D01*
X137485428Y-139581095D01*
X137390190Y-139628714D01*
X137342571Y-139676333D01*
X137294952Y-139771571D01*
%TO.C,U6*%
X129119380Y-119506904D02*
X129928904Y-119506904D01*
X130024142Y-119459285D01*
X130071761Y-119411666D01*
X130119380Y-119316428D01*
X130119380Y-119125952D01*
X130071761Y-119030714D01*
X130024142Y-118983095D01*
X129928904Y-118935476D01*
X129119380Y-118935476D01*
X129119380Y-118030714D02*
X129119380Y-118221190D01*
X129167000Y-118316428D01*
X129214619Y-118364047D01*
X129357476Y-118459285D01*
X129547952Y-118506904D01*
X129928904Y-118506904D01*
X130024142Y-118459285D01*
X130071761Y-118411666D01*
X130119380Y-118316428D01*
X130119380Y-118125952D01*
X130071761Y-118030714D01*
X130024142Y-117983095D01*
X129928904Y-117935476D01*
X129690809Y-117935476D01*
X129595571Y-117983095D01*
X129547952Y-118030714D01*
X129500333Y-118125952D01*
X129500333Y-118316428D01*
X129547952Y-118411666D01*
X129595571Y-118459285D01*
X129690809Y-118506904D01*
%TO.C,U4*%
X139065095Y-76541380D02*
X139065095Y-77350904D01*
X139112714Y-77446142D01*
X139160333Y-77493761D01*
X139255571Y-77541380D01*
X139446047Y-77541380D01*
X139541285Y-77493761D01*
X139588904Y-77446142D01*
X139636523Y-77350904D01*
X139636523Y-76541380D01*
X140541285Y-76874714D02*
X140541285Y-77541380D01*
X140303190Y-76493761D02*
X140065095Y-77208047D01*
X140684142Y-77208047D01*
%TO.C,U3*%
X147574095Y-143470380D02*
X147574095Y-144279904D01*
X147621714Y-144375142D01*
X147669333Y-144422761D01*
X147764571Y-144470380D01*
X147955047Y-144470380D01*
X148050285Y-144422761D01*
X148097904Y-144375142D01*
X148145523Y-144279904D01*
X148145523Y-143470380D01*
X148526476Y-143470380D02*
X149145523Y-143470380D01*
X148812190Y-143851333D01*
X148955047Y-143851333D01*
X149050285Y-143898952D01*
X149097904Y-143946571D01*
X149145523Y-144041809D01*
X149145523Y-144279904D01*
X149097904Y-144375142D01*
X149050285Y-144422761D01*
X148955047Y-144470380D01*
X148669333Y-144470380D01*
X148574095Y-144422761D01*
X148526476Y-144375142D01*
%TO.C,R39*%
X128341380Y-79001857D02*
X127865190Y-79335190D01*
X128341380Y-79573285D02*
X127341380Y-79573285D01*
X127341380Y-79192333D01*
X127389000Y-79097095D01*
X127436619Y-79049476D01*
X127531857Y-79001857D01*
X127674714Y-79001857D01*
X127769952Y-79049476D01*
X127817571Y-79097095D01*
X127865190Y-79192333D01*
X127865190Y-79573285D01*
X127341380Y-78668523D02*
X127341380Y-78049476D01*
X127722333Y-78382809D01*
X127722333Y-78239952D01*
X127769952Y-78144714D01*
X127817571Y-78097095D01*
X127912809Y-78049476D01*
X128150904Y-78049476D01*
X128246142Y-78097095D01*
X128293761Y-78144714D01*
X128341380Y-78239952D01*
X128341380Y-78525666D01*
X128293761Y-78620904D01*
X128246142Y-78668523D01*
X128341380Y-77573285D02*
X128341380Y-77382809D01*
X128293761Y-77287571D01*
X128246142Y-77239952D01*
X128103285Y-77144714D01*
X127912809Y-77097095D01*
X127531857Y-77097095D01*
X127436619Y-77144714D01*
X127389000Y-77192333D01*
X127341380Y-77287571D01*
X127341380Y-77478047D01*
X127389000Y-77573285D01*
X127436619Y-77620904D01*
X127531857Y-77668523D01*
X127769952Y-77668523D01*
X127865190Y-77620904D01*
X127912809Y-77573285D01*
X127960428Y-77478047D01*
X127960428Y-77287571D01*
X127912809Y-77192333D01*
X127865190Y-77144714D01*
X127769952Y-77097095D01*
%TO.C,R38*%
X162029380Y-65412857D02*
X161553190Y-65746190D01*
X162029380Y-65984285D02*
X161029380Y-65984285D01*
X161029380Y-65603333D01*
X161077000Y-65508095D01*
X161124619Y-65460476D01*
X161219857Y-65412857D01*
X161362714Y-65412857D01*
X161457952Y-65460476D01*
X161505571Y-65508095D01*
X161553190Y-65603333D01*
X161553190Y-65984285D01*
X161029380Y-65079523D02*
X161029380Y-64460476D01*
X161410333Y-64793809D01*
X161410333Y-64650952D01*
X161457952Y-64555714D01*
X161505571Y-64508095D01*
X161600809Y-64460476D01*
X161838904Y-64460476D01*
X161934142Y-64508095D01*
X161981761Y-64555714D01*
X162029380Y-64650952D01*
X162029380Y-64936666D01*
X161981761Y-65031904D01*
X161934142Y-65079523D01*
X161457952Y-63889047D02*
X161410333Y-63984285D01*
X161362714Y-64031904D01*
X161267476Y-64079523D01*
X161219857Y-64079523D01*
X161124619Y-64031904D01*
X161077000Y-63984285D01*
X161029380Y-63889047D01*
X161029380Y-63698571D01*
X161077000Y-63603333D01*
X161124619Y-63555714D01*
X161219857Y-63508095D01*
X161267476Y-63508095D01*
X161362714Y-63555714D01*
X161410333Y-63603333D01*
X161457952Y-63698571D01*
X161457952Y-63889047D01*
X161505571Y-63984285D01*
X161553190Y-64031904D01*
X161648428Y-64079523D01*
X161838904Y-64079523D01*
X161934142Y-64031904D01*
X161981761Y-63984285D01*
X162029380Y-63889047D01*
X162029380Y-63698571D01*
X161981761Y-63603333D01*
X161934142Y-63555714D01*
X161838904Y-63508095D01*
X161648428Y-63508095D01*
X161553190Y-63555714D01*
X161505571Y-63603333D01*
X161457952Y-63698571D01*
%TO.C,R37*%
X143614380Y-66315857D02*
X143138190Y-66649190D01*
X143614380Y-66887285D02*
X142614380Y-66887285D01*
X142614380Y-66506333D01*
X142662000Y-66411095D01*
X142709619Y-66363476D01*
X142804857Y-66315857D01*
X142947714Y-66315857D01*
X143042952Y-66363476D01*
X143090571Y-66411095D01*
X143138190Y-66506333D01*
X143138190Y-66887285D01*
X142614380Y-65982523D02*
X142614380Y-65363476D01*
X142995333Y-65696809D01*
X142995333Y-65553952D01*
X143042952Y-65458714D01*
X143090571Y-65411095D01*
X143185809Y-65363476D01*
X143423904Y-65363476D01*
X143519142Y-65411095D01*
X143566761Y-65458714D01*
X143614380Y-65553952D01*
X143614380Y-65839666D01*
X143566761Y-65934904D01*
X143519142Y-65982523D01*
X142614380Y-65030142D02*
X142614380Y-64363476D01*
X143614380Y-64792047D01*
%TO.C,R36*%
X141470142Y-98750380D02*
X141136809Y-98274190D01*
X140898714Y-98750380D02*
X140898714Y-97750380D01*
X141279666Y-97750380D01*
X141374904Y-97798000D01*
X141422523Y-97845619D01*
X141470142Y-97940857D01*
X141470142Y-98083714D01*
X141422523Y-98178952D01*
X141374904Y-98226571D01*
X141279666Y-98274190D01*
X140898714Y-98274190D01*
X141803476Y-97750380D02*
X142422523Y-97750380D01*
X142089190Y-98131333D01*
X142232047Y-98131333D01*
X142327285Y-98178952D01*
X142374904Y-98226571D01*
X142422523Y-98321809D01*
X142422523Y-98559904D01*
X142374904Y-98655142D01*
X142327285Y-98702761D01*
X142232047Y-98750380D01*
X141946333Y-98750380D01*
X141851095Y-98702761D01*
X141803476Y-98655142D01*
X143279666Y-97750380D02*
X143089190Y-97750380D01*
X142993952Y-97798000D01*
X142946333Y-97845619D01*
X142851095Y-97988476D01*
X142803476Y-98178952D01*
X142803476Y-98559904D01*
X142851095Y-98655142D01*
X142898714Y-98702761D01*
X142993952Y-98750380D01*
X143184428Y-98750380D01*
X143279666Y-98702761D01*
X143327285Y-98655142D01*
X143374904Y-98559904D01*
X143374904Y-98321809D01*
X143327285Y-98226571D01*
X143279666Y-98178952D01*
X143184428Y-98131333D01*
X142993952Y-98131333D01*
X142898714Y-98178952D01*
X142851095Y-98226571D01*
X142803476Y-98321809D01*
%TO.C,R35*%
X129611380Y-79382857D02*
X129135190Y-79716190D01*
X129611380Y-79954285D02*
X128611380Y-79954285D01*
X128611380Y-79573333D01*
X128659000Y-79478095D01*
X128706619Y-79430476D01*
X128801857Y-79382857D01*
X128944714Y-79382857D01*
X129039952Y-79430476D01*
X129087571Y-79478095D01*
X129135190Y-79573333D01*
X129135190Y-79954285D01*
X128611380Y-79049523D02*
X128611380Y-78430476D01*
X128992333Y-78763809D01*
X128992333Y-78620952D01*
X129039952Y-78525714D01*
X129087571Y-78478095D01*
X129182809Y-78430476D01*
X129420904Y-78430476D01*
X129516142Y-78478095D01*
X129563761Y-78525714D01*
X129611380Y-78620952D01*
X129611380Y-78906666D01*
X129563761Y-79001904D01*
X129516142Y-79049523D01*
X128611380Y-77525714D02*
X128611380Y-78001904D01*
X129087571Y-78049523D01*
X129039952Y-78001904D01*
X128992333Y-77906666D01*
X128992333Y-77668571D01*
X129039952Y-77573333D01*
X129087571Y-77525714D01*
X129182809Y-77478095D01*
X129420904Y-77478095D01*
X129516142Y-77525714D01*
X129563761Y-77573333D01*
X129611380Y-77668571D01*
X129611380Y-77906666D01*
X129563761Y-78001904D01*
X129516142Y-78049523D01*
%TO.C,R34*%
X154122380Y-114942857D02*
X153646190Y-115276190D01*
X154122380Y-115514285D02*
X153122380Y-115514285D01*
X153122380Y-115133333D01*
X153170000Y-115038095D01*
X153217619Y-114990476D01*
X153312857Y-114942857D01*
X153455714Y-114942857D01*
X153550952Y-114990476D01*
X153598571Y-115038095D01*
X153646190Y-115133333D01*
X153646190Y-115514285D01*
X153122380Y-114609523D02*
X153122380Y-113990476D01*
X153503333Y-114323809D01*
X153503333Y-114180952D01*
X153550952Y-114085714D01*
X153598571Y-114038095D01*
X153693809Y-113990476D01*
X153931904Y-113990476D01*
X154027142Y-114038095D01*
X154074761Y-114085714D01*
X154122380Y-114180952D01*
X154122380Y-114466666D01*
X154074761Y-114561904D01*
X154027142Y-114609523D01*
X153455714Y-113133333D02*
X154122380Y-113133333D01*
X153074761Y-113371428D02*
X153789047Y-113609523D01*
X153789047Y-112990476D01*
%TO.C,R33*%
X155773380Y-114942857D02*
X155297190Y-115276190D01*
X155773380Y-115514285D02*
X154773380Y-115514285D01*
X154773380Y-115133333D01*
X154821000Y-115038095D01*
X154868619Y-114990476D01*
X154963857Y-114942857D01*
X155106714Y-114942857D01*
X155201952Y-114990476D01*
X155249571Y-115038095D01*
X155297190Y-115133333D01*
X155297190Y-115514285D01*
X154773380Y-114609523D02*
X154773380Y-113990476D01*
X155154333Y-114323809D01*
X155154333Y-114180952D01*
X155201952Y-114085714D01*
X155249571Y-114038095D01*
X155344809Y-113990476D01*
X155582904Y-113990476D01*
X155678142Y-114038095D01*
X155725761Y-114085714D01*
X155773380Y-114180952D01*
X155773380Y-114466666D01*
X155725761Y-114561904D01*
X155678142Y-114609523D01*
X154773380Y-113657142D02*
X154773380Y-113038095D01*
X155154333Y-113371428D01*
X155154333Y-113228571D01*
X155201952Y-113133333D01*
X155249571Y-113085714D01*
X155344809Y-113038095D01*
X155582904Y-113038095D01*
X155678142Y-113085714D01*
X155725761Y-113133333D01*
X155773380Y-113228571D01*
X155773380Y-113514285D01*
X155725761Y-113609523D01*
X155678142Y-113657142D01*
%TO.C,R32*%
X160901142Y-105989380D02*
X160567809Y-105513190D01*
X160329714Y-105989380D02*
X160329714Y-104989380D01*
X160710666Y-104989380D01*
X160805904Y-105037000D01*
X160853523Y-105084619D01*
X160901142Y-105179857D01*
X160901142Y-105322714D01*
X160853523Y-105417952D01*
X160805904Y-105465571D01*
X160710666Y-105513190D01*
X160329714Y-105513190D01*
X161234476Y-104989380D02*
X161853523Y-104989380D01*
X161520190Y-105370333D01*
X161663047Y-105370333D01*
X161758285Y-105417952D01*
X161805904Y-105465571D01*
X161853523Y-105560809D01*
X161853523Y-105798904D01*
X161805904Y-105894142D01*
X161758285Y-105941761D01*
X161663047Y-105989380D01*
X161377333Y-105989380D01*
X161282095Y-105941761D01*
X161234476Y-105894142D01*
X162234476Y-105084619D02*
X162282095Y-105037000D01*
X162377333Y-104989380D01*
X162615428Y-104989380D01*
X162710666Y-105037000D01*
X162758285Y-105084619D01*
X162805904Y-105179857D01*
X162805904Y-105275095D01*
X162758285Y-105417952D01*
X162186857Y-105989380D01*
X162805904Y-105989380D01*
%TO.C,R31*%
X160901142Y-108529380D02*
X160567809Y-108053190D01*
X160329714Y-108529380D02*
X160329714Y-107529380D01*
X160710666Y-107529380D01*
X160805904Y-107577000D01*
X160853523Y-107624619D01*
X160901142Y-107719857D01*
X160901142Y-107862714D01*
X160853523Y-107957952D01*
X160805904Y-108005571D01*
X160710666Y-108053190D01*
X160329714Y-108053190D01*
X161234476Y-107529380D02*
X161853523Y-107529380D01*
X161520190Y-107910333D01*
X161663047Y-107910333D01*
X161758285Y-107957952D01*
X161805904Y-108005571D01*
X161853523Y-108100809D01*
X161853523Y-108338904D01*
X161805904Y-108434142D01*
X161758285Y-108481761D01*
X161663047Y-108529380D01*
X161377333Y-108529380D01*
X161282095Y-108481761D01*
X161234476Y-108434142D01*
X162805904Y-108529380D02*
X162234476Y-108529380D01*
X162520190Y-108529380D02*
X162520190Y-107529380D01*
X162424952Y-107672238D01*
X162329714Y-107767476D01*
X162234476Y-107815095D01*
%TO.C,R30*%
X160901142Y-113482380D02*
X160567809Y-113006190D01*
X160329714Y-113482380D02*
X160329714Y-112482380D01*
X160710666Y-112482380D01*
X160805904Y-112530000D01*
X160853523Y-112577619D01*
X160901142Y-112672857D01*
X160901142Y-112815714D01*
X160853523Y-112910952D01*
X160805904Y-112958571D01*
X160710666Y-113006190D01*
X160329714Y-113006190D01*
X161234476Y-112482380D02*
X161853523Y-112482380D01*
X161520190Y-112863333D01*
X161663047Y-112863333D01*
X161758285Y-112910952D01*
X161805904Y-112958571D01*
X161853523Y-113053809D01*
X161853523Y-113291904D01*
X161805904Y-113387142D01*
X161758285Y-113434761D01*
X161663047Y-113482380D01*
X161377333Y-113482380D01*
X161282095Y-113434761D01*
X161234476Y-113387142D01*
X162472571Y-112482380D02*
X162567809Y-112482380D01*
X162663047Y-112530000D01*
X162710666Y-112577619D01*
X162758285Y-112672857D01*
X162805904Y-112863333D01*
X162805904Y-113101428D01*
X162758285Y-113291904D01*
X162710666Y-113387142D01*
X162663047Y-113434761D01*
X162567809Y-113482380D01*
X162472571Y-113482380D01*
X162377333Y-113434761D01*
X162329714Y-113387142D01*
X162282095Y-113291904D01*
X162234476Y-113101428D01*
X162234476Y-112863333D01*
X162282095Y-112672857D01*
X162329714Y-112577619D01*
X162377333Y-112530000D01*
X162472571Y-112482380D01*
%TO.C,R29*%
X160901142Y-100909380D02*
X160567809Y-100433190D01*
X160329714Y-100909380D02*
X160329714Y-99909380D01*
X160710666Y-99909380D01*
X160805904Y-99957000D01*
X160853523Y-100004619D01*
X160901142Y-100099857D01*
X160901142Y-100242714D01*
X160853523Y-100337952D01*
X160805904Y-100385571D01*
X160710666Y-100433190D01*
X160329714Y-100433190D01*
X161282095Y-100004619D02*
X161329714Y-99957000D01*
X161424952Y-99909380D01*
X161663047Y-99909380D01*
X161758285Y-99957000D01*
X161805904Y-100004619D01*
X161853523Y-100099857D01*
X161853523Y-100195095D01*
X161805904Y-100337952D01*
X161234476Y-100909380D01*
X161853523Y-100909380D01*
X162329714Y-100909380D02*
X162520190Y-100909380D01*
X162615428Y-100861761D01*
X162663047Y-100814142D01*
X162758285Y-100671285D01*
X162805904Y-100480809D01*
X162805904Y-100099857D01*
X162758285Y-100004619D01*
X162710666Y-99957000D01*
X162615428Y-99909380D01*
X162424952Y-99909380D01*
X162329714Y-99957000D01*
X162282095Y-100004619D01*
X162234476Y-100099857D01*
X162234476Y-100337952D01*
X162282095Y-100433190D01*
X162329714Y-100480809D01*
X162424952Y-100528428D01*
X162615428Y-100528428D01*
X162710666Y-100480809D01*
X162758285Y-100433190D01*
X162805904Y-100337952D01*
%TO.C,R28*%
X160901142Y-103449380D02*
X160567809Y-102973190D01*
X160329714Y-103449380D02*
X160329714Y-102449380D01*
X160710666Y-102449380D01*
X160805904Y-102497000D01*
X160853523Y-102544619D01*
X160901142Y-102639857D01*
X160901142Y-102782714D01*
X160853523Y-102877952D01*
X160805904Y-102925571D01*
X160710666Y-102973190D01*
X160329714Y-102973190D01*
X161282095Y-102544619D02*
X161329714Y-102497000D01*
X161424952Y-102449380D01*
X161663047Y-102449380D01*
X161758285Y-102497000D01*
X161805904Y-102544619D01*
X161853523Y-102639857D01*
X161853523Y-102735095D01*
X161805904Y-102877952D01*
X161234476Y-103449380D01*
X161853523Y-103449380D01*
X162424952Y-102877952D02*
X162329714Y-102830333D01*
X162282095Y-102782714D01*
X162234476Y-102687476D01*
X162234476Y-102639857D01*
X162282095Y-102544619D01*
X162329714Y-102497000D01*
X162424952Y-102449380D01*
X162615428Y-102449380D01*
X162710666Y-102497000D01*
X162758285Y-102544619D01*
X162805904Y-102639857D01*
X162805904Y-102687476D01*
X162758285Y-102782714D01*
X162710666Y-102830333D01*
X162615428Y-102877952D01*
X162424952Y-102877952D01*
X162329714Y-102925571D01*
X162282095Y-102973190D01*
X162234476Y-103068428D01*
X162234476Y-103258904D01*
X162282095Y-103354142D01*
X162329714Y-103401761D01*
X162424952Y-103449380D01*
X162615428Y-103449380D01*
X162710666Y-103401761D01*
X162758285Y-103354142D01*
X162805904Y-103258904D01*
X162805904Y-103068428D01*
X162758285Y-102973190D01*
X162710666Y-102925571D01*
X162615428Y-102877952D01*
%TO.C,R27*%
X161028142Y-98242380D02*
X160694809Y-97766190D01*
X160456714Y-98242380D02*
X160456714Y-97242380D01*
X160837666Y-97242380D01*
X160932904Y-97290000D01*
X160980523Y-97337619D01*
X161028142Y-97432857D01*
X161028142Y-97575714D01*
X160980523Y-97670952D01*
X160932904Y-97718571D01*
X160837666Y-97766190D01*
X160456714Y-97766190D01*
X161409095Y-97337619D02*
X161456714Y-97290000D01*
X161551952Y-97242380D01*
X161790047Y-97242380D01*
X161885285Y-97290000D01*
X161932904Y-97337619D01*
X161980523Y-97432857D01*
X161980523Y-97528095D01*
X161932904Y-97670952D01*
X161361476Y-98242380D01*
X161980523Y-98242380D01*
X162313857Y-97242380D02*
X162980523Y-97242380D01*
X162551952Y-98242380D01*
%TO.C,R26*%
X157853142Y-117292380D02*
X157519809Y-116816190D01*
X157281714Y-117292380D02*
X157281714Y-116292380D01*
X157662666Y-116292380D01*
X157757904Y-116340000D01*
X157805523Y-116387619D01*
X157853142Y-116482857D01*
X157853142Y-116625714D01*
X157805523Y-116720952D01*
X157757904Y-116768571D01*
X157662666Y-116816190D01*
X157281714Y-116816190D01*
X158234095Y-116387619D02*
X158281714Y-116340000D01*
X158376952Y-116292380D01*
X158615047Y-116292380D01*
X158710285Y-116340000D01*
X158757904Y-116387619D01*
X158805523Y-116482857D01*
X158805523Y-116578095D01*
X158757904Y-116720952D01*
X158186476Y-117292380D01*
X158805523Y-117292380D01*
X159662666Y-116292380D02*
X159472190Y-116292380D01*
X159376952Y-116340000D01*
X159329333Y-116387619D01*
X159234095Y-116530476D01*
X159186476Y-116720952D01*
X159186476Y-117101904D01*
X159234095Y-117197142D01*
X159281714Y-117244761D01*
X159376952Y-117292380D01*
X159567428Y-117292380D01*
X159662666Y-117244761D01*
X159710285Y-117197142D01*
X159757904Y-117101904D01*
X159757904Y-116863809D01*
X159710285Y-116768571D01*
X159662666Y-116720952D01*
X159567428Y-116673333D01*
X159376952Y-116673333D01*
X159281714Y-116720952D01*
X159234095Y-116768571D01*
X159186476Y-116863809D01*
%TO.C,R25*%
X124960142Y-103449380D02*
X124626809Y-102973190D01*
X124388714Y-103449380D02*
X124388714Y-102449380D01*
X124769666Y-102449380D01*
X124864904Y-102497000D01*
X124912523Y-102544619D01*
X124960142Y-102639857D01*
X124960142Y-102782714D01*
X124912523Y-102877952D01*
X124864904Y-102925571D01*
X124769666Y-102973190D01*
X124388714Y-102973190D01*
X125341095Y-102544619D02*
X125388714Y-102497000D01*
X125483952Y-102449380D01*
X125722047Y-102449380D01*
X125817285Y-102497000D01*
X125864904Y-102544619D01*
X125912523Y-102639857D01*
X125912523Y-102735095D01*
X125864904Y-102877952D01*
X125293476Y-103449380D01*
X125912523Y-103449380D01*
X126817285Y-102449380D02*
X126341095Y-102449380D01*
X126293476Y-102925571D01*
X126341095Y-102877952D01*
X126436333Y-102830333D01*
X126674428Y-102830333D01*
X126769666Y-102877952D01*
X126817285Y-102925571D01*
X126864904Y-103020809D01*
X126864904Y-103258904D01*
X126817285Y-103354142D01*
X126769666Y-103401761D01*
X126674428Y-103449380D01*
X126436333Y-103449380D01*
X126341095Y-103401761D01*
X126293476Y-103354142D01*
%TO.C,R24*%
X124960142Y-100909380D02*
X124626809Y-100433190D01*
X124388714Y-100909380D02*
X124388714Y-99909380D01*
X124769666Y-99909380D01*
X124864904Y-99957000D01*
X124912523Y-100004619D01*
X124960142Y-100099857D01*
X124960142Y-100242714D01*
X124912523Y-100337952D01*
X124864904Y-100385571D01*
X124769666Y-100433190D01*
X124388714Y-100433190D01*
X125341095Y-100004619D02*
X125388714Y-99957000D01*
X125483952Y-99909380D01*
X125722047Y-99909380D01*
X125817285Y-99957000D01*
X125864904Y-100004619D01*
X125912523Y-100099857D01*
X125912523Y-100195095D01*
X125864904Y-100337952D01*
X125293476Y-100909380D01*
X125912523Y-100909380D01*
X126769666Y-100242714D02*
X126769666Y-100909380D01*
X126531571Y-99861761D02*
X126293476Y-100576047D01*
X126912523Y-100576047D01*
%TO.C,R23*%
X124833142Y-105989380D02*
X124499809Y-105513190D01*
X124261714Y-105989380D02*
X124261714Y-104989380D01*
X124642666Y-104989380D01*
X124737904Y-105037000D01*
X124785523Y-105084619D01*
X124833142Y-105179857D01*
X124833142Y-105322714D01*
X124785523Y-105417952D01*
X124737904Y-105465571D01*
X124642666Y-105513190D01*
X124261714Y-105513190D01*
X125214095Y-105084619D02*
X125261714Y-105037000D01*
X125356952Y-104989380D01*
X125595047Y-104989380D01*
X125690285Y-105037000D01*
X125737904Y-105084619D01*
X125785523Y-105179857D01*
X125785523Y-105275095D01*
X125737904Y-105417952D01*
X125166476Y-105989380D01*
X125785523Y-105989380D01*
X126118857Y-104989380D02*
X126737904Y-104989380D01*
X126404571Y-105370333D01*
X126547428Y-105370333D01*
X126642666Y-105417952D01*
X126690285Y-105465571D01*
X126737904Y-105560809D01*
X126737904Y-105798904D01*
X126690285Y-105894142D01*
X126642666Y-105941761D01*
X126547428Y-105989380D01*
X126261714Y-105989380D01*
X126166476Y-105941761D01*
X126118857Y-105894142D01*
%TO.C,R22*%
X124833142Y-98242380D02*
X124499809Y-97766190D01*
X124261714Y-98242380D02*
X124261714Y-97242380D01*
X124642666Y-97242380D01*
X124737904Y-97290000D01*
X124785523Y-97337619D01*
X124833142Y-97432857D01*
X124833142Y-97575714D01*
X124785523Y-97670952D01*
X124737904Y-97718571D01*
X124642666Y-97766190D01*
X124261714Y-97766190D01*
X125214095Y-97337619D02*
X125261714Y-97290000D01*
X125356952Y-97242380D01*
X125595047Y-97242380D01*
X125690285Y-97290000D01*
X125737904Y-97337619D01*
X125785523Y-97432857D01*
X125785523Y-97528095D01*
X125737904Y-97670952D01*
X125166476Y-98242380D01*
X125785523Y-98242380D01*
X126166476Y-97337619D02*
X126214095Y-97290000D01*
X126309333Y-97242380D01*
X126547428Y-97242380D01*
X126642666Y-97290000D01*
X126690285Y-97337619D01*
X126737904Y-97432857D01*
X126737904Y-97528095D01*
X126690285Y-97670952D01*
X126118857Y-98242380D01*
X126737904Y-98242380D01*
%TO.C,R21*%
X124960142Y-110942380D02*
X124626809Y-110466190D01*
X124388714Y-110942380D02*
X124388714Y-109942380D01*
X124769666Y-109942380D01*
X124864904Y-109990000D01*
X124912523Y-110037619D01*
X124960142Y-110132857D01*
X124960142Y-110275714D01*
X124912523Y-110370952D01*
X124864904Y-110418571D01*
X124769666Y-110466190D01*
X124388714Y-110466190D01*
X125341095Y-110037619D02*
X125388714Y-109990000D01*
X125483952Y-109942380D01*
X125722047Y-109942380D01*
X125817285Y-109990000D01*
X125864904Y-110037619D01*
X125912523Y-110132857D01*
X125912523Y-110228095D01*
X125864904Y-110370952D01*
X125293476Y-110942380D01*
X125912523Y-110942380D01*
X126864904Y-110942380D02*
X126293476Y-110942380D01*
X126579190Y-110942380D02*
X126579190Y-109942380D01*
X126483952Y-110085238D01*
X126388714Y-110180476D01*
X126293476Y-110228095D01*
%TO.C,R20*%
X124833142Y-116149380D02*
X124499809Y-115673190D01*
X124261714Y-116149380D02*
X124261714Y-115149380D01*
X124642666Y-115149380D01*
X124737904Y-115197000D01*
X124785523Y-115244619D01*
X124833142Y-115339857D01*
X124833142Y-115482714D01*
X124785523Y-115577952D01*
X124737904Y-115625571D01*
X124642666Y-115673190D01*
X124261714Y-115673190D01*
X125214095Y-115244619D02*
X125261714Y-115197000D01*
X125356952Y-115149380D01*
X125595047Y-115149380D01*
X125690285Y-115197000D01*
X125737904Y-115244619D01*
X125785523Y-115339857D01*
X125785523Y-115435095D01*
X125737904Y-115577952D01*
X125166476Y-116149380D01*
X125785523Y-116149380D01*
X126404571Y-115149380D02*
X126499809Y-115149380D01*
X126595047Y-115197000D01*
X126642666Y-115244619D01*
X126690285Y-115339857D01*
X126737904Y-115530333D01*
X126737904Y-115768428D01*
X126690285Y-115958904D01*
X126642666Y-116054142D01*
X126595047Y-116101761D01*
X126499809Y-116149380D01*
X126404571Y-116149380D01*
X126309333Y-116101761D01*
X126261714Y-116054142D01*
X126214095Y-115958904D01*
X126166476Y-115768428D01*
X126166476Y-115530333D01*
X126214095Y-115339857D01*
X126261714Y-115244619D01*
X126309333Y-115197000D01*
X126404571Y-115149380D01*
%TO.C,R19*%
X124833142Y-113609380D02*
X124499809Y-113133190D01*
X124261714Y-113609380D02*
X124261714Y-112609380D01*
X124642666Y-112609380D01*
X124737904Y-112657000D01*
X124785523Y-112704619D01*
X124833142Y-112799857D01*
X124833142Y-112942714D01*
X124785523Y-113037952D01*
X124737904Y-113085571D01*
X124642666Y-113133190D01*
X124261714Y-113133190D01*
X125785523Y-113609380D02*
X125214095Y-113609380D01*
X125499809Y-113609380D02*
X125499809Y-112609380D01*
X125404571Y-112752238D01*
X125309333Y-112847476D01*
X125214095Y-112895095D01*
X126261714Y-113609380D02*
X126452190Y-113609380D01*
X126547428Y-113561761D01*
X126595047Y-113514142D01*
X126690285Y-113371285D01*
X126737904Y-113180809D01*
X126737904Y-112799857D01*
X126690285Y-112704619D01*
X126642666Y-112657000D01*
X126547428Y-112609380D01*
X126356952Y-112609380D01*
X126261714Y-112657000D01*
X126214095Y-112704619D01*
X126166476Y-112799857D01*
X126166476Y-113037952D01*
X126214095Y-113133190D01*
X126261714Y-113180809D01*
X126356952Y-113228428D01*
X126547428Y-113228428D01*
X126642666Y-113180809D01*
X126690285Y-113133190D01*
X126737904Y-113037952D01*
%TO.C,R18*%
X124706142Y-95702380D02*
X124372809Y-95226190D01*
X124134714Y-95702380D02*
X124134714Y-94702380D01*
X124515666Y-94702380D01*
X124610904Y-94750000D01*
X124658523Y-94797619D01*
X124706142Y-94892857D01*
X124706142Y-95035714D01*
X124658523Y-95130952D01*
X124610904Y-95178571D01*
X124515666Y-95226190D01*
X124134714Y-95226190D01*
X125658523Y-95702380D02*
X125087095Y-95702380D01*
X125372809Y-95702380D02*
X125372809Y-94702380D01*
X125277571Y-94845238D01*
X125182333Y-94940476D01*
X125087095Y-94988095D01*
X126229952Y-95130952D02*
X126134714Y-95083333D01*
X126087095Y-95035714D01*
X126039476Y-94940476D01*
X126039476Y-94892857D01*
X126087095Y-94797619D01*
X126134714Y-94750000D01*
X126229952Y-94702380D01*
X126420428Y-94702380D01*
X126515666Y-94750000D01*
X126563285Y-94797619D01*
X126610904Y-94892857D01*
X126610904Y-94940476D01*
X126563285Y-95035714D01*
X126515666Y-95083333D01*
X126420428Y-95130952D01*
X126229952Y-95130952D01*
X126134714Y-95178571D01*
X126087095Y-95226190D01*
X126039476Y-95321428D01*
X126039476Y-95511904D01*
X126087095Y-95607142D01*
X126134714Y-95654761D01*
X126229952Y-95702380D01*
X126420428Y-95702380D01*
X126515666Y-95654761D01*
X126563285Y-95607142D01*
X126610904Y-95511904D01*
X126610904Y-95321428D01*
X126563285Y-95226190D01*
X126515666Y-95178571D01*
X126420428Y-95130952D01*
%TO.C,R17*%
X135072380Y-128404857D02*
X134596190Y-128738190D01*
X135072380Y-128976285D02*
X134072380Y-128976285D01*
X134072380Y-128595333D01*
X134120000Y-128500095D01*
X134167619Y-128452476D01*
X134262857Y-128404857D01*
X134405714Y-128404857D01*
X134500952Y-128452476D01*
X134548571Y-128500095D01*
X134596190Y-128595333D01*
X134596190Y-128976285D01*
X135072380Y-127452476D02*
X135072380Y-128023904D01*
X135072380Y-127738190D02*
X134072380Y-127738190D01*
X134215238Y-127833428D01*
X134310476Y-127928666D01*
X134358095Y-128023904D01*
X134072380Y-127119142D02*
X134072380Y-126452476D01*
X135072380Y-126881047D01*
%TO.C,R16*%
X120007142Y-136690380D02*
X119673809Y-136214190D01*
X119435714Y-136690380D02*
X119435714Y-135690380D01*
X119816666Y-135690380D01*
X119911904Y-135738000D01*
X119959523Y-135785619D01*
X120007142Y-135880857D01*
X120007142Y-136023714D01*
X119959523Y-136118952D01*
X119911904Y-136166571D01*
X119816666Y-136214190D01*
X119435714Y-136214190D01*
X120959523Y-136690380D02*
X120388095Y-136690380D01*
X120673809Y-136690380D02*
X120673809Y-135690380D01*
X120578571Y-135833238D01*
X120483333Y-135928476D01*
X120388095Y-135976095D01*
X121816666Y-135690380D02*
X121626190Y-135690380D01*
X121530952Y-135738000D01*
X121483333Y-135785619D01*
X121388095Y-135928476D01*
X121340476Y-136118952D01*
X121340476Y-136499904D01*
X121388095Y-136595142D01*
X121435714Y-136642761D01*
X121530952Y-136690380D01*
X121721428Y-136690380D01*
X121816666Y-136642761D01*
X121864285Y-136595142D01*
X121911904Y-136499904D01*
X121911904Y-136261809D01*
X121864285Y-136166571D01*
X121816666Y-136118952D01*
X121721428Y-136071333D01*
X121530952Y-136071333D01*
X121435714Y-136118952D01*
X121388095Y-136166571D01*
X121340476Y-136261809D01*
%TO.C,R15*%
X147058142Y-132278380D02*
X146724809Y-131802190D01*
X146486714Y-132278380D02*
X146486714Y-131278380D01*
X146867666Y-131278380D01*
X146962904Y-131326000D01*
X147010523Y-131373619D01*
X147058142Y-131468857D01*
X147058142Y-131611714D01*
X147010523Y-131706952D01*
X146962904Y-131754571D01*
X146867666Y-131802190D01*
X146486714Y-131802190D01*
X148010523Y-132278380D02*
X147439095Y-132278380D01*
X147724809Y-132278380D02*
X147724809Y-131278380D01*
X147629571Y-131421238D01*
X147534333Y-131516476D01*
X147439095Y-131564095D01*
X148915285Y-131278380D02*
X148439095Y-131278380D01*
X148391476Y-131754571D01*
X148439095Y-131706952D01*
X148534333Y-131659333D01*
X148772428Y-131659333D01*
X148867666Y-131706952D01*
X148915285Y-131754571D01*
X148962904Y-131849809D01*
X148962904Y-132087904D01*
X148915285Y-132183142D01*
X148867666Y-132230761D01*
X148772428Y-132278380D01*
X148534333Y-132278380D01*
X148439095Y-132230761D01*
X148391476Y-132183142D01*
%TO.C,R14*%
X161155142Y-131262380D02*
X160821809Y-130786190D01*
X160583714Y-131262380D02*
X160583714Y-130262380D01*
X160964666Y-130262380D01*
X161059904Y-130310000D01*
X161107523Y-130357619D01*
X161155142Y-130452857D01*
X161155142Y-130595714D01*
X161107523Y-130690952D01*
X161059904Y-130738571D01*
X160964666Y-130786190D01*
X160583714Y-130786190D01*
X162107523Y-131262380D02*
X161536095Y-131262380D01*
X161821809Y-131262380D02*
X161821809Y-130262380D01*
X161726571Y-130405238D01*
X161631333Y-130500476D01*
X161536095Y-130548095D01*
X162964666Y-130595714D02*
X162964666Y-131262380D01*
X162726571Y-130214761D02*
X162488476Y-130929047D01*
X163107523Y-130929047D01*
%TO.C,R13*%
X127627142Y-136690380D02*
X127293809Y-136214190D01*
X127055714Y-136690380D02*
X127055714Y-135690380D01*
X127436666Y-135690380D01*
X127531904Y-135738000D01*
X127579523Y-135785619D01*
X127627142Y-135880857D01*
X127627142Y-136023714D01*
X127579523Y-136118952D01*
X127531904Y-136166571D01*
X127436666Y-136214190D01*
X127055714Y-136214190D01*
X128579523Y-136690380D02*
X128008095Y-136690380D01*
X128293809Y-136690380D02*
X128293809Y-135690380D01*
X128198571Y-135833238D01*
X128103333Y-135928476D01*
X128008095Y-135976095D01*
X128912857Y-135690380D02*
X129531904Y-135690380D01*
X129198571Y-136071333D01*
X129341428Y-136071333D01*
X129436666Y-136118952D01*
X129484285Y-136166571D01*
X129531904Y-136261809D01*
X129531904Y-136499904D01*
X129484285Y-136595142D01*
X129436666Y-136642761D01*
X129341428Y-136690380D01*
X129055714Y-136690380D01*
X128960476Y-136642761D01*
X128912857Y-136595142D01*
%TO.C,R12*%
X135882142Y-133802380D02*
X135548809Y-133326190D01*
X135310714Y-133802380D02*
X135310714Y-132802380D01*
X135691666Y-132802380D01*
X135786904Y-132850000D01*
X135834523Y-132897619D01*
X135882142Y-132992857D01*
X135882142Y-133135714D01*
X135834523Y-133230952D01*
X135786904Y-133278571D01*
X135691666Y-133326190D01*
X135310714Y-133326190D01*
X136834523Y-133802380D02*
X136263095Y-133802380D01*
X136548809Y-133802380D02*
X136548809Y-132802380D01*
X136453571Y-132945238D01*
X136358333Y-133040476D01*
X136263095Y-133088095D01*
X137215476Y-132897619D02*
X137263095Y-132850000D01*
X137358333Y-132802380D01*
X137596428Y-132802380D01*
X137691666Y-132850000D01*
X137739285Y-132897619D01*
X137786904Y-132992857D01*
X137786904Y-133088095D01*
X137739285Y-133230952D01*
X137167857Y-133802380D01*
X137786904Y-133802380D01*
%TO.C,R11*%
X147439142Y-133802380D02*
X147105809Y-133326190D01*
X146867714Y-133802380D02*
X146867714Y-132802380D01*
X147248666Y-132802380D01*
X147343904Y-132850000D01*
X147391523Y-132897619D01*
X147439142Y-132992857D01*
X147439142Y-133135714D01*
X147391523Y-133230952D01*
X147343904Y-133278571D01*
X147248666Y-133326190D01*
X146867714Y-133326190D01*
X148391523Y-133802380D02*
X147820095Y-133802380D01*
X148105809Y-133802380D02*
X148105809Y-132802380D01*
X148010571Y-132945238D01*
X147915333Y-133040476D01*
X147820095Y-133088095D01*
X149343904Y-133802380D02*
X148772476Y-133802380D01*
X149058190Y-133802380D02*
X149058190Y-132802380D01*
X148962952Y-132945238D01*
X148867714Y-133040476D01*
X148772476Y-133088095D01*
%TO.C,R10*%
X149979142Y-132786380D02*
X149645809Y-132310190D01*
X149407714Y-132786380D02*
X149407714Y-131786380D01*
X149788666Y-131786380D01*
X149883904Y-131834000D01*
X149931523Y-131881619D01*
X149979142Y-131976857D01*
X149979142Y-132119714D01*
X149931523Y-132214952D01*
X149883904Y-132262571D01*
X149788666Y-132310190D01*
X149407714Y-132310190D01*
X150931523Y-132786380D02*
X150360095Y-132786380D01*
X150645809Y-132786380D02*
X150645809Y-131786380D01*
X150550571Y-131929238D01*
X150455333Y-132024476D01*
X150360095Y-132072095D01*
X151550571Y-131786380D02*
X151645809Y-131786380D01*
X151741047Y-131834000D01*
X151788666Y-131881619D01*
X151836285Y-131976857D01*
X151883904Y-132167333D01*
X151883904Y-132405428D01*
X151836285Y-132595904D01*
X151788666Y-132691142D01*
X151741047Y-132738761D01*
X151645809Y-132786380D01*
X151550571Y-132786380D01*
X151455333Y-132738761D01*
X151407714Y-132691142D01*
X151360095Y-132595904D01*
X151312476Y-132405428D01*
X151312476Y-132167333D01*
X151360095Y-131976857D01*
X151407714Y-131881619D01*
X151455333Y-131834000D01*
X151550571Y-131786380D01*
%TO.C,R9*%
X162139333Y-132786380D02*
X161806000Y-132310190D01*
X161567904Y-132786380D02*
X161567904Y-131786380D01*
X161948857Y-131786380D01*
X162044095Y-131834000D01*
X162091714Y-131881619D01*
X162139333Y-131976857D01*
X162139333Y-132119714D01*
X162091714Y-132214952D01*
X162044095Y-132262571D01*
X161948857Y-132310190D01*
X161567904Y-132310190D01*
X162615523Y-132786380D02*
X162806000Y-132786380D01*
X162901238Y-132738761D01*
X162948857Y-132691142D01*
X163044095Y-132548285D01*
X163091714Y-132357809D01*
X163091714Y-131976857D01*
X163044095Y-131881619D01*
X162996476Y-131834000D01*
X162901238Y-131786380D01*
X162710761Y-131786380D01*
X162615523Y-131834000D01*
X162567904Y-131881619D01*
X162520285Y-131976857D01*
X162520285Y-132214952D01*
X162567904Y-132310190D01*
X162615523Y-132357809D01*
X162710761Y-132405428D01*
X162901238Y-132405428D01*
X162996476Y-132357809D01*
X163044095Y-132310190D01*
X163091714Y-132214952D01*
%TO.C,R8*%
X147788333Y-135326380D02*
X147455000Y-134850190D01*
X147216904Y-135326380D02*
X147216904Y-134326380D01*
X147597857Y-134326380D01*
X147693095Y-134374000D01*
X147740714Y-134421619D01*
X147788333Y-134516857D01*
X147788333Y-134659714D01*
X147740714Y-134754952D01*
X147693095Y-134802571D01*
X147597857Y-134850190D01*
X147216904Y-134850190D01*
X148359761Y-134754952D02*
X148264523Y-134707333D01*
X148216904Y-134659714D01*
X148169285Y-134564476D01*
X148169285Y-134516857D01*
X148216904Y-134421619D01*
X148264523Y-134374000D01*
X148359761Y-134326380D01*
X148550238Y-134326380D01*
X148645476Y-134374000D01*
X148693095Y-134421619D01*
X148740714Y-134516857D01*
X148740714Y-134564476D01*
X148693095Y-134659714D01*
X148645476Y-134707333D01*
X148550238Y-134754952D01*
X148359761Y-134754952D01*
X148264523Y-134802571D01*
X148216904Y-134850190D01*
X148169285Y-134945428D01*
X148169285Y-135135904D01*
X148216904Y-135231142D01*
X148264523Y-135278761D01*
X148359761Y-135326380D01*
X148550238Y-135326380D01*
X148645476Y-135278761D01*
X148693095Y-135231142D01*
X148740714Y-135135904D01*
X148740714Y-134945428D01*
X148693095Y-134850190D01*
X148645476Y-134802571D01*
X148550238Y-134754952D01*
%TO.C,R7*%
X162139333Y-134310380D02*
X161806000Y-133834190D01*
X161567904Y-134310380D02*
X161567904Y-133310380D01*
X161948857Y-133310380D01*
X162044095Y-133358000D01*
X162091714Y-133405619D01*
X162139333Y-133500857D01*
X162139333Y-133643714D01*
X162091714Y-133738952D01*
X162044095Y-133786571D01*
X161948857Y-133834190D01*
X161567904Y-133834190D01*
X162472666Y-133310380D02*
X163139333Y-133310380D01*
X162710761Y-134310380D01*
%TO.C,R6*%
X136866333Y-135326380D02*
X136533000Y-134850190D01*
X136294904Y-135326380D02*
X136294904Y-134326380D01*
X136675857Y-134326380D01*
X136771095Y-134374000D01*
X136818714Y-134421619D01*
X136866333Y-134516857D01*
X136866333Y-134659714D01*
X136818714Y-134754952D01*
X136771095Y-134802571D01*
X136675857Y-134850190D01*
X136294904Y-134850190D01*
X137723476Y-134326380D02*
X137533000Y-134326380D01*
X137437761Y-134374000D01*
X137390142Y-134421619D01*
X137294904Y-134564476D01*
X137247285Y-134754952D01*
X137247285Y-135135904D01*
X137294904Y-135231142D01*
X137342523Y-135278761D01*
X137437761Y-135326380D01*
X137628238Y-135326380D01*
X137723476Y-135278761D01*
X137771095Y-135231142D01*
X137818714Y-135135904D01*
X137818714Y-134897809D01*
X137771095Y-134802571D01*
X137723476Y-134754952D01*
X137628238Y-134707333D01*
X137437761Y-134707333D01*
X137342523Y-134754952D01*
X137294904Y-134802571D01*
X137247285Y-134897809D01*
%TO.C,R5*%
X150963333Y-134310380D02*
X150630000Y-133834190D01*
X150391904Y-134310380D02*
X150391904Y-133310380D01*
X150772857Y-133310380D01*
X150868095Y-133358000D01*
X150915714Y-133405619D01*
X150963333Y-133500857D01*
X150963333Y-133643714D01*
X150915714Y-133738952D01*
X150868095Y-133786571D01*
X150772857Y-133834190D01*
X150391904Y-133834190D01*
X151868095Y-133310380D02*
X151391904Y-133310380D01*
X151344285Y-133786571D01*
X151391904Y-133738952D01*
X151487142Y-133691333D01*
X151725238Y-133691333D01*
X151820476Y-133738952D01*
X151868095Y-133786571D01*
X151915714Y-133881809D01*
X151915714Y-134119904D01*
X151868095Y-134215142D01*
X151820476Y-134262761D01*
X151725238Y-134310380D01*
X151487142Y-134310380D01*
X151391904Y-134262761D01*
X151344285Y-134215142D01*
%TO.C,R4*%
X145502333Y-137104380D02*
X145169000Y-136628190D01*
X144930904Y-137104380D02*
X144930904Y-136104380D01*
X145311857Y-136104380D01*
X145407095Y-136152000D01*
X145454714Y-136199619D01*
X145502333Y-136294857D01*
X145502333Y-136437714D01*
X145454714Y-136532952D01*
X145407095Y-136580571D01*
X145311857Y-136628190D01*
X144930904Y-136628190D01*
X146359476Y-136437714D02*
X146359476Y-137104380D01*
X146121380Y-136056761D02*
X145883285Y-136771047D01*
X146502333Y-136771047D01*
%TO.C,R3*%
X159599333Y-135834380D02*
X159266000Y-135358190D01*
X159027904Y-135834380D02*
X159027904Y-134834380D01*
X159408857Y-134834380D01*
X159504095Y-134882000D01*
X159551714Y-134929619D01*
X159599333Y-135024857D01*
X159599333Y-135167714D01*
X159551714Y-135262952D01*
X159504095Y-135310571D01*
X159408857Y-135358190D01*
X159027904Y-135358190D01*
X159932666Y-134834380D02*
X160551714Y-134834380D01*
X160218380Y-135215333D01*
X160361238Y-135215333D01*
X160456476Y-135262952D01*
X160504095Y-135310571D01*
X160551714Y-135405809D01*
X160551714Y-135643904D01*
X160504095Y-135739142D01*
X160456476Y-135786761D01*
X160361238Y-135834380D01*
X160075523Y-135834380D01*
X159980285Y-135786761D01*
X159932666Y-135739142D01*
%TO.C,R2*%
X117038380Y-58840666D02*
X116562190Y-59174000D01*
X117038380Y-59412095D02*
X116038380Y-59412095D01*
X116038380Y-59031142D01*
X116086000Y-58935904D01*
X116133619Y-58888285D01*
X116228857Y-58840666D01*
X116371714Y-58840666D01*
X116466952Y-58888285D01*
X116514571Y-58935904D01*
X116562190Y-59031142D01*
X116562190Y-59412095D01*
X116133619Y-58459714D02*
X116086000Y-58412095D01*
X116038380Y-58316857D01*
X116038380Y-58078761D01*
X116086000Y-57983523D01*
X116133619Y-57935904D01*
X116228857Y-57888285D01*
X116324095Y-57888285D01*
X116466952Y-57935904D01*
X117038380Y-58507333D01*
X117038380Y-57888285D01*
%TO.C,R1*%
X128738333Y-59507380D02*
X128405000Y-59031190D01*
X128166904Y-59507380D02*
X128166904Y-58507380D01*
X128547857Y-58507380D01*
X128643095Y-58555000D01*
X128690714Y-58602619D01*
X128738333Y-58697857D01*
X128738333Y-58840714D01*
X128690714Y-58935952D01*
X128643095Y-58983571D01*
X128547857Y-59031190D01*
X128166904Y-59031190D01*
X129690714Y-59507380D02*
X129119285Y-59507380D01*
X129405000Y-59507380D02*
X129405000Y-58507380D01*
X129309761Y-58650238D01*
X129214523Y-58745476D01*
X129119285Y-58793095D01*
%TO.C,Q4*%
X162472619Y-119729238D02*
X162425000Y-119824476D01*
X162329761Y-119919714D01*
X162186904Y-120062571D01*
X162139285Y-120157809D01*
X162139285Y-120253047D01*
X162377380Y-120205428D02*
X162329761Y-120300666D01*
X162234523Y-120395904D01*
X162044047Y-120443523D01*
X161710714Y-120443523D01*
X161520238Y-120395904D01*
X161425000Y-120300666D01*
X161377380Y-120205428D01*
X161377380Y-120014952D01*
X161425000Y-119919714D01*
X161520238Y-119824476D01*
X161710714Y-119776857D01*
X162044047Y-119776857D01*
X162234523Y-119824476D01*
X162329761Y-119919714D01*
X162377380Y-120014952D01*
X162377380Y-120205428D01*
X161710714Y-118919714D02*
X162377380Y-118919714D01*
X161329761Y-119157809D02*
X162044047Y-119395904D01*
X162044047Y-118776857D01*
%TO.C,Q3*%
X162599619Y-123539238D02*
X162552000Y-123634476D01*
X162456761Y-123729714D01*
X162313904Y-123872571D01*
X162266285Y-123967809D01*
X162266285Y-124063047D01*
X162504380Y-124015428D02*
X162456761Y-124110666D01*
X162361523Y-124205904D01*
X162171047Y-124253523D01*
X161837714Y-124253523D01*
X161647238Y-124205904D01*
X161552000Y-124110666D01*
X161504380Y-124015428D01*
X161504380Y-123824952D01*
X161552000Y-123729714D01*
X161647238Y-123634476D01*
X161837714Y-123586857D01*
X162171047Y-123586857D01*
X162361523Y-123634476D01*
X162456761Y-123729714D01*
X162504380Y-123824952D01*
X162504380Y-124015428D01*
X161504380Y-123253523D02*
X161504380Y-122634476D01*
X161885333Y-122967809D01*
X161885333Y-122824952D01*
X161932952Y-122729714D01*
X161980571Y-122682095D01*
X162075809Y-122634476D01*
X162313904Y-122634476D01*
X162409142Y-122682095D01*
X162456761Y-122729714D01*
X162504380Y-122824952D01*
X162504380Y-123110666D01*
X162456761Y-123205904D01*
X162409142Y-123253523D01*
%TO.C,Q2*%
X127285761Y-74715619D02*
X127190523Y-74668000D01*
X127095285Y-74572761D01*
X126952428Y-74429904D01*
X126857190Y-74382285D01*
X126761952Y-74382285D01*
X126809571Y-74620380D02*
X126714333Y-74572761D01*
X126619095Y-74477523D01*
X126571476Y-74287047D01*
X126571476Y-73953714D01*
X126619095Y-73763238D01*
X126714333Y-73668000D01*
X126809571Y-73620380D01*
X127000047Y-73620380D01*
X127095285Y-73668000D01*
X127190523Y-73763238D01*
X127238142Y-73953714D01*
X127238142Y-74287047D01*
X127190523Y-74477523D01*
X127095285Y-74572761D01*
X127000047Y-74620380D01*
X126809571Y-74620380D01*
X127619095Y-73715619D02*
X127666714Y-73668000D01*
X127761952Y-73620380D01*
X128000047Y-73620380D01*
X128095285Y-73668000D01*
X128142904Y-73715619D01*
X128190523Y-73810857D01*
X128190523Y-73906095D01*
X128142904Y-74048952D01*
X127571476Y-74620380D01*
X128190523Y-74620380D01*
%TO.C,Q1*%
X129325619Y-76041238D02*
X129278000Y-76136476D01*
X129182761Y-76231714D01*
X129039904Y-76374571D01*
X128992285Y-76469809D01*
X128992285Y-76565047D01*
X129230380Y-76517428D02*
X129182761Y-76612666D01*
X129087523Y-76707904D01*
X128897047Y-76755523D01*
X128563714Y-76755523D01*
X128373238Y-76707904D01*
X128278000Y-76612666D01*
X128230380Y-76517428D01*
X128230380Y-76326952D01*
X128278000Y-76231714D01*
X128373238Y-76136476D01*
X128563714Y-76088857D01*
X128897047Y-76088857D01*
X129087523Y-76136476D01*
X129182761Y-76231714D01*
X129230380Y-76326952D01*
X129230380Y-76517428D01*
X129230380Y-75136476D02*
X129230380Y-75707904D01*
X129230380Y-75422190D02*
X128230380Y-75422190D01*
X128373238Y-75517428D01*
X128468476Y-75612666D01*
X128516095Y-75707904D01*
%TO.C,J10*%
X116038380Y-144954523D02*
X116752666Y-144954523D01*
X116895523Y-145002142D01*
X116990761Y-145097380D01*
X117038380Y-145240238D01*
X117038380Y-145335476D01*
X117038380Y-143954523D02*
X117038380Y-144525952D01*
X117038380Y-144240238D02*
X116038380Y-144240238D01*
X116181238Y-144335476D01*
X116276476Y-144430714D01*
X116324095Y-144525952D01*
X116038380Y-143335476D02*
X116038380Y-143240238D01*
X116086000Y-143145000D01*
X116133619Y-143097380D01*
X116228857Y-143049761D01*
X116419333Y-143002142D01*
X116657428Y-143002142D01*
X116847904Y-143049761D01*
X116943142Y-143097380D01*
X116990761Y-143145000D01*
X117038380Y-143240238D01*
X117038380Y-143335476D01*
X116990761Y-143430714D01*
X116943142Y-143478333D01*
X116847904Y-143525952D01*
X116657428Y-143573571D01*
X116419333Y-143573571D01*
X116228857Y-143525952D01*
X116133619Y-143478333D01*
X116086000Y-143430714D01*
X116038380Y-143335476D01*
%TO.C,J9*%
X131278380Y-144986333D02*
X131992666Y-144986333D01*
X132135523Y-145033952D01*
X132230761Y-145129190D01*
X132278380Y-145272047D01*
X132278380Y-145367285D01*
X132278380Y-144462523D02*
X132278380Y-144272047D01*
X132230761Y-144176809D01*
X132183142Y-144129190D01*
X132040285Y-144033952D01*
X131849809Y-143986333D01*
X131468857Y-143986333D01*
X131373619Y-144033952D01*
X131326000Y-144081571D01*
X131278380Y-144176809D01*
X131278380Y-144367285D01*
X131326000Y-144462523D01*
X131373619Y-144510142D01*
X131468857Y-144557761D01*
X131706952Y-144557761D01*
X131802190Y-144510142D01*
X131849809Y-144462523D01*
X131897428Y-144367285D01*
X131897428Y-144176809D01*
X131849809Y-144081571D01*
X131802190Y-144033952D01*
X131706952Y-143986333D01*
%TO.C,J8*%
X161885380Y-140160333D02*
X162599666Y-140160333D01*
X162742523Y-140207952D01*
X162837761Y-140303190D01*
X162885380Y-140446047D01*
X162885380Y-140541285D01*
X162313952Y-139541285D02*
X162266333Y-139636523D01*
X162218714Y-139684142D01*
X162123476Y-139731761D01*
X162075857Y-139731761D01*
X161980619Y-139684142D01*
X161933000Y-139636523D01*
X161885380Y-139541285D01*
X161885380Y-139350809D01*
X161933000Y-139255571D01*
X161980619Y-139207952D01*
X162075857Y-139160333D01*
X162123476Y-139160333D01*
X162218714Y-139207952D01*
X162266333Y-139255571D01*
X162313952Y-139350809D01*
X162313952Y-139541285D01*
X162361571Y-139636523D01*
X162409190Y-139684142D01*
X162504428Y-139731761D01*
X162694904Y-139731761D01*
X162790142Y-139684142D01*
X162837761Y-139636523D01*
X162885380Y-139541285D01*
X162885380Y-139350809D01*
X162837761Y-139255571D01*
X162790142Y-139207952D01*
X162694904Y-139160333D01*
X162504428Y-139160333D01*
X162409190Y-139207952D01*
X162361571Y-139255571D01*
X162313952Y-139350809D01*
%TO.C,J7*%
X169632380Y-140414333D02*
X170346666Y-140414333D01*
X170489523Y-140461952D01*
X170584761Y-140557190D01*
X170632380Y-140700047D01*
X170632380Y-140795285D01*
X169632380Y-140033380D02*
X169632380Y-139366714D01*
X170632380Y-139795285D01*
%TO.C,J6*%
X162353666Y-90257380D02*
X162353666Y-90971666D01*
X162306047Y-91114523D01*
X162210809Y-91209761D01*
X162067952Y-91257380D01*
X161972714Y-91257380D01*
X163258428Y-90257380D02*
X163067952Y-90257380D01*
X162972714Y-90305000D01*
X162925095Y-90352619D01*
X162829857Y-90495476D01*
X162782238Y-90685952D01*
X162782238Y-91066904D01*
X162829857Y-91162142D01*
X162877476Y-91209761D01*
X162972714Y-91257380D01*
X163163190Y-91257380D01*
X163258428Y-91209761D01*
X163306047Y-91162142D01*
X163353666Y-91066904D01*
X163353666Y-90828809D01*
X163306047Y-90733571D01*
X163258428Y-90685952D01*
X163163190Y-90638333D01*
X162972714Y-90638333D01*
X162877476Y-90685952D01*
X162829857Y-90733571D01*
X162782238Y-90828809D01*
%TO.C,J5*%
X120316666Y-93642380D02*
X120316666Y-94356666D01*
X120269047Y-94499523D01*
X120173809Y-94594761D01*
X120030952Y-94642380D01*
X119935714Y-94642380D01*
X121269047Y-93642380D02*
X120792857Y-93642380D01*
X120745238Y-94118571D01*
X120792857Y-94070952D01*
X120888095Y-94023333D01*
X121126190Y-94023333D01*
X121221428Y-94070952D01*
X121269047Y-94118571D01*
X121316666Y-94213809D01*
X121316666Y-94451904D01*
X121269047Y-94547142D01*
X121221428Y-94594761D01*
X121126190Y-94642380D01*
X120888095Y-94642380D01*
X120792857Y-94594761D01*
X120745238Y-94547142D01*
%TO.C,J4*%
X169592666Y-63714380D02*
X169592666Y-64428666D01*
X169545047Y-64571523D01*
X169449809Y-64666761D01*
X169306952Y-64714380D01*
X169211714Y-64714380D01*
X170497428Y-64047714D02*
X170497428Y-64714380D01*
X170259333Y-63666761D02*
X170021238Y-64381047D01*
X170640285Y-64381047D01*
%TO.C,J3*%
X120316666Y-70782380D02*
X120316666Y-71496666D01*
X120269047Y-71639523D01*
X120173809Y-71734761D01*
X120030952Y-71782380D01*
X119935714Y-71782380D01*
X120697619Y-70782380D02*
X121316666Y-70782380D01*
X120983333Y-71163333D01*
X121126190Y-71163333D01*
X121221428Y-71210952D01*
X121269047Y-71258571D01*
X121316666Y-71353809D01*
X121316666Y-71591904D01*
X121269047Y-71687142D01*
X121221428Y-71734761D01*
X121126190Y-71782380D01*
X120840476Y-71782380D01*
X120745238Y-71734761D01*
X120697619Y-71687142D01*
%TO.C,J2*%
X116252666Y-50760380D02*
X116252666Y-51474666D01*
X116205047Y-51617523D01*
X116109809Y-51712761D01*
X115966952Y-51760380D01*
X115871714Y-51760380D01*
X116681238Y-50855619D02*
X116728857Y-50808000D01*
X116824095Y-50760380D01*
X117062190Y-50760380D01*
X117157428Y-50808000D01*
X117205047Y-50855619D01*
X117252666Y-50950857D01*
X117252666Y-51046095D01*
X117205047Y-51188952D01*
X116633619Y-51760380D01*
X117252666Y-51760380D01*
%TO.C,J1*%
X169505380Y-55070333D02*
X170219666Y-55070333D01*
X170362523Y-55117952D01*
X170457761Y-55213190D01*
X170505380Y-55356047D01*
X170505380Y-55451285D01*
X170505380Y-54070333D02*
X170505380Y-54641761D01*
X170505380Y-54356047D02*
X169505380Y-54356047D01*
X169648238Y-54451285D01*
X169743476Y-54546523D01*
X169791095Y-54641761D01*
%TO.C,D11*%
X126039714Y-81478380D02*
X126039714Y-80478380D01*
X126277809Y-80478380D01*
X126420666Y-80526000D01*
X126515904Y-80621238D01*
X126563523Y-80716476D01*
X126611142Y-80906952D01*
X126611142Y-81049809D01*
X126563523Y-81240285D01*
X126515904Y-81335523D01*
X126420666Y-81430761D01*
X126277809Y-81478380D01*
X126039714Y-81478380D01*
X127563523Y-81478380D02*
X126992095Y-81478380D01*
X127277809Y-81478380D02*
X127277809Y-80478380D01*
X127182571Y-80621238D01*
X127087333Y-80716476D01*
X126992095Y-80764095D01*
X128515904Y-81478380D02*
X127944476Y-81478380D01*
X128230190Y-81478380D02*
X128230190Y-80478380D01*
X128134952Y-80621238D01*
X128039714Y-80716476D01*
X127944476Y-80764095D01*
%TO.C,D10*%
X162029380Y-62555285D02*
X161029380Y-62555285D01*
X161029380Y-62317190D01*
X161077000Y-62174333D01*
X161172238Y-62079095D01*
X161267476Y-62031476D01*
X161457952Y-61983857D01*
X161600809Y-61983857D01*
X161791285Y-62031476D01*
X161886523Y-62079095D01*
X161981761Y-62174333D01*
X162029380Y-62317190D01*
X162029380Y-62555285D01*
X162029380Y-61031476D02*
X162029380Y-61602904D01*
X162029380Y-61317190D02*
X161029380Y-61317190D01*
X161172238Y-61412428D01*
X161267476Y-61507666D01*
X161315095Y-61602904D01*
X161029380Y-60412428D02*
X161029380Y-60317190D01*
X161077000Y-60221952D01*
X161124619Y-60174333D01*
X161219857Y-60126714D01*
X161410333Y-60079095D01*
X161648428Y-60079095D01*
X161838904Y-60126714D01*
X161934142Y-60174333D01*
X161981761Y-60221952D01*
X162029380Y-60317190D01*
X162029380Y-60412428D01*
X161981761Y-60507666D01*
X161934142Y-60555285D01*
X161838904Y-60602904D01*
X161648428Y-60650523D01*
X161410333Y-60650523D01*
X161219857Y-60602904D01*
X161124619Y-60555285D01*
X161077000Y-60507666D01*
X161029380Y-60412428D01*
%TO.C,D9*%
X140739904Y-60269380D02*
X140739904Y-59269380D01*
X140978000Y-59269380D01*
X141120857Y-59317000D01*
X141216095Y-59412238D01*
X141263714Y-59507476D01*
X141311333Y-59697952D01*
X141311333Y-59840809D01*
X141263714Y-60031285D01*
X141216095Y-60126523D01*
X141120857Y-60221761D01*
X140978000Y-60269380D01*
X140739904Y-60269380D01*
X141787523Y-60269380D02*
X141978000Y-60269380D01*
X142073238Y-60221761D01*
X142120857Y-60174142D01*
X142216095Y-60031285D01*
X142263714Y-59840809D01*
X142263714Y-59459857D01*
X142216095Y-59364619D01*
X142168476Y-59317000D01*
X142073238Y-59269380D01*
X141882761Y-59269380D01*
X141787523Y-59317000D01*
X141739904Y-59364619D01*
X141692285Y-59459857D01*
X141692285Y-59697952D01*
X141739904Y-59793190D01*
X141787523Y-59840809D01*
X141882761Y-59888428D01*
X142073238Y-59888428D01*
X142168476Y-59840809D01*
X142216095Y-59793190D01*
X142263714Y-59697952D01*
%TO.C,D8*%
X145311904Y-98623380D02*
X145311904Y-97623380D01*
X145550000Y-97623380D01*
X145692857Y-97671000D01*
X145788095Y-97766238D01*
X145835714Y-97861476D01*
X145883333Y-98051952D01*
X145883333Y-98194809D01*
X145835714Y-98385285D01*
X145788095Y-98480523D01*
X145692857Y-98575761D01*
X145550000Y-98623380D01*
X145311904Y-98623380D01*
X146454761Y-98051952D02*
X146359523Y-98004333D01*
X146311904Y-97956714D01*
X146264285Y-97861476D01*
X146264285Y-97813857D01*
X146311904Y-97718619D01*
X146359523Y-97671000D01*
X146454761Y-97623380D01*
X146645238Y-97623380D01*
X146740476Y-97671000D01*
X146788095Y-97718619D01*
X146835714Y-97813857D01*
X146835714Y-97861476D01*
X146788095Y-97956714D01*
X146740476Y-98004333D01*
X146645238Y-98051952D01*
X146454761Y-98051952D01*
X146359523Y-98099571D01*
X146311904Y-98147190D01*
X146264285Y-98242428D01*
X146264285Y-98432904D01*
X146311904Y-98528142D01*
X146359523Y-98575761D01*
X146454761Y-98623380D01*
X146645238Y-98623380D01*
X146740476Y-98575761D01*
X146788095Y-98528142D01*
X146835714Y-98432904D01*
X146835714Y-98242428D01*
X146788095Y-98147190D01*
X146740476Y-98099571D01*
X146645238Y-98051952D01*
%TO.C,D7*%
X131976904Y-81478380D02*
X131976904Y-80478380D01*
X132215000Y-80478380D01*
X132357857Y-80526000D01*
X132453095Y-80621238D01*
X132500714Y-80716476D01*
X132548333Y-80906952D01*
X132548333Y-81049809D01*
X132500714Y-81240285D01*
X132453095Y-81335523D01*
X132357857Y-81430761D01*
X132215000Y-81478380D01*
X131976904Y-81478380D01*
X132881666Y-80478380D02*
X133548333Y-80478380D01*
X133119761Y-81478380D01*
%TO.C,D6*%
X159075380Y-129897095D02*
X158075380Y-129897095D01*
X158075380Y-129659000D01*
X158123000Y-129516142D01*
X158218238Y-129420904D01*
X158313476Y-129373285D01*
X158503952Y-129325666D01*
X158646809Y-129325666D01*
X158837285Y-129373285D01*
X158932523Y-129420904D01*
X159027761Y-129516142D01*
X159075380Y-129659000D01*
X159075380Y-129897095D01*
X158075380Y-128468523D02*
X158075380Y-128659000D01*
X158123000Y-128754238D01*
X158170619Y-128801857D01*
X158313476Y-128897095D01*
X158503952Y-128944714D01*
X158884904Y-128944714D01*
X158980142Y-128897095D01*
X159027761Y-128849476D01*
X159075380Y-128754238D01*
X159075380Y-128563761D01*
X159027761Y-128468523D01*
X158980142Y-128420904D01*
X158884904Y-128373285D01*
X158646809Y-128373285D01*
X158551571Y-128420904D01*
X158503952Y-128468523D01*
X158456333Y-128563761D01*
X158456333Y-128754238D01*
X158503952Y-128849476D01*
X158551571Y-128897095D01*
X158646809Y-128944714D01*
%TO.C,D5*%
X160726380Y-129897095D02*
X159726380Y-129897095D01*
X159726380Y-129659000D01*
X159774000Y-129516142D01*
X159869238Y-129420904D01*
X159964476Y-129373285D01*
X160154952Y-129325666D01*
X160297809Y-129325666D01*
X160488285Y-129373285D01*
X160583523Y-129420904D01*
X160678761Y-129516142D01*
X160726380Y-129659000D01*
X160726380Y-129897095D01*
X159726380Y-128420904D02*
X159726380Y-128897095D01*
X160202571Y-128944714D01*
X160154952Y-128897095D01*
X160107333Y-128801857D01*
X160107333Y-128563761D01*
X160154952Y-128468523D01*
X160202571Y-128420904D01*
X160297809Y-128373285D01*
X160535904Y-128373285D01*
X160631142Y-128420904D01*
X160678761Y-128468523D01*
X160726380Y-128563761D01*
X160726380Y-128801857D01*
X160678761Y-128897095D01*
X160631142Y-128944714D01*
%TO.C,D2*%
X153566904Y-58872380D02*
X153566904Y-57872380D01*
X153805000Y-57872380D01*
X153947857Y-57920000D01*
X154043095Y-58015238D01*
X154090714Y-58110476D01*
X154138333Y-58300952D01*
X154138333Y-58443809D01*
X154090714Y-58634285D01*
X154043095Y-58729523D01*
X153947857Y-58824761D01*
X153805000Y-58872380D01*
X153566904Y-58872380D01*
X154519285Y-57967619D02*
X154566904Y-57920000D01*
X154662142Y-57872380D01*
X154900238Y-57872380D01*
X154995476Y-57920000D01*
X155043095Y-57967619D01*
X155090714Y-58062857D01*
X155090714Y-58158095D01*
X155043095Y-58300952D01*
X154471666Y-58872380D01*
X155090714Y-58872380D01*
%TO.C,D1*%
X153566904Y-49982380D02*
X153566904Y-48982380D01*
X153805000Y-48982380D01*
X153947857Y-49030000D01*
X154043095Y-49125238D01*
X154090714Y-49220476D01*
X154138333Y-49410952D01*
X154138333Y-49553809D01*
X154090714Y-49744285D01*
X154043095Y-49839523D01*
X153947857Y-49934761D01*
X153805000Y-49982380D01*
X153566904Y-49982380D01*
X155090714Y-49982380D02*
X154519285Y-49982380D01*
X154805000Y-49982380D02*
X154805000Y-48982380D01*
X154709761Y-49125238D01*
X154614523Y-49220476D01*
X154519285Y-49268095D01*
%TO.C,C46*%
X140438142Y-120544857D02*
X140485761Y-120592476D01*
X140533380Y-120735333D01*
X140533380Y-120830571D01*
X140485761Y-120973428D01*
X140390523Y-121068666D01*
X140295285Y-121116285D01*
X140104809Y-121163904D01*
X139961952Y-121163904D01*
X139771476Y-121116285D01*
X139676238Y-121068666D01*
X139581000Y-120973428D01*
X139533380Y-120830571D01*
X139533380Y-120735333D01*
X139581000Y-120592476D01*
X139628619Y-120544857D01*
X139866714Y-119687714D02*
X140533380Y-119687714D01*
X139485761Y-119925809D02*
X140200047Y-120163904D01*
X140200047Y-119544857D01*
X139533380Y-118735333D02*
X139533380Y-118925809D01*
X139581000Y-119021047D01*
X139628619Y-119068666D01*
X139771476Y-119163904D01*
X139961952Y-119211523D01*
X140342904Y-119211523D01*
X140438142Y-119163904D01*
X140485761Y-119116285D01*
X140533380Y-119021047D01*
X140533380Y-118830571D01*
X140485761Y-118735333D01*
X140438142Y-118687714D01*
X140342904Y-118640095D01*
X140104809Y-118640095D01*
X140009571Y-118687714D01*
X139961952Y-118735333D01*
X139914333Y-118830571D01*
X139914333Y-119021047D01*
X139961952Y-119116285D01*
X140009571Y-119163904D01*
X140104809Y-119211523D01*
%TO.C,C44*%
X154027142Y-125356857D02*
X154074761Y-125404476D01*
X154122380Y-125547333D01*
X154122380Y-125642571D01*
X154074761Y-125785428D01*
X153979523Y-125880666D01*
X153884285Y-125928285D01*
X153693809Y-125975904D01*
X153550952Y-125975904D01*
X153360476Y-125928285D01*
X153265238Y-125880666D01*
X153170000Y-125785428D01*
X153122380Y-125642571D01*
X153122380Y-125547333D01*
X153170000Y-125404476D01*
X153217619Y-125356857D01*
X153455714Y-124499714D02*
X154122380Y-124499714D01*
X153074761Y-124737809D02*
X153789047Y-124975904D01*
X153789047Y-124356857D01*
X153455714Y-123547333D02*
X154122380Y-123547333D01*
X153074761Y-123785428D02*
X153789047Y-124023523D01*
X153789047Y-123404476D01*
%TO.C,C42*%
X131437142Y-111863142D02*
X131389523Y-111910761D01*
X131246666Y-111958380D01*
X131151428Y-111958380D01*
X131008571Y-111910761D01*
X130913333Y-111815523D01*
X130865714Y-111720285D01*
X130818095Y-111529809D01*
X130818095Y-111386952D01*
X130865714Y-111196476D01*
X130913333Y-111101238D01*
X131008571Y-111006000D01*
X131151428Y-110958380D01*
X131246666Y-110958380D01*
X131389523Y-111006000D01*
X131437142Y-111053619D01*
X132294285Y-111291714D02*
X132294285Y-111958380D01*
X132056190Y-110910761D02*
X131818095Y-111625047D01*
X132437142Y-111625047D01*
X132770476Y-111053619D02*
X132818095Y-111006000D01*
X132913333Y-110958380D01*
X133151428Y-110958380D01*
X133246666Y-111006000D01*
X133294285Y-111053619D01*
X133341904Y-111148857D01*
X133341904Y-111244095D01*
X133294285Y-111386952D01*
X132722857Y-111958380D01*
X133341904Y-111958380D01*
%TO.C,C40*%
X125071142Y-132722857D02*
X125118761Y-132770476D01*
X125166380Y-132913333D01*
X125166380Y-133008571D01*
X125118761Y-133151428D01*
X125023523Y-133246666D01*
X124928285Y-133294285D01*
X124737809Y-133341904D01*
X124594952Y-133341904D01*
X124404476Y-133294285D01*
X124309238Y-133246666D01*
X124214000Y-133151428D01*
X124166380Y-133008571D01*
X124166380Y-132913333D01*
X124214000Y-132770476D01*
X124261619Y-132722857D01*
X124499714Y-131865714D02*
X125166380Y-131865714D01*
X124118761Y-132103809D02*
X124833047Y-132341904D01*
X124833047Y-131722857D01*
X124166380Y-131151428D02*
X124166380Y-131056190D01*
X124214000Y-130960952D01*
X124261619Y-130913333D01*
X124356857Y-130865714D01*
X124547333Y-130818095D01*
X124785428Y-130818095D01*
X124975904Y-130865714D01*
X125071142Y-130913333D01*
X125118761Y-130960952D01*
X125166380Y-131056190D01*
X125166380Y-131151428D01*
X125118761Y-131246666D01*
X125071142Y-131294285D01*
X124975904Y-131341904D01*
X124785428Y-131389523D01*
X124547333Y-131389523D01*
X124356857Y-131341904D01*
X124261619Y-131294285D01*
X124214000Y-131246666D01*
X124166380Y-131151428D01*
%TO.C,C39*%
X132945142Y-132976857D02*
X132992761Y-133024476D01*
X133040380Y-133167333D01*
X133040380Y-133262571D01*
X132992761Y-133405428D01*
X132897523Y-133500666D01*
X132802285Y-133548285D01*
X132611809Y-133595904D01*
X132468952Y-133595904D01*
X132278476Y-133548285D01*
X132183238Y-133500666D01*
X132088000Y-133405428D01*
X132040380Y-133262571D01*
X132040380Y-133167333D01*
X132088000Y-133024476D01*
X132135619Y-132976857D01*
X132040380Y-132643523D02*
X132040380Y-132024476D01*
X132421333Y-132357809D01*
X132421333Y-132214952D01*
X132468952Y-132119714D01*
X132516571Y-132072095D01*
X132611809Y-132024476D01*
X132849904Y-132024476D01*
X132945142Y-132072095D01*
X132992761Y-132119714D01*
X133040380Y-132214952D01*
X133040380Y-132500666D01*
X132992761Y-132595904D01*
X132945142Y-132643523D01*
X133040380Y-131548285D02*
X133040380Y-131357809D01*
X132992761Y-131262571D01*
X132945142Y-131214952D01*
X132802285Y-131119714D01*
X132611809Y-131072095D01*
X132230857Y-131072095D01*
X132135619Y-131119714D01*
X132088000Y-131167333D01*
X132040380Y-131262571D01*
X132040380Y-131453047D01*
X132088000Y-131548285D01*
X132135619Y-131595904D01*
X132230857Y-131643523D01*
X132468952Y-131643523D01*
X132564190Y-131595904D01*
X132611809Y-131548285D01*
X132659428Y-131453047D01*
X132659428Y-131262571D01*
X132611809Y-131167333D01*
X132564190Y-131119714D01*
X132468952Y-131072095D01*
%TO.C,C38*%
X136501142Y-128404857D02*
X136548761Y-128452476D01*
X136596380Y-128595333D01*
X136596380Y-128690571D01*
X136548761Y-128833428D01*
X136453523Y-128928666D01*
X136358285Y-128976285D01*
X136167809Y-129023904D01*
X136024952Y-129023904D01*
X135834476Y-128976285D01*
X135739238Y-128928666D01*
X135644000Y-128833428D01*
X135596380Y-128690571D01*
X135596380Y-128595333D01*
X135644000Y-128452476D01*
X135691619Y-128404857D01*
X135596380Y-128071523D02*
X135596380Y-127452476D01*
X135977333Y-127785809D01*
X135977333Y-127642952D01*
X136024952Y-127547714D01*
X136072571Y-127500095D01*
X136167809Y-127452476D01*
X136405904Y-127452476D01*
X136501142Y-127500095D01*
X136548761Y-127547714D01*
X136596380Y-127642952D01*
X136596380Y-127928666D01*
X136548761Y-128023904D01*
X136501142Y-128071523D01*
X136024952Y-126881047D02*
X135977333Y-126976285D01*
X135929714Y-127023904D01*
X135834476Y-127071523D01*
X135786857Y-127071523D01*
X135691619Y-127023904D01*
X135644000Y-126976285D01*
X135596380Y-126881047D01*
X135596380Y-126690571D01*
X135644000Y-126595333D01*
X135691619Y-126547714D01*
X135786857Y-126500095D01*
X135834476Y-126500095D01*
X135929714Y-126547714D01*
X135977333Y-126595333D01*
X136024952Y-126690571D01*
X136024952Y-126881047D01*
X136072571Y-126976285D01*
X136120190Y-127023904D01*
X136215428Y-127071523D01*
X136405904Y-127071523D01*
X136501142Y-127023904D01*
X136548761Y-126976285D01*
X136596380Y-126881047D01*
X136596380Y-126690571D01*
X136548761Y-126595333D01*
X136501142Y-126547714D01*
X136405904Y-126500095D01*
X136215428Y-126500095D01*
X136120190Y-126547714D01*
X136072571Y-126595333D01*
X136024952Y-126690571D01*
%TO.C,C36*%
X131421142Y-128404857D02*
X131468761Y-128452476D01*
X131516380Y-128595333D01*
X131516380Y-128690571D01*
X131468761Y-128833428D01*
X131373523Y-128928666D01*
X131278285Y-128976285D01*
X131087809Y-129023904D01*
X130944952Y-129023904D01*
X130754476Y-128976285D01*
X130659238Y-128928666D01*
X130564000Y-128833428D01*
X130516380Y-128690571D01*
X130516380Y-128595333D01*
X130564000Y-128452476D01*
X130611619Y-128404857D01*
X130516380Y-128071523D02*
X130516380Y-127452476D01*
X130897333Y-127785809D01*
X130897333Y-127642952D01*
X130944952Y-127547714D01*
X130992571Y-127500095D01*
X131087809Y-127452476D01*
X131325904Y-127452476D01*
X131421142Y-127500095D01*
X131468761Y-127547714D01*
X131516380Y-127642952D01*
X131516380Y-127928666D01*
X131468761Y-128023904D01*
X131421142Y-128071523D01*
X130516380Y-126595333D02*
X130516380Y-126785809D01*
X130564000Y-126881047D01*
X130611619Y-126928666D01*
X130754476Y-127023904D01*
X130944952Y-127071523D01*
X131325904Y-127071523D01*
X131421142Y-127023904D01*
X131468761Y-126976285D01*
X131516380Y-126881047D01*
X131516380Y-126690571D01*
X131468761Y-126595333D01*
X131421142Y-126547714D01*
X131325904Y-126500095D01*
X131087809Y-126500095D01*
X130992571Y-126547714D01*
X130944952Y-126595333D01*
X130897333Y-126690571D01*
X130897333Y-126881047D01*
X130944952Y-126976285D01*
X130992571Y-127023904D01*
X131087809Y-127071523D01*
%TO.C,C34*%
X129897142Y-128404857D02*
X129944761Y-128452476D01*
X129992380Y-128595333D01*
X129992380Y-128690571D01*
X129944761Y-128833428D01*
X129849523Y-128928666D01*
X129754285Y-128976285D01*
X129563809Y-129023904D01*
X129420952Y-129023904D01*
X129230476Y-128976285D01*
X129135238Y-128928666D01*
X129040000Y-128833428D01*
X128992380Y-128690571D01*
X128992380Y-128595333D01*
X129040000Y-128452476D01*
X129087619Y-128404857D01*
X128992380Y-128071523D02*
X128992380Y-127452476D01*
X129373333Y-127785809D01*
X129373333Y-127642952D01*
X129420952Y-127547714D01*
X129468571Y-127500095D01*
X129563809Y-127452476D01*
X129801904Y-127452476D01*
X129897142Y-127500095D01*
X129944761Y-127547714D01*
X129992380Y-127642952D01*
X129992380Y-127928666D01*
X129944761Y-128023904D01*
X129897142Y-128071523D01*
X129325714Y-126595333D02*
X129992380Y-126595333D01*
X128944761Y-126833428D02*
X129659047Y-127071523D01*
X129659047Y-126452476D01*
%TO.C,C32*%
X138930142Y-130659142D02*
X138882523Y-130706761D01*
X138739666Y-130754380D01*
X138644428Y-130754380D01*
X138501571Y-130706761D01*
X138406333Y-130611523D01*
X138358714Y-130516285D01*
X138311095Y-130325809D01*
X138311095Y-130182952D01*
X138358714Y-129992476D01*
X138406333Y-129897238D01*
X138501571Y-129802000D01*
X138644428Y-129754380D01*
X138739666Y-129754380D01*
X138882523Y-129802000D01*
X138930142Y-129849619D01*
X139263476Y-129754380D02*
X139882523Y-129754380D01*
X139549190Y-130135333D01*
X139692047Y-130135333D01*
X139787285Y-130182952D01*
X139834904Y-130230571D01*
X139882523Y-130325809D01*
X139882523Y-130563904D01*
X139834904Y-130659142D01*
X139787285Y-130706761D01*
X139692047Y-130754380D01*
X139406333Y-130754380D01*
X139311095Y-130706761D01*
X139263476Y-130659142D01*
X140263476Y-129849619D02*
X140311095Y-129802000D01*
X140406333Y-129754380D01*
X140644428Y-129754380D01*
X140739666Y-129802000D01*
X140787285Y-129849619D01*
X140834904Y-129944857D01*
X140834904Y-130040095D01*
X140787285Y-130182952D01*
X140215857Y-130754380D01*
X140834904Y-130754380D01*
%TO.C,C31*%
X149979142Y-131167142D02*
X149931523Y-131214761D01*
X149788666Y-131262380D01*
X149693428Y-131262380D01*
X149550571Y-131214761D01*
X149455333Y-131119523D01*
X149407714Y-131024285D01*
X149360095Y-130833809D01*
X149360095Y-130690952D01*
X149407714Y-130500476D01*
X149455333Y-130405238D01*
X149550571Y-130310000D01*
X149693428Y-130262380D01*
X149788666Y-130262380D01*
X149931523Y-130310000D01*
X149979142Y-130357619D01*
X150312476Y-130262380D02*
X150931523Y-130262380D01*
X150598190Y-130643333D01*
X150741047Y-130643333D01*
X150836285Y-130690952D01*
X150883904Y-130738571D01*
X150931523Y-130833809D01*
X150931523Y-131071904D01*
X150883904Y-131167142D01*
X150836285Y-131214761D01*
X150741047Y-131262380D01*
X150455333Y-131262380D01*
X150360095Y-131214761D01*
X150312476Y-131167142D01*
X151883904Y-131262380D02*
X151312476Y-131262380D01*
X151598190Y-131262380D02*
X151598190Y-130262380D01*
X151502952Y-130405238D01*
X151407714Y-130500476D01*
X151312476Y-130548095D01*
%TO.C,C30*%
X142470142Y-131706857D02*
X142517761Y-131754476D01*
X142565380Y-131897333D01*
X142565380Y-131992571D01*
X142517761Y-132135428D01*
X142422523Y-132230666D01*
X142327285Y-132278285D01*
X142136809Y-132325904D01*
X141993952Y-132325904D01*
X141803476Y-132278285D01*
X141708238Y-132230666D01*
X141613000Y-132135428D01*
X141565380Y-131992571D01*
X141565380Y-131897333D01*
X141613000Y-131754476D01*
X141660619Y-131706857D01*
X141565380Y-131373523D02*
X141565380Y-130754476D01*
X141946333Y-131087809D01*
X141946333Y-130944952D01*
X141993952Y-130849714D01*
X142041571Y-130802095D01*
X142136809Y-130754476D01*
X142374904Y-130754476D01*
X142470142Y-130802095D01*
X142517761Y-130849714D01*
X142565380Y-130944952D01*
X142565380Y-131230666D01*
X142517761Y-131325904D01*
X142470142Y-131373523D01*
X141565380Y-130135428D02*
X141565380Y-130040190D01*
X141613000Y-129944952D01*
X141660619Y-129897333D01*
X141755857Y-129849714D01*
X141946333Y-129802095D01*
X142184428Y-129802095D01*
X142374904Y-129849714D01*
X142470142Y-129897333D01*
X142517761Y-129944952D01*
X142565380Y-130040190D01*
X142565380Y-130135428D01*
X142517761Y-130230666D01*
X142470142Y-130278285D01*
X142374904Y-130325904D01*
X142184428Y-130373523D01*
X141946333Y-130373523D01*
X141755857Y-130325904D01*
X141660619Y-130278285D01*
X141613000Y-130230666D01*
X141565380Y-130135428D01*
%TO.C,C29*%
X156567142Y-130690857D02*
X156614761Y-130738476D01*
X156662380Y-130881333D01*
X156662380Y-130976571D01*
X156614761Y-131119428D01*
X156519523Y-131214666D01*
X156424285Y-131262285D01*
X156233809Y-131309904D01*
X156090952Y-131309904D01*
X155900476Y-131262285D01*
X155805238Y-131214666D01*
X155710000Y-131119428D01*
X155662380Y-130976571D01*
X155662380Y-130881333D01*
X155710000Y-130738476D01*
X155757619Y-130690857D01*
X155757619Y-130309904D02*
X155710000Y-130262285D01*
X155662380Y-130167047D01*
X155662380Y-129928952D01*
X155710000Y-129833714D01*
X155757619Y-129786095D01*
X155852857Y-129738476D01*
X155948095Y-129738476D01*
X156090952Y-129786095D01*
X156662380Y-130357523D01*
X156662380Y-129738476D01*
X156662380Y-129262285D02*
X156662380Y-129071809D01*
X156614761Y-128976571D01*
X156567142Y-128928952D01*
X156424285Y-128833714D01*
X156233809Y-128786095D01*
X155852857Y-128786095D01*
X155757619Y-128833714D01*
X155710000Y-128881333D01*
X155662380Y-128976571D01*
X155662380Y-129167047D01*
X155710000Y-129262285D01*
X155757619Y-129309904D01*
X155852857Y-129357523D01*
X156090952Y-129357523D01*
X156186190Y-129309904D01*
X156233809Y-129262285D01*
X156281428Y-129167047D01*
X156281428Y-128976571D01*
X156233809Y-128881333D01*
X156186190Y-128833714D01*
X156090952Y-128786095D01*
%TO.C,C28*%
X135882142Y-136755142D02*
X135834523Y-136802761D01*
X135691666Y-136850380D01*
X135596428Y-136850380D01*
X135453571Y-136802761D01*
X135358333Y-136707523D01*
X135310714Y-136612285D01*
X135263095Y-136421809D01*
X135263095Y-136278952D01*
X135310714Y-136088476D01*
X135358333Y-135993238D01*
X135453571Y-135898000D01*
X135596428Y-135850380D01*
X135691666Y-135850380D01*
X135834523Y-135898000D01*
X135882142Y-135945619D01*
X136263095Y-135945619D02*
X136310714Y-135898000D01*
X136405952Y-135850380D01*
X136644047Y-135850380D01*
X136739285Y-135898000D01*
X136786904Y-135945619D01*
X136834523Y-136040857D01*
X136834523Y-136136095D01*
X136786904Y-136278952D01*
X136215476Y-136850380D01*
X136834523Y-136850380D01*
X137405952Y-136278952D02*
X137310714Y-136231333D01*
X137263095Y-136183714D01*
X137215476Y-136088476D01*
X137215476Y-136040857D01*
X137263095Y-135945619D01*
X137310714Y-135898000D01*
X137405952Y-135850380D01*
X137596428Y-135850380D01*
X137691666Y-135898000D01*
X137739285Y-135945619D01*
X137786904Y-136040857D01*
X137786904Y-136088476D01*
X137739285Y-136183714D01*
X137691666Y-136231333D01*
X137596428Y-136278952D01*
X137405952Y-136278952D01*
X137310714Y-136326571D01*
X137263095Y-136374190D01*
X137215476Y-136469428D01*
X137215476Y-136659904D01*
X137263095Y-136755142D01*
X137310714Y-136802761D01*
X137405952Y-136850380D01*
X137596428Y-136850380D01*
X137691666Y-136802761D01*
X137739285Y-136755142D01*
X137786904Y-136659904D01*
X137786904Y-136469428D01*
X137739285Y-136374190D01*
X137691666Y-136326571D01*
X137596428Y-136278952D01*
%TO.C,C27*%
X149979142Y-135739142D02*
X149931523Y-135786761D01*
X149788666Y-135834380D01*
X149693428Y-135834380D01*
X149550571Y-135786761D01*
X149455333Y-135691523D01*
X149407714Y-135596285D01*
X149360095Y-135405809D01*
X149360095Y-135262952D01*
X149407714Y-135072476D01*
X149455333Y-134977238D01*
X149550571Y-134882000D01*
X149693428Y-134834380D01*
X149788666Y-134834380D01*
X149931523Y-134882000D01*
X149979142Y-134929619D01*
X150360095Y-134929619D02*
X150407714Y-134882000D01*
X150502952Y-134834380D01*
X150741047Y-134834380D01*
X150836285Y-134882000D01*
X150883904Y-134929619D01*
X150931523Y-135024857D01*
X150931523Y-135120095D01*
X150883904Y-135262952D01*
X150312476Y-135834380D01*
X150931523Y-135834380D01*
X151264857Y-134834380D02*
X151931523Y-134834380D01*
X151502952Y-135834380D01*
%TO.C,C26*%
X141962142Y-79523857D02*
X142009761Y-79571476D01*
X142057380Y-79714333D01*
X142057380Y-79809571D01*
X142009761Y-79952428D01*
X141914523Y-80047666D01*
X141819285Y-80095285D01*
X141628809Y-80142904D01*
X141485952Y-80142904D01*
X141295476Y-80095285D01*
X141200238Y-80047666D01*
X141105000Y-79952428D01*
X141057380Y-79809571D01*
X141057380Y-79714333D01*
X141105000Y-79571476D01*
X141152619Y-79523857D01*
X141152619Y-79142904D02*
X141105000Y-79095285D01*
X141057380Y-79000047D01*
X141057380Y-78761952D01*
X141105000Y-78666714D01*
X141152619Y-78619095D01*
X141247857Y-78571476D01*
X141343095Y-78571476D01*
X141485952Y-78619095D01*
X142057380Y-79190523D01*
X142057380Y-78571476D01*
X141057380Y-77714333D02*
X141057380Y-77904809D01*
X141105000Y-78000047D01*
X141152619Y-78047666D01*
X141295476Y-78142904D01*
X141485952Y-78190523D01*
X141866904Y-78190523D01*
X141962142Y-78142904D01*
X142009761Y-78095285D01*
X142057380Y-78000047D01*
X142057380Y-77809571D01*
X142009761Y-77714333D01*
X141962142Y-77666714D01*
X141866904Y-77619095D01*
X141628809Y-77619095D01*
X141533571Y-77666714D01*
X141485952Y-77714333D01*
X141438333Y-77809571D01*
X141438333Y-78000047D01*
X141485952Y-78095285D01*
X141533571Y-78142904D01*
X141628809Y-78190523D01*
%TO.C,C25*%
X138309142Y-80367142D02*
X138261523Y-80414761D01*
X138118666Y-80462380D01*
X138023428Y-80462380D01*
X137880571Y-80414761D01*
X137785333Y-80319523D01*
X137737714Y-80224285D01*
X137690095Y-80033809D01*
X137690095Y-79890952D01*
X137737714Y-79700476D01*
X137785333Y-79605238D01*
X137880571Y-79510000D01*
X138023428Y-79462380D01*
X138118666Y-79462380D01*
X138261523Y-79510000D01*
X138309142Y-79557619D01*
X138690095Y-79557619D02*
X138737714Y-79510000D01*
X138832952Y-79462380D01*
X139071047Y-79462380D01*
X139166285Y-79510000D01*
X139213904Y-79557619D01*
X139261523Y-79652857D01*
X139261523Y-79748095D01*
X139213904Y-79890952D01*
X138642476Y-80462380D01*
X139261523Y-80462380D01*
X140166285Y-79462380D02*
X139690095Y-79462380D01*
X139642476Y-79938571D01*
X139690095Y-79890952D01*
X139785333Y-79843333D01*
X140023428Y-79843333D01*
X140118666Y-79890952D01*
X140166285Y-79938571D01*
X140213904Y-80033809D01*
X140213904Y-80271904D01*
X140166285Y-80367142D01*
X140118666Y-80414761D01*
X140023428Y-80462380D01*
X139785333Y-80462380D01*
X139690095Y-80414761D01*
X139642476Y-80367142D01*
%TO.C,C24*%
X134104142Y-79478142D02*
X134056523Y-79525761D01*
X133913666Y-79573380D01*
X133818428Y-79573380D01*
X133675571Y-79525761D01*
X133580333Y-79430523D01*
X133532714Y-79335285D01*
X133485095Y-79144809D01*
X133485095Y-79001952D01*
X133532714Y-78811476D01*
X133580333Y-78716238D01*
X133675571Y-78621000D01*
X133818428Y-78573380D01*
X133913666Y-78573380D01*
X134056523Y-78621000D01*
X134104142Y-78668619D01*
X134485095Y-78668619D02*
X134532714Y-78621000D01*
X134627952Y-78573380D01*
X134866047Y-78573380D01*
X134961285Y-78621000D01*
X135008904Y-78668619D01*
X135056523Y-78763857D01*
X135056523Y-78859095D01*
X135008904Y-79001952D01*
X134437476Y-79573380D01*
X135056523Y-79573380D01*
X135913666Y-78906714D02*
X135913666Y-79573380D01*
X135675571Y-78525761D02*
X135437476Y-79240047D01*
X136056523Y-79240047D01*
%TO.C,C23*%
X142089142Y-72905857D02*
X142136761Y-72953476D01*
X142184380Y-73096333D01*
X142184380Y-73191571D01*
X142136761Y-73334428D01*
X142041523Y-73429666D01*
X141946285Y-73477285D01*
X141755809Y-73524904D01*
X141612952Y-73524904D01*
X141422476Y-73477285D01*
X141327238Y-73429666D01*
X141232000Y-73334428D01*
X141184380Y-73191571D01*
X141184380Y-73096333D01*
X141232000Y-72953476D01*
X141279619Y-72905857D01*
X141279619Y-72524904D02*
X141232000Y-72477285D01*
X141184380Y-72382047D01*
X141184380Y-72143952D01*
X141232000Y-72048714D01*
X141279619Y-72001095D01*
X141374857Y-71953476D01*
X141470095Y-71953476D01*
X141612952Y-72001095D01*
X142184380Y-72572523D01*
X142184380Y-71953476D01*
X141184380Y-71620142D02*
X141184380Y-71001095D01*
X141565333Y-71334428D01*
X141565333Y-71191571D01*
X141612952Y-71096333D01*
X141660571Y-71048714D01*
X141755809Y-71001095D01*
X141993904Y-71001095D01*
X142089142Y-71048714D01*
X142136761Y-71096333D01*
X142184380Y-71191571D01*
X142184380Y-71477285D01*
X142136761Y-71572523D01*
X142089142Y-71620142D01*
%TO.C,C22*%
X138168142Y-62587142D02*
X138120523Y-62634761D01*
X137977666Y-62682380D01*
X137882428Y-62682380D01*
X137739571Y-62634761D01*
X137644333Y-62539523D01*
X137596714Y-62444285D01*
X137549095Y-62253809D01*
X137549095Y-62110952D01*
X137596714Y-61920476D01*
X137644333Y-61825238D01*
X137739571Y-61730000D01*
X137882428Y-61682380D01*
X137977666Y-61682380D01*
X138120523Y-61730000D01*
X138168142Y-61777619D01*
X138549095Y-61777619D02*
X138596714Y-61730000D01*
X138691952Y-61682380D01*
X138930047Y-61682380D01*
X139025285Y-61730000D01*
X139072904Y-61777619D01*
X139120523Y-61872857D01*
X139120523Y-61968095D01*
X139072904Y-62110952D01*
X138501476Y-62682380D01*
X139120523Y-62682380D01*
X139501476Y-61777619D02*
X139549095Y-61730000D01*
X139644333Y-61682380D01*
X139882428Y-61682380D01*
X139977666Y-61730000D01*
X140025285Y-61777619D01*
X140072904Y-61872857D01*
X140072904Y-61968095D01*
X140025285Y-62110952D01*
X139453857Y-62682380D01*
X140072904Y-62682380D01*
%TO.C,C21*%
X141470142Y-138787142D02*
X141422523Y-138834761D01*
X141279666Y-138882380D01*
X141184428Y-138882380D01*
X141041571Y-138834761D01*
X140946333Y-138739523D01*
X140898714Y-138644285D01*
X140851095Y-138453809D01*
X140851095Y-138310952D01*
X140898714Y-138120476D01*
X140946333Y-138025238D01*
X141041571Y-137930000D01*
X141184428Y-137882380D01*
X141279666Y-137882380D01*
X141422523Y-137930000D01*
X141470142Y-137977619D01*
X141851095Y-137977619D02*
X141898714Y-137930000D01*
X141993952Y-137882380D01*
X142232047Y-137882380D01*
X142327285Y-137930000D01*
X142374904Y-137977619D01*
X142422523Y-138072857D01*
X142422523Y-138168095D01*
X142374904Y-138310952D01*
X141803476Y-138882380D01*
X142422523Y-138882380D01*
X143374904Y-138882380D02*
X142803476Y-138882380D01*
X143089190Y-138882380D02*
X143089190Y-137882380D01*
X142993952Y-138025238D01*
X142898714Y-138120476D01*
X142803476Y-138168095D01*
%TO.C,C19*%
X145153142Y-145772142D02*
X145105523Y-145819761D01*
X144962666Y-145867380D01*
X144867428Y-145867380D01*
X144724571Y-145819761D01*
X144629333Y-145724523D01*
X144581714Y-145629285D01*
X144534095Y-145438809D01*
X144534095Y-145295952D01*
X144581714Y-145105476D01*
X144629333Y-145010238D01*
X144724571Y-144915000D01*
X144867428Y-144867380D01*
X144962666Y-144867380D01*
X145105523Y-144915000D01*
X145153142Y-144962619D01*
X146105523Y-145867380D02*
X145534095Y-145867380D01*
X145819809Y-145867380D02*
X145819809Y-144867380D01*
X145724571Y-145010238D01*
X145629333Y-145105476D01*
X145534095Y-145153095D01*
X146581714Y-145867380D02*
X146772190Y-145867380D01*
X146867428Y-145819761D01*
X146915047Y-145772142D01*
X147010285Y-145629285D01*
X147057904Y-145438809D01*
X147057904Y-145057857D01*
X147010285Y-144962619D01*
X146962666Y-144915000D01*
X146867428Y-144867380D01*
X146676952Y-144867380D01*
X146581714Y-144915000D01*
X146534095Y-144962619D01*
X146486476Y-145057857D01*
X146486476Y-145295952D01*
X146534095Y-145391190D01*
X146581714Y-145438809D01*
X146676952Y-145486428D01*
X146867428Y-145486428D01*
X146962666Y-145438809D01*
X147010285Y-145391190D01*
X147057904Y-145295952D01*
%TO.C,C16*%
X144137142Y-79224142D02*
X144089523Y-79271761D01*
X143946666Y-79319380D01*
X143851428Y-79319380D01*
X143708571Y-79271761D01*
X143613333Y-79176523D01*
X143565714Y-79081285D01*
X143518095Y-78890809D01*
X143518095Y-78747952D01*
X143565714Y-78557476D01*
X143613333Y-78462238D01*
X143708571Y-78367000D01*
X143851428Y-78319380D01*
X143946666Y-78319380D01*
X144089523Y-78367000D01*
X144137142Y-78414619D01*
X145089523Y-79319380D02*
X144518095Y-79319380D01*
X144803809Y-79319380D02*
X144803809Y-78319380D01*
X144708571Y-78462238D01*
X144613333Y-78557476D01*
X144518095Y-78605095D01*
X145946666Y-78319380D02*
X145756190Y-78319380D01*
X145660952Y-78367000D01*
X145613333Y-78414619D01*
X145518095Y-78557476D01*
X145470476Y-78747952D01*
X145470476Y-79128904D01*
X145518095Y-79224142D01*
X145565714Y-79271761D01*
X145660952Y-79319380D01*
X145851428Y-79319380D01*
X145946666Y-79271761D01*
X145994285Y-79224142D01*
X146041904Y-79128904D01*
X146041904Y-78890809D01*
X145994285Y-78795571D01*
X145946666Y-78747952D01*
X145851428Y-78700333D01*
X145660952Y-78700333D01*
X145565714Y-78747952D01*
X145518095Y-78795571D01*
X145470476Y-78890809D01*
%TO.C,C11*%
X124833142Y-71604142D02*
X124785523Y-71651761D01*
X124642666Y-71699380D01*
X124547428Y-71699380D01*
X124404571Y-71651761D01*
X124309333Y-71556523D01*
X124261714Y-71461285D01*
X124214095Y-71270809D01*
X124214095Y-71127952D01*
X124261714Y-70937476D01*
X124309333Y-70842238D01*
X124404571Y-70747000D01*
X124547428Y-70699380D01*
X124642666Y-70699380D01*
X124785523Y-70747000D01*
X124833142Y-70794619D01*
X125785523Y-71699380D02*
X125214095Y-71699380D01*
X125499809Y-71699380D02*
X125499809Y-70699380D01*
X125404571Y-70842238D01*
X125309333Y-70937476D01*
X125214095Y-70985095D01*
X126737904Y-71699380D02*
X126166476Y-71699380D01*
X126452190Y-71699380D02*
X126452190Y-70699380D01*
X126356952Y-70842238D01*
X126261714Y-70937476D01*
X126166476Y-70985095D01*
%TO.C,C10*%
X121277142Y-61190142D02*
X121229523Y-61237761D01*
X121086666Y-61285380D01*
X120991428Y-61285380D01*
X120848571Y-61237761D01*
X120753333Y-61142523D01*
X120705714Y-61047285D01*
X120658095Y-60856809D01*
X120658095Y-60713952D01*
X120705714Y-60523476D01*
X120753333Y-60428238D01*
X120848571Y-60333000D01*
X120991428Y-60285380D01*
X121086666Y-60285380D01*
X121229523Y-60333000D01*
X121277142Y-60380619D01*
X122229523Y-61285380D02*
X121658095Y-61285380D01*
X121943809Y-61285380D02*
X121943809Y-60285380D01*
X121848571Y-60428238D01*
X121753333Y-60523476D01*
X121658095Y-60571095D01*
X122848571Y-60285380D02*
X122943809Y-60285380D01*
X123039047Y-60333000D01*
X123086666Y-60380619D01*
X123134285Y-60475857D01*
X123181904Y-60666333D01*
X123181904Y-60904428D01*
X123134285Y-61094904D01*
X123086666Y-61190142D01*
X123039047Y-61237761D01*
X122943809Y-61285380D01*
X122848571Y-61285380D01*
X122753333Y-61237761D01*
X122705714Y-61190142D01*
X122658095Y-61094904D01*
X122610476Y-60904428D01*
X122610476Y-60666333D01*
X122658095Y-60475857D01*
X122705714Y-60380619D01*
X122753333Y-60333000D01*
X122848571Y-60285380D01*
%TO.C,C9*%
X130389333Y-71604142D02*
X130341714Y-71651761D01*
X130198857Y-71699380D01*
X130103619Y-71699380D01*
X129960761Y-71651761D01*
X129865523Y-71556523D01*
X129817904Y-71461285D01*
X129770285Y-71270809D01*
X129770285Y-71127952D01*
X129817904Y-70937476D01*
X129865523Y-70842238D01*
X129960761Y-70747000D01*
X130103619Y-70699380D01*
X130198857Y-70699380D01*
X130341714Y-70747000D01*
X130389333Y-70794619D01*
X130865523Y-71699380D02*
X131056000Y-71699380D01*
X131151238Y-71651761D01*
X131198857Y-71604142D01*
X131294095Y-71461285D01*
X131341714Y-71270809D01*
X131341714Y-70889857D01*
X131294095Y-70794619D01*
X131246476Y-70747000D01*
X131151238Y-70699380D01*
X130960761Y-70699380D01*
X130865523Y-70747000D01*
X130817904Y-70794619D01*
X130770285Y-70889857D01*
X130770285Y-71127952D01*
X130817904Y-71223190D01*
X130865523Y-71270809D01*
X130960761Y-71318428D01*
X131151238Y-71318428D01*
X131246476Y-71270809D01*
X131294095Y-71223190D01*
X131341714Y-71127952D01*
%TO.C,C8*%
X135088333Y-61063142D02*
X135040714Y-61110761D01*
X134897857Y-61158380D01*
X134802619Y-61158380D01*
X134659761Y-61110761D01*
X134564523Y-61015523D01*
X134516904Y-60920285D01*
X134469285Y-60729809D01*
X134469285Y-60586952D01*
X134516904Y-60396476D01*
X134564523Y-60301238D01*
X134659761Y-60206000D01*
X134802619Y-60158380D01*
X134897857Y-60158380D01*
X135040714Y-60206000D01*
X135088333Y-60253619D01*
X135659761Y-60586952D02*
X135564523Y-60539333D01*
X135516904Y-60491714D01*
X135469285Y-60396476D01*
X135469285Y-60348857D01*
X135516904Y-60253619D01*
X135564523Y-60206000D01*
X135659761Y-60158380D01*
X135850238Y-60158380D01*
X135945476Y-60206000D01*
X135993095Y-60253619D01*
X136040714Y-60348857D01*
X136040714Y-60396476D01*
X135993095Y-60491714D01*
X135945476Y-60539333D01*
X135850238Y-60586952D01*
X135659761Y-60586952D01*
X135564523Y-60634571D01*
X135516904Y-60682190D01*
X135469285Y-60777428D01*
X135469285Y-60967904D01*
X135516904Y-61063142D01*
X135564523Y-61110761D01*
X135659761Y-61158380D01*
X135850238Y-61158380D01*
X135945476Y-61110761D01*
X135993095Y-61063142D01*
X136040714Y-60967904D01*
X136040714Y-60777428D01*
X135993095Y-60682190D01*
X135945476Y-60634571D01*
X135850238Y-60586952D01*
%TO.C,C7*%
X132548333Y-49887142D02*
X132500714Y-49934761D01*
X132357857Y-49982380D01*
X132262619Y-49982380D01*
X132119761Y-49934761D01*
X132024523Y-49839523D01*
X131976904Y-49744285D01*
X131929285Y-49553809D01*
X131929285Y-49410952D01*
X131976904Y-49220476D01*
X132024523Y-49125238D01*
X132119761Y-49030000D01*
X132262619Y-48982380D01*
X132357857Y-48982380D01*
X132500714Y-49030000D01*
X132548333Y-49077619D01*
X132881666Y-48982380D02*
X133548333Y-48982380D01*
X133119761Y-49982380D01*
%TO.C,C6*%
X156092142Y-56046666D02*
X156139761Y-56094285D01*
X156187380Y-56237142D01*
X156187380Y-56332380D01*
X156139761Y-56475238D01*
X156044523Y-56570476D01*
X155949285Y-56618095D01*
X155758809Y-56665714D01*
X155615952Y-56665714D01*
X155425476Y-56618095D01*
X155330238Y-56570476D01*
X155235000Y-56475238D01*
X155187380Y-56332380D01*
X155187380Y-56237142D01*
X155235000Y-56094285D01*
X155282619Y-56046666D01*
X155187380Y-55189523D02*
X155187380Y-55380000D01*
X155235000Y-55475238D01*
X155282619Y-55522857D01*
X155425476Y-55618095D01*
X155615952Y-55665714D01*
X155996904Y-55665714D01*
X156092142Y-55618095D01*
X156139761Y-55570476D01*
X156187380Y-55475238D01*
X156187380Y-55284761D01*
X156139761Y-55189523D01*
X156092142Y-55141904D01*
X155996904Y-55094285D01*
X155758809Y-55094285D01*
X155663571Y-55141904D01*
X155615952Y-55189523D01*
X155568333Y-55284761D01*
X155568333Y-55475238D01*
X155615952Y-55570476D01*
X155663571Y-55618095D01*
X155758809Y-55665714D01*
%TO.C,C5*%
X157313333Y-58777142D02*
X157265714Y-58824761D01*
X157122857Y-58872380D01*
X157027619Y-58872380D01*
X156884761Y-58824761D01*
X156789523Y-58729523D01*
X156741904Y-58634285D01*
X156694285Y-58443809D01*
X156694285Y-58300952D01*
X156741904Y-58110476D01*
X156789523Y-58015238D01*
X156884761Y-57920000D01*
X157027619Y-57872380D01*
X157122857Y-57872380D01*
X157265714Y-57920000D01*
X157313333Y-57967619D01*
X158218095Y-57872380D02*
X157741904Y-57872380D01*
X157694285Y-58348571D01*
X157741904Y-58300952D01*
X157837142Y-58253333D01*
X158075238Y-58253333D01*
X158170476Y-58300952D01*
X158218095Y-58348571D01*
X158265714Y-58443809D01*
X158265714Y-58681904D01*
X158218095Y-58777142D01*
X158170476Y-58824761D01*
X158075238Y-58872380D01*
X157837142Y-58872380D01*
X157741904Y-58824761D01*
X157694285Y-58777142D01*
%TO.C,C4*%
X127484142Y-56300666D02*
X127531761Y-56348285D01*
X127579380Y-56491142D01*
X127579380Y-56586380D01*
X127531761Y-56729238D01*
X127436523Y-56824476D01*
X127341285Y-56872095D01*
X127150809Y-56919714D01*
X127007952Y-56919714D01*
X126817476Y-56872095D01*
X126722238Y-56824476D01*
X126627000Y-56729238D01*
X126579380Y-56586380D01*
X126579380Y-56491142D01*
X126627000Y-56348285D01*
X126674619Y-56300666D01*
X126912714Y-55443523D02*
X127579380Y-55443523D01*
X126531761Y-55681619D02*
X127246047Y-55919714D01*
X127246047Y-55300666D01*
%TO.C,C3*%
X142708333Y-49887142D02*
X142660714Y-49934761D01*
X142517857Y-49982380D01*
X142422619Y-49982380D01*
X142279761Y-49934761D01*
X142184523Y-49839523D01*
X142136904Y-49744285D01*
X142089285Y-49553809D01*
X142089285Y-49410952D01*
X142136904Y-49220476D01*
X142184523Y-49125238D01*
X142279761Y-49030000D01*
X142422619Y-48982380D01*
X142517857Y-48982380D01*
X142660714Y-49030000D01*
X142708333Y-49077619D01*
X143041666Y-48982380D02*
X143660714Y-48982380D01*
X143327380Y-49363333D01*
X143470238Y-49363333D01*
X143565476Y-49410952D01*
X143613095Y-49458571D01*
X143660714Y-49553809D01*
X143660714Y-49791904D01*
X143613095Y-49887142D01*
X143565476Y-49934761D01*
X143470238Y-49982380D01*
X143184523Y-49982380D01*
X143089285Y-49934761D01*
X143041666Y-49887142D01*
%TO.C,C2*%
X153392142Y-52236666D02*
X153439761Y-52284285D01*
X153487380Y-52427142D01*
X153487380Y-52522380D01*
X153439761Y-52665238D01*
X153344523Y-52760476D01*
X153249285Y-52808095D01*
X153058809Y-52855714D01*
X152915952Y-52855714D01*
X152725476Y-52808095D01*
X152630238Y-52760476D01*
X152535000Y-52665238D01*
X152487380Y-52522380D01*
X152487380Y-52427142D01*
X152535000Y-52284285D01*
X152582619Y-52236666D01*
X152582619Y-51855714D02*
X152535000Y-51808095D01*
X152487380Y-51712857D01*
X152487380Y-51474761D01*
X152535000Y-51379523D01*
X152582619Y-51331904D01*
X152677857Y-51284285D01*
X152773095Y-51284285D01*
X152915952Y-51331904D01*
X153487380Y-51903333D01*
X153487380Y-51284285D01*
%TO.C,C1*%
X157313333Y-49887142D02*
X157265714Y-49934761D01*
X157122857Y-49982380D01*
X157027619Y-49982380D01*
X156884761Y-49934761D01*
X156789523Y-49839523D01*
X156741904Y-49744285D01*
X156694285Y-49553809D01*
X156694285Y-49410952D01*
X156741904Y-49220476D01*
X156789523Y-49125238D01*
X156884761Y-49030000D01*
X157027619Y-48982380D01*
X157122857Y-48982380D01*
X157265714Y-49030000D01*
X157313333Y-49077619D01*
X158265714Y-49982380D02*
X157694285Y-49982380D01*
X157980000Y-49982380D02*
X157980000Y-48982380D01*
X157884761Y-49125238D01*
X157789523Y-49220476D01*
X157694285Y-49268095D01*
%TO.C,C43*%
X156186142Y-125737857D02*
X156233761Y-125785476D01*
X156281380Y-125928333D01*
X156281380Y-126023571D01*
X156233761Y-126166428D01*
X156138523Y-126261666D01*
X156043285Y-126309285D01*
X155852809Y-126356904D01*
X155709952Y-126356904D01*
X155519476Y-126309285D01*
X155424238Y-126261666D01*
X155329000Y-126166428D01*
X155281380Y-126023571D01*
X155281380Y-125928333D01*
X155329000Y-125785476D01*
X155376619Y-125737857D01*
X155614714Y-124880714D02*
X156281380Y-124880714D01*
X155233761Y-125118809D02*
X155948047Y-125356904D01*
X155948047Y-124737857D01*
X155281380Y-124452142D02*
X155281380Y-123833095D01*
X155662333Y-124166428D01*
X155662333Y-124023571D01*
X155709952Y-123928333D01*
X155757571Y-123880714D01*
X155852809Y-123833095D01*
X156090904Y-123833095D01*
X156186142Y-123880714D01*
X156233761Y-123928333D01*
X156281380Y-124023571D01*
X156281380Y-124309285D01*
X156233761Y-124404523D01*
X156186142Y-124452142D01*
%TO.C,NT1*%
X123825142Y-83510380D02*
X123825142Y-82510380D01*
X124396571Y-83510380D01*
X124396571Y-82510380D01*
X124729904Y-82510380D02*
X125301333Y-82510380D01*
X125015619Y-83510380D02*
X125015619Y-82510380D01*
X126158476Y-83510380D02*
X125587047Y-83510380D01*
X125872761Y-83510380D02*
X125872761Y-82510380D01*
X125777523Y-82653238D01*
X125682285Y-82748476D01*
X125587047Y-82796095D01*
%TD*%
M02*
