%TF.GenerationSoftware,KiCad,Pcbnew,5.1.6-c6e7f7d~87~ubuntu18.04.1*%
%TF.CreationDate,2020-10-10T13:50:58+08:00*%
%TF.ProjectId,Arduino_codec,41726475-696e-46f5-9f63-6f6465632e6b,A*%
%TF.SameCoordinates,Original*%
%TF.FileFunction,Copper,L3,Inr*%
%TF.FilePolarity,Positive*%
%FSLAX46Y46*%
G04 Gerber Fmt 4.6, Leading zero omitted, Abs format (unit mm)*
G04 Created by KiCad (PCBNEW 5.1.6-c6e7f7d~87~ubuntu18.04.1) date 2020-10-10 13:50:58*
%MOMM*%
%LPD*%
G01*
G04 APERTURE LIST*
%TA.AperFunction,ViaPad*%
%ADD10R,2.200000X2.200000*%
%TD*%
%TA.AperFunction,ViaPad*%
%ADD11C,2.200000*%
%TD*%
%TA.AperFunction,ViaPad*%
%ADD12O,1.700000X1.700000*%
%TD*%
%TA.AperFunction,ViaPad*%
%ADD13R,1.700000X1.700000*%
%TD*%
%TA.AperFunction,ViaPad*%
%ADD14C,0.800000*%
%TD*%
%TA.AperFunction,Conductor*%
%ADD15C,0.762000*%
%TD*%
%TA.AperFunction,Conductor*%
%ADD16C,0.508000*%
%TD*%
%TA.AperFunction,Conductor*%
%ADD17C,0.254000*%
%TD*%
%TA.AperFunction,Conductor*%
%ADD18C,0.250000*%
%TD*%
G04 APERTURE END LIST*
D10*
%TO.N,Net-(C40-Pad2)*%
%TO.C,J10*%
X119380000Y-142240000D03*
D11*
%TO.N,AGND*%
X121920000Y-142240000D03*
%TD*%
D10*
%TO.N,Net-(C39-Pad2)*%
%TO.C,J9*%
X127000000Y-142240000D03*
D11*
%TO.N,AGND*%
X129540000Y-142240000D03*
%TD*%
D10*
%TO.N,/Vout_R*%
%TO.C,J8*%
X157480000Y-142240000D03*
D11*
%TO.N,AGND*%
X160020000Y-142240000D03*
%TD*%
D10*
%TO.N,/Vout_L*%
%TO.C,J7*%
X165100000Y-142240000D03*
D11*
%TO.N,AGND*%
X167640000Y-142240000D03*
%TD*%
D12*
%TO.N,/PB11*%
%TO.C,J6*%
X167640000Y-132080000D03*
%TO.N,Net-(J6-Pad33)*%
X165100000Y-132080000D03*
%TO.N,/ADC_BCK*%
X167640000Y-129540000D03*
%TO.N,Net-(J6-Pad31)*%
X165100000Y-129540000D03*
%TO.N,/PE15*%
X167640000Y-127000000D03*
%TO.N,Net-(J6-Pad29)*%
X165100000Y-127000000D03*
%TO.N,/PE14*%
X167640000Y-124460000D03*
%TO.N,GND*%
X165100000Y-124460000D03*
%TO.N,/PE12*%
X167640000Y-121920000D03*
%TO.N,Net-(J6-Pad25)*%
X165100000Y-121920000D03*
%TO.N,/PE10*%
X167640000Y-119380000D03*
%TO.N,/~DAC_RST*%
X165100000Y-119380000D03*
%TO.N,GND*%
X167640000Y-116840000D03*
%TO.N,Net-(J6-Pad21)*%
X165100000Y-116840000D03*
%TO.N,/PE7*%
X167640000Y-114300000D03*
%TO.N,/MUTE*%
X165100000Y-114300000D03*
%TO.N,/PE8*%
X167640000Y-111760000D03*
%TO.N,GND*%
X165100000Y-111760000D03*
%TO.N,/PG9*%
X167640000Y-109220000D03*
%TO.N,/DEMP0*%
X165100000Y-109220000D03*
%TO.N,/PG14*%
X167640000Y-106680000D03*
%TO.N,/DEMP1*%
X165100000Y-106680000D03*
%TO.N,/PF15*%
X167640000Y-104140000D03*
%TO.N,/DAC_FMT0*%
X165100000Y-104140000D03*
%TO.N,/PE13*%
X167640000Y-101600000D03*
%TO.N,/DAC_FMT1*%
X165100000Y-101600000D03*
%TO.N,/PF14*%
X167640000Y-99060000D03*
%TO.N,/DAC_FMT2*%
X165100000Y-99060000D03*
%TO.N,/PE11*%
X167640000Y-96520000D03*
%TO.N,GND*%
X165100000Y-96520000D03*
%TO.N,/PE9*%
X167640000Y-93980000D03*
%TO.N,GND*%
X165100000Y-93980000D03*
%TO.N,/PF13*%
X167640000Y-91440000D03*
D13*
%TO.N,Net-(J6-Pad1)*%
X165100000Y-91440000D03*
%TD*%
D12*
%TO.N,/PG1*%
%TO.C,J5*%
X121920000Y-132080000D03*
%TO.N,/PG0*%
X119380000Y-132080000D03*
%TO.N,/PF9*%
X121920000Y-129540000D03*
%TO.N,/PD1*%
X119380000Y-129540000D03*
%TO.N,/PF7*%
X121920000Y-127000000D03*
%TO.N,/PD0*%
X119380000Y-127000000D03*
%TO.N,/PF8*%
X121920000Y-124460000D03*
%TO.N,GND*%
X119380000Y-124460000D03*
%TO.N,/PE3*%
X121920000Y-121920000D03*
%TO.N,/PF0*%
X119380000Y-121920000D03*
%TO.N,/PE6*%
X121920000Y-119380000D03*
%TO.N,/PF1*%
X119380000Y-119380000D03*
%TO.N,/FSYNC*%
X121920000Y-116840000D03*
%TO.N,/PF2*%
X119380000Y-116840000D03*
%TO.N,/~ADC_PWDN*%
X121920000Y-114300000D03*
%TO.N,Net-(J5-Pad15)*%
X119380000Y-114300000D03*
%TO.N,/OSR*%
X121920000Y-111760000D03*
%TO.N,Net-(J5-Pad13)*%
X119380000Y-111760000D03*
%TO.N,GND*%
X121920000Y-109220000D03*
%TO.N,/PF10*%
X119380000Y-109220000D03*
%TO.N,/BYPAS*%
X121920000Y-106680000D03*
%TO.N,/PF5*%
X119380000Y-106680000D03*
%TO.N,/MODE1*%
X121920000Y-104140000D03*
%TO.N,/PF3*%
X119380000Y-104140000D03*
%TO.N,/MODE0*%
X121920000Y-101600000D03*
%TO.N,/PC3*%
X119380000Y-101600000D03*
%TO.N,/ADC_FMT1*%
X121920000Y-99060000D03*
%TO.N,/PC0*%
X119380000Y-99060000D03*
%TO.N,/ADC_FMT0*%
X121920000Y-96520000D03*
D13*
%TO.N,/PA3*%
X119380000Y-96520000D03*
%TD*%
D12*
%TO.N,/PF12*%
%TO.C,J4*%
X167640000Y-87630000D03*
%TO.N,/PB4*%
X165100000Y-87630000D03*
%TO.N,/PD15*%
X167640000Y-85090000D03*
%TO.N,/PA4*%
X165100000Y-85090000D03*
%TO.N,/PD14*%
X167640000Y-82550000D03*
%TO.N,/DAC_BCK*%
X165100000Y-82550000D03*
%TO.N,/PA7*%
X167640000Y-80010000D03*
%TO.N,/DAC_SD*%
X165100000Y-80010000D03*
%TO.N,/PA6*%
X167640000Y-77470000D03*
%TO.N,/DAC_MCK*%
X165100000Y-77470000D03*
%TO.N,/PA5*%
X167640000Y-74930000D03*
%TO.N,/DAC_WS*%
X165100000Y-74930000D03*
%TO.N,GND*%
X167640000Y-72390000D03*
%TO.N,/ADC_WS*%
X165100000Y-72390000D03*
%TO.N,Net-(J4-Pad6)*%
X167640000Y-69850000D03*
%TO.N,/PB13*%
X165100000Y-69850000D03*
%TO.N,/PB9*%
X167640000Y-67310000D03*
%TO.N,/ADC_SD*%
X165100000Y-67310000D03*
%TO.N,/PB8*%
X167640000Y-64770000D03*
D13*
%TO.N,/ADC_MCK*%
X165100000Y-64770000D03*
%TD*%
D12*
%TO.N,/PG3*%
%TO.C,J3*%
X121920000Y-91440000D03*
%TO.N,Net-(J3-Pad15)*%
X119380000Y-91440000D03*
%TO.N,/PG2*%
X121920000Y-88900000D03*
%TO.N,GND*%
X119380000Y-88900000D03*
%TO.N,/PD2*%
X121920000Y-86360000D03*
%TO.N,GND*%
X119380000Y-86360000D03*
%TO.N,/PC12*%
X121920000Y-83820000D03*
%TO.N,+5VD*%
X119380000Y-83820000D03*
%TO.N,/PC11*%
X121920000Y-81280000D03*
%TO.N,+3V3*%
X119380000Y-81280000D03*
%TO.N,/PC10*%
X121920000Y-78740000D03*
%TO.N,Net-(J3-Pad5)*%
X119380000Y-78740000D03*
%TO.N,/PC9*%
X121920000Y-76200000D03*
%TO.N,/IOREF*%
X119380000Y-76200000D03*
%TO.N,/PC8*%
X121920000Y-73660000D03*
D13*
%TO.N,Net-(J3-Pad1)*%
X119380000Y-73660000D03*
%TD*%
D11*
%TO.N,-VDC*%
%TO.C,J2*%
X119380000Y-53340000D03*
%TO.N,GND*%
X121920000Y-53340000D03*
D10*
%TO.N,+VDC*%
X124460000Y-53340000D03*
%TD*%
%TO.N,Net-(C1-Pad2)*%
%TO.C,J1*%
X167640000Y-53340000D03*
D11*
%TO.N,GND*%
X165100000Y-53340000D03*
%TD*%
D14*
%TO.N,+VDC*%
X144653000Y-73152000D03*
X131953000Y-50546000D03*
X131953000Y-51562000D03*
X131191000Y-60452000D03*
X145034000Y-50419000D03*
X133096000Y-75311000D03*
X145034000Y-51435000D03*
X142621000Y-83058000D03*
%TO.N,AGND*%
X131572000Y-82931000D03*
X138938000Y-73533000D03*
X143256000Y-61341000D03*
X136906000Y-62865000D03*
X150368000Y-144145000D03*
X144018000Y-145415000D03*
X157226000Y-122682000D03*
X142875000Y-68199000D03*
X140716000Y-79756000D03*
X134747000Y-69850000D03*
X145542000Y-130683000D03*
X154559000Y-129540000D03*
X159512000Y-129286000D03*
X145288000Y-137414000D03*
X146812000Y-127889000D03*
X129159000Y-80518000D03*
X125926989Y-125857000D03*
X133732186Y-119551150D03*
X130640982Y-128439018D03*
X139678518Y-125497482D03*
X134672422Y-138320410D03*
X140758018Y-131148982D03*
X141097000Y-122301000D03*
X142367002Y-77470000D03*
X123444000Y-79629000D03*
%TO.N,-VDC*%
X139446000Y-56261000D03*
X139446000Y-57404000D03*
X153035000Y-55880000D03*
X153035000Y-56769000D03*
X127635000Y-75946000D03*
X116586000Y-61849000D03*
%TO.N,+3V3*%
X161671000Y-127508000D03*
X159385000Y-99060000D03*
X159385000Y-104140000D03*
X161417000Y-118110000D03*
X140800982Y-117644018D03*
X128143009Y-117432987D03*
X128312023Y-114130986D03*
X125926989Y-97315277D03*
X134534000Y-108118004D03*
%TO.N,VDDA*%
X136144000Y-143256000D03*
X134493000Y-75184000D03*
%TO.N,VSSA*%
X152654000Y-137287000D03*
X125730000Y-76327000D03*
X133477000Y-136271000D03*
%TO.N,+5VA*%
X137392518Y-123211482D03*
X142875000Y-71247000D03*
X142875000Y-69469000D03*
X157226000Y-121285000D03*
%TO.N,Net-(C27-Pad2)*%
X144145000Y-141351000D03*
X151257000Y-136271000D03*
%TO.N,/Vout_R*%
X143129000Y-142621000D03*
%TO.N,Net-(C31-Pad2)*%
X148082000Y-140335000D03*
X149606000Y-133350000D03*
%TO.N,/Vin_L*%
X129846971Y-130439008D03*
X129899518Y-120290482D03*
%TO.N,/Vin_R*%
X126572338Y-130425301D03*
X133025071Y-118844035D03*
%TO.N,Net-(D6-Pad1)*%
X157226000Y-125730000D03*
X158369000Y-118491000D03*
%TO.N,/ADC_MCK*%
X135593982Y-115739018D03*
X140419982Y-109135018D03*
%TO.N,/ADC_SD*%
X138535518Y-112670482D03*
%TO.N,/ADC_WS*%
X139276982Y-119422018D03*
%TO.N,/DAC_WS*%
X144145000Y-114554000D03*
%TO.N,/DAC_MCK*%
X147066000Y-118237000D03*
%TO.N,/DAC_SD*%
X146842147Y-116090920D03*
%TO.N,/DAC_BCK*%
X145923000Y-115697000D03*
X162687000Y-81280000D03*
%TO.N,/BYPAS*%
X131610841Y-117429805D03*
%TO.N,/DAC_FMT0*%
X148844000Y-116967000D03*
X148244000Y-105410000D03*
%TO.N,/DAC_FMT1*%
X149484186Y-116198777D03*
X148971000Y-102870000D03*
%TO.N,/DAC_FMT2*%
X149733000Y-115189000D03*
X149733000Y-100330000D03*
%TO.N,/DEMP0*%
X149606000Y-118618000D03*
X151257000Y-110490000D03*
%TO.N,/MUTE*%
X146939000Y-117221000D03*
X151984000Y-113030000D03*
%TO.N,/DEMP1*%
X148837777Y-117977814D03*
X150495000Y-107950000D03*
%TO.N,/ADC_BCK*%
X139563581Y-114173033D03*
%TO.N,/ZEROR*%
X156464000Y-116586000D03*
X157226000Y-124079000D03*
%TO.N,/ZEROL*%
X153670000Y-115316000D03*
X157353000Y-119634000D03*
%TO.N,/VoutL+*%
X160909000Y-133858000D03*
X148717000Y-122809000D03*
%TO.N,/VoutR+*%
X146050000Y-123444000D03*
X146558000Y-135636000D03*
%TO.N,/VoutL-*%
X160909000Y-132334000D03*
X148717000Y-121793000D03*
%TO.N,/VoutR-*%
X146050000Y-122428000D03*
X146558000Y-134112000D03*
%TO.N,/~ADC_PWDN*%
X132317956Y-118136920D03*
%TO.N,/~DAC_RST*%
X147066000Y-119380000D03*
X157514999Y-114588999D03*
%TO.N,GND*%
X127508000Y-82931000D03*
X146304000Y-63246000D03*
X146304000Y-64262000D03*
X146304000Y-65278000D03*
X146304000Y-66294000D03*
X158623000Y-62230000D03*
X158623000Y-63246000D03*
X158623000Y-64262000D03*
X158623000Y-65278000D03*
X158623000Y-66294000D03*
X146304000Y-62230000D03*
X119888000Y-65786000D03*
X135128000Y-50673000D03*
X153035000Y-53975000D03*
X145288000Y-57150000D03*
X159004000Y-60452000D03*
X127762000Y-72644000D03*
X132461000Y-71374000D03*
X152400000Y-76835000D03*
X152527000Y-79883000D03*
X156464000Y-80645000D03*
X159639000Y-67564000D03*
X134874000Y-63754000D03*
X132715000Y-91440000D03*
X128143000Y-87630000D03*
X161671000Y-121031000D03*
X161671000Y-124714000D03*
X133350000Y-83058000D03*
X134747000Y-85471000D03*
X144780000Y-66421000D03*
X148971000Y-83312000D03*
X148209000Y-99695000D03*
X159385000Y-101473000D03*
X159385000Y-106680000D03*
X159385000Y-109220000D03*
X159385000Y-114300000D03*
X140525024Y-113897988D03*
X125926989Y-107950000D03*
X128143009Y-101748482D03*
X129443733Y-95618769D03*
X128143009Y-104140000D03*
X137922000Y-109601001D03*
X127467080Y-99100920D03*
X130556000Y-98679000D03*
X143002000Y-78359000D03*
%TD*%
D15*
%TO.N,+VDC*%
X124460000Y-53721000D02*
X131191000Y-60452000D01*
D16*
X124460000Y-53340000D02*
X124460000Y-53721000D01*
D15*
X131191000Y-73406000D02*
X131191000Y-60452000D01*
X133096000Y-75311000D02*
X131191000Y-73406000D01*
%TO.N,-VDC*%
X127635000Y-75946000D02*
X116967000Y-65278000D01*
X116967000Y-65278000D02*
X116586000Y-64897000D01*
X116586000Y-64897000D02*
X116586000Y-61849000D01*
%TO.N,+3V3*%
X159385000Y-99060000D02*
X158115000Y-100330000D01*
X158115000Y-102870000D02*
X159385000Y-104140000D01*
X158115000Y-100330000D02*
X158115000Y-102870000D01*
X161417000Y-118110000D02*
X159766000Y-119761000D01*
X159766000Y-125603000D02*
X161671000Y-127508000D01*
X159766000Y-119761000D02*
X159766000Y-125603000D01*
X161417000Y-106172000D02*
X159385000Y-104140000D01*
X161417000Y-118110000D02*
X161417000Y-106172000D01*
D17*
X128143009Y-114300000D02*
X128312023Y-114130986D01*
X128143009Y-117432987D02*
X128143009Y-114300000D01*
D15*
X125926989Y-97315277D02*
X122845712Y-94234000D01*
X122845712Y-94234000D02*
X118364000Y-94234000D01*
X118364000Y-94234000D02*
X116967000Y-92837000D01*
X116967000Y-83693000D02*
X119380000Y-81280000D01*
X116967000Y-92837000D02*
X116967000Y-83693000D01*
%TO.N,VDDA*%
X134493000Y-75184000D02*
X135470989Y-75184000D01*
X135470989Y-75184000D02*
X137414000Y-77127011D01*
X137414000Y-108657119D02*
X134493000Y-111578119D01*
X137414000Y-77127011D02*
X137414000Y-108657119D01*
X136144000Y-117740918D02*
X136144000Y-143256000D01*
X134493000Y-116089918D02*
X136144000Y-117740918D01*
X134493000Y-111578119D02*
X134493000Y-116089918D01*
%TO.N,VSSA*%
X125730000Y-76327000D02*
X126129999Y-76726999D01*
X126129999Y-76726999D02*
X126129999Y-81696883D01*
X125730000Y-82096882D02*
X125730000Y-95250000D01*
X126129999Y-81696883D02*
X125730000Y-82096882D01*
X129413000Y-108712000D02*
X133350000Y-112649000D01*
X125730000Y-95250000D02*
X129413000Y-98933000D01*
X134713187Y-117949187D02*
X134713187Y-135034813D01*
X134713187Y-135034813D02*
X133477000Y-136271000D01*
X129413000Y-98933000D02*
X129413000Y-108712000D01*
X133350000Y-116586000D02*
X134713187Y-117949187D01*
X133350000Y-112649000D02*
X133350000Y-116586000D01*
%TO.N,+5VA*%
X142875000Y-69469000D02*
X142875000Y-71247000D01*
X139353999Y-74768001D02*
X139353999Y-105883001D01*
X142875000Y-71247000D02*
X139353999Y-74768001D01*
X139353999Y-105883001D02*
X139192000Y-106045000D01*
X139192000Y-106045000D02*
X139192000Y-109982000D01*
X139192000Y-109982000D02*
X137541000Y-111633000D01*
X137541000Y-123063000D02*
X137392518Y-123211482D01*
X137541000Y-111633000D02*
X137541000Y-123063000D01*
D17*
%TO.N,Net-(C27-Pad2)*%
X144145000Y-141351000D02*
X148844000Y-141351000D01*
X148844000Y-141351000D02*
X149479000Y-140716000D01*
X149479000Y-140716000D02*
X149479000Y-138049000D01*
X149479000Y-138049000D02*
X151257000Y-136271000D01*
%TO.N,/Vout_R*%
X157099000Y-142621000D02*
X157480000Y-142240000D01*
X143129000Y-142621000D02*
X157099000Y-142621000D01*
%TO.N,Net-(C31-Pad2)*%
X148082000Y-140335000D02*
X148082000Y-134874000D01*
X148082000Y-134874000D02*
X149606000Y-133350000D01*
%TO.N,/Vin_L*%
X129899518Y-130386461D02*
X129846971Y-130439008D01*
X129899518Y-120290482D02*
X129899518Y-130386461D01*
%TO.N,/Vin_R*%
X133025071Y-118844035D02*
X132625072Y-119244034D01*
X129903036Y-131970964D02*
X128118001Y-131970964D01*
X132625072Y-129248928D02*
X129903036Y-131970964D01*
X128118001Y-131970964D02*
X126572338Y-130425301D01*
X132625072Y-119244034D02*
X132625072Y-129248928D01*
%TO.N,Net-(D6-Pad1)*%
X157226000Y-125730000D02*
X158242000Y-124714000D01*
X158242000Y-124714000D02*
X158242000Y-118618000D01*
X158242000Y-118618000D02*
X158369000Y-118491000D01*
%TO.N,/ADC_MCK*%
X163830000Y-64770000D02*
X160782000Y-67818000D01*
X155956000Y-75946000D02*
X155956000Y-78359000D01*
X165100000Y-64770000D02*
X163830000Y-64770000D01*
X140419982Y-93895018D02*
X140419982Y-109135018D01*
X160782000Y-67818000D02*
X160782000Y-71120000D01*
X160782000Y-71120000D02*
X155956000Y-75946000D01*
X155956000Y-78359000D02*
X140419982Y-93895018D01*
%TO.N,/ADC_SD*%
X162941000Y-72771000D02*
X158461001Y-77250999D01*
X158022999Y-77689001D02*
X141986000Y-93726000D01*
X141986000Y-93726000D02*
X141986000Y-109220000D01*
X158461001Y-77250999D02*
X158401039Y-77250999D01*
X158022999Y-77629039D02*
X158022999Y-77689001D01*
X158401039Y-77250999D02*
X158022999Y-77629039D01*
X165100000Y-67310000D02*
X162941000Y-69469000D01*
X141986000Y-109220000D02*
X138535518Y-112670482D01*
X162941000Y-69469000D02*
X162941000Y-72771000D01*
%TO.N,/ADC_WS*%
X159477001Y-79917999D02*
X142440010Y-96954990D01*
X138813483Y-118958519D02*
X139276982Y-119422018D01*
X159477001Y-78012999D02*
X159477001Y-79917999D01*
X165100000Y-72390000D02*
X159477001Y-78012999D01*
X142440010Y-110162990D02*
X138813483Y-113789517D01*
X138813483Y-113789517D02*
X138813483Y-118958519D01*
X142440010Y-96954990D02*
X142440010Y-110162990D01*
%TO.N,/DAC_WS*%
X161255001Y-80679999D02*
X161255001Y-78774999D01*
X161255001Y-78774999D02*
X165100000Y-74930000D01*
X144145000Y-114554000D02*
X144145000Y-97790000D01*
X144145000Y-97790000D02*
X161255001Y-80679999D01*
%TO.N,/DAC_MCK*%
X146812000Y-118237000D02*
X145161000Y-116586000D01*
X161925000Y-81026000D02*
X161925000Y-79375000D01*
X147066000Y-118237000D02*
X146812000Y-118237000D01*
X145161000Y-116586000D02*
X145161000Y-97790000D01*
X145161000Y-97790000D02*
X161925000Y-81026000D01*
X163830000Y-77470000D02*
X165100000Y-77470000D01*
X161925000Y-79375000D02*
X163830000Y-77470000D01*
%TO.N,/DAC_SD*%
X146842147Y-116090920D02*
X146842147Y-99283853D01*
X163576000Y-81534000D02*
X165100000Y-80010000D01*
X163576000Y-82550000D02*
X163576000Y-81534000D01*
X146842147Y-99283853D02*
X163576000Y-82550000D01*
%TO.N,/DAC_BCK*%
X145923000Y-98290934D02*
X156718000Y-87495934D01*
X145923000Y-115697000D02*
X145923000Y-98290934D01*
X156718000Y-87495934D02*
X162687000Y-81526934D01*
X162687000Y-81526934D02*
X162687000Y-81280000D01*
%TO.N,/BYPAS*%
X131610841Y-116370841D02*
X131610841Y-117429805D01*
X121920000Y-106680000D02*
X131610841Y-116370841D01*
%TO.N,/DAC_FMT0*%
X148844000Y-116967000D02*
X148244000Y-116367000D01*
X148244000Y-116367000D02*
X148244000Y-105410000D01*
%TO.N,/DAC_FMT1*%
X149484186Y-116198777D02*
X148971000Y-115685591D01*
X148971000Y-115685591D02*
X148971000Y-102870000D01*
%TO.N,/DAC_FMT2*%
X149733000Y-115189000D02*
X149733000Y-100330000D01*
%TO.N,/DEMP0*%
X149606000Y-118618000D02*
X151257000Y-116967000D01*
X151257000Y-116967000D02*
X151257000Y-110490000D01*
%TO.N,/MUTE*%
X151711010Y-113302990D02*
X151984000Y-113030000D01*
X151711010Y-117655990D02*
X151711010Y-113302990D01*
X147285343Y-117221000D02*
X148082000Y-118017657D01*
X146939000Y-117221000D02*
X147285343Y-117221000D01*
X148082000Y-118017657D02*
X148082000Y-118297999D01*
X148082000Y-118297999D02*
X149164001Y-119380000D01*
X149164001Y-119380000D02*
X149987000Y-119380000D01*
X149987000Y-119380000D02*
X151711010Y-117655990D01*
%TO.N,/DEMP1*%
X148837777Y-117977814D02*
X149086591Y-117729000D01*
X149086591Y-117729000D02*
X149157962Y-117729000D01*
X149157962Y-117729000D02*
X149606000Y-117729000D01*
X149606000Y-117729000D02*
X150495000Y-116840000D01*
X150495000Y-116840000D02*
X150495000Y-107950000D01*
%TO.N,/ADC_BCK*%
X146294542Y-120903994D02*
X139563581Y-114173033D01*
X166370000Y-128270000D02*
X158716481Y-128270000D01*
X151350475Y-120903994D02*
X146294542Y-120903994D01*
X167640000Y-129540000D02*
X166370000Y-128270000D01*
X158716481Y-128270000D02*
X151350475Y-120903994D01*
%TO.N,/ZEROR*%
X156464000Y-116586000D02*
X156464000Y-123317000D01*
X156464000Y-123317000D02*
X157226000Y-124079000D01*
%TO.N,/ZEROL*%
X157353000Y-116205000D02*
X157353000Y-119634000D01*
X153670000Y-115316000D02*
X156464000Y-115316000D01*
X156464000Y-115316000D02*
X157353000Y-116205000D01*
D18*
%TO.N,/VoutL+*%
X149860000Y-122809000D02*
X148717000Y-122809000D01*
X160909000Y-133858000D02*
X149860000Y-122809000D01*
%TO.N,/VoutR+*%
X146558000Y-135636000D02*
X144526000Y-133604000D01*
X144526000Y-124968000D02*
X146050000Y-123444000D01*
X144526000Y-133604000D02*
X144526000Y-124968000D01*
%TO.N,/VoutL-*%
X160089998Y-132334000D02*
X160909000Y-132334000D01*
X149548998Y-121793000D02*
X160089998Y-132334000D01*
X148717000Y-121793000D02*
X149548998Y-121793000D01*
%TO.N,/VoutR-*%
X146086999Y-128237001D02*
X146086999Y-124931001D01*
X146558000Y-134112000D02*
X146558000Y-128708002D01*
X146558000Y-128708002D02*
X146086999Y-128237001D01*
X146107002Y-122428000D02*
X146050000Y-122428000D01*
X146775001Y-124242999D02*
X146775001Y-123095999D01*
X146775001Y-123095999D02*
X146107002Y-122428000D01*
X146086999Y-124931001D02*
X146775001Y-124242999D01*
D17*
%TO.N,/~ADC_PWDN*%
X131917957Y-118536919D02*
X132317956Y-118136920D01*
X126156919Y-118536919D02*
X131917957Y-118536919D01*
X121920000Y-114300000D02*
X126156919Y-118536919D01*
%TO.N,/~DAC_RST*%
X147520010Y-119834010D02*
X151945990Y-119834010D01*
X147066000Y-119380000D02*
X147520010Y-119834010D01*
X151945990Y-119834010D02*
X152527000Y-119253000D01*
X152527000Y-119253000D02*
X152527000Y-115316000D01*
X153254001Y-114588999D02*
X157514999Y-114588999D01*
X152527000Y-115316000D02*
X153254001Y-114588999D01*
%TD*%
%TO.N,GND*%
G36*
X115737140Y-65464190D02*
G01*
X115864104Y-65618896D01*
X115902873Y-65650713D01*
X122576907Y-72324747D01*
X122353158Y-72232068D01*
X122066260Y-72175000D01*
X121773740Y-72175000D01*
X121486842Y-72232068D01*
X121216589Y-72344010D01*
X120973368Y-72506525D01*
X120841513Y-72638380D01*
X120819502Y-72565820D01*
X120760537Y-72455506D01*
X120681185Y-72358815D01*
X120584494Y-72279463D01*
X120474180Y-72220498D01*
X120354482Y-72184188D01*
X120230000Y-72171928D01*
X118530000Y-72171928D01*
X118405518Y-72184188D01*
X118285820Y-72220498D01*
X118175506Y-72279463D01*
X118078815Y-72358815D01*
X117999463Y-72455506D01*
X117940498Y-72565820D01*
X117904188Y-72685518D01*
X117891928Y-72810000D01*
X117891928Y-74510000D01*
X117904188Y-74634482D01*
X117940498Y-74754180D01*
X117999463Y-74864494D01*
X118078815Y-74961185D01*
X118175506Y-75040537D01*
X118285820Y-75099502D01*
X118358380Y-75121513D01*
X118226525Y-75253368D01*
X118064010Y-75496589D01*
X117952068Y-75766842D01*
X117895000Y-76053740D01*
X117895000Y-76346260D01*
X117952068Y-76633158D01*
X118064010Y-76903411D01*
X118226525Y-77146632D01*
X118433368Y-77353475D01*
X118607760Y-77470000D01*
X118433368Y-77586525D01*
X118226525Y-77793368D01*
X118064010Y-78036589D01*
X117952068Y-78306842D01*
X117895000Y-78593740D01*
X117895000Y-78886260D01*
X117952068Y-79173158D01*
X118064010Y-79443411D01*
X118226525Y-79686632D01*
X118433368Y-79893475D01*
X118607760Y-80010000D01*
X118433368Y-80126525D01*
X118226525Y-80333368D01*
X118064010Y-80576589D01*
X117952068Y-80846842D01*
X117895000Y-81133740D01*
X117895000Y-81328159D01*
X116283868Y-82939292D01*
X116245105Y-82971104D01*
X116118141Y-83125810D01*
X116047804Y-83257402D01*
X116023799Y-83302313D01*
X115965702Y-83493830D01*
X115946085Y-83693000D01*
X115951001Y-83742912D01*
X115951000Y-92787098D01*
X115946085Y-92837000D01*
X115954752Y-92925000D01*
X115965702Y-93036170D01*
X116023798Y-93227686D01*
X116118140Y-93404190D01*
X116245104Y-93558896D01*
X116283872Y-93590712D01*
X117610292Y-94917133D01*
X117642104Y-94955896D01*
X117796810Y-95082860D01*
X117973313Y-95177202D01*
X118087364Y-95211799D01*
X118078815Y-95218815D01*
X117999463Y-95315506D01*
X117940498Y-95425820D01*
X117904188Y-95545518D01*
X117891928Y-95670000D01*
X117891928Y-97370000D01*
X117904188Y-97494482D01*
X117940498Y-97614180D01*
X117999463Y-97724494D01*
X118078815Y-97821185D01*
X118175506Y-97900537D01*
X118285820Y-97959502D01*
X118358380Y-97981513D01*
X118226525Y-98113368D01*
X118064010Y-98356589D01*
X117952068Y-98626842D01*
X117895000Y-98913740D01*
X117895000Y-99206260D01*
X117952068Y-99493158D01*
X118064010Y-99763411D01*
X118226525Y-100006632D01*
X118433368Y-100213475D01*
X118607760Y-100330000D01*
X118433368Y-100446525D01*
X118226525Y-100653368D01*
X118064010Y-100896589D01*
X117952068Y-101166842D01*
X117895000Y-101453740D01*
X117895000Y-101746260D01*
X117952068Y-102033158D01*
X118064010Y-102303411D01*
X118226525Y-102546632D01*
X118433368Y-102753475D01*
X118607760Y-102870000D01*
X118433368Y-102986525D01*
X118226525Y-103193368D01*
X118064010Y-103436589D01*
X117952068Y-103706842D01*
X117895000Y-103993740D01*
X117895000Y-104286260D01*
X117952068Y-104573158D01*
X118064010Y-104843411D01*
X118226525Y-105086632D01*
X118433368Y-105293475D01*
X118607760Y-105410000D01*
X118433368Y-105526525D01*
X118226525Y-105733368D01*
X118064010Y-105976589D01*
X117952068Y-106246842D01*
X117895000Y-106533740D01*
X117895000Y-106826260D01*
X117952068Y-107113158D01*
X118064010Y-107383411D01*
X118226525Y-107626632D01*
X118433368Y-107833475D01*
X118607760Y-107950000D01*
X118433368Y-108066525D01*
X118226525Y-108273368D01*
X118064010Y-108516589D01*
X117952068Y-108786842D01*
X117895000Y-109073740D01*
X117895000Y-109366260D01*
X117952068Y-109653158D01*
X118064010Y-109923411D01*
X118226525Y-110166632D01*
X118433368Y-110373475D01*
X118607760Y-110490000D01*
X118433368Y-110606525D01*
X118226525Y-110813368D01*
X118064010Y-111056589D01*
X117952068Y-111326842D01*
X117895000Y-111613740D01*
X117895000Y-111906260D01*
X117952068Y-112193158D01*
X118064010Y-112463411D01*
X118226525Y-112706632D01*
X118433368Y-112913475D01*
X118607760Y-113030000D01*
X118433368Y-113146525D01*
X118226525Y-113353368D01*
X118064010Y-113596589D01*
X117952068Y-113866842D01*
X117895000Y-114153740D01*
X117895000Y-114446260D01*
X117952068Y-114733158D01*
X118064010Y-115003411D01*
X118226525Y-115246632D01*
X118433368Y-115453475D01*
X118607760Y-115570000D01*
X118433368Y-115686525D01*
X118226525Y-115893368D01*
X118064010Y-116136589D01*
X117952068Y-116406842D01*
X117895000Y-116693740D01*
X117895000Y-116986260D01*
X117952068Y-117273158D01*
X118064010Y-117543411D01*
X118226525Y-117786632D01*
X118433368Y-117993475D01*
X118607760Y-118110000D01*
X118433368Y-118226525D01*
X118226525Y-118433368D01*
X118064010Y-118676589D01*
X117952068Y-118946842D01*
X117895000Y-119233740D01*
X117895000Y-119526260D01*
X117952068Y-119813158D01*
X118064010Y-120083411D01*
X118226525Y-120326632D01*
X118433368Y-120533475D01*
X118607760Y-120650000D01*
X118433368Y-120766525D01*
X118226525Y-120973368D01*
X118064010Y-121216589D01*
X117952068Y-121486842D01*
X117895000Y-121773740D01*
X117895000Y-122066260D01*
X117952068Y-122353158D01*
X118064010Y-122623411D01*
X118226525Y-122866632D01*
X118433368Y-123073475D01*
X118615534Y-123195195D01*
X118498645Y-123264822D01*
X118282412Y-123459731D01*
X118108359Y-123693080D01*
X117983175Y-123955901D01*
X117938524Y-124103110D01*
X118059845Y-124333000D01*
X119253000Y-124333000D01*
X119253000Y-124313000D01*
X119507000Y-124313000D01*
X119507000Y-124333000D01*
X119527000Y-124333000D01*
X119527000Y-124587000D01*
X119507000Y-124587000D01*
X119507000Y-124607000D01*
X119253000Y-124607000D01*
X119253000Y-124587000D01*
X118059845Y-124587000D01*
X117938524Y-124816890D01*
X117983175Y-124964099D01*
X118108359Y-125226920D01*
X118282412Y-125460269D01*
X118498645Y-125655178D01*
X118615534Y-125724805D01*
X118433368Y-125846525D01*
X118226525Y-126053368D01*
X118064010Y-126296589D01*
X117952068Y-126566842D01*
X117895000Y-126853740D01*
X117895000Y-127146260D01*
X117952068Y-127433158D01*
X118064010Y-127703411D01*
X118226525Y-127946632D01*
X118433368Y-128153475D01*
X118607760Y-128270000D01*
X118433368Y-128386525D01*
X118226525Y-128593368D01*
X118064010Y-128836589D01*
X117952068Y-129106842D01*
X117895000Y-129393740D01*
X117895000Y-129686260D01*
X117952068Y-129973158D01*
X118064010Y-130243411D01*
X118226525Y-130486632D01*
X118433368Y-130693475D01*
X118607760Y-130810000D01*
X118433368Y-130926525D01*
X118226525Y-131133368D01*
X118064010Y-131376589D01*
X117952068Y-131646842D01*
X117895000Y-131933740D01*
X117895000Y-132226260D01*
X117952068Y-132513158D01*
X118064010Y-132783411D01*
X118226525Y-133026632D01*
X118433368Y-133233475D01*
X118676589Y-133395990D01*
X118946842Y-133507932D01*
X119233740Y-133565000D01*
X119526260Y-133565000D01*
X119813158Y-133507932D01*
X120083411Y-133395990D01*
X120326632Y-133233475D01*
X120533475Y-133026632D01*
X120650000Y-132852240D01*
X120766525Y-133026632D01*
X120973368Y-133233475D01*
X121216589Y-133395990D01*
X121486842Y-133507932D01*
X121773740Y-133565000D01*
X122066260Y-133565000D01*
X122353158Y-133507932D01*
X122623411Y-133395990D01*
X122866632Y-133233475D01*
X123073475Y-133026632D01*
X123235990Y-132783411D01*
X123347932Y-132513158D01*
X123405000Y-132226260D01*
X123405000Y-131933740D01*
X123347932Y-131646842D01*
X123235990Y-131376589D01*
X123073475Y-131133368D01*
X122866632Y-130926525D01*
X122692240Y-130810000D01*
X122866632Y-130693475D01*
X123073475Y-130486632D01*
X123235990Y-130243411D01*
X123347932Y-129973158D01*
X123405000Y-129686260D01*
X123405000Y-129393740D01*
X123347932Y-129106842D01*
X123235990Y-128836589D01*
X123073475Y-128593368D01*
X122866632Y-128386525D01*
X122692240Y-128270000D01*
X122866632Y-128153475D01*
X123073475Y-127946632D01*
X123235990Y-127703411D01*
X123347932Y-127433158D01*
X123405000Y-127146260D01*
X123405000Y-126853740D01*
X123347932Y-126566842D01*
X123235990Y-126296589D01*
X123073475Y-126053368D01*
X122866632Y-125846525D01*
X122729747Y-125755061D01*
X124891989Y-125755061D01*
X124891989Y-125958939D01*
X124931763Y-126158898D01*
X125009784Y-126347256D01*
X125123052Y-126516774D01*
X125267215Y-126660937D01*
X125436733Y-126774205D01*
X125625091Y-126852226D01*
X125825050Y-126892000D01*
X126028928Y-126892000D01*
X126228887Y-126852226D01*
X126417245Y-126774205D01*
X126586763Y-126660937D01*
X126730926Y-126516774D01*
X126844194Y-126347256D01*
X126922215Y-126158898D01*
X126961989Y-125958939D01*
X126961989Y-125755061D01*
X126922215Y-125555102D01*
X126844194Y-125366744D01*
X126730926Y-125197226D01*
X126586763Y-125053063D01*
X126417245Y-124939795D01*
X126228887Y-124861774D01*
X126028928Y-124822000D01*
X125825050Y-124822000D01*
X125625091Y-124861774D01*
X125436733Y-124939795D01*
X125267215Y-125053063D01*
X125123052Y-125197226D01*
X125009784Y-125366744D01*
X124931763Y-125555102D01*
X124891989Y-125755061D01*
X122729747Y-125755061D01*
X122692240Y-125730000D01*
X122866632Y-125613475D01*
X123073475Y-125406632D01*
X123235990Y-125163411D01*
X123347932Y-124893158D01*
X123405000Y-124606260D01*
X123405000Y-124313740D01*
X123347932Y-124026842D01*
X123235990Y-123756589D01*
X123073475Y-123513368D01*
X122866632Y-123306525D01*
X122692240Y-123190000D01*
X122866632Y-123073475D01*
X123073475Y-122866632D01*
X123235990Y-122623411D01*
X123347932Y-122353158D01*
X123405000Y-122066260D01*
X123405000Y-121773740D01*
X123347932Y-121486842D01*
X123235990Y-121216589D01*
X123073475Y-120973368D01*
X122866632Y-120766525D01*
X122692240Y-120650000D01*
X122866632Y-120533475D01*
X123073475Y-120326632D01*
X123235990Y-120083411D01*
X123347932Y-119813158D01*
X123405000Y-119526260D01*
X123405000Y-119233740D01*
X123347932Y-118946842D01*
X123235990Y-118676589D01*
X123073475Y-118433368D01*
X122866632Y-118226525D01*
X122692240Y-118110000D01*
X122866632Y-117993475D01*
X123073475Y-117786632D01*
X123235990Y-117543411D01*
X123347932Y-117273158D01*
X123405000Y-116986260D01*
X123405000Y-116862630D01*
X125591640Y-119049271D01*
X125615497Y-119078341D01*
X125731527Y-119173564D01*
X125863904Y-119244321D01*
X126007541Y-119287893D01*
X126119493Y-119298919D01*
X126119495Y-119298919D01*
X126156918Y-119302605D01*
X126194341Y-119298919D01*
X129588777Y-119298919D01*
X129409262Y-119373277D01*
X129239744Y-119486545D01*
X129095581Y-119630708D01*
X128982313Y-119800226D01*
X128904292Y-119988584D01*
X128864518Y-120188543D01*
X128864518Y-120392421D01*
X128904292Y-120592380D01*
X128982313Y-120780738D01*
X129095581Y-120950256D01*
X129137518Y-120992193D01*
X129137519Y-129684749D01*
X129043034Y-129779234D01*
X128929766Y-129948752D01*
X128851745Y-130137110D01*
X128811971Y-130337069D01*
X128811971Y-130540947D01*
X128851745Y-130740906D01*
X128929766Y-130929264D01*
X129043034Y-131098782D01*
X129153216Y-131208964D01*
X128433631Y-131208964D01*
X127607338Y-130382671D01*
X127607338Y-130323362D01*
X127567564Y-130123403D01*
X127489543Y-129935045D01*
X127376275Y-129765527D01*
X127232112Y-129621364D01*
X127062594Y-129508096D01*
X126874236Y-129430075D01*
X126674277Y-129390301D01*
X126470399Y-129390301D01*
X126270440Y-129430075D01*
X126082082Y-129508096D01*
X125912564Y-129621364D01*
X125768401Y-129765527D01*
X125655133Y-129935045D01*
X125577112Y-130123403D01*
X125537338Y-130323362D01*
X125537338Y-130527240D01*
X125577112Y-130727199D01*
X125655133Y-130915557D01*
X125768401Y-131085075D01*
X125912564Y-131229238D01*
X126082082Y-131342506D01*
X126270440Y-131420527D01*
X126470399Y-131460301D01*
X126529708Y-131460301D01*
X127552717Y-132483310D01*
X127576579Y-132512386D01*
X127617615Y-132546063D01*
X127692608Y-132607609D01*
X127727476Y-132626246D01*
X127824986Y-132678366D01*
X127968623Y-132721938D01*
X128080575Y-132732964D01*
X128080578Y-132732964D01*
X128118001Y-132736650D01*
X128155424Y-132732964D01*
X129865613Y-132732964D01*
X129903036Y-132736650D01*
X129940459Y-132732964D01*
X129940462Y-132732964D01*
X130052414Y-132721938D01*
X130196051Y-132678366D01*
X130328428Y-132607609D01*
X130444458Y-132512386D01*
X130468320Y-132483310D01*
X133137424Y-129814207D01*
X133166494Y-129790350D01*
X133261717Y-129674320D01*
X133332474Y-129541943D01*
X133376046Y-129398306D01*
X133387072Y-129286354D01*
X133387072Y-129286352D01*
X133390758Y-129248929D01*
X133387072Y-129211506D01*
X133387072Y-120528475D01*
X133430288Y-120546376D01*
X133630247Y-120586150D01*
X133697187Y-120586150D01*
X133697188Y-134613971D01*
X132898205Y-135412954D01*
X132817226Y-135467063D01*
X132673063Y-135611226D01*
X132559795Y-135780744D01*
X132481774Y-135969102D01*
X132442000Y-136169061D01*
X132442000Y-136372939D01*
X132481774Y-136572898D01*
X132559795Y-136761256D01*
X132673063Y-136930774D01*
X132817226Y-137074937D01*
X132986744Y-137188205D01*
X133175102Y-137266226D01*
X133375061Y-137306000D01*
X133578939Y-137306000D01*
X133778898Y-137266226D01*
X133967256Y-137188205D01*
X134136774Y-137074937D01*
X134280937Y-136930774D01*
X134335046Y-136849795D01*
X135128001Y-136056840D01*
X135128001Y-137388841D01*
X134974320Y-137325184D01*
X134774361Y-137285410D01*
X134570483Y-137285410D01*
X134370524Y-137325184D01*
X134182166Y-137403205D01*
X134012648Y-137516473D01*
X133868485Y-137660636D01*
X133755217Y-137830154D01*
X133677196Y-138018512D01*
X133637422Y-138218471D01*
X133637422Y-138422349D01*
X133677196Y-138622308D01*
X133755217Y-138810666D01*
X133868485Y-138980184D01*
X134012648Y-139124347D01*
X134182166Y-139237615D01*
X134370524Y-139315636D01*
X134570483Y-139355410D01*
X134774361Y-139355410D01*
X134974320Y-139315636D01*
X135128001Y-139251979D01*
X135128001Y-143058536D01*
X135109000Y-143154061D01*
X135109000Y-143357939D01*
X135148774Y-143557898D01*
X135226795Y-143746256D01*
X135340063Y-143915774D01*
X135484226Y-144059937D01*
X135653744Y-144173205D01*
X135842102Y-144251226D01*
X136042061Y-144291000D01*
X136245939Y-144291000D01*
X136445898Y-144251226D01*
X136634256Y-144173205D01*
X136803774Y-144059937D01*
X136947937Y-143915774D01*
X137061205Y-143746256D01*
X137139226Y-143557898D01*
X137179000Y-143357939D01*
X137179000Y-143154061D01*
X137160000Y-143058541D01*
X137160000Y-137312061D01*
X144253000Y-137312061D01*
X144253000Y-137515939D01*
X144292774Y-137715898D01*
X144370795Y-137904256D01*
X144484063Y-138073774D01*
X144628226Y-138217937D01*
X144797744Y-138331205D01*
X144986102Y-138409226D01*
X145186061Y-138449000D01*
X145389939Y-138449000D01*
X145589898Y-138409226D01*
X145778256Y-138331205D01*
X145947774Y-138217937D01*
X146091937Y-138073774D01*
X146205205Y-137904256D01*
X146283226Y-137715898D01*
X146323000Y-137515939D01*
X146323000Y-137312061D01*
X146283226Y-137112102D01*
X146205205Y-136923744D01*
X146091937Y-136754226D01*
X145947774Y-136610063D01*
X145778256Y-136496795D01*
X145589898Y-136418774D01*
X145389939Y-136379000D01*
X145186061Y-136379000D01*
X144986102Y-136418774D01*
X144797744Y-136496795D01*
X144628226Y-136610063D01*
X144484063Y-136754226D01*
X144370795Y-136923744D01*
X144292774Y-137112102D01*
X144253000Y-137312061D01*
X137160000Y-137312061D01*
X137160000Y-131047043D01*
X139723018Y-131047043D01*
X139723018Y-131250921D01*
X139762792Y-131450880D01*
X139840813Y-131639238D01*
X139954081Y-131808756D01*
X140098244Y-131952919D01*
X140267762Y-132066187D01*
X140456120Y-132144208D01*
X140656079Y-132183982D01*
X140859957Y-132183982D01*
X141059916Y-132144208D01*
X141248274Y-132066187D01*
X141417792Y-131952919D01*
X141561955Y-131808756D01*
X141675223Y-131639238D01*
X141753244Y-131450880D01*
X141793018Y-131250921D01*
X141793018Y-131047043D01*
X141753244Y-130847084D01*
X141675223Y-130658726D01*
X141561955Y-130489208D01*
X141417792Y-130345045D01*
X141248274Y-130231777D01*
X141059916Y-130153756D01*
X140859957Y-130113982D01*
X140656079Y-130113982D01*
X140456120Y-130153756D01*
X140267762Y-130231777D01*
X140098244Y-130345045D01*
X139954081Y-130489208D01*
X139840813Y-130658726D01*
X139762792Y-130847084D01*
X139723018Y-131047043D01*
X137160000Y-131047043D01*
X137160000Y-125395543D01*
X138643518Y-125395543D01*
X138643518Y-125599421D01*
X138683292Y-125799380D01*
X138761313Y-125987738D01*
X138874581Y-126157256D01*
X139018744Y-126301419D01*
X139188262Y-126414687D01*
X139376620Y-126492708D01*
X139576579Y-126532482D01*
X139780457Y-126532482D01*
X139980416Y-126492708D01*
X140168774Y-126414687D01*
X140338292Y-126301419D01*
X140482455Y-126157256D01*
X140595723Y-125987738D01*
X140673744Y-125799380D01*
X140713518Y-125599421D01*
X140713518Y-125395543D01*
X140673744Y-125195584D01*
X140595723Y-125007226D01*
X140482455Y-124837708D01*
X140338292Y-124693545D01*
X140168774Y-124580277D01*
X139980416Y-124502256D01*
X139780457Y-124462482D01*
X139576579Y-124462482D01*
X139376620Y-124502256D01*
X139188262Y-124580277D01*
X139018744Y-124693545D01*
X138874581Y-124837708D01*
X138761313Y-125007226D01*
X138683292Y-125195584D01*
X138643518Y-125395543D01*
X137160000Y-125395543D01*
X137160000Y-124220508D01*
X137290579Y-124246482D01*
X137494457Y-124246482D01*
X137694416Y-124206708D01*
X137882774Y-124128687D01*
X138052292Y-124015419D01*
X138196455Y-123871256D01*
X138243550Y-123800772D01*
X138262896Y-123784896D01*
X138389860Y-123630190D01*
X138484202Y-123453687D01*
X138542298Y-123262171D01*
X138557000Y-123112902D01*
X138557000Y-123112895D01*
X138561914Y-123063001D01*
X138557000Y-123013107D01*
X138557000Y-122199061D01*
X140062000Y-122199061D01*
X140062000Y-122402939D01*
X140101774Y-122602898D01*
X140179795Y-122791256D01*
X140293063Y-122960774D01*
X140437226Y-123104937D01*
X140606744Y-123218205D01*
X140795102Y-123296226D01*
X140995061Y-123336000D01*
X141198939Y-123336000D01*
X141398898Y-123296226D01*
X141587256Y-123218205D01*
X141756774Y-123104937D01*
X141900937Y-122960774D01*
X142014205Y-122791256D01*
X142092226Y-122602898D01*
X142132000Y-122402939D01*
X142132000Y-122199061D01*
X142092226Y-121999102D01*
X142014205Y-121810744D01*
X141900937Y-121641226D01*
X141756774Y-121497063D01*
X141587256Y-121383795D01*
X141398898Y-121305774D01*
X141198939Y-121266000D01*
X140995061Y-121266000D01*
X140795102Y-121305774D01*
X140606744Y-121383795D01*
X140437226Y-121497063D01*
X140293063Y-121641226D01*
X140179795Y-121810744D01*
X140101774Y-121999102D01*
X140062000Y-122199061D01*
X138557000Y-122199061D01*
X138557000Y-120165747D01*
X138617208Y-120225955D01*
X138786726Y-120339223D01*
X138975084Y-120417244D01*
X139175043Y-120457018D01*
X139378921Y-120457018D01*
X139578880Y-120417244D01*
X139767238Y-120339223D01*
X139936756Y-120225955D01*
X140080919Y-120081792D01*
X140194187Y-119912274D01*
X140272208Y-119723916D01*
X140311982Y-119523957D01*
X140311982Y-119320079D01*
X140272208Y-119120120D01*
X140194187Y-118931762D01*
X140080919Y-118762244D01*
X139936756Y-118618081D01*
X139767238Y-118504813D01*
X139578880Y-118426792D01*
X139575483Y-118426116D01*
X139575483Y-115262565D01*
X140926657Y-116613739D01*
X140902921Y-116609018D01*
X140699043Y-116609018D01*
X140499084Y-116648792D01*
X140310726Y-116726813D01*
X140141208Y-116840081D01*
X139997045Y-116984244D01*
X139883777Y-117153762D01*
X139805756Y-117342120D01*
X139765982Y-117542079D01*
X139765982Y-117745957D01*
X139805756Y-117945916D01*
X139883777Y-118134274D01*
X139997045Y-118303792D01*
X140141208Y-118447955D01*
X140310726Y-118561223D01*
X140499084Y-118639244D01*
X140699043Y-118679018D01*
X140902921Y-118679018D01*
X141102880Y-118639244D01*
X141291238Y-118561223D01*
X141460756Y-118447955D01*
X141604919Y-118303792D01*
X141718187Y-118134274D01*
X141796208Y-117945916D01*
X141835982Y-117745957D01*
X141835982Y-117542079D01*
X141831261Y-117518343D01*
X145729262Y-121416345D01*
X145744104Y-121434430D01*
X145559744Y-121510795D01*
X145390226Y-121624063D01*
X145246063Y-121768226D01*
X145132795Y-121937744D01*
X145054774Y-122126102D01*
X145015000Y-122326061D01*
X145015000Y-122529939D01*
X145054774Y-122729898D01*
X145132795Y-122918256D01*
X145144651Y-122936000D01*
X145132795Y-122953744D01*
X145054774Y-123142102D01*
X145015000Y-123342061D01*
X145015000Y-123404198D01*
X144014998Y-124404201D01*
X143986000Y-124427999D01*
X143962202Y-124456997D01*
X143962201Y-124456998D01*
X143891026Y-124543724D01*
X143820454Y-124675754D01*
X143797500Y-124751426D01*
X143776998Y-124819014D01*
X143766001Y-124930667D01*
X143762324Y-124968000D01*
X143766001Y-125005332D01*
X143766000Y-133566678D01*
X143762324Y-133604000D01*
X143766000Y-133641322D01*
X143766000Y-133641332D01*
X143776997Y-133752985D01*
X143810173Y-133862352D01*
X143820454Y-133896246D01*
X143891026Y-134028276D01*
X143895326Y-134033515D01*
X143985999Y-134144001D01*
X144015003Y-134167804D01*
X145523000Y-135675802D01*
X145523000Y-135737939D01*
X145562774Y-135937898D01*
X145640795Y-136126256D01*
X145754063Y-136295774D01*
X145898226Y-136439937D01*
X146067744Y-136553205D01*
X146256102Y-136631226D01*
X146456061Y-136671000D01*
X146659939Y-136671000D01*
X146859898Y-136631226D01*
X147048256Y-136553205D01*
X147217774Y-136439937D01*
X147320001Y-136337710D01*
X147320000Y-139633289D01*
X147278063Y-139675226D01*
X147164795Y-139844744D01*
X147086774Y-140033102D01*
X147047000Y-140233061D01*
X147047000Y-140436939D01*
X147077247Y-140589000D01*
X144846711Y-140589000D01*
X144804774Y-140547063D01*
X144635256Y-140433795D01*
X144446898Y-140355774D01*
X144246939Y-140316000D01*
X144043061Y-140316000D01*
X143843102Y-140355774D01*
X143654744Y-140433795D01*
X143485226Y-140547063D01*
X143341063Y-140691226D01*
X143227795Y-140860744D01*
X143149774Y-141049102D01*
X143110000Y-141249061D01*
X143110000Y-141452939D01*
X143136467Y-141586000D01*
X143027061Y-141586000D01*
X142827102Y-141625774D01*
X142638744Y-141703795D01*
X142469226Y-141817063D01*
X142325063Y-141961226D01*
X142211795Y-142130744D01*
X142133774Y-142319102D01*
X142094000Y-142519061D01*
X142094000Y-142722939D01*
X142133774Y-142922898D01*
X142211795Y-143111256D01*
X142325063Y-143280774D01*
X142469226Y-143424937D01*
X142638744Y-143538205D01*
X142827102Y-143616226D01*
X143027061Y-143656000D01*
X143230939Y-143656000D01*
X143430898Y-143616226D01*
X143619256Y-143538205D01*
X143788774Y-143424937D01*
X143830711Y-143383000D01*
X149666289Y-143383000D01*
X149564063Y-143485226D01*
X149450795Y-143654744D01*
X149372774Y-143843102D01*
X149333000Y-144043061D01*
X149333000Y-144246939D01*
X149372774Y-144446898D01*
X149450795Y-144635256D01*
X149564063Y-144804774D01*
X149708226Y-144948937D01*
X149877744Y-145062205D01*
X150066102Y-145140226D01*
X150266061Y-145180000D01*
X150469939Y-145180000D01*
X150669898Y-145140226D01*
X150858256Y-145062205D01*
X151027774Y-144948937D01*
X151171937Y-144804774D01*
X151285205Y-144635256D01*
X151363226Y-144446898D01*
X151403000Y-144246939D01*
X151403000Y-144043061D01*
X151363226Y-143843102D01*
X151285205Y-143654744D01*
X151171937Y-143485226D01*
X151069711Y-143383000D01*
X155746163Y-143383000D01*
X155754188Y-143464482D01*
X155790498Y-143584180D01*
X155849463Y-143694494D01*
X155928815Y-143791185D01*
X156025506Y-143870537D01*
X156135820Y-143929502D01*
X156255518Y-143965812D01*
X156380000Y-143978072D01*
X156606084Y-143978072D01*
X156559550Y-144024606D01*
X156429866Y-144218692D01*
X156340539Y-144434348D01*
X156295000Y-144663288D01*
X156295000Y-144896712D01*
X156340539Y-145125652D01*
X156429866Y-145341308D01*
X156559550Y-145535394D01*
X156724606Y-145700450D01*
X156918692Y-145830134D01*
X157134348Y-145919461D01*
X157152140Y-145923000D01*
X144923349Y-145923000D01*
X144935205Y-145905256D01*
X145013226Y-145716898D01*
X145053000Y-145516939D01*
X145053000Y-145313061D01*
X145013226Y-145113102D01*
X144935205Y-144924744D01*
X144821937Y-144755226D01*
X144677774Y-144611063D01*
X144508256Y-144497795D01*
X144319898Y-144419774D01*
X144119939Y-144380000D01*
X143916061Y-144380000D01*
X143716102Y-144419774D01*
X143527744Y-144497795D01*
X143358226Y-144611063D01*
X143214063Y-144755226D01*
X143100795Y-144924744D01*
X143022774Y-145113102D01*
X142983000Y-145313061D01*
X142983000Y-145516939D01*
X143022774Y-145716898D01*
X143100795Y-145905256D01*
X143112651Y-145923000D01*
X129867860Y-145923000D01*
X129885652Y-145919461D01*
X130101308Y-145830134D01*
X130295394Y-145700450D01*
X130460450Y-145535394D01*
X130590134Y-145341308D01*
X130679461Y-145125652D01*
X130725000Y-144896712D01*
X130725000Y-144663288D01*
X130679461Y-144434348D01*
X130590134Y-144218692D01*
X130460450Y-144024606D01*
X130295394Y-143859550D01*
X130245048Y-143825910D01*
X130361831Y-143777537D01*
X130645998Y-143587663D01*
X130887663Y-143345998D01*
X131077537Y-143061831D01*
X131208325Y-142746081D01*
X131275000Y-142410883D01*
X131275000Y-142069117D01*
X131208325Y-141733919D01*
X131077537Y-141418169D01*
X130887663Y-141134002D01*
X130645998Y-140892337D01*
X130361831Y-140702463D01*
X130046081Y-140571675D01*
X129710883Y-140505000D01*
X129369117Y-140505000D01*
X129033919Y-140571675D01*
X128718169Y-140702463D01*
X128617557Y-140769690D01*
X128551185Y-140688815D01*
X128454494Y-140609463D01*
X128344180Y-140550498D01*
X128224482Y-140514188D01*
X128100000Y-140501928D01*
X125900000Y-140501928D01*
X125775518Y-140514188D01*
X125655820Y-140550498D01*
X125545506Y-140609463D01*
X125448815Y-140688815D01*
X125369463Y-140785506D01*
X125310498Y-140895820D01*
X125274188Y-141015518D01*
X125261928Y-141140000D01*
X125261928Y-143340000D01*
X125274188Y-143464482D01*
X125310498Y-143584180D01*
X125369463Y-143694494D01*
X125448815Y-143791185D01*
X125545506Y-143870537D01*
X125655820Y-143929502D01*
X125775518Y-143965812D01*
X125900000Y-143978072D01*
X126126084Y-143978072D01*
X126079550Y-144024606D01*
X125949866Y-144218692D01*
X125860539Y-144434348D01*
X125815000Y-144663288D01*
X125815000Y-144896712D01*
X125860539Y-145125652D01*
X125949866Y-145341308D01*
X126079550Y-145535394D01*
X126244606Y-145700450D01*
X126438692Y-145830134D01*
X126654348Y-145919461D01*
X126672140Y-145923000D01*
X122247860Y-145923000D01*
X122265652Y-145919461D01*
X122481308Y-145830134D01*
X122675394Y-145700450D01*
X122840450Y-145535394D01*
X122970134Y-145341308D01*
X123059461Y-145125652D01*
X123105000Y-144896712D01*
X123105000Y-144663288D01*
X123059461Y-144434348D01*
X122970134Y-144218692D01*
X122840450Y-144024606D01*
X122675394Y-143859550D01*
X122625048Y-143825910D01*
X122741831Y-143777537D01*
X123025998Y-143587663D01*
X123267663Y-143345998D01*
X123457537Y-143061831D01*
X123588325Y-142746081D01*
X123655000Y-142410883D01*
X123655000Y-142069117D01*
X123588325Y-141733919D01*
X123457537Y-141418169D01*
X123267663Y-141134002D01*
X123025998Y-140892337D01*
X122741831Y-140702463D01*
X122426081Y-140571675D01*
X122090883Y-140505000D01*
X121749117Y-140505000D01*
X121413919Y-140571675D01*
X121098169Y-140702463D01*
X120997557Y-140769690D01*
X120931185Y-140688815D01*
X120834494Y-140609463D01*
X120724180Y-140550498D01*
X120604482Y-140514188D01*
X120480000Y-140501928D01*
X118280000Y-140501928D01*
X118155518Y-140514188D01*
X118035820Y-140550498D01*
X117925506Y-140609463D01*
X117828815Y-140688815D01*
X117749463Y-140785506D01*
X117690498Y-140895820D01*
X117654188Y-141015518D01*
X117641928Y-141140000D01*
X117641928Y-143340000D01*
X117654188Y-143464482D01*
X117690498Y-143584180D01*
X117749463Y-143694494D01*
X117828815Y-143791185D01*
X117925506Y-143870537D01*
X118035820Y-143929502D01*
X118155518Y-143965812D01*
X118280000Y-143978072D01*
X118506084Y-143978072D01*
X118459550Y-144024606D01*
X118329866Y-144218692D01*
X118240539Y-144434348D01*
X118195000Y-144663288D01*
X118195000Y-144896712D01*
X118240539Y-145125652D01*
X118329866Y-145341308D01*
X118459550Y-145535394D01*
X118624606Y-145700450D01*
X118818692Y-145830134D01*
X119034348Y-145919461D01*
X119052140Y-145923000D01*
X115697000Y-145923000D01*
X115697000Y-65389092D01*
X115737140Y-65464190D01*
G37*
X115737140Y-65464190D02*
X115864104Y-65618896D01*
X115902873Y-65650713D01*
X122576907Y-72324747D01*
X122353158Y-72232068D01*
X122066260Y-72175000D01*
X121773740Y-72175000D01*
X121486842Y-72232068D01*
X121216589Y-72344010D01*
X120973368Y-72506525D01*
X120841513Y-72638380D01*
X120819502Y-72565820D01*
X120760537Y-72455506D01*
X120681185Y-72358815D01*
X120584494Y-72279463D01*
X120474180Y-72220498D01*
X120354482Y-72184188D01*
X120230000Y-72171928D01*
X118530000Y-72171928D01*
X118405518Y-72184188D01*
X118285820Y-72220498D01*
X118175506Y-72279463D01*
X118078815Y-72358815D01*
X117999463Y-72455506D01*
X117940498Y-72565820D01*
X117904188Y-72685518D01*
X117891928Y-72810000D01*
X117891928Y-74510000D01*
X117904188Y-74634482D01*
X117940498Y-74754180D01*
X117999463Y-74864494D01*
X118078815Y-74961185D01*
X118175506Y-75040537D01*
X118285820Y-75099502D01*
X118358380Y-75121513D01*
X118226525Y-75253368D01*
X118064010Y-75496589D01*
X117952068Y-75766842D01*
X117895000Y-76053740D01*
X117895000Y-76346260D01*
X117952068Y-76633158D01*
X118064010Y-76903411D01*
X118226525Y-77146632D01*
X118433368Y-77353475D01*
X118607760Y-77470000D01*
X118433368Y-77586525D01*
X118226525Y-77793368D01*
X118064010Y-78036589D01*
X117952068Y-78306842D01*
X117895000Y-78593740D01*
X117895000Y-78886260D01*
X117952068Y-79173158D01*
X118064010Y-79443411D01*
X118226525Y-79686632D01*
X118433368Y-79893475D01*
X118607760Y-80010000D01*
X118433368Y-80126525D01*
X118226525Y-80333368D01*
X118064010Y-80576589D01*
X117952068Y-80846842D01*
X117895000Y-81133740D01*
X117895000Y-81328159D01*
X116283868Y-82939292D01*
X116245105Y-82971104D01*
X116118141Y-83125810D01*
X116047804Y-83257402D01*
X116023799Y-83302313D01*
X115965702Y-83493830D01*
X115946085Y-83693000D01*
X115951001Y-83742912D01*
X115951000Y-92787098D01*
X115946085Y-92837000D01*
X115954752Y-92925000D01*
X115965702Y-93036170D01*
X116023798Y-93227686D01*
X116118140Y-93404190D01*
X116245104Y-93558896D01*
X116283872Y-93590712D01*
X117610292Y-94917133D01*
X117642104Y-94955896D01*
X117796810Y-95082860D01*
X117973313Y-95177202D01*
X118087364Y-95211799D01*
X118078815Y-95218815D01*
X117999463Y-95315506D01*
X117940498Y-95425820D01*
X117904188Y-95545518D01*
X117891928Y-95670000D01*
X117891928Y-97370000D01*
X117904188Y-97494482D01*
X117940498Y-97614180D01*
X117999463Y-97724494D01*
X118078815Y-97821185D01*
X118175506Y-97900537D01*
X118285820Y-97959502D01*
X118358380Y-97981513D01*
X118226525Y-98113368D01*
X118064010Y-98356589D01*
X117952068Y-98626842D01*
X117895000Y-98913740D01*
X117895000Y-99206260D01*
X117952068Y-99493158D01*
X118064010Y-99763411D01*
X118226525Y-100006632D01*
X118433368Y-100213475D01*
X118607760Y-100330000D01*
X118433368Y-100446525D01*
X118226525Y-100653368D01*
X118064010Y-100896589D01*
X117952068Y-101166842D01*
X117895000Y-101453740D01*
X117895000Y-101746260D01*
X117952068Y-102033158D01*
X118064010Y-102303411D01*
X118226525Y-102546632D01*
X118433368Y-102753475D01*
X118607760Y-102870000D01*
X118433368Y-102986525D01*
X118226525Y-103193368D01*
X118064010Y-103436589D01*
X117952068Y-103706842D01*
X117895000Y-103993740D01*
X117895000Y-104286260D01*
X117952068Y-104573158D01*
X118064010Y-104843411D01*
X118226525Y-105086632D01*
X118433368Y-105293475D01*
X118607760Y-105410000D01*
X118433368Y-105526525D01*
X118226525Y-105733368D01*
X118064010Y-105976589D01*
X117952068Y-106246842D01*
X117895000Y-106533740D01*
X117895000Y-106826260D01*
X117952068Y-107113158D01*
X118064010Y-107383411D01*
X118226525Y-107626632D01*
X118433368Y-107833475D01*
X118607760Y-107950000D01*
X118433368Y-108066525D01*
X118226525Y-108273368D01*
X118064010Y-108516589D01*
X117952068Y-108786842D01*
X117895000Y-109073740D01*
X117895000Y-109366260D01*
X117952068Y-109653158D01*
X118064010Y-109923411D01*
X118226525Y-110166632D01*
X118433368Y-110373475D01*
X118607760Y-110490000D01*
X118433368Y-110606525D01*
X118226525Y-110813368D01*
X118064010Y-111056589D01*
X117952068Y-111326842D01*
X117895000Y-111613740D01*
X117895000Y-111906260D01*
X117952068Y-112193158D01*
X118064010Y-112463411D01*
X118226525Y-112706632D01*
X118433368Y-112913475D01*
X118607760Y-113030000D01*
X118433368Y-113146525D01*
X118226525Y-113353368D01*
X118064010Y-113596589D01*
X117952068Y-113866842D01*
X117895000Y-114153740D01*
X117895000Y-114446260D01*
X117952068Y-114733158D01*
X118064010Y-115003411D01*
X118226525Y-115246632D01*
X118433368Y-115453475D01*
X118607760Y-115570000D01*
X118433368Y-115686525D01*
X118226525Y-115893368D01*
X118064010Y-116136589D01*
X117952068Y-116406842D01*
X117895000Y-116693740D01*
X117895000Y-116986260D01*
X117952068Y-117273158D01*
X118064010Y-117543411D01*
X118226525Y-117786632D01*
X118433368Y-117993475D01*
X118607760Y-118110000D01*
X118433368Y-118226525D01*
X118226525Y-118433368D01*
X118064010Y-118676589D01*
X117952068Y-118946842D01*
X117895000Y-119233740D01*
X117895000Y-119526260D01*
X117952068Y-119813158D01*
X118064010Y-120083411D01*
X118226525Y-120326632D01*
X118433368Y-120533475D01*
X118607760Y-120650000D01*
X118433368Y-120766525D01*
X118226525Y-120973368D01*
X118064010Y-121216589D01*
X117952068Y-121486842D01*
X117895000Y-121773740D01*
X117895000Y-122066260D01*
X117952068Y-122353158D01*
X118064010Y-122623411D01*
X118226525Y-122866632D01*
X118433368Y-123073475D01*
X118615534Y-123195195D01*
X118498645Y-123264822D01*
X118282412Y-123459731D01*
X118108359Y-123693080D01*
X117983175Y-123955901D01*
X117938524Y-124103110D01*
X118059845Y-124333000D01*
X119253000Y-124333000D01*
X119253000Y-124313000D01*
X119507000Y-124313000D01*
X119507000Y-124333000D01*
X119527000Y-124333000D01*
X119527000Y-124587000D01*
X119507000Y-124587000D01*
X119507000Y-124607000D01*
X119253000Y-124607000D01*
X119253000Y-124587000D01*
X118059845Y-124587000D01*
X117938524Y-124816890D01*
X117983175Y-124964099D01*
X118108359Y-125226920D01*
X118282412Y-125460269D01*
X118498645Y-125655178D01*
X118615534Y-125724805D01*
X118433368Y-125846525D01*
X118226525Y-126053368D01*
X118064010Y-126296589D01*
X117952068Y-126566842D01*
X117895000Y-126853740D01*
X117895000Y-127146260D01*
X117952068Y-127433158D01*
X118064010Y-127703411D01*
X118226525Y-127946632D01*
X118433368Y-128153475D01*
X118607760Y-128270000D01*
X118433368Y-128386525D01*
X118226525Y-128593368D01*
X118064010Y-128836589D01*
X117952068Y-129106842D01*
X117895000Y-129393740D01*
X117895000Y-129686260D01*
X117952068Y-129973158D01*
X118064010Y-130243411D01*
X118226525Y-130486632D01*
X118433368Y-130693475D01*
X118607760Y-130810000D01*
X118433368Y-130926525D01*
X118226525Y-131133368D01*
X118064010Y-131376589D01*
X117952068Y-131646842D01*
X117895000Y-131933740D01*
X117895000Y-132226260D01*
X117952068Y-132513158D01*
X118064010Y-132783411D01*
X118226525Y-133026632D01*
X118433368Y-133233475D01*
X118676589Y-133395990D01*
X118946842Y-133507932D01*
X119233740Y-133565000D01*
X119526260Y-133565000D01*
X119813158Y-133507932D01*
X120083411Y-133395990D01*
X120326632Y-133233475D01*
X120533475Y-133026632D01*
X120650000Y-132852240D01*
X120766525Y-133026632D01*
X120973368Y-133233475D01*
X121216589Y-133395990D01*
X121486842Y-133507932D01*
X121773740Y-133565000D01*
X122066260Y-133565000D01*
X122353158Y-133507932D01*
X122623411Y-133395990D01*
X122866632Y-133233475D01*
X123073475Y-133026632D01*
X123235990Y-132783411D01*
X123347932Y-132513158D01*
X123405000Y-132226260D01*
X123405000Y-131933740D01*
X123347932Y-131646842D01*
X123235990Y-131376589D01*
X123073475Y-131133368D01*
X122866632Y-130926525D01*
X122692240Y-130810000D01*
X122866632Y-130693475D01*
X123073475Y-130486632D01*
X123235990Y-130243411D01*
X123347932Y-129973158D01*
X123405000Y-129686260D01*
X123405000Y-129393740D01*
X123347932Y-129106842D01*
X123235990Y-128836589D01*
X123073475Y-128593368D01*
X122866632Y-128386525D01*
X122692240Y-128270000D01*
X122866632Y-128153475D01*
X123073475Y-127946632D01*
X123235990Y-127703411D01*
X123347932Y-127433158D01*
X123405000Y-127146260D01*
X123405000Y-126853740D01*
X123347932Y-126566842D01*
X123235990Y-126296589D01*
X123073475Y-126053368D01*
X122866632Y-125846525D01*
X122729747Y-125755061D01*
X124891989Y-125755061D01*
X124891989Y-125958939D01*
X124931763Y-126158898D01*
X125009784Y-126347256D01*
X125123052Y-126516774D01*
X125267215Y-126660937D01*
X125436733Y-126774205D01*
X125625091Y-126852226D01*
X125825050Y-126892000D01*
X126028928Y-126892000D01*
X126228887Y-126852226D01*
X126417245Y-126774205D01*
X126586763Y-126660937D01*
X126730926Y-126516774D01*
X126844194Y-126347256D01*
X126922215Y-126158898D01*
X126961989Y-125958939D01*
X126961989Y-125755061D01*
X126922215Y-125555102D01*
X126844194Y-125366744D01*
X126730926Y-125197226D01*
X126586763Y-125053063D01*
X126417245Y-124939795D01*
X126228887Y-124861774D01*
X126028928Y-124822000D01*
X125825050Y-124822000D01*
X125625091Y-124861774D01*
X125436733Y-124939795D01*
X125267215Y-125053063D01*
X125123052Y-125197226D01*
X125009784Y-125366744D01*
X124931763Y-125555102D01*
X124891989Y-125755061D01*
X122729747Y-125755061D01*
X122692240Y-125730000D01*
X122866632Y-125613475D01*
X123073475Y-125406632D01*
X123235990Y-125163411D01*
X123347932Y-124893158D01*
X123405000Y-124606260D01*
X123405000Y-124313740D01*
X123347932Y-124026842D01*
X123235990Y-123756589D01*
X123073475Y-123513368D01*
X122866632Y-123306525D01*
X122692240Y-123190000D01*
X122866632Y-123073475D01*
X123073475Y-122866632D01*
X123235990Y-122623411D01*
X123347932Y-122353158D01*
X123405000Y-122066260D01*
X123405000Y-121773740D01*
X123347932Y-121486842D01*
X123235990Y-121216589D01*
X123073475Y-120973368D01*
X122866632Y-120766525D01*
X122692240Y-120650000D01*
X122866632Y-120533475D01*
X123073475Y-120326632D01*
X123235990Y-120083411D01*
X123347932Y-119813158D01*
X123405000Y-119526260D01*
X123405000Y-119233740D01*
X123347932Y-118946842D01*
X123235990Y-118676589D01*
X123073475Y-118433368D01*
X122866632Y-118226525D01*
X122692240Y-118110000D01*
X122866632Y-117993475D01*
X123073475Y-117786632D01*
X123235990Y-117543411D01*
X123347932Y-117273158D01*
X123405000Y-116986260D01*
X123405000Y-116862630D01*
X125591640Y-119049271D01*
X125615497Y-119078341D01*
X125731527Y-119173564D01*
X125863904Y-119244321D01*
X126007541Y-119287893D01*
X126119493Y-119298919D01*
X126119495Y-119298919D01*
X126156918Y-119302605D01*
X126194341Y-119298919D01*
X129588777Y-119298919D01*
X129409262Y-119373277D01*
X129239744Y-119486545D01*
X129095581Y-119630708D01*
X128982313Y-119800226D01*
X128904292Y-119988584D01*
X128864518Y-120188543D01*
X128864518Y-120392421D01*
X128904292Y-120592380D01*
X128982313Y-120780738D01*
X129095581Y-120950256D01*
X129137518Y-120992193D01*
X129137519Y-129684749D01*
X129043034Y-129779234D01*
X128929766Y-129948752D01*
X128851745Y-130137110D01*
X128811971Y-130337069D01*
X128811971Y-130540947D01*
X128851745Y-130740906D01*
X128929766Y-130929264D01*
X129043034Y-131098782D01*
X129153216Y-131208964D01*
X128433631Y-131208964D01*
X127607338Y-130382671D01*
X127607338Y-130323362D01*
X127567564Y-130123403D01*
X127489543Y-129935045D01*
X127376275Y-129765527D01*
X127232112Y-129621364D01*
X127062594Y-129508096D01*
X126874236Y-129430075D01*
X126674277Y-129390301D01*
X126470399Y-129390301D01*
X126270440Y-129430075D01*
X126082082Y-129508096D01*
X125912564Y-129621364D01*
X125768401Y-129765527D01*
X125655133Y-129935045D01*
X125577112Y-130123403D01*
X125537338Y-130323362D01*
X125537338Y-130527240D01*
X125577112Y-130727199D01*
X125655133Y-130915557D01*
X125768401Y-131085075D01*
X125912564Y-131229238D01*
X126082082Y-131342506D01*
X126270440Y-131420527D01*
X126470399Y-131460301D01*
X126529708Y-131460301D01*
X127552717Y-132483310D01*
X127576579Y-132512386D01*
X127617615Y-132546063D01*
X127692608Y-132607609D01*
X127727476Y-132626246D01*
X127824986Y-132678366D01*
X127968623Y-132721938D01*
X128080575Y-132732964D01*
X128080578Y-132732964D01*
X128118001Y-132736650D01*
X128155424Y-132732964D01*
X129865613Y-132732964D01*
X129903036Y-132736650D01*
X129940459Y-132732964D01*
X129940462Y-132732964D01*
X130052414Y-132721938D01*
X130196051Y-132678366D01*
X130328428Y-132607609D01*
X130444458Y-132512386D01*
X130468320Y-132483310D01*
X133137424Y-129814207D01*
X133166494Y-129790350D01*
X133261717Y-129674320D01*
X133332474Y-129541943D01*
X133376046Y-129398306D01*
X133387072Y-129286354D01*
X133387072Y-129286352D01*
X133390758Y-129248929D01*
X133387072Y-129211506D01*
X133387072Y-120528475D01*
X133430288Y-120546376D01*
X133630247Y-120586150D01*
X133697187Y-120586150D01*
X133697188Y-134613971D01*
X132898205Y-135412954D01*
X132817226Y-135467063D01*
X132673063Y-135611226D01*
X132559795Y-135780744D01*
X132481774Y-135969102D01*
X132442000Y-136169061D01*
X132442000Y-136372939D01*
X132481774Y-136572898D01*
X132559795Y-136761256D01*
X132673063Y-136930774D01*
X132817226Y-137074937D01*
X132986744Y-137188205D01*
X133175102Y-137266226D01*
X133375061Y-137306000D01*
X133578939Y-137306000D01*
X133778898Y-137266226D01*
X133967256Y-137188205D01*
X134136774Y-137074937D01*
X134280937Y-136930774D01*
X134335046Y-136849795D01*
X135128001Y-136056840D01*
X135128001Y-137388841D01*
X134974320Y-137325184D01*
X134774361Y-137285410D01*
X134570483Y-137285410D01*
X134370524Y-137325184D01*
X134182166Y-137403205D01*
X134012648Y-137516473D01*
X133868485Y-137660636D01*
X133755217Y-137830154D01*
X133677196Y-138018512D01*
X133637422Y-138218471D01*
X133637422Y-138422349D01*
X133677196Y-138622308D01*
X133755217Y-138810666D01*
X133868485Y-138980184D01*
X134012648Y-139124347D01*
X134182166Y-139237615D01*
X134370524Y-139315636D01*
X134570483Y-139355410D01*
X134774361Y-139355410D01*
X134974320Y-139315636D01*
X135128001Y-139251979D01*
X135128001Y-143058536D01*
X135109000Y-143154061D01*
X135109000Y-143357939D01*
X135148774Y-143557898D01*
X135226795Y-143746256D01*
X135340063Y-143915774D01*
X135484226Y-144059937D01*
X135653744Y-144173205D01*
X135842102Y-144251226D01*
X136042061Y-144291000D01*
X136245939Y-144291000D01*
X136445898Y-144251226D01*
X136634256Y-144173205D01*
X136803774Y-144059937D01*
X136947937Y-143915774D01*
X137061205Y-143746256D01*
X137139226Y-143557898D01*
X137179000Y-143357939D01*
X137179000Y-143154061D01*
X137160000Y-143058541D01*
X137160000Y-137312061D01*
X144253000Y-137312061D01*
X144253000Y-137515939D01*
X144292774Y-137715898D01*
X144370795Y-137904256D01*
X144484063Y-138073774D01*
X144628226Y-138217937D01*
X144797744Y-138331205D01*
X144986102Y-138409226D01*
X145186061Y-138449000D01*
X145389939Y-138449000D01*
X145589898Y-138409226D01*
X145778256Y-138331205D01*
X145947774Y-138217937D01*
X146091937Y-138073774D01*
X146205205Y-137904256D01*
X146283226Y-137715898D01*
X146323000Y-137515939D01*
X146323000Y-137312061D01*
X146283226Y-137112102D01*
X146205205Y-136923744D01*
X146091937Y-136754226D01*
X145947774Y-136610063D01*
X145778256Y-136496795D01*
X145589898Y-136418774D01*
X145389939Y-136379000D01*
X145186061Y-136379000D01*
X144986102Y-136418774D01*
X144797744Y-136496795D01*
X144628226Y-136610063D01*
X144484063Y-136754226D01*
X144370795Y-136923744D01*
X144292774Y-137112102D01*
X144253000Y-137312061D01*
X137160000Y-137312061D01*
X137160000Y-131047043D01*
X139723018Y-131047043D01*
X139723018Y-131250921D01*
X139762792Y-131450880D01*
X139840813Y-131639238D01*
X139954081Y-131808756D01*
X140098244Y-131952919D01*
X140267762Y-132066187D01*
X140456120Y-132144208D01*
X140656079Y-132183982D01*
X140859957Y-132183982D01*
X141059916Y-132144208D01*
X141248274Y-132066187D01*
X141417792Y-131952919D01*
X141561955Y-131808756D01*
X141675223Y-131639238D01*
X141753244Y-131450880D01*
X141793018Y-131250921D01*
X141793018Y-131047043D01*
X141753244Y-130847084D01*
X141675223Y-130658726D01*
X141561955Y-130489208D01*
X141417792Y-130345045D01*
X141248274Y-130231777D01*
X141059916Y-130153756D01*
X140859957Y-130113982D01*
X140656079Y-130113982D01*
X140456120Y-130153756D01*
X140267762Y-130231777D01*
X140098244Y-130345045D01*
X139954081Y-130489208D01*
X139840813Y-130658726D01*
X139762792Y-130847084D01*
X139723018Y-131047043D01*
X137160000Y-131047043D01*
X137160000Y-125395543D01*
X138643518Y-125395543D01*
X138643518Y-125599421D01*
X138683292Y-125799380D01*
X138761313Y-125987738D01*
X138874581Y-126157256D01*
X139018744Y-126301419D01*
X139188262Y-126414687D01*
X139376620Y-126492708D01*
X139576579Y-126532482D01*
X139780457Y-126532482D01*
X139980416Y-126492708D01*
X140168774Y-126414687D01*
X140338292Y-126301419D01*
X140482455Y-126157256D01*
X140595723Y-125987738D01*
X140673744Y-125799380D01*
X140713518Y-125599421D01*
X140713518Y-125395543D01*
X140673744Y-125195584D01*
X140595723Y-125007226D01*
X140482455Y-124837708D01*
X140338292Y-124693545D01*
X140168774Y-124580277D01*
X139980416Y-124502256D01*
X139780457Y-124462482D01*
X139576579Y-124462482D01*
X139376620Y-124502256D01*
X139188262Y-124580277D01*
X139018744Y-124693545D01*
X138874581Y-124837708D01*
X138761313Y-125007226D01*
X138683292Y-125195584D01*
X138643518Y-125395543D01*
X137160000Y-125395543D01*
X137160000Y-124220508D01*
X137290579Y-124246482D01*
X137494457Y-124246482D01*
X137694416Y-124206708D01*
X137882774Y-124128687D01*
X138052292Y-124015419D01*
X138196455Y-123871256D01*
X138243550Y-123800772D01*
X138262896Y-123784896D01*
X138389860Y-123630190D01*
X138484202Y-123453687D01*
X138542298Y-123262171D01*
X138557000Y-123112902D01*
X138557000Y-123112895D01*
X138561914Y-123063001D01*
X138557000Y-123013107D01*
X138557000Y-122199061D01*
X140062000Y-122199061D01*
X140062000Y-122402939D01*
X140101774Y-122602898D01*
X140179795Y-122791256D01*
X140293063Y-122960774D01*
X140437226Y-123104937D01*
X140606744Y-123218205D01*
X140795102Y-123296226D01*
X140995061Y-123336000D01*
X141198939Y-123336000D01*
X141398898Y-123296226D01*
X141587256Y-123218205D01*
X141756774Y-123104937D01*
X141900937Y-122960774D01*
X142014205Y-122791256D01*
X142092226Y-122602898D01*
X142132000Y-122402939D01*
X142132000Y-122199061D01*
X142092226Y-121999102D01*
X142014205Y-121810744D01*
X141900937Y-121641226D01*
X141756774Y-121497063D01*
X141587256Y-121383795D01*
X141398898Y-121305774D01*
X141198939Y-121266000D01*
X140995061Y-121266000D01*
X140795102Y-121305774D01*
X140606744Y-121383795D01*
X140437226Y-121497063D01*
X140293063Y-121641226D01*
X140179795Y-121810744D01*
X140101774Y-121999102D01*
X140062000Y-122199061D01*
X138557000Y-122199061D01*
X138557000Y-120165747D01*
X138617208Y-120225955D01*
X138786726Y-120339223D01*
X138975084Y-120417244D01*
X139175043Y-120457018D01*
X139378921Y-120457018D01*
X139578880Y-120417244D01*
X139767238Y-120339223D01*
X139936756Y-120225955D01*
X140080919Y-120081792D01*
X140194187Y-119912274D01*
X140272208Y-119723916D01*
X140311982Y-119523957D01*
X140311982Y-119320079D01*
X140272208Y-119120120D01*
X140194187Y-118931762D01*
X140080919Y-118762244D01*
X139936756Y-118618081D01*
X139767238Y-118504813D01*
X139578880Y-118426792D01*
X139575483Y-118426116D01*
X139575483Y-115262565D01*
X140926657Y-116613739D01*
X140902921Y-116609018D01*
X140699043Y-116609018D01*
X140499084Y-116648792D01*
X140310726Y-116726813D01*
X140141208Y-116840081D01*
X139997045Y-116984244D01*
X139883777Y-117153762D01*
X139805756Y-117342120D01*
X139765982Y-117542079D01*
X139765982Y-117745957D01*
X139805756Y-117945916D01*
X139883777Y-118134274D01*
X139997045Y-118303792D01*
X140141208Y-118447955D01*
X140310726Y-118561223D01*
X140499084Y-118639244D01*
X140699043Y-118679018D01*
X140902921Y-118679018D01*
X141102880Y-118639244D01*
X141291238Y-118561223D01*
X141460756Y-118447955D01*
X141604919Y-118303792D01*
X141718187Y-118134274D01*
X141796208Y-117945916D01*
X141835982Y-117745957D01*
X141835982Y-117542079D01*
X141831261Y-117518343D01*
X145729262Y-121416345D01*
X145744104Y-121434430D01*
X145559744Y-121510795D01*
X145390226Y-121624063D01*
X145246063Y-121768226D01*
X145132795Y-121937744D01*
X145054774Y-122126102D01*
X145015000Y-122326061D01*
X145015000Y-122529939D01*
X145054774Y-122729898D01*
X145132795Y-122918256D01*
X145144651Y-122936000D01*
X145132795Y-122953744D01*
X145054774Y-123142102D01*
X145015000Y-123342061D01*
X145015000Y-123404198D01*
X144014998Y-124404201D01*
X143986000Y-124427999D01*
X143962202Y-124456997D01*
X143962201Y-124456998D01*
X143891026Y-124543724D01*
X143820454Y-124675754D01*
X143797500Y-124751426D01*
X143776998Y-124819014D01*
X143766001Y-124930667D01*
X143762324Y-124968000D01*
X143766001Y-125005332D01*
X143766000Y-133566678D01*
X143762324Y-133604000D01*
X143766000Y-133641322D01*
X143766000Y-133641332D01*
X143776997Y-133752985D01*
X143810173Y-133862352D01*
X143820454Y-133896246D01*
X143891026Y-134028276D01*
X143895326Y-134033515D01*
X143985999Y-134144001D01*
X144015003Y-134167804D01*
X145523000Y-135675802D01*
X145523000Y-135737939D01*
X145562774Y-135937898D01*
X145640795Y-136126256D01*
X145754063Y-136295774D01*
X145898226Y-136439937D01*
X146067744Y-136553205D01*
X146256102Y-136631226D01*
X146456061Y-136671000D01*
X146659939Y-136671000D01*
X146859898Y-136631226D01*
X147048256Y-136553205D01*
X147217774Y-136439937D01*
X147320001Y-136337710D01*
X147320000Y-139633289D01*
X147278063Y-139675226D01*
X147164795Y-139844744D01*
X147086774Y-140033102D01*
X147047000Y-140233061D01*
X147047000Y-140436939D01*
X147077247Y-140589000D01*
X144846711Y-140589000D01*
X144804774Y-140547063D01*
X144635256Y-140433795D01*
X144446898Y-140355774D01*
X144246939Y-140316000D01*
X144043061Y-140316000D01*
X143843102Y-140355774D01*
X143654744Y-140433795D01*
X143485226Y-140547063D01*
X143341063Y-140691226D01*
X143227795Y-140860744D01*
X143149774Y-141049102D01*
X143110000Y-141249061D01*
X143110000Y-141452939D01*
X143136467Y-141586000D01*
X143027061Y-141586000D01*
X142827102Y-141625774D01*
X142638744Y-141703795D01*
X142469226Y-141817063D01*
X142325063Y-141961226D01*
X142211795Y-142130744D01*
X142133774Y-142319102D01*
X142094000Y-142519061D01*
X142094000Y-142722939D01*
X142133774Y-142922898D01*
X142211795Y-143111256D01*
X142325063Y-143280774D01*
X142469226Y-143424937D01*
X142638744Y-143538205D01*
X142827102Y-143616226D01*
X143027061Y-143656000D01*
X143230939Y-143656000D01*
X143430898Y-143616226D01*
X143619256Y-143538205D01*
X143788774Y-143424937D01*
X143830711Y-143383000D01*
X149666289Y-143383000D01*
X149564063Y-143485226D01*
X149450795Y-143654744D01*
X149372774Y-143843102D01*
X149333000Y-144043061D01*
X149333000Y-144246939D01*
X149372774Y-144446898D01*
X149450795Y-144635256D01*
X149564063Y-144804774D01*
X149708226Y-144948937D01*
X149877744Y-145062205D01*
X150066102Y-145140226D01*
X150266061Y-145180000D01*
X150469939Y-145180000D01*
X150669898Y-145140226D01*
X150858256Y-145062205D01*
X151027774Y-144948937D01*
X151171937Y-144804774D01*
X151285205Y-144635256D01*
X151363226Y-144446898D01*
X151403000Y-144246939D01*
X151403000Y-144043061D01*
X151363226Y-143843102D01*
X151285205Y-143654744D01*
X151171937Y-143485226D01*
X151069711Y-143383000D01*
X155746163Y-143383000D01*
X155754188Y-143464482D01*
X155790498Y-143584180D01*
X155849463Y-143694494D01*
X155928815Y-143791185D01*
X156025506Y-143870537D01*
X156135820Y-143929502D01*
X156255518Y-143965812D01*
X156380000Y-143978072D01*
X156606084Y-143978072D01*
X156559550Y-144024606D01*
X156429866Y-144218692D01*
X156340539Y-144434348D01*
X156295000Y-144663288D01*
X156295000Y-144896712D01*
X156340539Y-145125652D01*
X156429866Y-145341308D01*
X156559550Y-145535394D01*
X156724606Y-145700450D01*
X156918692Y-145830134D01*
X157134348Y-145919461D01*
X157152140Y-145923000D01*
X144923349Y-145923000D01*
X144935205Y-145905256D01*
X145013226Y-145716898D01*
X145053000Y-145516939D01*
X145053000Y-145313061D01*
X145013226Y-145113102D01*
X144935205Y-144924744D01*
X144821937Y-144755226D01*
X144677774Y-144611063D01*
X144508256Y-144497795D01*
X144319898Y-144419774D01*
X144119939Y-144380000D01*
X143916061Y-144380000D01*
X143716102Y-144419774D01*
X143527744Y-144497795D01*
X143358226Y-144611063D01*
X143214063Y-144755226D01*
X143100795Y-144924744D01*
X143022774Y-145113102D01*
X142983000Y-145313061D01*
X142983000Y-145516939D01*
X143022774Y-145716898D01*
X143100795Y-145905256D01*
X143112651Y-145923000D01*
X129867860Y-145923000D01*
X129885652Y-145919461D01*
X130101308Y-145830134D01*
X130295394Y-145700450D01*
X130460450Y-145535394D01*
X130590134Y-145341308D01*
X130679461Y-145125652D01*
X130725000Y-144896712D01*
X130725000Y-144663288D01*
X130679461Y-144434348D01*
X130590134Y-144218692D01*
X130460450Y-144024606D01*
X130295394Y-143859550D01*
X130245048Y-143825910D01*
X130361831Y-143777537D01*
X130645998Y-143587663D01*
X130887663Y-143345998D01*
X131077537Y-143061831D01*
X131208325Y-142746081D01*
X131275000Y-142410883D01*
X131275000Y-142069117D01*
X131208325Y-141733919D01*
X131077537Y-141418169D01*
X130887663Y-141134002D01*
X130645998Y-140892337D01*
X130361831Y-140702463D01*
X130046081Y-140571675D01*
X129710883Y-140505000D01*
X129369117Y-140505000D01*
X129033919Y-140571675D01*
X128718169Y-140702463D01*
X128617557Y-140769690D01*
X128551185Y-140688815D01*
X128454494Y-140609463D01*
X128344180Y-140550498D01*
X128224482Y-140514188D01*
X128100000Y-140501928D01*
X125900000Y-140501928D01*
X125775518Y-140514188D01*
X125655820Y-140550498D01*
X125545506Y-140609463D01*
X125448815Y-140688815D01*
X125369463Y-140785506D01*
X125310498Y-140895820D01*
X125274188Y-141015518D01*
X125261928Y-141140000D01*
X125261928Y-143340000D01*
X125274188Y-143464482D01*
X125310498Y-143584180D01*
X125369463Y-143694494D01*
X125448815Y-143791185D01*
X125545506Y-143870537D01*
X125655820Y-143929502D01*
X125775518Y-143965812D01*
X125900000Y-143978072D01*
X126126084Y-143978072D01*
X126079550Y-144024606D01*
X125949866Y-144218692D01*
X125860539Y-144434348D01*
X125815000Y-144663288D01*
X125815000Y-144896712D01*
X125860539Y-145125652D01*
X125949866Y-145341308D01*
X126079550Y-145535394D01*
X126244606Y-145700450D01*
X126438692Y-145830134D01*
X126654348Y-145919461D01*
X126672140Y-145923000D01*
X122247860Y-145923000D01*
X122265652Y-145919461D01*
X122481308Y-145830134D01*
X122675394Y-145700450D01*
X122840450Y-145535394D01*
X122970134Y-145341308D01*
X123059461Y-145125652D01*
X123105000Y-144896712D01*
X123105000Y-144663288D01*
X123059461Y-144434348D01*
X122970134Y-144218692D01*
X122840450Y-144024606D01*
X122675394Y-143859550D01*
X122625048Y-143825910D01*
X122741831Y-143777537D01*
X123025998Y-143587663D01*
X123267663Y-143345998D01*
X123457537Y-143061831D01*
X123588325Y-142746081D01*
X123655000Y-142410883D01*
X123655000Y-142069117D01*
X123588325Y-141733919D01*
X123457537Y-141418169D01*
X123267663Y-141134002D01*
X123025998Y-140892337D01*
X122741831Y-140702463D01*
X122426081Y-140571675D01*
X122090883Y-140505000D01*
X121749117Y-140505000D01*
X121413919Y-140571675D01*
X121098169Y-140702463D01*
X120997557Y-140769690D01*
X120931185Y-140688815D01*
X120834494Y-140609463D01*
X120724180Y-140550498D01*
X120604482Y-140514188D01*
X120480000Y-140501928D01*
X118280000Y-140501928D01*
X118155518Y-140514188D01*
X118035820Y-140550498D01*
X117925506Y-140609463D01*
X117828815Y-140688815D01*
X117749463Y-140785506D01*
X117690498Y-140895820D01*
X117654188Y-141015518D01*
X117641928Y-141140000D01*
X117641928Y-143340000D01*
X117654188Y-143464482D01*
X117690498Y-143584180D01*
X117749463Y-143694494D01*
X117828815Y-143791185D01*
X117925506Y-143870537D01*
X118035820Y-143929502D01*
X118155518Y-143965812D01*
X118280000Y-143978072D01*
X118506084Y-143978072D01*
X118459550Y-144024606D01*
X118329866Y-144218692D01*
X118240539Y-144434348D01*
X118195000Y-144663288D01*
X118195000Y-144896712D01*
X118240539Y-145125652D01*
X118329866Y-145341308D01*
X118459550Y-145535394D01*
X118624606Y-145700450D01*
X118818692Y-145830134D01*
X119034348Y-145919461D01*
X119052140Y-145923000D01*
X115697000Y-145923000D01*
X115697000Y-65389092D01*
X115737140Y-65464190D01*
G36*
X131293226Y-49742063D02*
G01*
X131149063Y-49886226D01*
X131035795Y-50055744D01*
X130957774Y-50244102D01*
X130918000Y-50444061D01*
X130918000Y-50647939D01*
X130957774Y-50847898D01*
X131035795Y-51036256D01*
X131047651Y-51054000D01*
X131035795Y-51071744D01*
X130957774Y-51260102D01*
X130918000Y-51460061D01*
X130918000Y-51663939D01*
X130957774Y-51863898D01*
X131035795Y-52052256D01*
X131149063Y-52221774D01*
X131293226Y-52365937D01*
X131462744Y-52479205D01*
X131651102Y-52557226D01*
X131851061Y-52597000D01*
X132054939Y-52597000D01*
X132254898Y-52557226D01*
X132443256Y-52479205D01*
X132612774Y-52365937D01*
X132756937Y-52221774D01*
X132870205Y-52052256D01*
X132948226Y-51863898D01*
X132988000Y-51663939D01*
X132988000Y-51460061D01*
X132948226Y-51260102D01*
X132870205Y-51071744D01*
X132858349Y-51054000D01*
X132870205Y-51036256D01*
X132948226Y-50847898D01*
X132988000Y-50647939D01*
X132988000Y-50444061D01*
X132948226Y-50244102D01*
X132870205Y-50055744D01*
X132756937Y-49886226D01*
X132612774Y-49742063D01*
X132485468Y-49657000D01*
X144332289Y-49657000D01*
X144230063Y-49759226D01*
X144116795Y-49928744D01*
X144038774Y-50117102D01*
X143999000Y-50317061D01*
X143999000Y-50520939D01*
X144038774Y-50720898D01*
X144116795Y-50909256D01*
X144128651Y-50927000D01*
X144116795Y-50944744D01*
X144038774Y-51133102D01*
X143999000Y-51333061D01*
X143999000Y-51536939D01*
X144038774Y-51736898D01*
X144116795Y-51925256D01*
X144230063Y-52094774D01*
X144374226Y-52238937D01*
X144543744Y-52352205D01*
X144732102Y-52430226D01*
X144932061Y-52470000D01*
X145135939Y-52470000D01*
X145335898Y-52430226D01*
X145524256Y-52352205D01*
X145693774Y-52238937D01*
X145837937Y-52094774D01*
X145951205Y-51925256D01*
X146029226Y-51736898D01*
X146069000Y-51536939D01*
X146069000Y-51333061D01*
X146029226Y-51133102D01*
X145951205Y-50944744D01*
X145939349Y-50927000D01*
X145951205Y-50909256D01*
X146029226Y-50720898D01*
X146069000Y-50520939D01*
X146069000Y-50317061D01*
X146029226Y-50117102D01*
X145951205Y-49928744D01*
X145837937Y-49759226D01*
X145735711Y-49657000D01*
X164772140Y-49657000D01*
X164754348Y-49660539D01*
X164538692Y-49749866D01*
X164344606Y-49879550D01*
X164179550Y-50044606D01*
X164049866Y-50238692D01*
X163960539Y-50454348D01*
X163915000Y-50683288D01*
X163915000Y-50916712D01*
X163960539Y-51145652D01*
X164049866Y-51361308D01*
X164179550Y-51555394D01*
X164344606Y-51720450D01*
X164388165Y-51749555D01*
X164379034Y-51752664D01*
X164180726Y-51858662D01*
X164072893Y-52133288D01*
X165100000Y-53160395D01*
X165114143Y-53146253D01*
X165293748Y-53325858D01*
X165279605Y-53340000D01*
X165293748Y-53354143D01*
X165114143Y-53533748D01*
X165100000Y-53519605D01*
X164072893Y-54546712D01*
X164180726Y-54821338D01*
X164487384Y-54972216D01*
X164817585Y-55060369D01*
X165158639Y-55082409D01*
X165497439Y-55037489D01*
X165820966Y-54927336D01*
X166019274Y-54821338D01*
X166023228Y-54811267D01*
X166088815Y-54891185D01*
X166185506Y-54970537D01*
X166295820Y-55029502D01*
X166415518Y-55065812D01*
X166540000Y-55078072D01*
X168740000Y-55078072D01*
X168864482Y-55065812D01*
X168984180Y-55029502D01*
X169094494Y-54970537D01*
X169191185Y-54891185D01*
X169270537Y-54794494D01*
X169329502Y-54684180D01*
X169365812Y-54564482D01*
X169378072Y-54440000D01*
X169378072Y-52240000D01*
X169365812Y-52115518D01*
X169329502Y-51995820D01*
X169270537Y-51885506D01*
X169191185Y-51788815D01*
X169094494Y-51709463D01*
X168984180Y-51650498D01*
X168864482Y-51614188D01*
X168740000Y-51601928D01*
X168513916Y-51601928D01*
X168560450Y-51555394D01*
X168690134Y-51361308D01*
X168779461Y-51145652D01*
X168825000Y-50916712D01*
X168825000Y-50683288D01*
X168779461Y-50454348D01*
X168690134Y-50238692D01*
X168560450Y-50044606D01*
X168395394Y-49879550D01*
X168201308Y-49749866D01*
X167985652Y-49660539D01*
X167967860Y-49657000D01*
X171323000Y-49657000D01*
X171323000Y-145923000D01*
X167967860Y-145923000D01*
X167985652Y-145919461D01*
X168201308Y-145830134D01*
X168395394Y-145700450D01*
X168560450Y-145535394D01*
X168690134Y-145341308D01*
X168779461Y-145125652D01*
X168825000Y-144896712D01*
X168825000Y-144663288D01*
X168779461Y-144434348D01*
X168690134Y-144218692D01*
X168560450Y-144024606D01*
X168395394Y-143859550D01*
X168345048Y-143825910D01*
X168461831Y-143777537D01*
X168745998Y-143587663D01*
X168987663Y-143345998D01*
X169177537Y-143061831D01*
X169308325Y-142746081D01*
X169375000Y-142410883D01*
X169375000Y-142069117D01*
X169308325Y-141733919D01*
X169177537Y-141418169D01*
X168987663Y-141134002D01*
X168745998Y-140892337D01*
X168461831Y-140702463D01*
X168146081Y-140571675D01*
X167810883Y-140505000D01*
X167469117Y-140505000D01*
X167133919Y-140571675D01*
X166818169Y-140702463D01*
X166717557Y-140769690D01*
X166651185Y-140688815D01*
X166554494Y-140609463D01*
X166444180Y-140550498D01*
X166324482Y-140514188D01*
X166200000Y-140501928D01*
X164000000Y-140501928D01*
X163875518Y-140514188D01*
X163755820Y-140550498D01*
X163645506Y-140609463D01*
X163548815Y-140688815D01*
X163469463Y-140785506D01*
X163410498Y-140895820D01*
X163374188Y-141015518D01*
X163361928Y-141140000D01*
X163361928Y-143340000D01*
X163374188Y-143464482D01*
X163410498Y-143584180D01*
X163469463Y-143694494D01*
X163548815Y-143791185D01*
X163645506Y-143870537D01*
X163755820Y-143929502D01*
X163875518Y-143965812D01*
X164000000Y-143978072D01*
X164226084Y-143978072D01*
X164179550Y-144024606D01*
X164049866Y-144218692D01*
X163960539Y-144434348D01*
X163915000Y-144663288D01*
X163915000Y-144896712D01*
X163960539Y-145125652D01*
X164049866Y-145341308D01*
X164179550Y-145535394D01*
X164344606Y-145700450D01*
X164538692Y-145830134D01*
X164754348Y-145919461D01*
X164772140Y-145923000D01*
X160347860Y-145923000D01*
X160365652Y-145919461D01*
X160581308Y-145830134D01*
X160775394Y-145700450D01*
X160940450Y-145535394D01*
X161070134Y-145341308D01*
X161159461Y-145125652D01*
X161205000Y-144896712D01*
X161205000Y-144663288D01*
X161159461Y-144434348D01*
X161070134Y-144218692D01*
X160940450Y-144024606D01*
X160775394Y-143859550D01*
X160725048Y-143825910D01*
X160841831Y-143777537D01*
X161125998Y-143587663D01*
X161367663Y-143345998D01*
X161557537Y-143061831D01*
X161688325Y-142746081D01*
X161755000Y-142410883D01*
X161755000Y-142069117D01*
X161688325Y-141733919D01*
X161557537Y-141418169D01*
X161367663Y-141134002D01*
X161125998Y-140892337D01*
X160841831Y-140702463D01*
X160526081Y-140571675D01*
X160190883Y-140505000D01*
X159849117Y-140505000D01*
X159513919Y-140571675D01*
X159198169Y-140702463D01*
X159097557Y-140769690D01*
X159031185Y-140688815D01*
X158934494Y-140609463D01*
X158824180Y-140550498D01*
X158704482Y-140514188D01*
X158580000Y-140501928D01*
X156380000Y-140501928D01*
X156255518Y-140514188D01*
X156135820Y-140550498D01*
X156025506Y-140609463D01*
X155928815Y-140688815D01*
X155849463Y-140785506D01*
X155790498Y-140895820D01*
X155754188Y-141015518D01*
X155741928Y-141140000D01*
X155741928Y-141859000D01*
X149413630Y-141859000D01*
X149991347Y-141281283D01*
X150020422Y-141257422D01*
X150080857Y-141183781D01*
X150115645Y-141141393D01*
X150186401Y-141009016D01*
X150186402Y-141009015D01*
X150229974Y-140865378D01*
X150241000Y-140753426D01*
X150241000Y-140753423D01*
X150244686Y-140716000D01*
X150241000Y-140678577D01*
X150241000Y-138364630D01*
X151299630Y-137306000D01*
X151358939Y-137306000D01*
X151558898Y-137266226D01*
X151619000Y-137241331D01*
X151619000Y-137388939D01*
X151658774Y-137588898D01*
X151736795Y-137777256D01*
X151850063Y-137946774D01*
X151994226Y-138090937D01*
X152163744Y-138204205D01*
X152352102Y-138282226D01*
X152552061Y-138322000D01*
X152755939Y-138322000D01*
X152955898Y-138282226D01*
X153144256Y-138204205D01*
X153313774Y-138090937D01*
X153457937Y-137946774D01*
X153571205Y-137777256D01*
X153649226Y-137588898D01*
X153689000Y-137388939D01*
X153689000Y-137185061D01*
X153649226Y-136985102D01*
X153571205Y-136796744D01*
X153457937Y-136627226D01*
X153313774Y-136483063D01*
X153144256Y-136369795D01*
X152955898Y-136291774D01*
X152755939Y-136252000D01*
X152552061Y-136252000D01*
X152352102Y-136291774D01*
X152292000Y-136316669D01*
X152292000Y-136169061D01*
X152252226Y-135969102D01*
X152174205Y-135780744D01*
X152060937Y-135611226D01*
X151916774Y-135467063D01*
X151747256Y-135353795D01*
X151558898Y-135275774D01*
X151358939Y-135236000D01*
X151155061Y-135236000D01*
X150955102Y-135275774D01*
X150766744Y-135353795D01*
X150597226Y-135467063D01*
X150453063Y-135611226D01*
X150339795Y-135780744D01*
X150261774Y-135969102D01*
X150222000Y-136169061D01*
X150222000Y-136228370D01*
X148966649Y-137483721D01*
X148937579Y-137507578D01*
X148913722Y-137536648D01*
X148913721Y-137536649D01*
X148844000Y-137621604D01*
X148844000Y-135189630D01*
X149648631Y-134385000D01*
X149707939Y-134385000D01*
X149907898Y-134345226D01*
X150096256Y-134267205D01*
X150265774Y-134153937D01*
X150409937Y-134009774D01*
X150523205Y-133840256D01*
X150601226Y-133651898D01*
X150641000Y-133451939D01*
X150641000Y-133248061D01*
X150601226Y-133048102D01*
X150523205Y-132859744D01*
X150409937Y-132690226D01*
X150265774Y-132546063D01*
X150096256Y-132432795D01*
X149907898Y-132354774D01*
X149707939Y-132315000D01*
X149504061Y-132315000D01*
X149304102Y-132354774D01*
X149115744Y-132432795D01*
X148946226Y-132546063D01*
X148802063Y-132690226D01*
X148688795Y-132859744D01*
X148610774Y-133048102D01*
X148571000Y-133248061D01*
X148571000Y-133307369D01*
X147575264Y-134303106D01*
X147593000Y-134213939D01*
X147593000Y-134010061D01*
X147553226Y-133810102D01*
X147475205Y-133621744D01*
X147361937Y-133452226D01*
X147318000Y-133408289D01*
X147318000Y-128795685D01*
X147471774Y-128692937D01*
X147615937Y-128548774D01*
X147729205Y-128379256D01*
X147807226Y-128190898D01*
X147847000Y-127990939D01*
X147847000Y-127787061D01*
X147807226Y-127587102D01*
X147729205Y-127398744D01*
X147615937Y-127229226D01*
X147471774Y-127085063D01*
X147302256Y-126971795D01*
X147113898Y-126893774D01*
X146913939Y-126854000D01*
X146846999Y-126854000D01*
X146846999Y-125245802D01*
X147286005Y-124806797D01*
X147315002Y-124783000D01*
X147409975Y-124667275D01*
X147480547Y-124535246D01*
X147524004Y-124391985D01*
X147535001Y-124280332D01*
X147535001Y-124280324D01*
X147538677Y-124242999D01*
X147535001Y-124205674D01*
X147535001Y-123133321D01*
X147538677Y-123095998D01*
X147535001Y-123058675D01*
X147535001Y-123058666D01*
X147524004Y-122947013D01*
X147480547Y-122803752D01*
X147409975Y-122671723D01*
X147315002Y-122555998D01*
X147286003Y-122532199D01*
X147085000Y-122331196D01*
X147085000Y-122326061D01*
X147045226Y-122126102D01*
X146967205Y-121937744D01*
X146853937Y-121768226D01*
X146751705Y-121665994D01*
X147686986Y-121665994D01*
X147682000Y-121691061D01*
X147682000Y-121894939D01*
X147721774Y-122094898D01*
X147799795Y-122283256D01*
X147811651Y-122301000D01*
X147799795Y-122318744D01*
X147721774Y-122507102D01*
X147682000Y-122707061D01*
X147682000Y-122910939D01*
X147721774Y-123110898D01*
X147799795Y-123299256D01*
X147913063Y-123468774D01*
X148057226Y-123612937D01*
X148226744Y-123726205D01*
X148415102Y-123804226D01*
X148615061Y-123844000D01*
X148818939Y-123844000D01*
X149018898Y-123804226D01*
X149207256Y-123726205D01*
X149376774Y-123612937D01*
X149420711Y-123569000D01*
X149545199Y-123569000D01*
X154481199Y-128505000D01*
X154457061Y-128505000D01*
X154257102Y-128544774D01*
X154068744Y-128622795D01*
X153899226Y-128736063D01*
X153755063Y-128880226D01*
X153641795Y-129049744D01*
X153563774Y-129238102D01*
X153524000Y-129438061D01*
X153524000Y-129641939D01*
X153563774Y-129841898D01*
X153641795Y-130030256D01*
X153755063Y-130199774D01*
X153899226Y-130343937D01*
X154068744Y-130457205D01*
X154257102Y-130535226D01*
X154457061Y-130575000D01*
X154660939Y-130575000D01*
X154860898Y-130535226D01*
X155049256Y-130457205D01*
X155218774Y-130343937D01*
X155362937Y-130199774D01*
X155476205Y-130030256D01*
X155554226Y-129841898D01*
X155594000Y-129641939D01*
X155594000Y-129617802D01*
X159874000Y-133897802D01*
X159874000Y-133959939D01*
X159913774Y-134159898D01*
X159991795Y-134348256D01*
X160105063Y-134517774D01*
X160249226Y-134661937D01*
X160418744Y-134775205D01*
X160607102Y-134853226D01*
X160807061Y-134893000D01*
X161010939Y-134893000D01*
X161210898Y-134853226D01*
X161399256Y-134775205D01*
X161568774Y-134661937D01*
X161712937Y-134517774D01*
X161826205Y-134348256D01*
X161904226Y-134159898D01*
X161944000Y-133959939D01*
X161944000Y-133756061D01*
X161904226Y-133556102D01*
X161826205Y-133367744D01*
X161712937Y-133198226D01*
X161610711Y-133096000D01*
X161712937Y-132993774D01*
X161826205Y-132824256D01*
X161904226Y-132635898D01*
X161944000Y-132435939D01*
X161944000Y-132232061D01*
X161904226Y-132032102D01*
X161826205Y-131843744D01*
X161712937Y-131674226D01*
X161568774Y-131530063D01*
X161399256Y-131416795D01*
X161210898Y-131338774D01*
X161010939Y-131299000D01*
X160807061Y-131299000D01*
X160607102Y-131338774D01*
X160418744Y-131416795D01*
X160316148Y-131485348D01*
X159042675Y-130211875D01*
X159210102Y-130281226D01*
X159410061Y-130321000D01*
X159613939Y-130321000D01*
X159813898Y-130281226D01*
X160002256Y-130203205D01*
X160171774Y-130089937D01*
X160315937Y-129945774D01*
X160429205Y-129776256D01*
X160507226Y-129587898D01*
X160547000Y-129387939D01*
X160547000Y-129184061D01*
X160516753Y-129032000D01*
X163703068Y-129032000D01*
X163672068Y-129106842D01*
X163615000Y-129393740D01*
X163615000Y-129686260D01*
X163672068Y-129973158D01*
X163784010Y-130243411D01*
X163946525Y-130486632D01*
X164153368Y-130693475D01*
X164327760Y-130810000D01*
X164153368Y-130926525D01*
X163946525Y-131133368D01*
X163784010Y-131376589D01*
X163672068Y-131646842D01*
X163615000Y-131933740D01*
X163615000Y-132226260D01*
X163672068Y-132513158D01*
X163784010Y-132783411D01*
X163946525Y-133026632D01*
X164153368Y-133233475D01*
X164396589Y-133395990D01*
X164666842Y-133507932D01*
X164953740Y-133565000D01*
X165246260Y-133565000D01*
X165533158Y-133507932D01*
X165803411Y-133395990D01*
X166046632Y-133233475D01*
X166253475Y-133026632D01*
X166370000Y-132852240D01*
X166486525Y-133026632D01*
X166693368Y-133233475D01*
X166936589Y-133395990D01*
X167206842Y-133507932D01*
X167493740Y-133565000D01*
X167786260Y-133565000D01*
X168073158Y-133507932D01*
X168343411Y-133395990D01*
X168586632Y-133233475D01*
X168793475Y-133026632D01*
X168955990Y-132783411D01*
X169067932Y-132513158D01*
X169125000Y-132226260D01*
X169125000Y-131933740D01*
X169067932Y-131646842D01*
X168955990Y-131376589D01*
X168793475Y-131133368D01*
X168586632Y-130926525D01*
X168412240Y-130810000D01*
X168586632Y-130693475D01*
X168793475Y-130486632D01*
X168955990Y-130243411D01*
X169067932Y-129973158D01*
X169125000Y-129686260D01*
X169125000Y-129393740D01*
X169067932Y-129106842D01*
X168955990Y-128836589D01*
X168793475Y-128593368D01*
X168586632Y-128386525D01*
X168412240Y-128270000D01*
X168586632Y-128153475D01*
X168793475Y-127946632D01*
X168955990Y-127703411D01*
X169067932Y-127433158D01*
X169125000Y-127146260D01*
X169125000Y-126853740D01*
X169067932Y-126566842D01*
X168955990Y-126296589D01*
X168793475Y-126053368D01*
X168586632Y-125846525D01*
X168412240Y-125730000D01*
X168586632Y-125613475D01*
X168793475Y-125406632D01*
X168955990Y-125163411D01*
X169067932Y-124893158D01*
X169125000Y-124606260D01*
X169125000Y-124313740D01*
X169067932Y-124026842D01*
X168955990Y-123756589D01*
X168793475Y-123513368D01*
X168586632Y-123306525D01*
X168412240Y-123190000D01*
X168586632Y-123073475D01*
X168793475Y-122866632D01*
X168955990Y-122623411D01*
X169067932Y-122353158D01*
X169125000Y-122066260D01*
X169125000Y-121773740D01*
X169067932Y-121486842D01*
X168955990Y-121216589D01*
X168793475Y-120973368D01*
X168586632Y-120766525D01*
X168412240Y-120650000D01*
X168586632Y-120533475D01*
X168793475Y-120326632D01*
X168955990Y-120083411D01*
X169067932Y-119813158D01*
X169125000Y-119526260D01*
X169125000Y-119233740D01*
X169067932Y-118946842D01*
X168955990Y-118676589D01*
X168793475Y-118433368D01*
X168586632Y-118226525D01*
X168404466Y-118104805D01*
X168521355Y-118035178D01*
X168737588Y-117840269D01*
X168911641Y-117606920D01*
X169036825Y-117344099D01*
X169081476Y-117196890D01*
X168960155Y-116967000D01*
X167767000Y-116967000D01*
X167767000Y-116987000D01*
X167513000Y-116987000D01*
X167513000Y-116967000D01*
X167493000Y-116967000D01*
X167493000Y-116713000D01*
X167513000Y-116713000D01*
X167513000Y-116693000D01*
X167767000Y-116693000D01*
X167767000Y-116713000D01*
X168960155Y-116713000D01*
X169081476Y-116483110D01*
X169036825Y-116335901D01*
X168911641Y-116073080D01*
X168737588Y-115839731D01*
X168521355Y-115644822D01*
X168404466Y-115575195D01*
X168586632Y-115453475D01*
X168793475Y-115246632D01*
X168955990Y-115003411D01*
X169067932Y-114733158D01*
X169125000Y-114446260D01*
X169125000Y-114153740D01*
X169067932Y-113866842D01*
X168955990Y-113596589D01*
X168793475Y-113353368D01*
X168586632Y-113146525D01*
X168412240Y-113030000D01*
X168586632Y-112913475D01*
X168793475Y-112706632D01*
X168955990Y-112463411D01*
X169067932Y-112193158D01*
X169125000Y-111906260D01*
X169125000Y-111613740D01*
X169067932Y-111326842D01*
X168955990Y-111056589D01*
X168793475Y-110813368D01*
X168586632Y-110606525D01*
X168412240Y-110490000D01*
X168586632Y-110373475D01*
X168793475Y-110166632D01*
X168955990Y-109923411D01*
X169067932Y-109653158D01*
X169125000Y-109366260D01*
X169125000Y-109073740D01*
X169067932Y-108786842D01*
X168955990Y-108516589D01*
X168793475Y-108273368D01*
X168586632Y-108066525D01*
X168412240Y-107950000D01*
X168586632Y-107833475D01*
X168793475Y-107626632D01*
X168955990Y-107383411D01*
X169067932Y-107113158D01*
X169125000Y-106826260D01*
X169125000Y-106533740D01*
X169067932Y-106246842D01*
X168955990Y-105976589D01*
X168793475Y-105733368D01*
X168586632Y-105526525D01*
X168412240Y-105410000D01*
X168586632Y-105293475D01*
X168793475Y-105086632D01*
X168955990Y-104843411D01*
X169067932Y-104573158D01*
X169125000Y-104286260D01*
X169125000Y-103993740D01*
X169067932Y-103706842D01*
X168955990Y-103436589D01*
X168793475Y-103193368D01*
X168586632Y-102986525D01*
X168412240Y-102870000D01*
X168586632Y-102753475D01*
X168793475Y-102546632D01*
X168955990Y-102303411D01*
X169067932Y-102033158D01*
X169125000Y-101746260D01*
X169125000Y-101453740D01*
X169067932Y-101166842D01*
X168955990Y-100896589D01*
X168793475Y-100653368D01*
X168586632Y-100446525D01*
X168412240Y-100330000D01*
X168586632Y-100213475D01*
X168793475Y-100006632D01*
X168955990Y-99763411D01*
X169067932Y-99493158D01*
X169125000Y-99206260D01*
X169125000Y-98913740D01*
X169067932Y-98626842D01*
X168955990Y-98356589D01*
X168793475Y-98113368D01*
X168586632Y-97906525D01*
X168412240Y-97790000D01*
X168586632Y-97673475D01*
X168793475Y-97466632D01*
X168955990Y-97223411D01*
X169067932Y-96953158D01*
X169125000Y-96666260D01*
X169125000Y-96373740D01*
X169067932Y-96086842D01*
X168955990Y-95816589D01*
X168793475Y-95573368D01*
X168586632Y-95366525D01*
X168412240Y-95250000D01*
X168586632Y-95133475D01*
X168793475Y-94926632D01*
X168955990Y-94683411D01*
X169067932Y-94413158D01*
X169125000Y-94126260D01*
X169125000Y-93833740D01*
X169067932Y-93546842D01*
X168955990Y-93276589D01*
X168793475Y-93033368D01*
X168586632Y-92826525D01*
X168412240Y-92710000D01*
X168586632Y-92593475D01*
X168793475Y-92386632D01*
X168955990Y-92143411D01*
X169067932Y-91873158D01*
X169125000Y-91586260D01*
X169125000Y-91293740D01*
X169067932Y-91006842D01*
X168955990Y-90736589D01*
X168793475Y-90493368D01*
X168586632Y-90286525D01*
X168343411Y-90124010D01*
X168073158Y-90012068D01*
X167786260Y-89955000D01*
X167493740Y-89955000D01*
X167206842Y-90012068D01*
X166936589Y-90124010D01*
X166693368Y-90286525D01*
X166561513Y-90418380D01*
X166539502Y-90345820D01*
X166480537Y-90235506D01*
X166401185Y-90138815D01*
X166304494Y-90059463D01*
X166194180Y-90000498D01*
X166074482Y-89964188D01*
X165950000Y-89951928D01*
X164250000Y-89951928D01*
X164125518Y-89964188D01*
X164005820Y-90000498D01*
X163895506Y-90059463D01*
X163798815Y-90138815D01*
X163719463Y-90235506D01*
X163660498Y-90345820D01*
X163624188Y-90465518D01*
X163611928Y-90590000D01*
X163611928Y-92290000D01*
X163624188Y-92414482D01*
X163660498Y-92534180D01*
X163719463Y-92644494D01*
X163798815Y-92741185D01*
X163895506Y-92820537D01*
X164005820Y-92879502D01*
X164086466Y-92903966D01*
X164002412Y-92979731D01*
X163828359Y-93213080D01*
X163703175Y-93475901D01*
X163658524Y-93623110D01*
X163779845Y-93853000D01*
X164973000Y-93853000D01*
X164973000Y-93833000D01*
X165227000Y-93833000D01*
X165227000Y-93853000D01*
X165247000Y-93853000D01*
X165247000Y-94107000D01*
X165227000Y-94107000D01*
X165227000Y-96393000D01*
X165247000Y-96393000D01*
X165247000Y-96647000D01*
X165227000Y-96647000D01*
X165227000Y-96667000D01*
X164973000Y-96667000D01*
X164973000Y-96647000D01*
X163779845Y-96647000D01*
X163658524Y-96876890D01*
X163703175Y-97024099D01*
X163828359Y-97286920D01*
X164002412Y-97520269D01*
X164218645Y-97715178D01*
X164335534Y-97784805D01*
X164153368Y-97906525D01*
X163946525Y-98113368D01*
X163784010Y-98356589D01*
X163672068Y-98626842D01*
X163615000Y-98913740D01*
X163615000Y-99206260D01*
X163672068Y-99493158D01*
X163784010Y-99763411D01*
X163946525Y-100006632D01*
X164153368Y-100213475D01*
X164327760Y-100330000D01*
X164153368Y-100446525D01*
X163946525Y-100653368D01*
X163784010Y-100896589D01*
X163672068Y-101166842D01*
X163615000Y-101453740D01*
X163615000Y-101746260D01*
X163672068Y-102033158D01*
X163784010Y-102303411D01*
X163946525Y-102546632D01*
X164153368Y-102753475D01*
X164327760Y-102870000D01*
X164153368Y-102986525D01*
X163946525Y-103193368D01*
X163784010Y-103436589D01*
X163672068Y-103706842D01*
X163615000Y-103993740D01*
X163615000Y-104286260D01*
X163672068Y-104573158D01*
X163784010Y-104843411D01*
X163946525Y-105086632D01*
X164153368Y-105293475D01*
X164327760Y-105410000D01*
X164153368Y-105526525D01*
X163946525Y-105733368D01*
X163784010Y-105976589D01*
X163672068Y-106246842D01*
X163615000Y-106533740D01*
X163615000Y-106826260D01*
X163672068Y-107113158D01*
X163784010Y-107383411D01*
X163946525Y-107626632D01*
X164153368Y-107833475D01*
X164327760Y-107950000D01*
X164153368Y-108066525D01*
X163946525Y-108273368D01*
X163784010Y-108516589D01*
X163672068Y-108786842D01*
X163615000Y-109073740D01*
X163615000Y-109366260D01*
X163672068Y-109653158D01*
X163784010Y-109923411D01*
X163946525Y-110166632D01*
X164153368Y-110373475D01*
X164335534Y-110495195D01*
X164218645Y-110564822D01*
X164002412Y-110759731D01*
X163828359Y-110993080D01*
X163703175Y-111255901D01*
X163658524Y-111403110D01*
X163779845Y-111633000D01*
X164973000Y-111633000D01*
X164973000Y-111613000D01*
X165227000Y-111613000D01*
X165227000Y-111633000D01*
X165247000Y-111633000D01*
X165247000Y-111887000D01*
X165227000Y-111887000D01*
X165227000Y-111907000D01*
X164973000Y-111907000D01*
X164973000Y-111887000D01*
X163779845Y-111887000D01*
X163658524Y-112116890D01*
X163703175Y-112264099D01*
X163828359Y-112526920D01*
X164002412Y-112760269D01*
X164218645Y-112955178D01*
X164335534Y-113024805D01*
X164153368Y-113146525D01*
X163946525Y-113353368D01*
X163784010Y-113596589D01*
X163672068Y-113866842D01*
X163615000Y-114153740D01*
X163615000Y-114446260D01*
X163672068Y-114733158D01*
X163784010Y-115003411D01*
X163946525Y-115246632D01*
X164153368Y-115453475D01*
X164327760Y-115570000D01*
X164153368Y-115686525D01*
X163946525Y-115893368D01*
X163784010Y-116136589D01*
X163672068Y-116406842D01*
X163615000Y-116693740D01*
X163615000Y-116986260D01*
X163672068Y-117273158D01*
X163784010Y-117543411D01*
X163946525Y-117786632D01*
X164153368Y-117993475D01*
X164327760Y-118110000D01*
X164153368Y-118226525D01*
X163946525Y-118433368D01*
X163784010Y-118676589D01*
X163672068Y-118946842D01*
X163615000Y-119233740D01*
X163615000Y-119526260D01*
X163672068Y-119813158D01*
X163784010Y-120083411D01*
X163946525Y-120326632D01*
X164153368Y-120533475D01*
X164327760Y-120650000D01*
X164153368Y-120766525D01*
X163946525Y-120973368D01*
X163784010Y-121216589D01*
X163672068Y-121486842D01*
X163615000Y-121773740D01*
X163615000Y-122066260D01*
X163672068Y-122353158D01*
X163784010Y-122623411D01*
X163946525Y-122866632D01*
X164153368Y-123073475D01*
X164335534Y-123195195D01*
X164218645Y-123264822D01*
X164002412Y-123459731D01*
X163828359Y-123693080D01*
X163703175Y-123955901D01*
X163658524Y-124103110D01*
X163779845Y-124333000D01*
X164973000Y-124333000D01*
X164973000Y-124313000D01*
X165227000Y-124313000D01*
X165227000Y-124333000D01*
X165247000Y-124333000D01*
X165247000Y-124587000D01*
X165227000Y-124587000D01*
X165227000Y-124607000D01*
X164973000Y-124607000D01*
X164973000Y-124587000D01*
X163779845Y-124587000D01*
X163658524Y-124816890D01*
X163703175Y-124964099D01*
X163828359Y-125226920D01*
X164002412Y-125460269D01*
X164218645Y-125655178D01*
X164335534Y-125724805D01*
X164153368Y-125846525D01*
X163946525Y-126053368D01*
X163784010Y-126296589D01*
X163672068Y-126566842D01*
X163615000Y-126853740D01*
X163615000Y-127146260D01*
X163672068Y-127433158D01*
X163703068Y-127508000D01*
X162706000Y-127508000D01*
X162706000Y-127406061D01*
X162666226Y-127206102D01*
X162588205Y-127017744D01*
X162474937Y-126848226D01*
X162330774Y-126704063D01*
X162249797Y-126649956D01*
X160782000Y-125182160D01*
X160782000Y-120181840D01*
X161995797Y-118968044D01*
X162076774Y-118913937D01*
X162220937Y-118769774D01*
X162334205Y-118600256D01*
X162412226Y-118411898D01*
X162452000Y-118211939D01*
X162452000Y-118008061D01*
X162433000Y-117912541D01*
X162433000Y-106221902D01*
X162437915Y-106172000D01*
X162418298Y-105972829D01*
X162418228Y-105972599D01*
X162360202Y-105781313D01*
X162265860Y-105604810D01*
X162138896Y-105450104D01*
X162100133Y-105418292D01*
X160243046Y-103561206D01*
X160188937Y-103480226D01*
X160044774Y-103336063D01*
X159963797Y-103281956D01*
X159131000Y-102449160D01*
X159131000Y-100750840D01*
X159963797Y-99918044D01*
X160044774Y-99863937D01*
X160188937Y-99719774D01*
X160302205Y-99550256D01*
X160380226Y-99361898D01*
X160420000Y-99161939D01*
X160420000Y-98958061D01*
X160380226Y-98758102D01*
X160302205Y-98569744D01*
X160188937Y-98400226D01*
X160044774Y-98256063D01*
X159875256Y-98142795D01*
X159686898Y-98064774D01*
X159486939Y-98025000D01*
X159283061Y-98025000D01*
X159083102Y-98064774D01*
X158894744Y-98142795D01*
X158725226Y-98256063D01*
X158581063Y-98400226D01*
X158526956Y-98481203D01*
X157431872Y-99576288D01*
X157393104Y-99608104D01*
X157266140Y-99762810D01*
X157171798Y-99939314D01*
X157124571Y-100095000D01*
X157113702Y-100130830D01*
X157094085Y-100330000D01*
X157099000Y-100379902D01*
X157099001Y-102820089D01*
X157094085Y-102870000D01*
X157113702Y-103069170D01*
X157171799Y-103260687D01*
X157266141Y-103437190D01*
X157393105Y-103591896D01*
X157431868Y-103623708D01*
X158526956Y-104718797D01*
X158581063Y-104799774D01*
X158725226Y-104943937D01*
X158806206Y-104998046D01*
X160401001Y-106592842D01*
X160401000Y-117689159D01*
X159380853Y-118709307D01*
X159404000Y-118592939D01*
X159404000Y-118389061D01*
X159364226Y-118189102D01*
X159286205Y-118000744D01*
X159172937Y-117831226D01*
X159028774Y-117687063D01*
X158859256Y-117573795D01*
X158670898Y-117495774D01*
X158470939Y-117456000D01*
X158267061Y-117456000D01*
X158115000Y-117486247D01*
X158115000Y-116242423D01*
X158118686Y-116205000D01*
X158115000Y-116167574D01*
X158103974Y-116055622D01*
X158060402Y-115911985D01*
X158022437Y-115840957D01*
X157989645Y-115779607D01*
X157918279Y-115692648D01*
X157894422Y-115663578D01*
X157865353Y-115639722D01*
X157811024Y-115585393D01*
X157816897Y-115584225D01*
X158005255Y-115506204D01*
X158174773Y-115392936D01*
X158318936Y-115248773D01*
X158432204Y-115079255D01*
X158510225Y-114890897D01*
X158549999Y-114690938D01*
X158549999Y-114487060D01*
X158510225Y-114287101D01*
X158432204Y-114098743D01*
X158318936Y-113929225D01*
X158174773Y-113785062D01*
X158005255Y-113671794D01*
X157816897Y-113593773D01*
X157616938Y-113553999D01*
X157413060Y-113553999D01*
X157213101Y-113593773D01*
X157024743Y-113671794D01*
X156855225Y-113785062D01*
X156813288Y-113826999D01*
X153291424Y-113826999D01*
X153254001Y-113823313D01*
X153216578Y-113826999D01*
X153216575Y-113826999D01*
X153104623Y-113838025D01*
X152960986Y-113881597D01*
X152937359Y-113894226D01*
X152828608Y-113952354D01*
X152792963Y-113981608D01*
X152712579Y-114047577D01*
X152688717Y-114076653D01*
X152473010Y-114292360D01*
X152473010Y-113947721D01*
X152474256Y-113947205D01*
X152643774Y-113833937D01*
X152787937Y-113689774D01*
X152901205Y-113520256D01*
X152979226Y-113331898D01*
X153019000Y-113131939D01*
X153019000Y-112928061D01*
X152979226Y-112728102D01*
X152901205Y-112539744D01*
X152787937Y-112370226D01*
X152643774Y-112226063D01*
X152474256Y-112112795D01*
X152285898Y-112034774D01*
X152085939Y-111995000D01*
X152019000Y-111995000D01*
X152019000Y-111191711D01*
X152060937Y-111149774D01*
X152174205Y-110980256D01*
X152252226Y-110791898D01*
X152292000Y-110591939D01*
X152292000Y-110388061D01*
X152252226Y-110188102D01*
X152174205Y-109999744D01*
X152060937Y-109830226D01*
X151916774Y-109686063D01*
X151747256Y-109572795D01*
X151558898Y-109494774D01*
X151358939Y-109455000D01*
X151257000Y-109455000D01*
X151257000Y-108651711D01*
X151298937Y-108609774D01*
X151412205Y-108440256D01*
X151490226Y-108251898D01*
X151530000Y-108051939D01*
X151530000Y-107848061D01*
X151490226Y-107648102D01*
X151412205Y-107459744D01*
X151298937Y-107290226D01*
X151154774Y-107146063D01*
X150985256Y-107032795D01*
X150796898Y-106954774D01*
X150596939Y-106915000D01*
X150495000Y-106915000D01*
X150495000Y-101031711D01*
X150536937Y-100989774D01*
X150650205Y-100820256D01*
X150728226Y-100631898D01*
X150768000Y-100431939D01*
X150768000Y-100228061D01*
X150728226Y-100028102D01*
X150650205Y-99839744D01*
X150536937Y-99670226D01*
X150392774Y-99526063D01*
X150223256Y-99412795D01*
X150034898Y-99334774D01*
X149834939Y-99295000D01*
X149631061Y-99295000D01*
X149431102Y-99334774D01*
X149242744Y-99412795D01*
X149073226Y-99526063D01*
X148929063Y-99670226D01*
X148815795Y-99839744D01*
X148737774Y-100028102D01*
X148698000Y-100228061D01*
X148698000Y-100431939D01*
X148737774Y-100631898D01*
X148815795Y-100820256D01*
X148929063Y-100989774D01*
X148971001Y-101031712D01*
X148971001Y-101835000D01*
X148869061Y-101835000D01*
X148669102Y-101874774D01*
X148480744Y-101952795D01*
X148311226Y-102066063D01*
X148167063Y-102210226D01*
X148053795Y-102379744D01*
X147975774Y-102568102D01*
X147936000Y-102768061D01*
X147936000Y-102971939D01*
X147975774Y-103171898D01*
X148053795Y-103360256D01*
X148167063Y-103529774D01*
X148209001Y-103571712D01*
X148209001Y-104375000D01*
X148142061Y-104375000D01*
X147942102Y-104414774D01*
X147753744Y-104492795D01*
X147604147Y-104592752D01*
X147604147Y-99599483D01*
X152866740Y-94336890D01*
X163658524Y-94336890D01*
X163703175Y-94484099D01*
X163828359Y-94746920D01*
X164002412Y-94980269D01*
X164218645Y-95175178D01*
X164344255Y-95250000D01*
X164218645Y-95324822D01*
X164002412Y-95519731D01*
X163828359Y-95753080D01*
X163703175Y-96015901D01*
X163658524Y-96163110D01*
X163779845Y-96393000D01*
X164973000Y-96393000D01*
X164973000Y-94107000D01*
X163779845Y-94107000D01*
X163658524Y-94336890D01*
X152866740Y-94336890D01*
X163850584Y-83353047D01*
X163946525Y-83496632D01*
X164153368Y-83703475D01*
X164327760Y-83820000D01*
X164153368Y-83936525D01*
X163946525Y-84143368D01*
X163784010Y-84386589D01*
X163672068Y-84656842D01*
X163615000Y-84943740D01*
X163615000Y-85236260D01*
X163672068Y-85523158D01*
X163784010Y-85793411D01*
X163946525Y-86036632D01*
X164153368Y-86243475D01*
X164327760Y-86360000D01*
X164153368Y-86476525D01*
X163946525Y-86683368D01*
X163784010Y-86926589D01*
X163672068Y-87196842D01*
X163615000Y-87483740D01*
X163615000Y-87776260D01*
X163672068Y-88063158D01*
X163784010Y-88333411D01*
X163946525Y-88576632D01*
X164153368Y-88783475D01*
X164396589Y-88945990D01*
X164666842Y-89057932D01*
X164953740Y-89115000D01*
X165246260Y-89115000D01*
X165533158Y-89057932D01*
X165803411Y-88945990D01*
X166046632Y-88783475D01*
X166253475Y-88576632D01*
X166370000Y-88402240D01*
X166486525Y-88576632D01*
X166693368Y-88783475D01*
X166936589Y-88945990D01*
X167206842Y-89057932D01*
X167493740Y-89115000D01*
X167786260Y-89115000D01*
X168073158Y-89057932D01*
X168343411Y-88945990D01*
X168586632Y-88783475D01*
X168793475Y-88576632D01*
X168955990Y-88333411D01*
X169067932Y-88063158D01*
X169125000Y-87776260D01*
X169125000Y-87483740D01*
X169067932Y-87196842D01*
X168955990Y-86926589D01*
X168793475Y-86683368D01*
X168586632Y-86476525D01*
X168412240Y-86360000D01*
X168586632Y-86243475D01*
X168793475Y-86036632D01*
X168955990Y-85793411D01*
X169067932Y-85523158D01*
X169125000Y-85236260D01*
X169125000Y-84943740D01*
X169067932Y-84656842D01*
X168955990Y-84386589D01*
X168793475Y-84143368D01*
X168586632Y-83936525D01*
X168412240Y-83820000D01*
X168586632Y-83703475D01*
X168793475Y-83496632D01*
X168955990Y-83253411D01*
X169067932Y-82983158D01*
X169125000Y-82696260D01*
X169125000Y-82403740D01*
X169067932Y-82116842D01*
X168955990Y-81846589D01*
X168793475Y-81603368D01*
X168586632Y-81396525D01*
X168412240Y-81280000D01*
X168586632Y-81163475D01*
X168793475Y-80956632D01*
X168955990Y-80713411D01*
X169067932Y-80443158D01*
X169125000Y-80156260D01*
X169125000Y-79863740D01*
X169067932Y-79576842D01*
X168955990Y-79306589D01*
X168793475Y-79063368D01*
X168586632Y-78856525D01*
X168412240Y-78740000D01*
X168586632Y-78623475D01*
X168793475Y-78416632D01*
X168955990Y-78173411D01*
X169067932Y-77903158D01*
X169125000Y-77616260D01*
X169125000Y-77323740D01*
X169067932Y-77036842D01*
X168955990Y-76766589D01*
X168793475Y-76523368D01*
X168586632Y-76316525D01*
X168412240Y-76200000D01*
X168586632Y-76083475D01*
X168793475Y-75876632D01*
X168955990Y-75633411D01*
X169067932Y-75363158D01*
X169125000Y-75076260D01*
X169125000Y-74783740D01*
X169067932Y-74496842D01*
X168955990Y-74226589D01*
X168793475Y-73983368D01*
X168586632Y-73776525D01*
X168404466Y-73654805D01*
X168521355Y-73585178D01*
X168737588Y-73390269D01*
X168911641Y-73156920D01*
X169036825Y-72894099D01*
X169081476Y-72746890D01*
X168960155Y-72517000D01*
X167767000Y-72517000D01*
X167767000Y-72537000D01*
X167513000Y-72537000D01*
X167513000Y-72517000D01*
X167493000Y-72517000D01*
X167493000Y-72263000D01*
X167513000Y-72263000D01*
X167513000Y-72243000D01*
X167767000Y-72243000D01*
X167767000Y-72263000D01*
X168960155Y-72263000D01*
X169081476Y-72033110D01*
X169036825Y-71885901D01*
X168911641Y-71623080D01*
X168737588Y-71389731D01*
X168521355Y-71194822D01*
X168404466Y-71125195D01*
X168586632Y-71003475D01*
X168793475Y-70796632D01*
X168955990Y-70553411D01*
X169067932Y-70283158D01*
X169125000Y-69996260D01*
X169125000Y-69703740D01*
X169067932Y-69416842D01*
X168955990Y-69146589D01*
X168793475Y-68903368D01*
X168586632Y-68696525D01*
X168412240Y-68580000D01*
X168586632Y-68463475D01*
X168793475Y-68256632D01*
X168955990Y-68013411D01*
X169067932Y-67743158D01*
X169125000Y-67456260D01*
X169125000Y-67163740D01*
X169067932Y-66876842D01*
X168955990Y-66606589D01*
X168793475Y-66363368D01*
X168586632Y-66156525D01*
X168412240Y-66040000D01*
X168586632Y-65923475D01*
X168793475Y-65716632D01*
X168955990Y-65473411D01*
X169067932Y-65203158D01*
X169125000Y-64916260D01*
X169125000Y-64623740D01*
X169067932Y-64336842D01*
X168955990Y-64066589D01*
X168793475Y-63823368D01*
X168586632Y-63616525D01*
X168343411Y-63454010D01*
X168073158Y-63342068D01*
X167786260Y-63285000D01*
X167493740Y-63285000D01*
X167206842Y-63342068D01*
X166936589Y-63454010D01*
X166693368Y-63616525D01*
X166561513Y-63748380D01*
X166539502Y-63675820D01*
X166480537Y-63565506D01*
X166401185Y-63468815D01*
X166304494Y-63389463D01*
X166194180Y-63330498D01*
X166074482Y-63294188D01*
X165950000Y-63281928D01*
X164250000Y-63281928D01*
X164125518Y-63294188D01*
X164005820Y-63330498D01*
X163895506Y-63389463D01*
X163798815Y-63468815D01*
X163719463Y-63565506D01*
X163660498Y-63675820D01*
X163624188Y-63795518D01*
X163611928Y-63920000D01*
X163611928Y-64039864D01*
X163536985Y-64062598D01*
X163475364Y-64095535D01*
X163404607Y-64133355D01*
X163353735Y-64175105D01*
X163288578Y-64228578D01*
X163264721Y-64257648D01*
X160269654Y-67252716D01*
X160240578Y-67276578D01*
X160213149Y-67310001D01*
X160145355Y-67392608D01*
X160144043Y-67395063D01*
X160074598Y-67524986D01*
X160031026Y-67668623D01*
X160020000Y-67780574D01*
X160016314Y-67818000D01*
X160020000Y-67855423D01*
X160020001Y-70804369D01*
X155443654Y-75380716D01*
X155414578Y-75404578D01*
X155372588Y-75455744D01*
X155319355Y-75520608D01*
X155318768Y-75521707D01*
X155248598Y-75652986D01*
X155205026Y-75796623D01*
X155197146Y-75876632D01*
X155190314Y-75946000D01*
X155194000Y-75983423D01*
X155194001Y-78043368D01*
X140369999Y-92867371D01*
X140369999Y-82956061D01*
X141586000Y-82956061D01*
X141586000Y-83159939D01*
X141625774Y-83359898D01*
X141703795Y-83548256D01*
X141817063Y-83717774D01*
X141961226Y-83861937D01*
X142130744Y-83975205D01*
X142319102Y-84053226D01*
X142519061Y-84093000D01*
X142722939Y-84093000D01*
X142922898Y-84053226D01*
X143111256Y-83975205D01*
X143280774Y-83861937D01*
X143424937Y-83717774D01*
X143538205Y-83548256D01*
X143616226Y-83359898D01*
X143656000Y-83159939D01*
X143656000Y-82956061D01*
X143616226Y-82756102D01*
X143538205Y-82567744D01*
X143424937Y-82398226D01*
X143280774Y-82254063D01*
X143111256Y-82140795D01*
X142922898Y-82062774D01*
X142722939Y-82023000D01*
X142519061Y-82023000D01*
X142319102Y-82062774D01*
X142130744Y-82140795D01*
X141961226Y-82254063D01*
X141817063Y-82398226D01*
X141703795Y-82567744D01*
X141625774Y-82756102D01*
X141586000Y-82956061D01*
X140369999Y-82956061D01*
X140369999Y-80732958D01*
X140414102Y-80751226D01*
X140614061Y-80791000D01*
X140817939Y-80791000D01*
X141017898Y-80751226D01*
X141206256Y-80673205D01*
X141375774Y-80559937D01*
X141519937Y-80415774D01*
X141633205Y-80246256D01*
X141711226Y-80057898D01*
X141751000Y-79857939D01*
X141751000Y-79654061D01*
X141711226Y-79454102D01*
X141633205Y-79265744D01*
X141519937Y-79096226D01*
X141375774Y-78952063D01*
X141206256Y-78838795D01*
X141017898Y-78760774D01*
X140817939Y-78721000D01*
X140614061Y-78721000D01*
X140414102Y-78760774D01*
X140369999Y-78779042D01*
X140369999Y-77368061D01*
X141332002Y-77368061D01*
X141332002Y-77571939D01*
X141371776Y-77771898D01*
X141449797Y-77960256D01*
X141563065Y-78129774D01*
X141707228Y-78273937D01*
X141876746Y-78387205D01*
X142065104Y-78465226D01*
X142265063Y-78505000D01*
X142468941Y-78505000D01*
X142668900Y-78465226D01*
X142857258Y-78387205D01*
X143026776Y-78273937D01*
X143170939Y-78129774D01*
X143284207Y-77960256D01*
X143362228Y-77771898D01*
X143402002Y-77571939D01*
X143402002Y-77368061D01*
X143362228Y-77168102D01*
X143284207Y-76979744D01*
X143170939Y-76810226D01*
X143026776Y-76666063D01*
X142857258Y-76552795D01*
X142668900Y-76474774D01*
X142468941Y-76435000D01*
X142265063Y-76435000D01*
X142065104Y-76474774D01*
X141876746Y-76552795D01*
X141707228Y-76666063D01*
X141563065Y-76810226D01*
X141449797Y-76979744D01*
X141371776Y-77168102D01*
X141332002Y-77368061D01*
X140369999Y-77368061D01*
X140369999Y-75188841D01*
X142508779Y-73050061D01*
X143618000Y-73050061D01*
X143618000Y-73253939D01*
X143657774Y-73453898D01*
X143735795Y-73642256D01*
X143849063Y-73811774D01*
X143993226Y-73955937D01*
X144162744Y-74069205D01*
X144351102Y-74147226D01*
X144551061Y-74187000D01*
X144754939Y-74187000D01*
X144954898Y-74147226D01*
X145143256Y-74069205D01*
X145312774Y-73955937D01*
X145456937Y-73811774D01*
X145570205Y-73642256D01*
X145648226Y-73453898D01*
X145688000Y-73253939D01*
X145688000Y-73050061D01*
X145648226Y-72850102D01*
X145570205Y-72661744D01*
X145456937Y-72492226D01*
X145312774Y-72348063D01*
X145143256Y-72234795D01*
X144954898Y-72156774D01*
X144754939Y-72117000D01*
X144551061Y-72117000D01*
X144351102Y-72156774D01*
X144162744Y-72234795D01*
X143993226Y-72348063D01*
X143849063Y-72492226D01*
X143735795Y-72661744D01*
X143657774Y-72850102D01*
X143618000Y-73050061D01*
X142508779Y-73050061D01*
X143453797Y-72105044D01*
X143534774Y-72050937D01*
X143678937Y-71906774D01*
X143792205Y-71737256D01*
X143870226Y-71548898D01*
X143910000Y-71348939D01*
X143910000Y-71145061D01*
X143891000Y-71049541D01*
X143891000Y-69666459D01*
X143910000Y-69570939D01*
X143910000Y-69367061D01*
X143870226Y-69167102D01*
X143792205Y-68978744D01*
X143695490Y-68834000D01*
X143792205Y-68689256D01*
X143870226Y-68500898D01*
X143910000Y-68300939D01*
X143910000Y-68097061D01*
X143870226Y-67897102D01*
X143792205Y-67708744D01*
X143678937Y-67539226D01*
X143534774Y-67395063D01*
X143365256Y-67281795D01*
X143176898Y-67203774D01*
X142976939Y-67164000D01*
X142773061Y-67164000D01*
X142573102Y-67203774D01*
X142384744Y-67281795D01*
X142215226Y-67395063D01*
X142071063Y-67539226D01*
X141957795Y-67708744D01*
X141879774Y-67897102D01*
X141840000Y-68097061D01*
X141840000Y-68300939D01*
X141879774Y-68500898D01*
X141957795Y-68689256D01*
X142054510Y-68834000D01*
X141957795Y-68978744D01*
X141879774Y-69167102D01*
X141840000Y-69367061D01*
X141840000Y-69570939D01*
X141859000Y-69666460D01*
X141859001Y-70826158D01*
X139769974Y-72915186D01*
X139741937Y-72873226D01*
X139597774Y-72729063D01*
X139428256Y-72615795D01*
X139239898Y-72537774D01*
X139039939Y-72498000D01*
X138836061Y-72498000D01*
X138636102Y-72537774D01*
X138447744Y-72615795D01*
X138278226Y-72729063D01*
X138134063Y-72873226D01*
X138020795Y-73042744D01*
X137942774Y-73231102D01*
X137903000Y-73431061D01*
X137903000Y-73634939D01*
X137942774Y-73834898D01*
X138020795Y-74023256D01*
X138134063Y-74192774D01*
X138278226Y-74336937D01*
X138398639Y-74417394D01*
X138352953Y-74568000D01*
X138352701Y-74568831D01*
X138333084Y-74768001D01*
X138337999Y-74817903D01*
X138337999Y-76700398D01*
X138262860Y-76559821D01*
X138224590Y-76513189D01*
X138135896Y-76405115D01*
X138097133Y-76373303D01*
X136224701Y-74500872D01*
X136192885Y-74462104D01*
X136038179Y-74335140D01*
X135861676Y-74240798D01*
X135670160Y-74182702D01*
X135520891Y-74168000D01*
X135470989Y-74163085D01*
X135421087Y-74168000D01*
X134690459Y-74168000D01*
X134594939Y-74149000D01*
X134391061Y-74149000D01*
X134191102Y-74188774D01*
X134002744Y-74266795D01*
X133833226Y-74380063D01*
X133726072Y-74487217D01*
X133674797Y-74452956D01*
X132207000Y-72985160D01*
X132207000Y-69748061D01*
X133712000Y-69748061D01*
X133712000Y-69951939D01*
X133751774Y-70151898D01*
X133829795Y-70340256D01*
X133943063Y-70509774D01*
X134087226Y-70653937D01*
X134256744Y-70767205D01*
X134445102Y-70845226D01*
X134645061Y-70885000D01*
X134848939Y-70885000D01*
X135048898Y-70845226D01*
X135237256Y-70767205D01*
X135406774Y-70653937D01*
X135550937Y-70509774D01*
X135664205Y-70340256D01*
X135742226Y-70151898D01*
X135782000Y-69951939D01*
X135782000Y-69748061D01*
X135742226Y-69548102D01*
X135664205Y-69359744D01*
X135550937Y-69190226D01*
X135406774Y-69046063D01*
X135237256Y-68932795D01*
X135048898Y-68854774D01*
X134848939Y-68815000D01*
X134645061Y-68815000D01*
X134445102Y-68854774D01*
X134256744Y-68932795D01*
X134087226Y-69046063D01*
X133943063Y-69190226D01*
X133829795Y-69359744D01*
X133751774Y-69548102D01*
X133712000Y-69748061D01*
X132207000Y-69748061D01*
X132207000Y-62763061D01*
X135871000Y-62763061D01*
X135871000Y-62966939D01*
X135910774Y-63166898D01*
X135988795Y-63355256D01*
X136102063Y-63524774D01*
X136246226Y-63668937D01*
X136415744Y-63782205D01*
X136604102Y-63860226D01*
X136804061Y-63900000D01*
X137007939Y-63900000D01*
X137207898Y-63860226D01*
X137396256Y-63782205D01*
X137565774Y-63668937D01*
X137709937Y-63524774D01*
X137823205Y-63355256D01*
X137901226Y-63166898D01*
X137941000Y-62966939D01*
X137941000Y-62763061D01*
X137901226Y-62563102D01*
X137823205Y-62374744D01*
X137709937Y-62205226D01*
X137565774Y-62061063D01*
X137396256Y-61947795D01*
X137207898Y-61869774D01*
X137007939Y-61830000D01*
X136804061Y-61830000D01*
X136604102Y-61869774D01*
X136415744Y-61947795D01*
X136246226Y-62061063D01*
X136102063Y-62205226D01*
X135988795Y-62374744D01*
X135910774Y-62563102D01*
X135871000Y-62763061D01*
X132207000Y-62763061D01*
X132207000Y-61239061D01*
X142221000Y-61239061D01*
X142221000Y-61442939D01*
X142260774Y-61642898D01*
X142338795Y-61831256D01*
X142452063Y-62000774D01*
X142596226Y-62144937D01*
X142765744Y-62258205D01*
X142954102Y-62336226D01*
X143154061Y-62376000D01*
X143357939Y-62376000D01*
X143557898Y-62336226D01*
X143746256Y-62258205D01*
X143915774Y-62144937D01*
X144059937Y-62000774D01*
X144173205Y-61831256D01*
X144251226Y-61642898D01*
X144291000Y-61442939D01*
X144291000Y-61239061D01*
X144251226Y-61039102D01*
X144173205Y-60850744D01*
X144059937Y-60681226D01*
X143915774Y-60537063D01*
X143746256Y-60423795D01*
X143557898Y-60345774D01*
X143357939Y-60306000D01*
X143154061Y-60306000D01*
X142954102Y-60345774D01*
X142765744Y-60423795D01*
X142596226Y-60537063D01*
X142452063Y-60681226D01*
X142338795Y-60850744D01*
X142260774Y-61039102D01*
X142221000Y-61239061D01*
X132207000Y-61239061D01*
X132207000Y-60649459D01*
X132226000Y-60553939D01*
X132226000Y-60350061D01*
X132186226Y-60150102D01*
X132108205Y-59961744D01*
X131994937Y-59792226D01*
X131850774Y-59648063D01*
X131769797Y-59593956D01*
X128334902Y-56159061D01*
X138411000Y-56159061D01*
X138411000Y-56362939D01*
X138450774Y-56562898D01*
X138528795Y-56751256D01*
X138583080Y-56832500D01*
X138528795Y-56913744D01*
X138450774Y-57102102D01*
X138411000Y-57302061D01*
X138411000Y-57505939D01*
X138450774Y-57705898D01*
X138528795Y-57894256D01*
X138642063Y-58063774D01*
X138786226Y-58207937D01*
X138955744Y-58321205D01*
X139144102Y-58399226D01*
X139344061Y-58439000D01*
X139547939Y-58439000D01*
X139747898Y-58399226D01*
X139936256Y-58321205D01*
X140105774Y-58207937D01*
X140249937Y-58063774D01*
X140363205Y-57894256D01*
X140441226Y-57705898D01*
X140481000Y-57505939D01*
X140481000Y-57302061D01*
X140441226Y-57102102D01*
X140363205Y-56913744D01*
X140308920Y-56832500D01*
X140363205Y-56751256D01*
X140441226Y-56562898D01*
X140481000Y-56362939D01*
X140481000Y-56159061D01*
X140441226Y-55959102D01*
X140366236Y-55778061D01*
X152000000Y-55778061D01*
X152000000Y-55981939D01*
X152039774Y-56181898D01*
X152098842Y-56324500D01*
X152039774Y-56467102D01*
X152000000Y-56667061D01*
X152000000Y-56870939D01*
X152039774Y-57070898D01*
X152117795Y-57259256D01*
X152231063Y-57428774D01*
X152375226Y-57572937D01*
X152544744Y-57686205D01*
X152733102Y-57764226D01*
X152933061Y-57804000D01*
X153136939Y-57804000D01*
X153336898Y-57764226D01*
X153525256Y-57686205D01*
X153694774Y-57572937D01*
X153838937Y-57428774D01*
X153952205Y-57259256D01*
X154030226Y-57070898D01*
X154070000Y-56870939D01*
X154070000Y-56667061D01*
X154030226Y-56467102D01*
X153971158Y-56324500D01*
X154030226Y-56181898D01*
X154070000Y-55981939D01*
X154070000Y-55778061D01*
X154030226Y-55578102D01*
X153952205Y-55389744D01*
X153838937Y-55220226D01*
X153694774Y-55076063D01*
X153525256Y-54962795D01*
X153336898Y-54884774D01*
X153136939Y-54845000D01*
X152933061Y-54845000D01*
X152733102Y-54884774D01*
X152544744Y-54962795D01*
X152375226Y-55076063D01*
X152231063Y-55220226D01*
X152117795Y-55389744D01*
X152039774Y-55578102D01*
X152000000Y-55778061D01*
X140366236Y-55778061D01*
X140363205Y-55770744D01*
X140249937Y-55601226D01*
X140105774Y-55457063D01*
X139936256Y-55343795D01*
X139747898Y-55265774D01*
X139547939Y-55226000D01*
X139344061Y-55226000D01*
X139144102Y-55265774D01*
X138955744Y-55343795D01*
X138786226Y-55457063D01*
X138642063Y-55601226D01*
X138528795Y-55770744D01*
X138450774Y-55959102D01*
X138411000Y-56159061D01*
X128334902Y-56159061D01*
X126198072Y-54022232D01*
X126198072Y-53398639D01*
X163357591Y-53398639D01*
X163402511Y-53737439D01*
X163512664Y-54060966D01*
X163618662Y-54259274D01*
X163893288Y-54367107D01*
X164920395Y-53340000D01*
X163893288Y-52312893D01*
X163618662Y-52420726D01*
X163467784Y-52727384D01*
X163379631Y-53057585D01*
X163357591Y-53398639D01*
X126198072Y-53398639D01*
X126198072Y-52240000D01*
X126185812Y-52115518D01*
X126149502Y-51995820D01*
X126090537Y-51885506D01*
X126011185Y-51788815D01*
X125914494Y-51709463D01*
X125804180Y-51650498D01*
X125684482Y-51614188D01*
X125560000Y-51601928D01*
X125333916Y-51601928D01*
X125380450Y-51555394D01*
X125510134Y-51361308D01*
X125599461Y-51145652D01*
X125645000Y-50916712D01*
X125645000Y-50683288D01*
X125599461Y-50454348D01*
X125510134Y-50238692D01*
X125380450Y-50044606D01*
X125215394Y-49879550D01*
X125021308Y-49749866D01*
X124805652Y-49660539D01*
X124787860Y-49657000D01*
X131420532Y-49657000D01*
X131293226Y-49742063D01*
G37*
X131293226Y-49742063D02*
X131149063Y-49886226D01*
X131035795Y-50055744D01*
X130957774Y-50244102D01*
X130918000Y-50444061D01*
X130918000Y-50647939D01*
X130957774Y-50847898D01*
X131035795Y-51036256D01*
X131047651Y-51054000D01*
X131035795Y-51071744D01*
X130957774Y-51260102D01*
X130918000Y-51460061D01*
X130918000Y-51663939D01*
X130957774Y-51863898D01*
X131035795Y-52052256D01*
X131149063Y-52221774D01*
X131293226Y-52365937D01*
X131462744Y-52479205D01*
X131651102Y-52557226D01*
X131851061Y-52597000D01*
X132054939Y-52597000D01*
X132254898Y-52557226D01*
X132443256Y-52479205D01*
X132612774Y-52365937D01*
X132756937Y-52221774D01*
X132870205Y-52052256D01*
X132948226Y-51863898D01*
X132988000Y-51663939D01*
X132988000Y-51460061D01*
X132948226Y-51260102D01*
X132870205Y-51071744D01*
X132858349Y-51054000D01*
X132870205Y-51036256D01*
X132948226Y-50847898D01*
X132988000Y-50647939D01*
X132988000Y-50444061D01*
X132948226Y-50244102D01*
X132870205Y-50055744D01*
X132756937Y-49886226D01*
X132612774Y-49742063D01*
X132485468Y-49657000D01*
X144332289Y-49657000D01*
X144230063Y-49759226D01*
X144116795Y-49928744D01*
X144038774Y-50117102D01*
X143999000Y-50317061D01*
X143999000Y-50520939D01*
X144038774Y-50720898D01*
X144116795Y-50909256D01*
X144128651Y-50927000D01*
X144116795Y-50944744D01*
X144038774Y-51133102D01*
X143999000Y-51333061D01*
X143999000Y-51536939D01*
X144038774Y-51736898D01*
X144116795Y-51925256D01*
X144230063Y-52094774D01*
X144374226Y-52238937D01*
X144543744Y-52352205D01*
X144732102Y-52430226D01*
X144932061Y-52470000D01*
X145135939Y-52470000D01*
X145335898Y-52430226D01*
X145524256Y-52352205D01*
X145693774Y-52238937D01*
X145837937Y-52094774D01*
X145951205Y-51925256D01*
X146029226Y-51736898D01*
X146069000Y-51536939D01*
X146069000Y-51333061D01*
X146029226Y-51133102D01*
X145951205Y-50944744D01*
X145939349Y-50927000D01*
X145951205Y-50909256D01*
X146029226Y-50720898D01*
X146069000Y-50520939D01*
X146069000Y-50317061D01*
X146029226Y-50117102D01*
X145951205Y-49928744D01*
X145837937Y-49759226D01*
X145735711Y-49657000D01*
X164772140Y-49657000D01*
X164754348Y-49660539D01*
X164538692Y-49749866D01*
X164344606Y-49879550D01*
X164179550Y-50044606D01*
X164049866Y-50238692D01*
X163960539Y-50454348D01*
X163915000Y-50683288D01*
X163915000Y-50916712D01*
X163960539Y-51145652D01*
X164049866Y-51361308D01*
X164179550Y-51555394D01*
X164344606Y-51720450D01*
X164388165Y-51749555D01*
X164379034Y-51752664D01*
X164180726Y-51858662D01*
X164072893Y-52133288D01*
X165100000Y-53160395D01*
X165114143Y-53146253D01*
X165293748Y-53325858D01*
X165279605Y-53340000D01*
X165293748Y-53354143D01*
X165114143Y-53533748D01*
X165100000Y-53519605D01*
X164072893Y-54546712D01*
X164180726Y-54821338D01*
X164487384Y-54972216D01*
X164817585Y-55060369D01*
X165158639Y-55082409D01*
X165497439Y-55037489D01*
X165820966Y-54927336D01*
X166019274Y-54821338D01*
X166023228Y-54811267D01*
X166088815Y-54891185D01*
X166185506Y-54970537D01*
X166295820Y-55029502D01*
X166415518Y-55065812D01*
X166540000Y-55078072D01*
X168740000Y-55078072D01*
X168864482Y-55065812D01*
X168984180Y-55029502D01*
X169094494Y-54970537D01*
X169191185Y-54891185D01*
X169270537Y-54794494D01*
X169329502Y-54684180D01*
X169365812Y-54564482D01*
X169378072Y-54440000D01*
X169378072Y-52240000D01*
X169365812Y-52115518D01*
X169329502Y-51995820D01*
X169270537Y-51885506D01*
X169191185Y-51788815D01*
X169094494Y-51709463D01*
X168984180Y-51650498D01*
X168864482Y-51614188D01*
X168740000Y-51601928D01*
X168513916Y-51601928D01*
X168560450Y-51555394D01*
X168690134Y-51361308D01*
X168779461Y-51145652D01*
X168825000Y-50916712D01*
X168825000Y-50683288D01*
X168779461Y-50454348D01*
X168690134Y-50238692D01*
X168560450Y-50044606D01*
X168395394Y-49879550D01*
X168201308Y-49749866D01*
X167985652Y-49660539D01*
X167967860Y-49657000D01*
X171323000Y-49657000D01*
X171323000Y-145923000D01*
X167967860Y-145923000D01*
X167985652Y-145919461D01*
X168201308Y-145830134D01*
X168395394Y-145700450D01*
X168560450Y-145535394D01*
X168690134Y-145341308D01*
X168779461Y-145125652D01*
X168825000Y-144896712D01*
X168825000Y-144663288D01*
X168779461Y-144434348D01*
X168690134Y-144218692D01*
X168560450Y-144024606D01*
X168395394Y-143859550D01*
X168345048Y-143825910D01*
X168461831Y-143777537D01*
X168745998Y-143587663D01*
X168987663Y-143345998D01*
X169177537Y-143061831D01*
X169308325Y-142746081D01*
X169375000Y-142410883D01*
X169375000Y-142069117D01*
X169308325Y-141733919D01*
X169177537Y-141418169D01*
X168987663Y-141134002D01*
X168745998Y-140892337D01*
X168461831Y-140702463D01*
X168146081Y-140571675D01*
X167810883Y-140505000D01*
X167469117Y-140505000D01*
X167133919Y-140571675D01*
X166818169Y-140702463D01*
X166717557Y-140769690D01*
X166651185Y-140688815D01*
X166554494Y-140609463D01*
X166444180Y-140550498D01*
X166324482Y-140514188D01*
X166200000Y-140501928D01*
X164000000Y-140501928D01*
X163875518Y-140514188D01*
X163755820Y-140550498D01*
X163645506Y-140609463D01*
X163548815Y-140688815D01*
X163469463Y-140785506D01*
X163410498Y-140895820D01*
X163374188Y-141015518D01*
X163361928Y-141140000D01*
X163361928Y-143340000D01*
X163374188Y-143464482D01*
X163410498Y-143584180D01*
X163469463Y-143694494D01*
X163548815Y-143791185D01*
X163645506Y-143870537D01*
X163755820Y-143929502D01*
X163875518Y-143965812D01*
X164000000Y-143978072D01*
X164226084Y-143978072D01*
X164179550Y-144024606D01*
X164049866Y-144218692D01*
X163960539Y-144434348D01*
X163915000Y-144663288D01*
X163915000Y-144896712D01*
X163960539Y-145125652D01*
X164049866Y-145341308D01*
X164179550Y-145535394D01*
X164344606Y-145700450D01*
X164538692Y-145830134D01*
X164754348Y-145919461D01*
X164772140Y-145923000D01*
X160347860Y-145923000D01*
X160365652Y-145919461D01*
X160581308Y-145830134D01*
X160775394Y-145700450D01*
X160940450Y-145535394D01*
X161070134Y-145341308D01*
X161159461Y-145125652D01*
X161205000Y-144896712D01*
X161205000Y-144663288D01*
X161159461Y-144434348D01*
X161070134Y-144218692D01*
X160940450Y-144024606D01*
X160775394Y-143859550D01*
X160725048Y-143825910D01*
X160841831Y-143777537D01*
X161125998Y-143587663D01*
X161367663Y-143345998D01*
X161557537Y-143061831D01*
X161688325Y-142746081D01*
X161755000Y-142410883D01*
X161755000Y-142069117D01*
X161688325Y-141733919D01*
X161557537Y-141418169D01*
X161367663Y-141134002D01*
X161125998Y-140892337D01*
X160841831Y-140702463D01*
X160526081Y-140571675D01*
X160190883Y-140505000D01*
X159849117Y-140505000D01*
X159513919Y-140571675D01*
X159198169Y-140702463D01*
X159097557Y-140769690D01*
X159031185Y-140688815D01*
X158934494Y-140609463D01*
X158824180Y-140550498D01*
X158704482Y-140514188D01*
X158580000Y-140501928D01*
X156380000Y-140501928D01*
X156255518Y-140514188D01*
X156135820Y-140550498D01*
X156025506Y-140609463D01*
X155928815Y-140688815D01*
X155849463Y-140785506D01*
X155790498Y-140895820D01*
X155754188Y-141015518D01*
X155741928Y-141140000D01*
X155741928Y-141859000D01*
X149413630Y-141859000D01*
X149991347Y-141281283D01*
X150020422Y-141257422D01*
X150080857Y-141183781D01*
X150115645Y-141141393D01*
X150186401Y-141009016D01*
X150186402Y-141009015D01*
X150229974Y-140865378D01*
X150241000Y-140753426D01*
X150241000Y-140753423D01*
X150244686Y-140716000D01*
X150241000Y-140678577D01*
X150241000Y-138364630D01*
X151299630Y-137306000D01*
X151358939Y-137306000D01*
X151558898Y-137266226D01*
X151619000Y-137241331D01*
X151619000Y-137388939D01*
X151658774Y-137588898D01*
X151736795Y-137777256D01*
X151850063Y-137946774D01*
X151994226Y-138090937D01*
X152163744Y-138204205D01*
X152352102Y-138282226D01*
X152552061Y-138322000D01*
X152755939Y-138322000D01*
X152955898Y-138282226D01*
X153144256Y-138204205D01*
X153313774Y-138090937D01*
X153457937Y-137946774D01*
X153571205Y-137777256D01*
X153649226Y-137588898D01*
X153689000Y-137388939D01*
X153689000Y-137185061D01*
X153649226Y-136985102D01*
X153571205Y-136796744D01*
X153457937Y-136627226D01*
X153313774Y-136483063D01*
X153144256Y-136369795D01*
X152955898Y-136291774D01*
X152755939Y-136252000D01*
X152552061Y-136252000D01*
X152352102Y-136291774D01*
X152292000Y-136316669D01*
X152292000Y-136169061D01*
X152252226Y-135969102D01*
X152174205Y-135780744D01*
X152060937Y-135611226D01*
X151916774Y-135467063D01*
X151747256Y-135353795D01*
X151558898Y-135275774D01*
X151358939Y-135236000D01*
X151155061Y-135236000D01*
X150955102Y-135275774D01*
X150766744Y-135353795D01*
X150597226Y-135467063D01*
X150453063Y-135611226D01*
X150339795Y-135780744D01*
X150261774Y-135969102D01*
X150222000Y-136169061D01*
X150222000Y-136228370D01*
X148966649Y-137483721D01*
X148937579Y-137507578D01*
X148913722Y-137536648D01*
X148913721Y-137536649D01*
X148844000Y-137621604D01*
X148844000Y-135189630D01*
X149648631Y-134385000D01*
X149707939Y-134385000D01*
X149907898Y-134345226D01*
X150096256Y-134267205D01*
X150265774Y-134153937D01*
X150409937Y-134009774D01*
X150523205Y-133840256D01*
X150601226Y-133651898D01*
X150641000Y-133451939D01*
X150641000Y-133248061D01*
X150601226Y-133048102D01*
X150523205Y-132859744D01*
X150409937Y-132690226D01*
X150265774Y-132546063D01*
X150096256Y-132432795D01*
X149907898Y-132354774D01*
X149707939Y-132315000D01*
X149504061Y-132315000D01*
X149304102Y-132354774D01*
X149115744Y-132432795D01*
X148946226Y-132546063D01*
X148802063Y-132690226D01*
X148688795Y-132859744D01*
X148610774Y-133048102D01*
X148571000Y-133248061D01*
X148571000Y-133307369D01*
X147575264Y-134303106D01*
X147593000Y-134213939D01*
X147593000Y-134010061D01*
X147553226Y-133810102D01*
X147475205Y-133621744D01*
X147361937Y-133452226D01*
X147318000Y-133408289D01*
X147318000Y-128795685D01*
X147471774Y-128692937D01*
X147615937Y-128548774D01*
X147729205Y-128379256D01*
X147807226Y-128190898D01*
X147847000Y-127990939D01*
X147847000Y-127787061D01*
X147807226Y-127587102D01*
X147729205Y-127398744D01*
X147615937Y-127229226D01*
X147471774Y-127085063D01*
X147302256Y-126971795D01*
X147113898Y-126893774D01*
X146913939Y-126854000D01*
X146846999Y-126854000D01*
X146846999Y-125245802D01*
X147286005Y-124806797D01*
X147315002Y-124783000D01*
X147409975Y-124667275D01*
X147480547Y-124535246D01*
X147524004Y-124391985D01*
X147535001Y-124280332D01*
X147535001Y-124280324D01*
X147538677Y-124242999D01*
X147535001Y-124205674D01*
X147535001Y-123133321D01*
X147538677Y-123095998D01*
X147535001Y-123058675D01*
X147535001Y-123058666D01*
X147524004Y-122947013D01*
X147480547Y-122803752D01*
X147409975Y-122671723D01*
X147315002Y-122555998D01*
X147286003Y-122532199D01*
X147085000Y-122331196D01*
X147085000Y-122326061D01*
X147045226Y-122126102D01*
X146967205Y-121937744D01*
X146853937Y-121768226D01*
X146751705Y-121665994D01*
X147686986Y-121665994D01*
X147682000Y-121691061D01*
X147682000Y-121894939D01*
X147721774Y-122094898D01*
X147799795Y-122283256D01*
X147811651Y-122301000D01*
X147799795Y-122318744D01*
X147721774Y-122507102D01*
X147682000Y-122707061D01*
X147682000Y-122910939D01*
X147721774Y-123110898D01*
X147799795Y-123299256D01*
X147913063Y-123468774D01*
X148057226Y-123612937D01*
X148226744Y-123726205D01*
X148415102Y-123804226D01*
X148615061Y-123844000D01*
X148818939Y-123844000D01*
X149018898Y-123804226D01*
X149207256Y-123726205D01*
X149376774Y-123612937D01*
X149420711Y-123569000D01*
X149545199Y-123569000D01*
X154481199Y-128505000D01*
X154457061Y-128505000D01*
X154257102Y-128544774D01*
X154068744Y-128622795D01*
X153899226Y-128736063D01*
X153755063Y-128880226D01*
X153641795Y-129049744D01*
X153563774Y-129238102D01*
X153524000Y-129438061D01*
X153524000Y-129641939D01*
X153563774Y-129841898D01*
X153641795Y-130030256D01*
X153755063Y-130199774D01*
X153899226Y-130343937D01*
X154068744Y-130457205D01*
X154257102Y-130535226D01*
X154457061Y-130575000D01*
X154660939Y-130575000D01*
X154860898Y-130535226D01*
X155049256Y-130457205D01*
X155218774Y-130343937D01*
X155362937Y-130199774D01*
X155476205Y-130030256D01*
X155554226Y-129841898D01*
X155594000Y-129641939D01*
X155594000Y-129617802D01*
X159874000Y-133897802D01*
X159874000Y-133959939D01*
X159913774Y-134159898D01*
X159991795Y-134348256D01*
X160105063Y-134517774D01*
X160249226Y-134661937D01*
X160418744Y-134775205D01*
X160607102Y-134853226D01*
X160807061Y-134893000D01*
X161010939Y-134893000D01*
X161210898Y-134853226D01*
X161399256Y-134775205D01*
X161568774Y-134661937D01*
X161712937Y-134517774D01*
X161826205Y-134348256D01*
X161904226Y-134159898D01*
X161944000Y-133959939D01*
X161944000Y-133756061D01*
X161904226Y-133556102D01*
X161826205Y-133367744D01*
X161712937Y-133198226D01*
X161610711Y-133096000D01*
X161712937Y-132993774D01*
X161826205Y-132824256D01*
X161904226Y-132635898D01*
X161944000Y-132435939D01*
X161944000Y-132232061D01*
X161904226Y-132032102D01*
X161826205Y-131843744D01*
X161712937Y-131674226D01*
X161568774Y-131530063D01*
X161399256Y-131416795D01*
X161210898Y-131338774D01*
X161010939Y-131299000D01*
X160807061Y-131299000D01*
X160607102Y-131338774D01*
X160418744Y-131416795D01*
X160316148Y-131485348D01*
X159042675Y-130211875D01*
X159210102Y-130281226D01*
X159410061Y-130321000D01*
X159613939Y-130321000D01*
X159813898Y-130281226D01*
X160002256Y-130203205D01*
X160171774Y-130089937D01*
X160315937Y-129945774D01*
X160429205Y-129776256D01*
X160507226Y-129587898D01*
X160547000Y-129387939D01*
X160547000Y-129184061D01*
X160516753Y-129032000D01*
X163703068Y-129032000D01*
X163672068Y-129106842D01*
X163615000Y-129393740D01*
X163615000Y-129686260D01*
X163672068Y-129973158D01*
X163784010Y-130243411D01*
X163946525Y-130486632D01*
X164153368Y-130693475D01*
X164327760Y-130810000D01*
X164153368Y-130926525D01*
X163946525Y-131133368D01*
X163784010Y-131376589D01*
X163672068Y-131646842D01*
X163615000Y-131933740D01*
X163615000Y-132226260D01*
X163672068Y-132513158D01*
X163784010Y-132783411D01*
X163946525Y-133026632D01*
X164153368Y-133233475D01*
X164396589Y-133395990D01*
X164666842Y-133507932D01*
X164953740Y-133565000D01*
X165246260Y-133565000D01*
X165533158Y-133507932D01*
X165803411Y-133395990D01*
X166046632Y-133233475D01*
X166253475Y-133026632D01*
X166370000Y-132852240D01*
X166486525Y-133026632D01*
X166693368Y-133233475D01*
X166936589Y-133395990D01*
X167206842Y-133507932D01*
X167493740Y-133565000D01*
X167786260Y-133565000D01*
X168073158Y-133507932D01*
X168343411Y-133395990D01*
X168586632Y-133233475D01*
X168793475Y-133026632D01*
X168955990Y-132783411D01*
X169067932Y-132513158D01*
X169125000Y-132226260D01*
X169125000Y-131933740D01*
X169067932Y-131646842D01*
X168955990Y-131376589D01*
X168793475Y-131133368D01*
X168586632Y-130926525D01*
X168412240Y-130810000D01*
X168586632Y-130693475D01*
X168793475Y-130486632D01*
X168955990Y-130243411D01*
X169067932Y-129973158D01*
X169125000Y-129686260D01*
X169125000Y-129393740D01*
X169067932Y-129106842D01*
X168955990Y-128836589D01*
X168793475Y-128593368D01*
X168586632Y-128386525D01*
X168412240Y-128270000D01*
X168586632Y-128153475D01*
X168793475Y-127946632D01*
X168955990Y-127703411D01*
X169067932Y-127433158D01*
X169125000Y-127146260D01*
X169125000Y-126853740D01*
X169067932Y-126566842D01*
X168955990Y-126296589D01*
X168793475Y-126053368D01*
X168586632Y-125846525D01*
X168412240Y-125730000D01*
X168586632Y-125613475D01*
X168793475Y-125406632D01*
X168955990Y-125163411D01*
X169067932Y-124893158D01*
X169125000Y-124606260D01*
X169125000Y-124313740D01*
X169067932Y-124026842D01*
X168955990Y-123756589D01*
X168793475Y-123513368D01*
X168586632Y-123306525D01*
X168412240Y-123190000D01*
X168586632Y-123073475D01*
X168793475Y-122866632D01*
X168955990Y-122623411D01*
X169067932Y-122353158D01*
X169125000Y-122066260D01*
X169125000Y-121773740D01*
X169067932Y-121486842D01*
X168955990Y-121216589D01*
X168793475Y-120973368D01*
X168586632Y-120766525D01*
X168412240Y-120650000D01*
X168586632Y-120533475D01*
X168793475Y-120326632D01*
X168955990Y-120083411D01*
X169067932Y-119813158D01*
X169125000Y-119526260D01*
X169125000Y-119233740D01*
X169067932Y-118946842D01*
X168955990Y-118676589D01*
X168793475Y-118433368D01*
X168586632Y-118226525D01*
X168404466Y-118104805D01*
X168521355Y-118035178D01*
X168737588Y-117840269D01*
X168911641Y-117606920D01*
X169036825Y-117344099D01*
X169081476Y-117196890D01*
X168960155Y-116967000D01*
X167767000Y-116967000D01*
X167767000Y-116987000D01*
X167513000Y-116987000D01*
X167513000Y-116967000D01*
X167493000Y-116967000D01*
X167493000Y-116713000D01*
X167513000Y-116713000D01*
X167513000Y-116693000D01*
X167767000Y-116693000D01*
X167767000Y-116713000D01*
X168960155Y-116713000D01*
X169081476Y-116483110D01*
X169036825Y-116335901D01*
X168911641Y-116073080D01*
X168737588Y-115839731D01*
X168521355Y-115644822D01*
X168404466Y-115575195D01*
X168586632Y-115453475D01*
X168793475Y-115246632D01*
X168955990Y-115003411D01*
X169067932Y-114733158D01*
X169125000Y-114446260D01*
X169125000Y-114153740D01*
X169067932Y-113866842D01*
X168955990Y-113596589D01*
X168793475Y-113353368D01*
X168586632Y-113146525D01*
X168412240Y-113030000D01*
X168586632Y-112913475D01*
X168793475Y-112706632D01*
X168955990Y-112463411D01*
X169067932Y-112193158D01*
X169125000Y-111906260D01*
X169125000Y-111613740D01*
X169067932Y-111326842D01*
X168955990Y-111056589D01*
X168793475Y-110813368D01*
X168586632Y-110606525D01*
X168412240Y-110490000D01*
X168586632Y-110373475D01*
X168793475Y-110166632D01*
X168955990Y-109923411D01*
X169067932Y-109653158D01*
X169125000Y-109366260D01*
X169125000Y-109073740D01*
X169067932Y-108786842D01*
X168955990Y-108516589D01*
X168793475Y-108273368D01*
X168586632Y-108066525D01*
X168412240Y-107950000D01*
X168586632Y-107833475D01*
X168793475Y-107626632D01*
X168955990Y-107383411D01*
X169067932Y-107113158D01*
X169125000Y-106826260D01*
X169125000Y-106533740D01*
X169067932Y-106246842D01*
X168955990Y-105976589D01*
X168793475Y-105733368D01*
X168586632Y-105526525D01*
X168412240Y-105410000D01*
X168586632Y-105293475D01*
X168793475Y-105086632D01*
X168955990Y-104843411D01*
X169067932Y-104573158D01*
X169125000Y-104286260D01*
X169125000Y-103993740D01*
X169067932Y-103706842D01*
X168955990Y-103436589D01*
X168793475Y-103193368D01*
X168586632Y-102986525D01*
X168412240Y-102870000D01*
X168586632Y-102753475D01*
X168793475Y-102546632D01*
X168955990Y-102303411D01*
X169067932Y-102033158D01*
X169125000Y-101746260D01*
X169125000Y-101453740D01*
X169067932Y-101166842D01*
X168955990Y-100896589D01*
X168793475Y-100653368D01*
X168586632Y-100446525D01*
X168412240Y-100330000D01*
X168586632Y-100213475D01*
X168793475Y-100006632D01*
X168955990Y-99763411D01*
X169067932Y-99493158D01*
X169125000Y-99206260D01*
X169125000Y-98913740D01*
X169067932Y-98626842D01*
X168955990Y-98356589D01*
X168793475Y-98113368D01*
X168586632Y-97906525D01*
X168412240Y-97790000D01*
X168586632Y-97673475D01*
X168793475Y-97466632D01*
X168955990Y-97223411D01*
X169067932Y-96953158D01*
X169125000Y-96666260D01*
X169125000Y-96373740D01*
X169067932Y-96086842D01*
X168955990Y-95816589D01*
X168793475Y-95573368D01*
X168586632Y-95366525D01*
X168412240Y-95250000D01*
X168586632Y-95133475D01*
X168793475Y-94926632D01*
X168955990Y-94683411D01*
X169067932Y-94413158D01*
X169125000Y-94126260D01*
X169125000Y-93833740D01*
X169067932Y-93546842D01*
X168955990Y-93276589D01*
X168793475Y-93033368D01*
X168586632Y-92826525D01*
X168412240Y-92710000D01*
X168586632Y-92593475D01*
X168793475Y-92386632D01*
X168955990Y-92143411D01*
X169067932Y-91873158D01*
X169125000Y-91586260D01*
X169125000Y-91293740D01*
X169067932Y-91006842D01*
X168955990Y-90736589D01*
X168793475Y-90493368D01*
X168586632Y-90286525D01*
X168343411Y-90124010D01*
X168073158Y-90012068D01*
X167786260Y-89955000D01*
X167493740Y-89955000D01*
X167206842Y-90012068D01*
X166936589Y-90124010D01*
X166693368Y-90286525D01*
X166561513Y-90418380D01*
X166539502Y-90345820D01*
X166480537Y-90235506D01*
X166401185Y-90138815D01*
X166304494Y-90059463D01*
X166194180Y-90000498D01*
X166074482Y-89964188D01*
X165950000Y-89951928D01*
X164250000Y-89951928D01*
X164125518Y-89964188D01*
X164005820Y-90000498D01*
X163895506Y-90059463D01*
X163798815Y-90138815D01*
X163719463Y-90235506D01*
X163660498Y-90345820D01*
X163624188Y-90465518D01*
X163611928Y-90590000D01*
X163611928Y-92290000D01*
X163624188Y-92414482D01*
X163660498Y-92534180D01*
X163719463Y-92644494D01*
X163798815Y-92741185D01*
X163895506Y-92820537D01*
X164005820Y-92879502D01*
X164086466Y-92903966D01*
X164002412Y-92979731D01*
X163828359Y-93213080D01*
X163703175Y-93475901D01*
X163658524Y-93623110D01*
X163779845Y-93853000D01*
X164973000Y-93853000D01*
X164973000Y-93833000D01*
X165227000Y-93833000D01*
X165227000Y-93853000D01*
X165247000Y-93853000D01*
X165247000Y-94107000D01*
X165227000Y-94107000D01*
X165227000Y-96393000D01*
X165247000Y-96393000D01*
X165247000Y-96647000D01*
X165227000Y-96647000D01*
X165227000Y-96667000D01*
X164973000Y-96667000D01*
X164973000Y-96647000D01*
X163779845Y-96647000D01*
X163658524Y-96876890D01*
X163703175Y-97024099D01*
X163828359Y-97286920D01*
X164002412Y-97520269D01*
X164218645Y-97715178D01*
X164335534Y-97784805D01*
X164153368Y-97906525D01*
X163946525Y-98113368D01*
X163784010Y-98356589D01*
X163672068Y-98626842D01*
X163615000Y-98913740D01*
X163615000Y-99206260D01*
X163672068Y-99493158D01*
X163784010Y-99763411D01*
X163946525Y-100006632D01*
X164153368Y-100213475D01*
X164327760Y-100330000D01*
X164153368Y-100446525D01*
X163946525Y-100653368D01*
X163784010Y-100896589D01*
X163672068Y-101166842D01*
X163615000Y-101453740D01*
X163615000Y-101746260D01*
X163672068Y-102033158D01*
X163784010Y-102303411D01*
X163946525Y-102546632D01*
X164153368Y-102753475D01*
X164327760Y-102870000D01*
X164153368Y-102986525D01*
X163946525Y-103193368D01*
X163784010Y-103436589D01*
X163672068Y-103706842D01*
X163615000Y-103993740D01*
X163615000Y-104286260D01*
X163672068Y-104573158D01*
X163784010Y-104843411D01*
X163946525Y-105086632D01*
X164153368Y-105293475D01*
X164327760Y-105410000D01*
X164153368Y-105526525D01*
X163946525Y-105733368D01*
X163784010Y-105976589D01*
X163672068Y-106246842D01*
X163615000Y-106533740D01*
X163615000Y-106826260D01*
X163672068Y-107113158D01*
X163784010Y-107383411D01*
X163946525Y-107626632D01*
X164153368Y-107833475D01*
X164327760Y-107950000D01*
X164153368Y-108066525D01*
X163946525Y-108273368D01*
X163784010Y-108516589D01*
X163672068Y-108786842D01*
X163615000Y-109073740D01*
X163615000Y-109366260D01*
X163672068Y-109653158D01*
X163784010Y-109923411D01*
X163946525Y-110166632D01*
X164153368Y-110373475D01*
X164335534Y-110495195D01*
X164218645Y-110564822D01*
X164002412Y-110759731D01*
X163828359Y-110993080D01*
X163703175Y-111255901D01*
X163658524Y-111403110D01*
X163779845Y-111633000D01*
X164973000Y-111633000D01*
X164973000Y-111613000D01*
X165227000Y-111613000D01*
X165227000Y-111633000D01*
X165247000Y-111633000D01*
X165247000Y-111887000D01*
X165227000Y-111887000D01*
X165227000Y-111907000D01*
X164973000Y-111907000D01*
X164973000Y-111887000D01*
X163779845Y-111887000D01*
X163658524Y-112116890D01*
X163703175Y-112264099D01*
X163828359Y-112526920D01*
X164002412Y-112760269D01*
X164218645Y-112955178D01*
X164335534Y-113024805D01*
X164153368Y-113146525D01*
X163946525Y-113353368D01*
X163784010Y-113596589D01*
X163672068Y-113866842D01*
X163615000Y-114153740D01*
X163615000Y-114446260D01*
X163672068Y-114733158D01*
X163784010Y-115003411D01*
X163946525Y-115246632D01*
X164153368Y-115453475D01*
X164327760Y-115570000D01*
X164153368Y-115686525D01*
X163946525Y-115893368D01*
X163784010Y-116136589D01*
X163672068Y-116406842D01*
X163615000Y-116693740D01*
X163615000Y-116986260D01*
X163672068Y-117273158D01*
X163784010Y-117543411D01*
X163946525Y-117786632D01*
X164153368Y-117993475D01*
X164327760Y-118110000D01*
X164153368Y-118226525D01*
X163946525Y-118433368D01*
X163784010Y-118676589D01*
X163672068Y-118946842D01*
X163615000Y-119233740D01*
X163615000Y-119526260D01*
X163672068Y-119813158D01*
X163784010Y-120083411D01*
X163946525Y-120326632D01*
X164153368Y-120533475D01*
X164327760Y-120650000D01*
X164153368Y-120766525D01*
X163946525Y-120973368D01*
X163784010Y-121216589D01*
X163672068Y-121486842D01*
X163615000Y-121773740D01*
X163615000Y-122066260D01*
X163672068Y-122353158D01*
X163784010Y-122623411D01*
X163946525Y-122866632D01*
X164153368Y-123073475D01*
X164335534Y-123195195D01*
X164218645Y-123264822D01*
X164002412Y-123459731D01*
X163828359Y-123693080D01*
X163703175Y-123955901D01*
X163658524Y-124103110D01*
X163779845Y-124333000D01*
X164973000Y-124333000D01*
X164973000Y-124313000D01*
X165227000Y-124313000D01*
X165227000Y-124333000D01*
X165247000Y-124333000D01*
X165247000Y-124587000D01*
X165227000Y-124587000D01*
X165227000Y-124607000D01*
X164973000Y-124607000D01*
X164973000Y-124587000D01*
X163779845Y-124587000D01*
X163658524Y-124816890D01*
X163703175Y-124964099D01*
X163828359Y-125226920D01*
X164002412Y-125460269D01*
X164218645Y-125655178D01*
X164335534Y-125724805D01*
X164153368Y-125846525D01*
X163946525Y-126053368D01*
X163784010Y-126296589D01*
X163672068Y-126566842D01*
X163615000Y-126853740D01*
X163615000Y-127146260D01*
X163672068Y-127433158D01*
X163703068Y-127508000D01*
X162706000Y-127508000D01*
X162706000Y-127406061D01*
X162666226Y-127206102D01*
X162588205Y-127017744D01*
X162474937Y-126848226D01*
X162330774Y-126704063D01*
X162249797Y-126649956D01*
X160782000Y-125182160D01*
X160782000Y-120181840D01*
X161995797Y-118968044D01*
X162076774Y-118913937D01*
X162220937Y-118769774D01*
X162334205Y-118600256D01*
X162412226Y-118411898D01*
X162452000Y-118211939D01*
X162452000Y-118008061D01*
X162433000Y-117912541D01*
X162433000Y-106221902D01*
X162437915Y-106172000D01*
X162418298Y-105972829D01*
X162418228Y-105972599D01*
X162360202Y-105781313D01*
X162265860Y-105604810D01*
X162138896Y-105450104D01*
X162100133Y-105418292D01*
X160243046Y-103561206D01*
X160188937Y-103480226D01*
X160044774Y-103336063D01*
X159963797Y-103281956D01*
X159131000Y-102449160D01*
X159131000Y-100750840D01*
X159963797Y-99918044D01*
X160044774Y-99863937D01*
X160188937Y-99719774D01*
X160302205Y-99550256D01*
X160380226Y-99361898D01*
X160420000Y-99161939D01*
X160420000Y-98958061D01*
X160380226Y-98758102D01*
X160302205Y-98569744D01*
X160188937Y-98400226D01*
X160044774Y-98256063D01*
X159875256Y-98142795D01*
X159686898Y-98064774D01*
X159486939Y-98025000D01*
X159283061Y-98025000D01*
X159083102Y-98064774D01*
X158894744Y-98142795D01*
X158725226Y-98256063D01*
X158581063Y-98400226D01*
X158526956Y-98481203D01*
X157431872Y-99576288D01*
X157393104Y-99608104D01*
X157266140Y-99762810D01*
X157171798Y-99939314D01*
X157124571Y-100095000D01*
X157113702Y-100130830D01*
X157094085Y-100330000D01*
X157099000Y-100379902D01*
X157099001Y-102820089D01*
X157094085Y-102870000D01*
X157113702Y-103069170D01*
X157171799Y-103260687D01*
X157266141Y-103437190D01*
X157393105Y-103591896D01*
X157431868Y-103623708D01*
X158526956Y-104718797D01*
X158581063Y-104799774D01*
X158725226Y-104943937D01*
X158806206Y-104998046D01*
X160401001Y-106592842D01*
X160401000Y-117689159D01*
X159380853Y-118709307D01*
X159404000Y-118592939D01*
X159404000Y-118389061D01*
X159364226Y-118189102D01*
X159286205Y-118000744D01*
X159172937Y-117831226D01*
X159028774Y-117687063D01*
X158859256Y-117573795D01*
X158670898Y-117495774D01*
X158470939Y-117456000D01*
X158267061Y-117456000D01*
X158115000Y-117486247D01*
X158115000Y-116242423D01*
X158118686Y-116205000D01*
X158115000Y-116167574D01*
X158103974Y-116055622D01*
X158060402Y-115911985D01*
X158022437Y-115840957D01*
X157989645Y-115779607D01*
X157918279Y-115692648D01*
X157894422Y-115663578D01*
X157865353Y-115639722D01*
X157811024Y-115585393D01*
X157816897Y-115584225D01*
X158005255Y-115506204D01*
X158174773Y-115392936D01*
X158318936Y-115248773D01*
X158432204Y-115079255D01*
X158510225Y-114890897D01*
X158549999Y-114690938D01*
X158549999Y-114487060D01*
X158510225Y-114287101D01*
X158432204Y-114098743D01*
X158318936Y-113929225D01*
X158174773Y-113785062D01*
X158005255Y-113671794D01*
X157816897Y-113593773D01*
X157616938Y-113553999D01*
X157413060Y-113553999D01*
X157213101Y-113593773D01*
X157024743Y-113671794D01*
X156855225Y-113785062D01*
X156813288Y-113826999D01*
X153291424Y-113826999D01*
X153254001Y-113823313D01*
X153216578Y-113826999D01*
X153216575Y-113826999D01*
X153104623Y-113838025D01*
X152960986Y-113881597D01*
X152937359Y-113894226D01*
X152828608Y-113952354D01*
X152792963Y-113981608D01*
X152712579Y-114047577D01*
X152688717Y-114076653D01*
X152473010Y-114292360D01*
X152473010Y-113947721D01*
X152474256Y-113947205D01*
X152643774Y-113833937D01*
X152787937Y-113689774D01*
X152901205Y-113520256D01*
X152979226Y-113331898D01*
X153019000Y-113131939D01*
X153019000Y-112928061D01*
X152979226Y-112728102D01*
X152901205Y-112539744D01*
X152787937Y-112370226D01*
X152643774Y-112226063D01*
X152474256Y-112112795D01*
X152285898Y-112034774D01*
X152085939Y-111995000D01*
X152019000Y-111995000D01*
X152019000Y-111191711D01*
X152060937Y-111149774D01*
X152174205Y-110980256D01*
X152252226Y-110791898D01*
X152292000Y-110591939D01*
X152292000Y-110388061D01*
X152252226Y-110188102D01*
X152174205Y-109999744D01*
X152060937Y-109830226D01*
X151916774Y-109686063D01*
X151747256Y-109572795D01*
X151558898Y-109494774D01*
X151358939Y-109455000D01*
X151257000Y-109455000D01*
X151257000Y-108651711D01*
X151298937Y-108609774D01*
X151412205Y-108440256D01*
X151490226Y-108251898D01*
X151530000Y-108051939D01*
X151530000Y-107848061D01*
X151490226Y-107648102D01*
X151412205Y-107459744D01*
X151298937Y-107290226D01*
X151154774Y-107146063D01*
X150985256Y-107032795D01*
X150796898Y-106954774D01*
X150596939Y-106915000D01*
X150495000Y-106915000D01*
X150495000Y-101031711D01*
X150536937Y-100989774D01*
X150650205Y-100820256D01*
X150728226Y-100631898D01*
X150768000Y-100431939D01*
X150768000Y-100228061D01*
X150728226Y-100028102D01*
X150650205Y-99839744D01*
X150536937Y-99670226D01*
X150392774Y-99526063D01*
X150223256Y-99412795D01*
X150034898Y-99334774D01*
X149834939Y-99295000D01*
X149631061Y-99295000D01*
X149431102Y-99334774D01*
X149242744Y-99412795D01*
X149073226Y-99526063D01*
X148929063Y-99670226D01*
X148815795Y-99839744D01*
X148737774Y-100028102D01*
X148698000Y-100228061D01*
X148698000Y-100431939D01*
X148737774Y-100631898D01*
X148815795Y-100820256D01*
X148929063Y-100989774D01*
X148971001Y-101031712D01*
X148971001Y-101835000D01*
X148869061Y-101835000D01*
X148669102Y-101874774D01*
X148480744Y-101952795D01*
X148311226Y-102066063D01*
X148167063Y-102210226D01*
X148053795Y-102379744D01*
X147975774Y-102568102D01*
X147936000Y-102768061D01*
X147936000Y-102971939D01*
X147975774Y-103171898D01*
X148053795Y-103360256D01*
X148167063Y-103529774D01*
X148209001Y-103571712D01*
X148209001Y-104375000D01*
X148142061Y-104375000D01*
X147942102Y-104414774D01*
X147753744Y-104492795D01*
X147604147Y-104592752D01*
X147604147Y-99599483D01*
X152866740Y-94336890D01*
X163658524Y-94336890D01*
X163703175Y-94484099D01*
X163828359Y-94746920D01*
X164002412Y-94980269D01*
X164218645Y-95175178D01*
X164344255Y-95250000D01*
X164218645Y-95324822D01*
X164002412Y-95519731D01*
X163828359Y-95753080D01*
X163703175Y-96015901D01*
X163658524Y-96163110D01*
X163779845Y-96393000D01*
X164973000Y-96393000D01*
X164973000Y-94107000D01*
X163779845Y-94107000D01*
X163658524Y-94336890D01*
X152866740Y-94336890D01*
X163850584Y-83353047D01*
X163946525Y-83496632D01*
X164153368Y-83703475D01*
X164327760Y-83820000D01*
X164153368Y-83936525D01*
X163946525Y-84143368D01*
X163784010Y-84386589D01*
X163672068Y-84656842D01*
X163615000Y-84943740D01*
X163615000Y-85236260D01*
X163672068Y-85523158D01*
X163784010Y-85793411D01*
X163946525Y-86036632D01*
X164153368Y-86243475D01*
X164327760Y-86360000D01*
X164153368Y-86476525D01*
X163946525Y-86683368D01*
X163784010Y-86926589D01*
X163672068Y-87196842D01*
X163615000Y-87483740D01*
X163615000Y-87776260D01*
X163672068Y-88063158D01*
X163784010Y-88333411D01*
X163946525Y-88576632D01*
X164153368Y-88783475D01*
X164396589Y-88945990D01*
X164666842Y-89057932D01*
X164953740Y-89115000D01*
X165246260Y-89115000D01*
X165533158Y-89057932D01*
X165803411Y-88945990D01*
X166046632Y-88783475D01*
X166253475Y-88576632D01*
X166370000Y-88402240D01*
X166486525Y-88576632D01*
X166693368Y-88783475D01*
X166936589Y-88945990D01*
X167206842Y-89057932D01*
X167493740Y-89115000D01*
X167786260Y-89115000D01*
X168073158Y-89057932D01*
X168343411Y-88945990D01*
X168586632Y-88783475D01*
X168793475Y-88576632D01*
X168955990Y-88333411D01*
X169067932Y-88063158D01*
X169125000Y-87776260D01*
X169125000Y-87483740D01*
X169067932Y-87196842D01*
X168955990Y-86926589D01*
X168793475Y-86683368D01*
X168586632Y-86476525D01*
X168412240Y-86360000D01*
X168586632Y-86243475D01*
X168793475Y-86036632D01*
X168955990Y-85793411D01*
X169067932Y-85523158D01*
X169125000Y-85236260D01*
X169125000Y-84943740D01*
X169067932Y-84656842D01*
X168955990Y-84386589D01*
X168793475Y-84143368D01*
X168586632Y-83936525D01*
X168412240Y-83820000D01*
X168586632Y-83703475D01*
X168793475Y-83496632D01*
X168955990Y-83253411D01*
X169067932Y-82983158D01*
X169125000Y-82696260D01*
X169125000Y-82403740D01*
X169067932Y-82116842D01*
X168955990Y-81846589D01*
X168793475Y-81603368D01*
X168586632Y-81396525D01*
X168412240Y-81280000D01*
X168586632Y-81163475D01*
X168793475Y-80956632D01*
X168955990Y-80713411D01*
X169067932Y-80443158D01*
X169125000Y-80156260D01*
X169125000Y-79863740D01*
X169067932Y-79576842D01*
X168955990Y-79306589D01*
X168793475Y-79063368D01*
X168586632Y-78856525D01*
X168412240Y-78740000D01*
X168586632Y-78623475D01*
X168793475Y-78416632D01*
X168955990Y-78173411D01*
X169067932Y-77903158D01*
X169125000Y-77616260D01*
X169125000Y-77323740D01*
X169067932Y-77036842D01*
X168955990Y-76766589D01*
X168793475Y-76523368D01*
X168586632Y-76316525D01*
X168412240Y-76200000D01*
X168586632Y-76083475D01*
X168793475Y-75876632D01*
X168955990Y-75633411D01*
X169067932Y-75363158D01*
X169125000Y-75076260D01*
X169125000Y-74783740D01*
X169067932Y-74496842D01*
X168955990Y-74226589D01*
X168793475Y-73983368D01*
X168586632Y-73776525D01*
X168404466Y-73654805D01*
X168521355Y-73585178D01*
X168737588Y-73390269D01*
X168911641Y-73156920D01*
X169036825Y-72894099D01*
X169081476Y-72746890D01*
X168960155Y-72517000D01*
X167767000Y-72517000D01*
X167767000Y-72537000D01*
X167513000Y-72537000D01*
X167513000Y-72517000D01*
X167493000Y-72517000D01*
X167493000Y-72263000D01*
X167513000Y-72263000D01*
X167513000Y-72243000D01*
X167767000Y-72243000D01*
X167767000Y-72263000D01*
X168960155Y-72263000D01*
X169081476Y-72033110D01*
X169036825Y-71885901D01*
X168911641Y-71623080D01*
X168737588Y-71389731D01*
X168521355Y-71194822D01*
X168404466Y-71125195D01*
X168586632Y-71003475D01*
X168793475Y-70796632D01*
X168955990Y-70553411D01*
X169067932Y-70283158D01*
X169125000Y-69996260D01*
X169125000Y-69703740D01*
X169067932Y-69416842D01*
X168955990Y-69146589D01*
X168793475Y-68903368D01*
X168586632Y-68696525D01*
X168412240Y-68580000D01*
X168586632Y-68463475D01*
X168793475Y-68256632D01*
X168955990Y-68013411D01*
X169067932Y-67743158D01*
X169125000Y-67456260D01*
X169125000Y-67163740D01*
X169067932Y-66876842D01*
X168955990Y-66606589D01*
X168793475Y-66363368D01*
X168586632Y-66156525D01*
X168412240Y-66040000D01*
X168586632Y-65923475D01*
X168793475Y-65716632D01*
X168955990Y-65473411D01*
X169067932Y-65203158D01*
X169125000Y-64916260D01*
X169125000Y-64623740D01*
X169067932Y-64336842D01*
X168955990Y-64066589D01*
X168793475Y-63823368D01*
X168586632Y-63616525D01*
X168343411Y-63454010D01*
X168073158Y-63342068D01*
X167786260Y-63285000D01*
X167493740Y-63285000D01*
X167206842Y-63342068D01*
X166936589Y-63454010D01*
X166693368Y-63616525D01*
X166561513Y-63748380D01*
X166539502Y-63675820D01*
X166480537Y-63565506D01*
X166401185Y-63468815D01*
X166304494Y-63389463D01*
X166194180Y-63330498D01*
X166074482Y-63294188D01*
X165950000Y-63281928D01*
X164250000Y-63281928D01*
X164125518Y-63294188D01*
X164005820Y-63330498D01*
X163895506Y-63389463D01*
X163798815Y-63468815D01*
X163719463Y-63565506D01*
X163660498Y-63675820D01*
X163624188Y-63795518D01*
X163611928Y-63920000D01*
X163611928Y-64039864D01*
X163536985Y-64062598D01*
X163475364Y-64095535D01*
X163404607Y-64133355D01*
X163353735Y-64175105D01*
X163288578Y-64228578D01*
X163264721Y-64257648D01*
X160269654Y-67252716D01*
X160240578Y-67276578D01*
X160213149Y-67310001D01*
X160145355Y-67392608D01*
X160144043Y-67395063D01*
X160074598Y-67524986D01*
X160031026Y-67668623D01*
X160020000Y-67780574D01*
X160016314Y-67818000D01*
X160020000Y-67855423D01*
X160020001Y-70804369D01*
X155443654Y-75380716D01*
X155414578Y-75404578D01*
X155372588Y-75455744D01*
X155319355Y-75520608D01*
X155318768Y-75521707D01*
X155248598Y-75652986D01*
X155205026Y-75796623D01*
X155197146Y-75876632D01*
X155190314Y-75946000D01*
X155194000Y-75983423D01*
X155194001Y-78043368D01*
X140369999Y-92867371D01*
X140369999Y-82956061D01*
X141586000Y-82956061D01*
X141586000Y-83159939D01*
X141625774Y-83359898D01*
X141703795Y-83548256D01*
X141817063Y-83717774D01*
X141961226Y-83861937D01*
X142130744Y-83975205D01*
X142319102Y-84053226D01*
X142519061Y-84093000D01*
X142722939Y-84093000D01*
X142922898Y-84053226D01*
X143111256Y-83975205D01*
X143280774Y-83861937D01*
X143424937Y-83717774D01*
X143538205Y-83548256D01*
X143616226Y-83359898D01*
X143656000Y-83159939D01*
X143656000Y-82956061D01*
X143616226Y-82756102D01*
X143538205Y-82567744D01*
X143424937Y-82398226D01*
X143280774Y-82254063D01*
X143111256Y-82140795D01*
X142922898Y-82062774D01*
X142722939Y-82023000D01*
X142519061Y-82023000D01*
X142319102Y-82062774D01*
X142130744Y-82140795D01*
X141961226Y-82254063D01*
X141817063Y-82398226D01*
X141703795Y-82567744D01*
X141625774Y-82756102D01*
X141586000Y-82956061D01*
X140369999Y-82956061D01*
X140369999Y-80732958D01*
X140414102Y-80751226D01*
X140614061Y-80791000D01*
X140817939Y-80791000D01*
X141017898Y-80751226D01*
X141206256Y-80673205D01*
X141375774Y-80559937D01*
X141519937Y-80415774D01*
X141633205Y-80246256D01*
X141711226Y-80057898D01*
X141751000Y-79857939D01*
X141751000Y-79654061D01*
X141711226Y-79454102D01*
X141633205Y-79265744D01*
X141519937Y-79096226D01*
X141375774Y-78952063D01*
X141206256Y-78838795D01*
X141017898Y-78760774D01*
X140817939Y-78721000D01*
X140614061Y-78721000D01*
X140414102Y-78760774D01*
X140369999Y-78779042D01*
X140369999Y-77368061D01*
X141332002Y-77368061D01*
X141332002Y-77571939D01*
X141371776Y-77771898D01*
X141449797Y-77960256D01*
X141563065Y-78129774D01*
X141707228Y-78273937D01*
X141876746Y-78387205D01*
X142065104Y-78465226D01*
X142265063Y-78505000D01*
X142468941Y-78505000D01*
X142668900Y-78465226D01*
X142857258Y-78387205D01*
X143026776Y-78273937D01*
X143170939Y-78129774D01*
X143284207Y-77960256D01*
X143362228Y-77771898D01*
X143402002Y-77571939D01*
X143402002Y-77368061D01*
X143362228Y-77168102D01*
X143284207Y-76979744D01*
X143170939Y-76810226D01*
X143026776Y-76666063D01*
X142857258Y-76552795D01*
X142668900Y-76474774D01*
X142468941Y-76435000D01*
X142265063Y-76435000D01*
X142065104Y-76474774D01*
X141876746Y-76552795D01*
X141707228Y-76666063D01*
X141563065Y-76810226D01*
X141449797Y-76979744D01*
X141371776Y-77168102D01*
X141332002Y-77368061D01*
X140369999Y-77368061D01*
X140369999Y-75188841D01*
X142508779Y-73050061D01*
X143618000Y-73050061D01*
X143618000Y-73253939D01*
X143657774Y-73453898D01*
X143735795Y-73642256D01*
X143849063Y-73811774D01*
X143993226Y-73955937D01*
X144162744Y-74069205D01*
X144351102Y-74147226D01*
X144551061Y-74187000D01*
X144754939Y-74187000D01*
X144954898Y-74147226D01*
X145143256Y-74069205D01*
X145312774Y-73955937D01*
X145456937Y-73811774D01*
X145570205Y-73642256D01*
X145648226Y-73453898D01*
X145688000Y-73253939D01*
X145688000Y-73050061D01*
X145648226Y-72850102D01*
X145570205Y-72661744D01*
X145456937Y-72492226D01*
X145312774Y-72348063D01*
X145143256Y-72234795D01*
X144954898Y-72156774D01*
X144754939Y-72117000D01*
X144551061Y-72117000D01*
X144351102Y-72156774D01*
X144162744Y-72234795D01*
X143993226Y-72348063D01*
X143849063Y-72492226D01*
X143735795Y-72661744D01*
X143657774Y-72850102D01*
X143618000Y-73050061D01*
X142508779Y-73050061D01*
X143453797Y-72105044D01*
X143534774Y-72050937D01*
X143678937Y-71906774D01*
X143792205Y-71737256D01*
X143870226Y-71548898D01*
X143910000Y-71348939D01*
X143910000Y-71145061D01*
X143891000Y-71049541D01*
X143891000Y-69666459D01*
X143910000Y-69570939D01*
X143910000Y-69367061D01*
X143870226Y-69167102D01*
X143792205Y-68978744D01*
X143695490Y-68834000D01*
X143792205Y-68689256D01*
X143870226Y-68500898D01*
X143910000Y-68300939D01*
X143910000Y-68097061D01*
X143870226Y-67897102D01*
X143792205Y-67708744D01*
X143678937Y-67539226D01*
X143534774Y-67395063D01*
X143365256Y-67281795D01*
X143176898Y-67203774D01*
X142976939Y-67164000D01*
X142773061Y-67164000D01*
X142573102Y-67203774D01*
X142384744Y-67281795D01*
X142215226Y-67395063D01*
X142071063Y-67539226D01*
X141957795Y-67708744D01*
X141879774Y-67897102D01*
X141840000Y-68097061D01*
X141840000Y-68300939D01*
X141879774Y-68500898D01*
X141957795Y-68689256D01*
X142054510Y-68834000D01*
X141957795Y-68978744D01*
X141879774Y-69167102D01*
X141840000Y-69367061D01*
X141840000Y-69570939D01*
X141859000Y-69666460D01*
X141859001Y-70826158D01*
X139769974Y-72915186D01*
X139741937Y-72873226D01*
X139597774Y-72729063D01*
X139428256Y-72615795D01*
X139239898Y-72537774D01*
X139039939Y-72498000D01*
X138836061Y-72498000D01*
X138636102Y-72537774D01*
X138447744Y-72615795D01*
X138278226Y-72729063D01*
X138134063Y-72873226D01*
X138020795Y-73042744D01*
X137942774Y-73231102D01*
X137903000Y-73431061D01*
X137903000Y-73634939D01*
X137942774Y-73834898D01*
X138020795Y-74023256D01*
X138134063Y-74192774D01*
X138278226Y-74336937D01*
X138398639Y-74417394D01*
X138352953Y-74568000D01*
X138352701Y-74568831D01*
X138333084Y-74768001D01*
X138337999Y-74817903D01*
X138337999Y-76700398D01*
X138262860Y-76559821D01*
X138224590Y-76513189D01*
X138135896Y-76405115D01*
X138097133Y-76373303D01*
X136224701Y-74500872D01*
X136192885Y-74462104D01*
X136038179Y-74335140D01*
X135861676Y-74240798D01*
X135670160Y-74182702D01*
X135520891Y-74168000D01*
X135470989Y-74163085D01*
X135421087Y-74168000D01*
X134690459Y-74168000D01*
X134594939Y-74149000D01*
X134391061Y-74149000D01*
X134191102Y-74188774D01*
X134002744Y-74266795D01*
X133833226Y-74380063D01*
X133726072Y-74487217D01*
X133674797Y-74452956D01*
X132207000Y-72985160D01*
X132207000Y-69748061D01*
X133712000Y-69748061D01*
X133712000Y-69951939D01*
X133751774Y-70151898D01*
X133829795Y-70340256D01*
X133943063Y-70509774D01*
X134087226Y-70653937D01*
X134256744Y-70767205D01*
X134445102Y-70845226D01*
X134645061Y-70885000D01*
X134848939Y-70885000D01*
X135048898Y-70845226D01*
X135237256Y-70767205D01*
X135406774Y-70653937D01*
X135550937Y-70509774D01*
X135664205Y-70340256D01*
X135742226Y-70151898D01*
X135782000Y-69951939D01*
X135782000Y-69748061D01*
X135742226Y-69548102D01*
X135664205Y-69359744D01*
X135550937Y-69190226D01*
X135406774Y-69046063D01*
X135237256Y-68932795D01*
X135048898Y-68854774D01*
X134848939Y-68815000D01*
X134645061Y-68815000D01*
X134445102Y-68854774D01*
X134256744Y-68932795D01*
X134087226Y-69046063D01*
X133943063Y-69190226D01*
X133829795Y-69359744D01*
X133751774Y-69548102D01*
X133712000Y-69748061D01*
X132207000Y-69748061D01*
X132207000Y-62763061D01*
X135871000Y-62763061D01*
X135871000Y-62966939D01*
X135910774Y-63166898D01*
X135988795Y-63355256D01*
X136102063Y-63524774D01*
X136246226Y-63668937D01*
X136415744Y-63782205D01*
X136604102Y-63860226D01*
X136804061Y-63900000D01*
X137007939Y-63900000D01*
X137207898Y-63860226D01*
X137396256Y-63782205D01*
X137565774Y-63668937D01*
X137709937Y-63524774D01*
X137823205Y-63355256D01*
X137901226Y-63166898D01*
X137941000Y-62966939D01*
X137941000Y-62763061D01*
X137901226Y-62563102D01*
X137823205Y-62374744D01*
X137709937Y-62205226D01*
X137565774Y-62061063D01*
X137396256Y-61947795D01*
X137207898Y-61869774D01*
X137007939Y-61830000D01*
X136804061Y-61830000D01*
X136604102Y-61869774D01*
X136415744Y-61947795D01*
X136246226Y-62061063D01*
X136102063Y-62205226D01*
X135988795Y-62374744D01*
X135910774Y-62563102D01*
X135871000Y-62763061D01*
X132207000Y-62763061D01*
X132207000Y-61239061D01*
X142221000Y-61239061D01*
X142221000Y-61442939D01*
X142260774Y-61642898D01*
X142338795Y-61831256D01*
X142452063Y-62000774D01*
X142596226Y-62144937D01*
X142765744Y-62258205D01*
X142954102Y-62336226D01*
X143154061Y-62376000D01*
X143357939Y-62376000D01*
X143557898Y-62336226D01*
X143746256Y-62258205D01*
X143915774Y-62144937D01*
X144059937Y-62000774D01*
X144173205Y-61831256D01*
X144251226Y-61642898D01*
X144291000Y-61442939D01*
X144291000Y-61239061D01*
X144251226Y-61039102D01*
X144173205Y-60850744D01*
X144059937Y-60681226D01*
X143915774Y-60537063D01*
X143746256Y-60423795D01*
X143557898Y-60345774D01*
X143357939Y-60306000D01*
X143154061Y-60306000D01*
X142954102Y-60345774D01*
X142765744Y-60423795D01*
X142596226Y-60537063D01*
X142452063Y-60681226D01*
X142338795Y-60850744D01*
X142260774Y-61039102D01*
X142221000Y-61239061D01*
X132207000Y-61239061D01*
X132207000Y-60649459D01*
X132226000Y-60553939D01*
X132226000Y-60350061D01*
X132186226Y-60150102D01*
X132108205Y-59961744D01*
X131994937Y-59792226D01*
X131850774Y-59648063D01*
X131769797Y-59593956D01*
X128334902Y-56159061D01*
X138411000Y-56159061D01*
X138411000Y-56362939D01*
X138450774Y-56562898D01*
X138528795Y-56751256D01*
X138583080Y-56832500D01*
X138528795Y-56913744D01*
X138450774Y-57102102D01*
X138411000Y-57302061D01*
X138411000Y-57505939D01*
X138450774Y-57705898D01*
X138528795Y-57894256D01*
X138642063Y-58063774D01*
X138786226Y-58207937D01*
X138955744Y-58321205D01*
X139144102Y-58399226D01*
X139344061Y-58439000D01*
X139547939Y-58439000D01*
X139747898Y-58399226D01*
X139936256Y-58321205D01*
X140105774Y-58207937D01*
X140249937Y-58063774D01*
X140363205Y-57894256D01*
X140441226Y-57705898D01*
X140481000Y-57505939D01*
X140481000Y-57302061D01*
X140441226Y-57102102D01*
X140363205Y-56913744D01*
X140308920Y-56832500D01*
X140363205Y-56751256D01*
X140441226Y-56562898D01*
X140481000Y-56362939D01*
X140481000Y-56159061D01*
X140441226Y-55959102D01*
X140366236Y-55778061D01*
X152000000Y-55778061D01*
X152000000Y-55981939D01*
X152039774Y-56181898D01*
X152098842Y-56324500D01*
X152039774Y-56467102D01*
X152000000Y-56667061D01*
X152000000Y-56870939D01*
X152039774Y-57070898D01*
X152117795Y-57259256D01*
X152231063Y-57428774D01*
X152375226Y-57572937D01*
X152544744Y-57686205D01*
X152733102Y-57764226D01*
X152933061Y-57804000D01*
X153136939Y-57804000D01*
X153336898Y-57764226D01*
X153525256Y-57686205D01*
X153694774Y-57572937D01*
X153838937Y-57428774D01*
X153952205Y-57259256D01*
X154030226Y-57070898D01*
X154070000Y-56870939D01*
X154070000Y-56667061D01*
X154030226Y-56467102D01*
X153971158Y-56324500D01*
X154030226Y-56181898D01*
X154070000Y-55981939D01*
X154070000Y-55778061D01*
X154030226Y-55578102D01*
X153952205Y-55389744D01*
X153838937Y-55220226D01*
X153694774Y-55076063D01*
X153525256Y-54962795D01*
X153336898Y-54884774D01*
X153136939Y-54845000D01*
X152933061Y-54845000D01*
X152733102Y-54884774D01*
X152544744Y-54962795D01*
X152375226Y-55076063D01*
X152231063Y-55220226D01*
X152117795Y-55389744D01*
X152039774Y-55578102D01*
X152000000Y-55778061D01*
X140366236Y-55778061D01*
X140363205Y-55770744D01*
X140249937Y-55601226D01*
X140105774Y-55457063D01*
X139936256Y-55343795D01*
X139747898Y-55265774D01*
X139547939Y-55226000D01*
X139344061Y-55226000D01*
X139144102Y-55265774D01*
X138955744Y-55343795D01*
X138786226Y-55457063D01*
X138642063Y-55601226D01*
X138528795Y-55770744D01*
X138450774Y-55959102D01*
X138411000Y-56159061D01*
X128334902Y-56159061D01*
X126198072Y-54022232D01*
X126198072Y-53398639D01*
X163357591Y-53398639D01*
X163402511Y-53737439D01*
X163512664Y-54060966D01*
X163618662Y-54259274D01*
X163893288Y-54367107D01*
X164920395Y-53340000D01*
X163893288Y-52312893D01*
X163618662Y-52420726D01*
X163467784Y-52727384D01*
X163379631Y-53057585D01*
X163357591Y-53398639D01*
X126198072Y-53398639D01*
X126198072Y-52240000D01*
X126185812Y-52115518D01*
X126149502Y-51995820D01*
X126090537Y-51885506D01*
X126011185Y-51788815D01*
X125914494Y-51709463D01*
X125804180Y-51650498D01*
X125684482Y-51614188D01*
X125560000Y-51601928D01*
X125333916Y-51601928D01*
X125380450Y-51555394D01*
X125510134Y-51361308D01*
X125599461Y-51145652D01*
X125645000Y-50916712D01*
X125645000Y-50683288D01*
X125599461Y-50454348D01*
X125510134Y-50238692D01*
X125380450Y-50044606D01*
X125215394Y-49879550D01*
X125021308Y-49749866D01*
X124805652Y-49660539D01*
X124787860Y-49657000D01*
X131420532Y-49657000D01*
X131293226Y-49742063D01*
G36*
X163615000Y-75076260D02*
G01*
X163658321Y-75294048D01*
X160742650Y-78209720D01*
X160713580Y-78233577D01*
X160689723Y-78262647D01*
X160689722Y-78262648D01*
X160618356Y-78349607D01*
X160547600Y-78481984D01*
X160504028Y-78625621D01*
X160489315Y-78774999D01*
X160493002Y-78812432D01*
X160493001Y-80364368D01*
X143632649Y-97224721D01*
X143603579Y-97248578D01*
X143579722Y-97277648D01*
X143579721Y-97277649D01*
X143508355Y-97364608D01*
X143437599Y-97496985D01*
X143394027Y-97640622D01*
X143379314Y-97790000D01*
X143383001Y-97827433D01*
X143383000Y-113852289D01*
X143341063Y-113894226D01*
X143227795Y-114063744D01*
X143149774Y-114252102D01*
X143110000Y-114452061D01*
X143110000Y-114655939D01*
X143149774Y-114855898D01*
X143227795Y-115044256D01*
X143341063Y-115213774D01*
X143485226Y-115357937D01*
X143654744Y-115471205D01*
X143843102Y-115549226D01*
X144043061Y-115589000D01*
X144246939Y-115589000D01*
X144399000Y-115558753D01*
X144399000Y-116548574D01*
X144395314Y-116586000D01*
X144399000Y-116623423D01*
X144399000Y-116623425D01*
X144410026Y-116735377D01*
X144453598Y-116879014D01*
X144479774Y-116927985D01*
X144524355Y-117011392D01*
X144532732Y-117021599D01*
X144619578Y-117127422D01*
X144648654Y-117151284D01*
X146095174Y-118597804D01*
X146148795Y-118727256D01*
X146203080Y-118808500D01*
X146148795Y-118889744D01*
X146070774Y-119078102D01*
X146031000Y-119278061D01*
X146031000Y-119481939D01*
X146051083Y-119582904D01*
X140598581Y-114130403D01*
X140598581Y-114071094D01*
X140558807Y-113871135D01*
X140480786Y-113682777D01*
X140367518Y-113513259D01*
X140267445Y-113413186D01*
X142952356Y-110728274D01*
X142981432Y-110704412D01*
X143057203Y-110612085D01*
X143076655Y-110588383D01*
X143147411Y-110456006D01*
X143147412Y-110456005D01*
X143190984Y-110312368D01*
X143202010Y-110200416D01*
X143202010Y-110200413D01*
X143205696Y-110162990D01*
X143202010Y-110125567D01*
X143202010Y-97270620D01*
X159989353Y-80483278D01*
X160018423Y-80459421D01*
X160045773Y-80426095D01*
X160113646Y-80343392D01*
X160184402Y-80211015D01*
X160184403Y-80211014D01*
X160227975Y-80067377D01*
X160239001Y-79955425D01*
X160239001Y-79955422D01*
X160242687Y-79917999D01*
X160239001Y-79880576D01*
X160239001Y-78328629D01*
X163615000Y-74952631D01*
X163615000Y-75076260D01*
G37*
X163615000Y-75076260D02*
X163658321Y-75294048D01*
X160742650Y-78209720D01*
X160713580Y-78233577D01*
X160689723Y-78262647D01*
X160689722Y-78262648D01*
X160618356Y-78349607D01*
X160547600Y-78481984D01*
X160504028Y-78625621D01*
X160489315Y-78774999D01*
X160493002Y-78812432D01*
X160493001Y-80364368D01*
X143632649Y-97224721D01*
X143603579Y-97248578D01*
X143579722Y-97277648D01*
X143579721Y-97277649D01*
X143508355Y-97364608D01*
X143437599Y-97496985D01*
X143394027Y-97640622D01*
X143379314Y-97790000D01*
X143383001Y-97827433D01*
X143383000Y-113852289D01*
X143341063Y-113894226D01*
X143227795Y-114063744D01*
X143149774Y-114252102D01*
X143110000Y-114452061D01*
X143110000Y-114655939D01*
X143149774Y-114855898D01*
X143227795Y-115044256D01*
X143341063Y-115213774D01*
X143485226Y-115357937D01*
X143654744Y-115471205D01*
X143843102Y-115549226D01*
X144043061Y-115589000D01*
X144246939Y-115589000D01*
X144399000Y-115558753D01*
X144399000Y-116548574D01*
X144395314Y-116586000D01*
X144399000Y-116623423D01*
X144399000Y-116623425D01*
X144410026Y-116735377D01*
X144453598Y-116879014D01*
X144479774Y-116927985D01*
X144524355Y-117011392D01*
X144532732Y-117021599D01*
X144619578Y-117127422D01*
X144648654Y-117151284D01*
X146095174Y-118597804D01*
X146148795Y-118727256D01*
X146203080Y-118808500D01*
X146148795Y-118889744D01*
X146070774Y-119078102D01*
X146031000Y-119278061D01*
X146031000Y-119481939D01*
X146051083Y-119582904D01*
X140598581Y-114130403D01*
X140598581Y-114071094D01*
X140558807Y-113871135D01*
X140480786Y-113682777D01*
X140367518Y-113513259D01*
X140267445Y-113413186D01*
X142952356Y-110728274D01*
X142981432Y-110704412D01*
X143057203Y-110612085D01*
X143076655Y-110588383D01*
X143147411Y-110456006D01*
X143147412Y-110456005D01*
X143190984Y-110312368D01*
X143202010Y-110200416D01*
X143202010Y-110200413D01*
X143205696Y-110162990D01*
X143202010Y-110125567D01*
X143202010Y-97270620D01*
X159989353Y-80483278D01*
X160018423Y-80459421D01*
X160045773Y-80426095D01*
X160113646Y-80343392D01*
X160184402Y-80211015D01*
X160184403Y-80211014D01*
X160227975Y-80067377D01*
X160239001Y-79955425D01*
X160239001Y-79955422D01*
X160242687Y-79917999D01*
X160239001Y-79880576D01*
X160239001Y-78328629D01*
X163615000Y-74952631D01*
X163615000Y-75076260D01*
G36*
X125068945Y-97894074D02*
G01*
X125123052Y-97975051D01*
X125267215Y-98119214D01*
X125436733Y-98232482D01*
X125625091Y-98310503D01*
X125825050Y-98350277D01*
X126028928Y-98350277D01*
X126228887Y-98310503D01*
X126417245Y-98232482D01*
X126586763Y-98119214D01*
X126730926Y-97975051D01*
X126844194Y-97805533D01*
X126845512Y-97802352D01*
X128397000Y-99353841D01*
X128397001Y-108662088D01*
X128392085Y-108712000D01*
X128411702Y-108911170D01*
X128450418Y-109038798D01*
X128469799Y-109102687D01*
X128564141Y-109279190D01*
X128691105Y-109433896D01*
X128729868Y-109465708D01*
X132334000Y-113069841D01*
X132334001Y-116129773D01*
X132318243Y-116077826D01*
X132271307Y-115990015D01*
X132247486Y-115945448D01*
X132176120Y-115858489D01*
X132152263Y-115829419D01*
X132123194Y-115805563D01*
X123361679Y-107044049D01*
X123405000Y-106826260D01*
X123405000Y-106533740D01*
X123347932Y-106246842D01*
X123235990Y-105976589D01*
X123073475Y-105733368D01*
X122866632Y-105526525D01*
X122692240Y-105410000D01*
X122866632Y-105293475D01*
X123073475Y-105086632D01*
X123235990Y-104843411D01*
X123347932Y-104573158D01*
X123405000Y-104286260D01*
X123405000Y-103993740D01*
X123347932Y-103706842D01*
X123235990Y-103436589D01*
X123073475Y-103193368D01*
X122866632Y-102986525D01*
X122692240Y-102870000D01*
X122866632Y-102753475D01*
X123073475Y-102546632D01*
X123235990Y-102303411D01*
X123347932Y-102033158D01*
X123405000Y-101746260D01*
X123405000Y-101453740D01*
X123347932Y-101166842D01*
X123235990Y-100896589D01*
X123073475Y-100653368D01*
X122866632Y-100446525D01*
X122692240Y-100330000D01*
X122866632Y-100213475D01*
X123073475Y-100006632D01*
X123235990Y-99763411D01*
X123347932Y-99493158D01*
X123405000Y-99206260D01*
X123405000Y-98913740D01*
X123347932Y-98626842D01*
X123235990Y-98356589D01*
X123073475Y-98113368D01*
X122866632Y-97906525D01*
X122692240Y-97790000D01*
X122866632Y-97673475D01*
X123073475Y-97466632D01*
X123235990Y-97223411D01*
X123347932Y-96953158D01*
X123405000Y-96666260D01*
X123405000Y-96373740D01*
X123369340Y-96194469D01*
X125068945Y-97894074D01*
G37*
X125068945Y-97894074D02*
X125123052Y-97975051D01*
X125267215Y-98119214D01*
X125436733Y-98232482D01*
X125625091Y-98310503D01*
X125825050Y-98350277D01*
X126028928Y-98350277D01*
X126228887Y-98310503D01*
X126417245Y-98232482D01*
X126586763Y-98119214D01*
X126730926Y-97975051D01*
X126844194Y-97805533D01*
X126845512Y-97802352D01*
X128397000Y-99353841D01*
X128397001Y-108662088D01*
X128392085Y-108712000D01*
X128411702Y-108911170D01*
X128450418Y-109038798D01*
X128469799Y-109102687D01*
X128564141Y-109279190D01*
X128691105Y-109433896D01*
X128729868Y-109465708D01*
X132334000Y-113069841D01*
X132334001Y-116129773D01*
X132318243Y-116077826D01*
X132271307Y-115990015D01*
X132247486Y-115945448D01*
X132176120Y-115858489D01*
X132152263Y-115829419D01*
X132123194Y-115805563D01*
X123361679Y-107044049D01*
X123405000Y-106826260D01*
X123405000Y-106533740D01*
X123347932Y-106246842D01*
X123235990Y-105976589D01*
X123073475Y-105733368D01*
X122866632Y-105526525D01*
X122692240Y-105410000D01*
X122866632Y-105293475D01*
X123073475Y-105086632D01*
X123235990Y-104843411D01*
X123347932Y-104573158D01*
X123405000Y-104286260D01*
X123405000Y-103993740D01*
X123347932Y-103706842D01*
X123235990Y-103436589D01*
X123073475Y-103193368D01*
X122866632Y-102986525D01*
X122692240Y-102870000D01*
X122866632Y-102753475D01*
X123073475Y-102546632D01*
X123235990Y-102303411D01*
X123347932Y-102033158D01*
X123405000Y-101746260D01*
X123405000Y-101453740D01*
X123347932Y-101166842D01*
X123235990Y-100896589D01*
X123073475Y-100653368D01*
X122866632Y-100446525D01*
X122692240Y-100330000D01*
X122866632Y-100213475D01*
X123073475Y-100006632D01*
X123235990Y-99763411D01*
X123347932Y-99493158D01*
X123405000Y-99206260D01*
X123405000Y-98913740D01*
X123347932Y-98626842D01*
X123235990Y-98356589D01*
X123073475Y-98113368D01*
X122866632Y-97906525D01*
X122692240Y-97790000D01*
X122866632Y-97673475D01*
X123073475Y-97466632D01*
X123235990Y-97223411D01*
X123347932Y-96953158D01*
X123405000Y-96666260D01*
X123405000Y-96373740D01*
X123369340Y-96194469D01*
X125068945Y-97894074D01*
G36*
X138176001Y-109561158D02*
G01*
X136857872Y-110879288D01*
X136819104Y-110911104D01*
X136692140Y-111065810D01*
X136597798Y-111242314D01*
X136556350Y-111378949D01*
X136539702Y-111433830D01*
X136520085Y-111633000D01*
X136525000Y-111682902D01*
X136525000Y-115282110D01*
X136511187Y-115248762D01*
X136397919Y-115079244D01*
X136253756Y-114935081D01*
X136084238Y-114821813D01*
X135895880Y-114743792D01*
X135695921Y-114704018D01*
X135509000Y-114704018D01*
X135509000Y-111998959D01*
X138097133Y-109410827D01*
X138135896Y-109379015D01*
X138176001Y-109330147D01*
X138176001Y-109561158D01*
G37*
X138176001Y-109561158D02*
X136857872Y-110879288D01*
X136819104Y-110911104D01*
X136692140Y-111065810D01*
X136597798Y-111242314D01*
X136556350Y-111378949D01*
X136539702Y-111433830D01*
X136520085Y-111633000D01*
X136525000Y-111682902D01*
X136525000Y-115282110D01*
X136511187Y-115248762D01*
X136397919Y-115079244D01*
X136253756Y-114935081D01*
X136084238Y-114821813D01*
X135895880Y-114743792D01*
X135695921Y-114704018D01*
X135509000Y-114704018D01*
X135509000Y-111998959D01*
X138097133Y-109410827D01*
X138135896Y-109379015D01*
X138176001Y-109330147D01*
X138176001Y-109561158D01*
G36*
X119034348Y-49660539D02*
G01*
X118818692Y-49749866D01*
X118624606Y-49879550D01*
X118459550Y-50044606D01*
X118329866Y-50238692D01*
X118240539Y-50454348D01*
X118195000Y-50683288D01*
X118195000Y-50916712D01*
X118240539Y-51145652D01*
X118329866Y-51361308D01*
X118459550Y-51555394D01*
X118624606Y-51720450D01*
X118674952Y-51754090D01*
X118558169Y-51802463D01*
X118274002Y-51992337D01*
X118032337Y-52234002D01*
X117842463Y-52518169D01*
X117711675Y-52833919D01*
X117645000Y-53169117D01*
X117645000Y-53510883D01*
X117711675Y-53846081D01*
X117842463Y-54161831D01*
X118032337Y-54445998D01*
X118274002Y-54687663D01*
X118558169Y-54877537D01*
X118873919Y-55008325D01*
X119209117Y-55075000D01*
X119550883Y-55075000D01*
X119886081Y-55008325D01*
X120201831Y-54877537D01*
X120485998Y-54687663D01*
X120727663Y-54445998D01*
X120915469Y-54164926D01*
X121740395Y-53340000D01*
X120915469Y-52515074D01*
X120727663Y-52234002D01*
X120485998Y-51992337D01*
X120201831Y-51802463D01*
X120085048Y-51754090D01*
X120135394Y-51720450D01*
X120300450Y-51555394D01*
X120430134Y-51361308D01*
X120519461Y-51145652D01*
X120565000Y-50916712D01*
X120565000Y-50683288D01*
X120519461Y-50454348D01*
X120430134Y-50238692D01*
X120300450Y-50044606D01*
X120135394Y-49879550D01*
X119941308Y-49749866D01*
X119725652Y-49660539D01*
X119707860Y-49657000D01*
X121592140Y-49657000D01*
X121574348Y-49660539D01*
X121358692Y-49749866D01*
X121164606Y-49879550D01*
X120999550Y-50044606D01*
X120869866Y-50238692D01*
X120780539Y-50454348D01*
X120735000Y-50683288D01*
X120735000Y-50916712D01*
X120780539Y-51145652D01*
X120869866Y-51361308D01*
X120999550Y-51555394D01*
X121164606Y-51720450D01*
X121208165Y-51749555D01*
X121199034Y-51752664D01*
X121000726Y-51858662D01*
X120892893Y-52133288D01*
X121920000Y-53160395D01*
X121934143Y-53146253D01*
X122113748Y-53325858D01*
X122099605Y-53340000D01*
X122113748Y-53354143D01*
X121934143Y-53533748D01*
X121920000Y-53519605D01*
X120892893Y-54546712D01*
X121000726Y-54821338D01*
X121307384Y-54972216D01*
X121637585Y-55060369D01*
X121978639Y-55082409D01*
X122317439Y-55037489D01*
X122640966Y-54927336D01*
X122839274Y-54821338D01*
X122843228Y-54811267D01*
X122908815Y-54891185D01*
X123005506Y-54970537D01*
X123115820Y-55029502D01*
X123235518Y-55065812D01*
X123360000Y-55078072D01*
X124380232Y-55078072D01*
X130175001Y-60872842D01*
X130175000Y-73356098D01*
X130170085Y-73406000D01*
X130175000Y-73455901D01*
X130189702Y-73605170D01*
X130247798Y-73796686D01*
X130342140Y-73973190D01*
X130469104Y-74127896D01*
X130507872Y-74159712D01*
X132237956Y-75889797D01*
X132292063Y-75970774D01*
X132436226Y-76114937D01*
X132605744Y-76228205D01*
X132794102Y-76306226D01*
X132994061Y-76346000D01*
X133197939Y-76346000D01*
X133397898Y-76306226D01*
X133586256Y-76228205D01*
X133755774Y-76114937D01*
X133862928Y-76007783D01*
X134002744Y-76101205D01*
X134191102Y-76179226D01*
X134391061Y-76219000D01*
X134594939Y-76219000D01*
X134690459Y-76200000D01*
X135050149Y-76200000D01*
X136398000Y-77547852D01*
X136398001Y-108236277D01*
X133809872Y-110824407D01*
X133771104Y-110856223D01*
X133644140Y-111010929D01*
X133549798Y-111187433D01*
X133507509Y-111326842D01*
X133497541Y-111359700D01*
X130429000Y-108291160D01*
X130429000Y-108016065D01*
X133499000Y-108016065D01*
X133499000Y-108219943D01*
X133538774Y-108419902D01*
X133616795Y-108608260D01*
X133730063Y-108777778D01*
X133874226Y-108921941D01*
X134043744Y-109035209D01*
X134232102Y-109113230D01*
X134432061Y-109153004D01*
X134635939Y-109153004D01*
X134835898Y-109113230D01*
X135024256Y-109035209D01*
X135193774Y-108921941D01*
X135337937Y-108777778D01*
X135451205Y-108608260D01*
X135529226Y-108419902D01*
X135569000Y-108219943D01*
X135569000Y-108016065D01*
X135529226Y-107816106D01*
X135451205Y-107627748D01*
X135337937Y-107458230D01*
X135193774Y-107314067D01*
X135024256Y-107200799D01*
X134835898Y-107122778D01*
X134635939Y-107083004D01*
X134432061Y-107083004D01*
X134232102Y-107122778D01*
X134043744Y-107200799D01*
X133874226Y-107314067D01*
X133730063Y-107458230D01*
X133616795Y-107627748D01*
X133538774Y-107816106D01*
X133499000Y-108016065D01*
X130429000Y-108016065D01*
X130429000Y-98982902D01*
X130433915Y-98933000D01*
X130414298Y-98733829D01*
X130356202Y-98542313D01*
X130261860Y-98365810D01*
X130134896Y-98211104D01*
X130096133Y-98179292D01*
X126746000Y-94829160D01*
X126746000Y-82829061D01*
X130537000Y-82829061D01*
X130537000Y-83032939D01*
X130576774Y-83232898D01*
X130654795Y-83421256D01*
X130768063Y-83590774D01*
X130912226Y-83734937D01*
X131081744Y-83848205D01*
X131270102Y-83926226D01*
X131470061Y-83966000D01*
X131673939Y-83966000D01*
X131873898Y-83926226D01*
X132062256Y-83848205D01*
X132231774Y-83734937D01*
X132375937Y-83590774D01*
X132489205Y-83421256D01*
X132567226Y-83232898D01*
X132607000Y-83032939D01*
X132607000Y-82829061D01*
X132567226Y-82629102D01*
X132489205Y-82440744D01*
X132375937Y-82271226D01*
X132231774Y-82127063D01*
X132062256Y-82013795D01*
X131873898Y-81935774D01*
X131673939Y-81896000D01*
X131470061Y-81896000D01*
X131270102Y-81935774D01*
X131081744Y-82013795D01*
X130912226Y-82127063D01*
X130768063Y-82271226D01*
X130654795Y-82440744D01*
X130576774Y-82629102D01*
X130537000Y-82829061D01*
X126746000Y-82829061D01*
X126746000Y-82517722D01*
X126813126Y-82450596D01*
X126851895Y-82418779D01*
X126978859Y-82264073D01*
X127073201Y-82087570D01*
X127131297Y-81896054D01*
X127145999Y-81746785D01*
X127150914Y-81696884D01*
X127145999Y-81646982D01*
X127145999Y-80416061D01*
X128124000Y-80416061D01*
X128124000Y-80619939D01*
X128163774Y-80819898D01*
X128241795Y-81008256D01*
X128355063Y-81177774D01*
X128499226Y-81321937D01*
X128668744Y-81435205D01*
X128857102Y-81513226D01*
X129057061Y-81553000D01*
X129260939Y-81553000D01*
X129460898Y-81513226D01*
X129649256Y-81435205D01*
X129818774Y-81321937D01*
X129962937Y-81177774D01*
X130076205Y-81008256D01*
X130154226Y-80819898D01*
X130194000Y-80619939D01*
X130194000Y-80416061D01*
X130154226Y-80216102D01*
X130076205Y-80027744D01*
X129962937Y-79858226D01*
X129818774Y-79714063D01*
X129649256Y-79600795D01*
X129460898Y-79522774D01*
X129260939Y-79483000D01*
X129057061Y-79483000D01*
X128857102Y-79522774D01*
X128668744Y-79600795D01*
X128499226Y-79714063D01*
X128355063Y-79858226D01*
X128241795Y-80027744D01*
X128163774Y-80216102D01*
X128124000Y-80416061D01*
X127145999Y-80416061D01*
X127145999Y-76863725D01*
X127333102Y-76941226D01*
X127533061Y-76981000D01*
X127736939Y-76981000D01*
X127936898Y-76941226D01*
X128125256Y-76863205D01*
X128294774Y-76749937D01*
X128438937Y-76605774D01*
X128552205Y-76436256D01*
X128630226Y-76247898D01*
X128670000Y-76047939D01*
X128670000Y-75844061D01*
X128630226Y-75644102D01*
X128552205Y-75455744D01*
X128438937Y-75286226D01*
X128294774Y-75142063D01*
X128213797Y-75087956D01*
X117650134Y-64524294D01*
X117602000Y-64476160D01*
X117602000Y-62046459D01*
X117621000Y-61950939D01*
X117621000Y-61747061D01*
X117581226Y-61547102D01*
X117503205Y-61358744D01*
X117389937Y-61189226D01*
X117245774Y-61045063D01*
X117076256Y-60931795D01*
X116887898Y-60853774D01*
X116687939Y-60814000D01*
X116484061Y-60814000D01*
X116284102Y-60853774D01*
X116095744Y-60931795D01*
X115926226Y-61045063D01*
X115782063Y-61189226D01*
X115697000Y-61316532D01*
X115697000Y-49657000D01*
X119052140Y-49657000D01*
X119034348Y-49660539D01*
G37*
X119034348Y-49660539D02*
X118818692Y-49749866D01*
X118624606Y-49879550D01*
X118459550Y-50044606D01*
X118329866Y-50238692D01*
X118240539Y-50454348D01*
X118195000Y-50683288D01*
X118195000Y-50916712D01*
X118240539Y-51145652D01*
X118329866Y-51361308D01*
X118459550Y-51555394D01*
X118624606Y-51720450D01*
X118674952Y-51754090D01*
X118558169Y-51802463D01*
X118274002Y-51992337D01*
X118032337Y-52234002D01*
X117842463Y-52518169D01*
X117711675Y-52833919D01*
X117645000Y-53169117D01*
X117645000Y-53510883D01*
X117711675Y-53846081D01*
X117842463Y-54161831D01*
X118032337Y-54445998D01*
X118274002Y-54687663D01*
X118558169Y-54877537D01*
X118873919Y-55008325D01*
X119209117Y-55075000D01*
X119550883Y-55075000D01*
X119886081Y-55008325D01*
X120201831Y-54877537D01*
X120485998Y-54687663D01*
X120727663Y-54445998D01*
X120915469Y-54164926D01*
X121740395Y-53340000D01*
X120915469Y-52515074D01*
X120727663Y-52234002D01*
X120485998Y-51992337D01*
X120201831Y-51802463D01*
X120085048Y-51754090D01*
X120135394Y-51720450D01*
X120300450Y-51555394D01*
X120430134Y-51361308D01*
X120519461Y-51145652D01*
X120565000Y-50916712D01*
X120565000Y-50683288D01*
X120519461Y-50454348D01*
X120430134Y-50238692D01*
X120300450Y-50044606D01*
X120135394Y-49879550D01*
X119941308Y-49749866D01*
X119725652Y-49660539D01*
X119707860Y-49657000D01*
X121592140Y-49657000D01*
X121574348Y-49660539D01*
X121358692Y-49749866D01*
X121164606Y-49879550D01*
X120999550Y-50044606D01*
X120869866Y-50238692D01*
X120780539Y-50454348D01*
X120735000Y-50683288D01*
X120735000Y-50916712D01*
X120780539Y-51145652D01*
X120869866Y-51361308D01*
X120999550Y-51555394D01*
X121164606Y-51720450D01*
X121208165Y-51749555D01*
X121199034Y-51752664D01*
X121000726Y-51858662D01*
X120892893Y-52133288D01*
X121920000Y-53160395D01*
X121934143Y-53146253D01*
X122113748Y-53325858D01*
X122099605Y-53340000D01*
X122113748Y-53354143D01*
X121934143Y-53533748D01*
X121920000Y-53519605D01*
X120892893Y-54546712D01*
X121000726Y-54821338D01*
X121307384Y-54972216D01*
X121637585Y-55060369D01*
X121978639Y-55082409D01*
X122317439Y-55037489D01*
X122640966Y-54927336D01*
X122839274Y-54821338D01*
X122843228Y-54811267D01*
X122908815Y-54891185D01*
X123005506Y-54970537D01*
X123115820Y-55029502D01*
X123235518Y-55065812D01*
X123360000Y-55078072D01*
X124380232Y-55078072D01*
X130175001Y-60872842D01*
X130175000Y-73356098D01*
X130170085Y-73406000D01*
X130175000Y-73455901D01*
X130189702Y-73605170D01*
X130247798Y-73796686D01*
X130342140Y-73973190D01*
X130469104Y-74127896D01*
X130507872Y-74159712D01*
X132237956Y-75889797D01*
X132292063Y-75970774D01*
X132436226Y-76114937D01*
X132605744Y-76228205D01*
X132794102Y-76306226D01*
X132994061Y-76346000D01*
X133197939Y-76346000D01*
X133397898Y-76306226D01*
X133586256Y-76228205D01*
X133755774Y-76114937D01*
X133862928Y-76007783D01*
X134002744Y-76101205D01*
X134191102Y-76179226D01*
X134391061Y-76219000D01*
X134594939Y-76219000D01*
X134690459Y-76200000D01*
X135050149Y-76200000D01*
X136398000Y-77547852D01*
X136398001Y-108236277D01*
X133809872Y-110824407D01*
X133771104Y-110856223D01*
X133644140Y-111010929D01*
X133549798Y-111187433D01*
X133507509Y-111326842D01*
X133497541Y-111359700D01*
X130429000Y-108291160D01*
X130429000Y-108016065D01*
X133499000Y-108016065D01*
X133499000Y-108219943D01*
X133538774Y-108419902D01*
X133616795Y-108608260D01*
X133730063Y-108777778D01*
X133874226Y-108921941D01*
X134043744Y-109035209D01*
X134232102Y-109113230D01*
X134432061Y-109153004D01*
X134635939Y-109153004D01*
X134835898Y-109113230D01*
X135024256Y-109035209D01*
X135193774Y-108921941D01*
X135337937Y-108777778D01*
X135451205Y-108608260D01*
X135529226Y-108419902D01*
X135569000Y-108219943D01*
X135569000Y-108016065D01*
X135529226Y-107816106D01*
X135451205Y-107627748D01*
X135337937Y-107458230D01*
X135193774Y-107314067D01*
X135024256Y-107200799D01*
X134835898Y-107122778D01*
X134635939Y-107083004D01*
X134432061Y-107083004D01*
X134232102Y-107122778D01*
X134043744Y-107200799D01*
X133874226Y-107314067D01*
X133730063Y-107458230D01*
X133616795Y-107627748D01*
X133538774Y-107816106D01*
X133499000Y-108016065D01*
X130429000Y-108016065D01*
X130429000Y-98982902D01*
X130433915Y-98933000D01*
X130414298Y-98733829D01*
X130356202Y-98542313D01*
X130261860Y-98365810D01*
X130134896Y-98211104D01*
X130096133Y-98179292D01*
X126746000Y-94829160D01*
X126746000Y-82829061D01*
X130537000Y-82829061D01*
X130537000Y-83032939D01*
X130576774Y-83232898D01*
X130654795Y-83421256D01*
X130768063Y-83590774D01*
X130912226Y-83734937D01*
X131081744Y-83848205D01*
X131270102Y-83926226D01*
X131470061Y-83966000D01*
X131673939Y-83966000D01*
X131873898Y-83926226D01*
X132062256Y-83848205D01*
X132231774Y-83734937D01*
X132375937Y-83590774D01*
X132489205Y-83421256D01*
X132567226Y-83232898D01*
X132607000Y-83032939D01*
X132607000Y-82829061D01*
X132567226Y-82629102D01*
X132489205Y-82440744D01*
X132375937Y-82271226D01*
X132231774Y-82127063D01*
X132062256Y-82013795D01*
X131873898Y-81935774D01*
X131673939Y-81896000D01*
X131470061Y-81896000D01*
X131270102Y-81935774D01*
X131081744Y-82013795D01*
X130912226Y-82127063D01*
X130768063Y-82271226D01*
X130654795Y-82440744D01*
X130576774Y-82629102D01*
X130537000Y-82829061D01*
X126746000Y-82829061D01*
X126746000Y-82517722D01*
X126813126Y-82450596D01*
X126851895Y-82418779D01*
X126978859Y-82264073D01*
X127073201Y-82087570D01*
X127131297Y-81896054D01*
X127145999Y-81746785D01*
X127150914Y-81696884D01*
X127145999Y-81646982D01*
X127145999Y-80416061D01*
X128124000Y-80416061D01*
X128124000Y-80619939D01*
X128163774Y-80819898D01*
X128241795Y-81008256D01*
X128355063Y-81177774D01*
X128499226Y-81321937D01*
X128668744Y-81435205D01*
X128857102Y-81513226D01*
X129057061Y-81553000D01*
X129260939Y-81553000D01*
X129460898Y-81513226D01*
X129649256Y-81435205D01*
X129818774Y-81321937D01*
X129962937Y-81177774D01*
X130076205Y-81008256D01*
X130154226Y-80819898D01*
X130194000Y-80619939D01*
X130194000Y-80416061D01*
X130154226Y-80216102D01*
X130076205Y-80027744D01*
X129962937Y-79858226D01*
X129818774Y-79714063D01*
X129649256Y-79600795D01*
X129460898Y-79522774D01*
X129260939Y-79483000D01*
X129057061Y-79483000D01*
X128857102Y-79522774D01*
X128668744Y-79600795D01*
X128499226Y-79714063D01*
X128355063Y-79858226D01*
X128241795Y-80027744D01*
X128163774Y-80216102D01*
X128124000Y-80416061D01*
X127145999Y-80416061D01*
X127145999Y-76863725D01*
X127333102Y-76941226D01*
X127533061Y-76981000D01*
X127736939Y-76981000D01*
X127936898Y-76941226D01*
X128125256Y-76863205D01*
X128294774Y-76749937D01*
X128438937Y-76605774D01*
X128552205Y-76436256D01*
X128630226Y-76247898D01*
X128670000Y-76047939D01*
X128670000Y-75844061D01*
X128630226Y-75644102D01*
X128552205Y-75455744D01*
X128438937Y-75286226D01*
X128294774Y-75142063D01*
X128213797Y-75087956D01*
X117650134Y-64524294D01*
X117602000Y-64476160D01*
X117602000Y-62046459D01*
X117621000Y-61950939D01*
X117621000Y-61747061D01*
X117581226Y-61547102D01*
X117503205Y-61358744D01*
X117389937Y-61189226D01*
X117245774Y-61045063D01*
X117076256Y-60931795D01*
X116887898Y-60853774D01*
X116687939Y-60814000D01*
X116484061Y-60814000D01*
X116284102Y-60853774D01*
X116095744Y-60931795D01*
X115926226Y-61045063D01*
X115782063Y-61189226D01*
X115697000Y-61316532D01*
X115697000Y-49657000D01*
X119052140Y-49657000D01*
X119034348Y-49660539D01*
G36*
X122047000Y-109093000D02*
G01*
X122067000Y-109093000D01*
X122067000Y-109347000D01*
X122047000Y-109347000D01*
X122047000Y-109367000D01*
X121793000Y-109367000D01*
X121793000Y-109347000D01*
X121773000Y-109347000D01*
X121773000Y-109093000D01*
X121793000Y-109093000D01*
X121793000Y-109073000D01*
X122047000Y-109073000D01*
X122047000Y-109093000D01*
G37*
X122047000Y-109093000D02*
X122067000Y-109093000D01*
X122067000Y-109347000D01*
X122047000Y-109347000D01*
X122047000Y-109367000D01*
X121793000Y-109367000D01*
X121793000Y-109347000D01*
X121773000Y-109347000D01*
X121773000Y-109093000D01*
X121793000Y-109093000D01*
X121793000Y-109073000D01*
X122047000Y-109073000D01*
X122047000Y-109093000D01*
G36*
X158715001Y-78050423D02*
G01*
X158715002Y-79602367D01*
X142748000Y-95569370D01*
X142748000Y-94041630D01*
X158535351Y-78254280D01*
X158564421Y-78230423D01*
X158613631Y-78170460D01*
X158659643Y-78114394D01*
X158710592Y-78019076D01*
X158711795Y-78017873D01*
X158715001Y-78050423D01*
G37*
X158715001Y-78050423D02*
X158715002Y-79602367D01*
X142748000Y-95569370D01*
X142748000Y-94041630D01*
X158535351Y-78254280D01*
X158564421Y-78230423D01*
X158613631Y-78170460D01*
X158659643Y-78114394D01*
X158710592Y-78019076D01*
X158711795Y-78017873D01*
X158715001Y-78050423D01*
G36*
X119507000Y-86233000D02*
G01*
X119527000Y-86233000D01*
X119527000Y-86487000D01*
X119507000Y-86487000D01*
X119507000Y-88773000D01*
X119527000Y-88773000D01*
X119527000Y-89027000D01*
X119507000Y-89027000D01*
X119507000Y-89047000D01*
X119253000Y-89047000D01*
X119253000Y-89027000D01*
X119233000Y-89027000D01*
X119233000Y-88773000D01*
X119253000Y-88773000D01*
X119253000Y-86487000D01*
X119233000Y-86487000D01*
X119233000Y-86233000D01*
X119253000Y-86233000D01*
X119253000Y-86213000D01*
X119507000Y-86213000D01*
X119507000Y-86233000D01*
G37*
X119507000Y-86233000D02*
X119527000Y-86233000D01*
X119527000Y-86487000D01*
X119507000Y-86487000D01*
X119507000Y-88773000D01*
X119527000Y-88773000D01*
X119527000Y-89027000D01*
X119507000Y-89027000D01*
X119507000Y-89047000D01*
X119253000Y-89047000D01*
X119253000Y-89027000D01*
X119233000Y-89027000D01*
X119233000Y-88773000D01*
X119253000Y-88773000D01*
X119253000Y-86487000D01*
X119233000Y-86487000D01*
X119233000Y-86233000D01*
X119253000Y-86233000D01*
X119253000Y-86213000D01*
X119507000Y-86213000D01*
X119507000Y-86233000D01*
%TD*%
M02*
